<?xml version="1.0" encoding="UTF-8" standalone="no"?><svg xmlns="http://www.w3.org/2000/svg" xmlns:xlink="http://www.w3.org/1999/xlink" contentScriptType="application/ecmascript" contentStyleType="text/css" height="740px" preserveAspectRatio="none" style="width:1330px;height:740px;" version="1.1" viewBox="0 0 1330 740" width="1330px" zoomAndPan="magnify"><defs><filter height="300%" id="f1s8sihw87udhy" width="300%" x="-1" y="-1"><feGaussianBlur result="blurOut" stdDeviation="2.0"/><feColorMatrix in="blurOut" result="blurOut2" type="matrix" values="0 0 0 0 0 0 0 0 0 0 0 0 0 0 0 0 0 0 .4 0"/><feOffset dx="4.0" dy="4.0" in="blurOut2" result="blurOut3"/><feBlend in="SourceGraphic" in2="blurOut3" mode="normal"/></filter></defs><g><text fill="#000000" font-family="sans-serif" font-size="18" lengthAdjust="spacingAndGlyphs" textLength="300" x="514.3125" y="26.708">Aggregate Component Conditions</text><ellipse cx="541.5" cy="40.9531" fill="#000000" filter="url(#f1s8sihw87udhy)" rx="10" ry="10" style="stroke: none; stroke-width: 1.0;"/><rect fill="#00FF7F" filter="url(#f1s8sihw87udhy)" height="33.9688" style="stroke: #A80036; stroke-width: 1.5;" width="229" x="427" y="70.9531"/><text fill="#000000" font-family="sans-serif" font-size="12" lengthAdjust="spacingAndGlyphs" textLength="21" x="437" y="92.0918">Set</text><text fill="#000000" font-family="sans-serif" font-size="12" font-weight="bold" lengthAdjust="spacingAndGlyphs" textLength="184" x="462" y="92.0918">ReconcileComplete = True</text><polygon fill="#FEFECE" filter="url(#f1s8sihw87udhy)" points="460,124.9219,623,124.9219,635,136.9219,623,148.9219,460,148.9219,448,136.9219,460,124.9219" style="stroke: #A80036; stroke-width: 1.5;"/><text fill="#000000" font-family="sans-serif" font-size="11" lengthAdjust="spacingAndGlyphs" textLength="163" x="460" y="140.73">(1) [Degraded = True] Exists</text><text fill="#000000" font-family="sans-serif" font-size="11" lengthAdjust="spacingAndGlyphs" textLength="14" x="635" y="134.3276">no</text><polygon fill="#FF4500" filter="url(#f1s8sihw87udhy)" points="163,158.9219,297,158.9219,287,206.8594,153,206.8594" style="stroke: #A80036; stroke-width: 1.5;"/><text fill="#000000" font-family="sans-serif" font-size="12" lengthAdjust="spacingAndGlyphs" textLength="83" x="163" y="180.0605">&lt;&lt;implicit&gt;&gt;</text><text fill="#000000" font-family="sans-serif" font-size="12" font-weight="bold" lengthAdjust="spacingAndGlyphs" textLength="120" x="163" y="194.0293">Degraded = True</text><text fill="#000000" font-family="sans-serif" font-size="12" lengthAdjust="spacingAndGlyphs" textLength="0" x="287" y="194.0293"/><polygon fill="#FEFECE" filter="url(#f1s8sihw87udhy)" points="136.5,253.6328,313.5,253.6328,325.5,265.6328,313.5,277.6328,136.5,277.6328,124.5,265.6328,136.5,253.6328" style="stroke: #A80036; stroke-width: 1.5;"/><text fill="#000000" font-family="sans-serif" font-size="11" lengthAdjust="spacingAndGlyphs" textLength="177" x="136.5" y="269.4409">(2) [Progressing = True] Exists</text><text fill="#000000" font-family="sans-serif" font-size="11" lengthAdjust="spacingAndGlyphs" textLength="14" x="110.5" y="263.0386">no</text><text fill="#000000" font-family="sans-serif" font-size="11" lengthAdjust="spacingAndGlyphs" textLength="20" x="325.5" y="263.0386">yes</text><rect fill="#00FF7F" filter="url(#f1s8sihw87udhy)" height="33.9688" style="stroke: #A80036; stroke-width: 1.5;" width="209" x="10" y="287.6328"/><text fill="#000000" font-family="sans-serif" font-size="12" lengthAdjust="spacingAndGlyphs" textLength="43" x="20" y="308.7715">(3) Set</text><text fill="#000000" font-family="sans-serif" font-size="12" font-weight="bold" lengthAdjust="spacingAndGlyphs" textLength="142" x="67" y="308.7715">Progressing = False</text><polygon fill="#FF4500" filter="url(#f1s8sihw87udhy)" points="265.5,287.6328,415.5,287.6328,405.5,335.5703,255.5,335.5703" style="stroke: #A80036; stroke-width: 1.5;"/><text fill="#000000" font-family="sans-serif" font-size="12" lengthAdjust="spacingAndGlyphs" textLength="83" x="265.5" y="308.7715">&lt;&lt;implicit&gt;&gt;</text><text fill="#000000" font-family="sans-serif" font-size="12" font-weight="bold" lengthAdjust="spacingAndGlyphs" textLength="136" x="265.5" y="322.7402">Progressing = True</text><text fill="#000000" font-family="sans-serif" font-size="12" lengthAdjust="spacingAndGlyphs" textLength="0" x="405.5" y="322.7402"/><polygon fill="#FEFECE" filter="url(#f1s8sihw87udhy)" points="225,341.5703,237,353.5703,225,365.5703,213,353.5703,225,341.5703" style="stroke: #A80036; stroke-width: 1.5;"/><polygon fill="#FEFECE" filter="url(#f1s8sihw87udhy)" points="136.5,400.5703,313.5,400.5703,325.5,412.5703,313.5,424.5703,136.5,424.5703,124.5,412.5703,136.5,400.5703" style="stroke: #A80036; stroke-width: 1.5;"/><text fill="#000000" font-family="sans-serif" font-size="11" lengthAdjust="spacingAndGlyphs" textLength="177" x="136.5" y="416.3784">(4) [Upgradable = False] Exists</text><text fill="#000000" font-family="sans-serif" font-size="11" lengthAdjust="spacingAndGlyphs" textLength="14" x="110.5" y="409.9761">no</text><text fill="#000000" font-family="sans-serif" font-size="11" lengthAdjust="spacingAndGlyphs" textLength="20" x="325.5" y="409.9761">yes</text><rect fill="#FF4500" filter="url(#f1s8sihw87udhy)" height="33.9688" style="stroke: #A80036; stroke-width: 1.5;" width="206" x="11.5" y="434.5703"/><text fill="#000000" font-family="sans-serif" font-size="12" lengthAdjust="spacingAndGlyphs" textLength="43" x="21.5" y="455.709">(5) Set</text><text fill="#000000" font-family="sans-serif" font-size="12" font-weight="bold" lengthAdjust="spacingAndGlyphs" textLength="139" x="68.5" y="455.709">Upgradable = False</text><polygon fill="#FF4500" filter="url(#f1s8sihw87udhy)" points="264,434.5703,417,434.5703,407,482.5078,254,482.5078" style="stroke: #A80036; stroke-width: 1.5;"/><text fill="#000000" font-family="sans-serif" font-size="12" lengthAdjust="spacingAndGlyphs" textLength="83" x="264" y="455.709">&lt;&lt;implicit&gt;&gt;</text><text fill="#000000" font-family="sans-serif" font-size="12" font-weight="bold" lengthAdjust="spacingAndGlyphs" textLength="139" x="264" y="469.6777">Upgradable = False</text><text fill="#000000" font-family="sans-serif" font-size="12" lengthAdjust="spacingAndGlyphs" textLength="0" x="407" y="469.6777"/><polygon fill="#FEFECE" filter="url(#f1s8sihw87udhy)" points="225,488.5078,237,500.5078,225,512.5078,213,500.5078,225,488.5078" style="stroke: #A80036; stroke-width: 1.5;"/><polygon fill="#FEFECE" filter="url(#f1s8sihw87udhy)" points="144,547.5078,306,547.5078,318,559.5078,306,571.5078,144,571.5078,132,559.5078,144,547.5078" style="stroke: #A80036; stroke-width: 1.5;"/><text fill="#000000" font-family="sans-serif" font-size="11" lengthAdjust="spacingAndGlyphs" textLength="162" x="144" y="563.3159">(6) [Available = False] Exists</text><text fill="#000000" font-family="sans-serif" font-size="11" lengthAdjust="spacingAndGlyphs" textLength="14" x="118" y="556.9136">no</text><text fill="#000000" font-family="sans-serif" font-size="11" lengthAdjust="spacingAndGlyphs" textLength="20" x="318" y="556.9136">yes</text><rect fill="#FF4500" filter="url(#f1s8sihw87udhy)" height="33.9688" style="stroke: #A80036; stroke-width: 1.5;" width="187" x="28.5" y="581.5078"/><text fill="#000000" font-family="sans-serif" font-size="12" lengthAdjust="spacingAndGlyphs" textLength="43" x="38.5" y="602.6465">(7) Set</text><text fill="#000000" font-family="sans-serif" font-size="12" font-weight="bold" lengthAdjust="spacingAndGlyphs" textLength="120" x="85.5" y="602.6465">Available = False</text><polygon fill="#FF4500" filter="url(#f1s8sihw87udhy)" points="266,581.5078,400,581.5078,390,629.4453,256,629.4453" style="stroke: #A80036; stroke-width: 1.5;"/><text fill="#000000" font-family="sans-serif" font-size="12" lengthAdjust="spacingAndGlyphs" textLength="83" x="266" y="602.6465">&lt;&lt;implicit&gt;&gt;</text><text fill="#000000" font-family="sans-serif" font-size="12" font-weight="bold" lengthAdjust="spacingAndGlyphs" textLength="120" x="266" y="616.6152">Available = False</text><text fill="#000000" font-family="sans-serif" font-size="12" lengthAdjust="spacingAndGlyphs" textLength="0" x="390" y="616.6152"/><polygon fill="#FEFECE" filter="url(#f1s8sihw87udhy)" points="225,635.4453,237,647.4453,225,659.4453,213,647.4453,225,635.4453" style="stroke: #A80036; stroke-width: 1.5;"/><rect fill="#00FF7F" filter="url(#f1s8sihw87udhy)" height="33.9688" style="stroke: #A80036; stroke-width: 1.5;" width="193" x="789.875" y="158.9219"/><text fill="#000000" font-family="sans-serif" font-size="12" lengthAdjust="spacingAndGlyphs" textLength="43" x="799.875" y="180.0605">(8) Set</text><text fill="#000000" font-family="sans-serif" font-size="12" font-weight="bold" lengthAdjust="spacingAndGlyphs" textLength="126" x="846.875" y="180.0605">Degraded = False</text><polygon fill="#FEFECE" filter="url(#f1s8sihw87udhy)" points="797.875,226.8594,974.875,226.8594,986.875,238.8594,974.875,250.8594,797.875,250.8594,785.875,238.8594,797.875,226.8594" style="stroke: #A80036; stroke-width: 1.5;"/><text fill="#000000" font-family="sans-serif" font-size="11" lengthAdjust="spacingAndGlyphs" textLength="177" x="797.875" y="242.6675">(9) [Progressing = True] Exists</text><text fill="#000000" font-family="sans-serif" font-size="11" lengthAdjust="spacingAndGlyphs" textLength="20" x="765.875" y="236.2651">yes</text><text fill="#000000" font-family="sans-serif" font-size="11" lengthAdjust="spacingAndGlyphs" textLength="14" x="986.875" y="236.2651">no</text><polygon fill="#FF4500" filter="url(#f1s8sihw87udhy)" points="589.625,260.8594,739.625,260.8594,729.625,308.7969,579.625,308.7969" style="stroke: #A80036; stroke-width: 1.5;"/><text fill="#000000" font-family="sans-serif" font-size="12" lengthAdjust="spacingAndGlyphs" textLength="83" x="589.625" y="281.998">&lt;&lt;implicit&gt;&gt;</text><text fill="#000000" font-family="sans-serif" font-size="12" font-weight="bold" lengthAdjust="spacingAndGlyphs" textLength="136" x="589.625" y="295.9668">Progressing = True</text><text fill="#000000" font-family="sans-serif" font-size="12" lengthAdjust="spacingAndGlyphs" textLength="0" x="729.625" y="295.9668"/><polygon fill="#FEFECE" filter="url(#f1s8sihw87udhy)" points="567.625,343.7969,751.625,343.7969,763.625,355.7969,751.625,367.7969,567.625,367.7969,555.625,355.7969,567.625,343.7969" style="stroke: #A80036; stroke-width: 1.5;"/><text fill="#000000" font-family="sans-serif" font-size="11" lengthAdjust="spacingAndGlyphs" textLength="184" x="567.625" y="359.605">(10) [Upgradable = False] Exists</text><text fill="#000000" font-family="sans-serif" font-size="11" lengthAdjust="spacingAndGlyphs" textLength="14" x="541.625" y="353.2026">no</text><text fill="#000000" font-family="sans-serif" font-size="11" lengthAdjust="spacingAndGlyphs" textLength="20" x="763.625" y="353.2026">yes</text><rect fill="#FF4500" filter="url(#f1s8sihw87udhy)" height="33.9688" style="stroke: #A80036; stroke-width: 1.5;" width="214" x="438.625" y="377.7969"/><text fill="#000000" font-family="sans-serif" font-size="12" lengthAdjust="spacingAndGlyphs" textLength="51" x="448.625" y="398.9355">(11) Set</text><text fill="#000000" font-family="sans-serif" font-size="12" font-weight="bold" lengthAdjust="spacingAndGlyphs" textLength="139" x="503.625" y="398.9355">Upgradable = False</text><polygon fill="#FF4500" filter="url(#f1s8sihw87udhy)" points="702.125,377.7969,855.125,377.7969,845.125,425.7344,692.125,425.7344" style="stroke: #A80036; stroke-width: 1.5;"/><text fill="#000000" font-family="sans-serif" font-size="12" lengthAdjust="spacingAndGlyphs" textLength="83" x="702.125" y="398.9355">&lt;&lt;implicit&gt;&gt;</text><text fill="#000000" font-family="sans-serif" font-size="12" font-weight="bold" lengthAdjust="spacingAndGlyphs" textLength="139" x="702.125" y="412.9043">Upgradable = False</text><text fill="#000000" font-family="sans-serif" font-size="12" lengthAdjust="spacingAndGlyphs" textLength="0" x="845.125" y="412.9043"/><polygon fill="#FEFECE" filter="url(#f1s8sihw87udhy)" points="659.625,431.7344,671.625,443.7344,659.625,455.7344,647.625,443.7344,659.625,431.7344" style="stroke: #A80036; stroke-width: 1.5;"/><polygon fill="#FEFECE" filter="url(#f1s8sihw87udhy)" points="575.125,490.7344,744.125,490.7344,756.125,502.7344,744.125,514.7344,575.125,514.7344,563.125,502.7344,575.125,490.7344" style="stroke: #A80036; stroke-width: 1.5;"/><text fill="#000000" font-family="sans-serif" font-size="11" lengthAdjust="spacingAndGlyphs" textLength="169" x="575.125" y="506.5425">(12) [Available = False] Exists</text><text fill="#000000" font-family="sans-serif" font-size="11" lengthAdjust="spacingAndGlyphs" textLength="14" x="549.125" y="500.1401">no</text><rect fill="#00FF7F" filter="url(#f1s8sihw87udhy)" height="33.9688" style="stroke: #A80036; stroke-width: 1.5;" width="189" x="458.625" y="524.7344"/><text fill="#000000" font-family="sans-serif" font-size="12" lengthAdjust="spacingAndGlyphs" textLength="51" x="468.625" y="545.873">(13) Set</text><text fill="#000000" font-family="sans-serif" font-size="12" font-weight="bold" lengthAdjust="spacingAndGlyphs" textLength="114" x="523.625" y="545.873">Available = True</text><polygon fill="#FF4500" filter="url(#f1s8sihw87udhy)" points="704.125,524.7344,838.125,524.7344,828.125,572.6719,694.125,572.6719" style="stroke: #A80036; stroke-width: 1.5;"/><text fill="#000000" font-family="sans-serif" font-size="12" lengthAdjust="spacingAndGlyphs" textLength="83" x="704.125" y="545.873">&lt;&lt;implicit&gt;&gt;</text><text fill="#000000" font-family="sans-serif" font-size="12" font-weight="bold" lengthAdjust="spacingAndGlyphs" textLength="120" x="704.125" y="559.8418">Available = False</text><text fill="#000000" font-family="sans-serif" font-size="12" lengthAdjust="spacingAndGlyphs" textLength="0" x="828.125" y="559.8418"/><polygon fill="#FEFECE" filter="url(#f1s8sihw87udhy)" points="659.625,578.6719,671.625,590.6719,659.625,602.6719,647.625,590.6719,659.625,578.6719" style="stroke: #A80036; stroke-width: 1.5;"/><text fill="#000000" font-family="sans-serif" font-size="11" lengthAdjust="spacingAndGlyphs" textLength="20" x="671.625" y="588.0776">yes</text><rect fill="#00FF7F" filter="url(#f1s8sihw87udhy)" height="33.9688" style="stroke: #A80036; stroke-width: 1.5;" width="217" x="1004.625" y="260.8594"/><text fill="#000000" font-family="sans-serif" font-size="12" lengthAdjust="spacingAndGlyphs" textLength="51" x="1014.625" y="281.998">(14) Set</text><text fill="#000000" font-family="sans-serif" font-size="12" font-weight="bold" lengthAdjust="spacingAndGlyphs" textLength="142" x="1069.625" y="281.998">Progressing = False</text><polygon fill="#FEFECE" filter="url(#f1s8sihw87udhy)" points="1021.125,329.8281,1205.125,329.8281,1217.125,341.8281,1205.125,353.8281,1021.125,353.8281,1009.125,341.8281,1021.125,329.8281" style="stroke: #A80036; stroke-width: 1.5;"/><text fill="#000000" font-family="sans-serif" font-size="11" lengthAdjust="spacingAndGlyphs" textLength="184" x="1021.125" y="345.6362">(15) [Upgradable = False] Exists</text><text fill="#000000" font-family="sans-serif" font-size="11" lengthAdjust="spacingAndGlyphs" textLength="14" x="995.125" y="339.2339">no</text><rect fill="#00FF7F" filter="url(#f1s8sihw87udhy)" height="33.9688" style="stroke: #A80036; stroke-width: 1.5;" width="208" x="895.125" y="363.8281"/><text fill="#000000" font-family="sans-serif" font-size="12" lengthAdjust="spacingAndGlyphs" textLength="51" x="905.125" y="384.9668">(16) Set</text><text fill="#000000" font-family="sans-serif" font-size="12" font-weight="bold" lengthAdjust="spacingAndGlyphs" textLength="133" x="960.125" y="384.9668">Upgradable = True</text><polygon fill="#FF4500" filter="url(#f1s8sihw87udhy)" points="1155.625,363.8281,1308.625,363.8281,1298.625,411.7656,1145.625,411.7656" style="stroke: #A80036; stroke-width: 1.5;"/><text fill="#000000" font-family="sans-serif" font-size="12" lengthAdjust="spacingAndGlyphs" textLength="83" x="1155.625" y="384.9668">&lt;&lt;implicit&gt;&gt;</text><text fill="#000000" font-family="sans-serif" font-size="12" font-weight="bold" lengthAdjust="spacingAndGlyphs" textLength="139" x="1155.625" y="398.9355">Upgradable = False</text><text fill="#000000" font-family="sans-serif" font-size="12" lengthAdjust="spacingAndGlyphs" textLength="0" x="1298.625" y="398.9355"/><polygon fill="#FEFECE" filter="url(#f1s8sihw87udhy)" points="1113.125,417.7656,1125.125,429.7656,1113.125,441.7656,1101.125,429.7656,1113.125,417.7656" style="stroke: #A80036; stroke-width: 1.5;"/><text fill="#000000" font-family="sans-serif" font-size="11" lengthAdjust="spacingAndGlyphs" textLength="20" x="1125.125" y="427.1714">yes</text><polygon fill="#FEFECE" filter="url(#f1s8sihw87udhy)" points="1028.625,476.7656,1197.625,476.7656,1209.625,488.7656,1197.625,500.7656,1028.625,500.7656,1016.625,488.7656,1028.625,476.7656" style="stroke: #A80036; stroke-width: 1.5;"/><text fill="#000000" font-family="sans-serif" font-size="11" lengthAdjust="spacingAndGlyphs" textLength="169" x="1028.625" y="492.5737">(17) [Available = False] Exists</text><text fill="#000000" font-family="sans-serif" font-size="11" lengthAdjust="spacingAndGlyphs" textLength="14" x="1002.625" y="486.1714">no</text><text fill="#000000" font-family="sans-serif" font-size="11" lengthAdjust="spacingAndGlyphs" textLength="20" x="1209.625" y="486.1714">yes</text><rect fill="#00FF7F" filter="url(#f1s8sihw87udhy)" height="33.9688" style="stroke: #A80036; stroke-width: 1.5;" width="189" x="912.125" y="510.7656"/><text fill="#000000" font-family="sans-serif" font-size="12" lengthAdjust="spacingAndGlyphs" textLength="51" x="922.125" y="531.9043">(18) Set</text><text fill="#000000" font-family="sans-serif" font-size="12" font-weight="bold" lengthAdjust="spacingAndGlyphs" textLength="114" x="977.125" y="531.9043">Available = True</text><polygon fill="#FF4500" filter="url(#f1s8sihw87udhy)" points="1157.625,510.7656,1291.625,510.7656,1281.625,558.7031,1147.625,558.7031" style="stroke: #A80036; stroke-width: 1.5;"/><text fill="#000000" font-family="sans-serif" font-size="12" lengthAdjust="spacingAndGlyphs" textLength="83" x="1157.625" y="531.9043">&lt;&lt;implicit&gt;&gt;</text><text fill="#000000" font-family="sans-serif" font-size="12" font-weight="bold" lengthAdjust="spacingAndGlyphs" textLength="120" x="1157.625" y="545.873">Available = False</text><text fill="#000000" font-family="sans-serif" font-size="12" lengthAdjust="spacingAndGlyphs" textLength="0" x="1281.625" y="545.873"/><polygon fill="#FEFECE" filter="url(#f1s8sihw87udhy)" points="1113.125,564.7031,1125.125,576.7031,1113.125,588.7031,1101.125,576.7031,1113.125,564.7031" style="stroke: #A80036; stroke-width: 1.5;"/><polygon fill="#FEFECE" filter="url(#f1s8sihw87udhy)" points="886.375,608.6719,898.375,620.6719,886.375,632.6719,874.375,620.6719,886.375,608.6719" style="stroke: #A80036; stroke-width: 1.5;"/><polygon fill="#FEFECE" filter="url(#f1s8sihw87udhy)" points="541.5,665.4453,553.5,677.4453,541.5,689.4453,529.5,677.4453,541.5,665.4453" style="stroke: #A80036; stroke-width: 1.5;"/><ellipse cx="541.5" cy="719.4453" fill="#FFFFFF" filter="url(#f1s8sihw87udhy)" rx="10" ry="10" style="stroke: #000000; stroke-width: 1.5;"/><line style="stroke: #000000; stroke-width: 2.5;" x1="535.3128" x2="547.6872" y1="713.2581" y2="725.6325"/><line style="stroke: #000000; stroke-width: 2.5;" x1="547.6872" x2="535.3128" y1="713.2581" y2="725.6325"/><line style="stroke: #A80036; stroke-width: 1.5;" x1="541.5" x2="541.5" y1="50.9531" y2="70.9531"/><polygon fill="#A80036" points="537.5,60.9531,541.5,70.9531,545.5,60.9531,541.5,64.9531" style="stroke: #A80036; stroke-width: 1.0;"/><line style="stroke: #00FF7F; stroke-width: 1.5;" x1="124.5" x2="114.5" y1="265.6328" y2="265.6328"/><line style="stroke: #00FF7F; stroke-width: 1.5;" x1="114.5" x2="114.5" y1="265.6328" y2="287.6328"/><polygon fill="#00FF7F" points="110.5,277.6328,114.5,287.6328,118.5,277.6328,114.5,281.6328" style="stroke: #00FF7F; stroke-width: 1.0;"/><line style="stroke: #FF4500; stroke-width: 1.5;" x1="325.5" x2="335.5" y1="265.6328" y2="265.6328"/><line style="stroke: #FF4500; stroke-width: 1.5;" x1="335.5" x2="335.5" y1="265.6328" y2="287.6328"/><polygon fill="#FF4500" points="331.5,277.6328,335.5,287.6328,339.5,277.6328,335.5,281.6328" style="stroke: #FF4500; stroke-width: 1.0;"/><line style="stroke: #A80036; stroke-width: 1.5;" x1="114.5" x2="114.5" y1="321.6016" y2="353.5703"/><line style="stroke: #A80036; stroke-width: 1.5;" x1="114.5" x2="213" y1="353.5703" y2="353.5703"/><polygon fill="#A80036" points="203,349.5703,213,353.5703,203,357.5703,207,353.5703" style="stroke: #A80036; stroke-width: 1.0;"/><line style="stroke: #A80036; stroke-width: 1.5;" x1="335.5" x2="335.5" y1="335.5703" y2="353.5703"/><line style="stroke: #A80036; stroke-width: 1.5;" x1="335.5" x2="237" y1="353.5703" y2="353.5703"/><polygon fill="#A80036" points="247,349.5703,237,353.5703,247,357.5703,243,353.5703" style="stroke: #A80036; stroke-width: 1.0;"/><line style="stroke: #FF4500; stroke-width: 1.5;" x1="225" x2="225" y1="206.8594" y2="253.6328"/><polygon fill="#FF4500" points="221,243.6328,225,253.6328,229,243.6328,225,247.6328" style="stroke: #FF4500; stroke-width: 1.0;"/><text fill="#000000" font-family="sans-serif" font-size="11" lengthAdjust="spacingAndGlyphs" textLength="20" x="229" y="233.5386">yes</text><line style="stroke: #00FF7F; stroke-width: 1.5;" x1="124.5" x2="114.5" y1="412.5703" y2="412.5703"/><line style="stroke: #00FF7F; stroke-width: 1.5;" x1="114.5" x2="114.5" y1="412.5703" y2="434.5703"/><polygon fill="#00FF7F" points="110.5,424.5703,114.5,434.5703,118.5,424.5703,114.5,428.5703" style="stroke: #00FF7F; stroke-width: 1.0;"/><line style="stroke: #FF4500; stroke-width: 1.5;" x1="325.5" x2="335.5" y1="412.5703" y2="412.5703"/><line style="stroke: #FF4500; stroke-width: 1.5;" x1="335.5" x2="335.5" y1="412.5703" y2="434.5703"/><polygon fill="#FF4500" points="331.5,424.5703,335.5,434.5703,339.5,424.5703,335.5,428.5703" style="stroke: #FF4500; stroke-width: 1.0;"/><line style="stroke: #A80036; stroke-width: 1.5;" x1="114.5" x2="114.5" y1="468.5391" y2="500.5078"/><line style="stroke: #A80036; stroke-width: 1.5;" x1="114.5" x2="213" y1="500.5078" y2="500.5078"/><polygon fill="#A80036" points="203,496.5078,213,500.5078,203,504.5078,207,500.5078" style="stroke: #A80036; stroke-width: 1.0;"/><line style="stroke: #A80036; stroke-width: 1.5;" x1="335.5" x2="335.5" y1="482.5078" y2="500.5078"/><line style="stroke: #A80036; stroke-width: 1.5;" x1="335.5" x2="237" y1="500.5078" y2="500.5078"/><polygon fill="#A80036" points="247,496.5078,237,500.5078,247,504.5078,243,500.5078" style="stroke: #A80036; stroke-width: 1.0;"/><line style="stroke: #A80036; stroke-width: 1.5;" x1="225" x2="225" y1="365.5703" y2="400.5703"/><polygon fill="#A80036" points="221,390.5703,225,400.5703,229,390.5703,225,394.5703" style="stroke: #A80036; stroke-width: 1.0;"/><line style="stroke: #00FF7F; stroke-width: 1.5;" x1="132" x2="122" y1="559.5078" y2="559.5078"/><line style="stroke: #00FF7F; stroke-width: 1.5;" x1="122" x2="122" y1="559.5078" y2="581.5078"/><polygon fill="#00FF7F" points="118,571.5078,122,581.5078,126,571.5078,122,575.5078" style="stroke: #00FF7F; stroke-width: 1.0;"/><line style="stroke: #FF4500; stroke-width: 1.5;" x1="318" x2="328" y1="559.5078" y2="559.5078"/><line style="stroke: #FF4500; stroke-width: 1.5;" x1="328" x2="328" y1="559.5078" y2="581.5078"/><polygon fill="#FF4500" points="324,571.5078,328,581.5078,332,571.5078,328,575.5078" style="stroke: #FF4500; stroke-width: 1.0;"/><line style="stroke: #A80036; stroke-width: 1.5;" x1="122" x2="122" y1="615.4766" y2="647.4453"/><line style="stroke: #A80036; stroke-width: 1.5;" x1="122" x2="213" y1="647.4453" y2="647.4453"/><polygon fill="#A80036" points="203,643.4453,213,647.4453,203,651.4453,207,647.4453" style="stroke: #A80036; stroke-width: 1.0;"/><line style="stroke: #A80036; stroke-width: 1.5;" x1="328" x2="328" y1="629.4453" y2="647.4453"/><line style="stroke: #A80036; stroke-width: 1.5;" x1="328" x2="237" y1="647.4453" y2="647.4453"/><polygon fill="#A80036" points="247,643.4453,237,647.4453,247,651.4453,243,647.4453" style="stroke: #A80036; stroke-width: 1.0;"/><line style="stroke: #A80036; stroke-width: 1.5;" x1="225" x2="225" y1="512.5078" y2="547.5078"/><polygon fill="#A80036" points="221,537.5078,225,547.5078,229,537.5078,225,541.5078" style="stroke: #A80036; stroke-width: 1.0;"/><line style="stroke: #00FF7F; stroke-width: 1.5;" x1="555.625" x2="545.625" y1="355.7969" y2="355.7969"/><line style="stroke: #00FF7F; stroke-width: 1.5;" x1="545.625" x2="545.625" y1="355.7969" y2="377.7969"/><polygon fill="#00FF7F" points="541.625,367.7969,545.625,377.7969,549.625,367.7969,545.625,371.7969" style="stroke: #00FF7F; stroke-width: 1.0;"/><line style="stroke: #FF4500; stroke-width: 1.5;" x1="763.625" x2="773.625" y1="355.7969" y2="355.7969"/><line style="stroke: #FF4500; stroke-width: 1.5;" x1="773.625" x2="773.625" y1="355.7969" y2="377.7969"/><polygon fill="#FF4500" points="769.625,367.7969,773.625,377.7969,777.625,367.7969,773.625,371.7969" style="stroke: #FF4500; stroke-width: 1.0;"/><line style="stroke: #A80036; stroke-width: 1.5;" x1="545.625" x2="545.625" y1="411.7656" y2="443.7344"/><line style="stroke: #A80036; stroke-width: 1.5;" x1="545.625" x2="647.625" y1="443.7344" y2="443.7344"/><polygon fill="#A80036" points="637.625,439.7344,647.625,443.7344,637.625,447.7344,641.625,443.7344" style="stroke: #A80036; stroke-width: 1.0;"/><line style="stroke: #A80036; stroke-width: 1.5;" x1="773.625" x2="773.625" y1="425.7344" y2="443.7344"/><line style="stroke: #A80036; stroke-width: 1.5;" x1="773.625" x2="671.625" y1="443.7344" y2="443.7344"/><polygon fill="#A80036" points="681.625,439.7344,671.625,443.7344,681.625,447.7344,677.625,443.7344" style="stroke: #A80036; stroke-width: 1.0;"/><line style="stroke: #A80036; stroke-width: 1.5;" x1="659.625" x2="659.625" y1="308.7969" y2="343.7969"/><polygon fill="#A80036" points="655.625,333.7969,659.625,343.7969,663.625,333.7969,659.625,337.7969" style="stroke: #A80036; stroke-width: 1.0;"/><line style="stroke: #00FF7F; stroke-width: 1.5;" x1="563.125" x2="553.125" y1="502.7344" y2="502.7344"/><line style="stroke: #00FF7F; stroke-width: 1.5;" x1="553.125" x2="553.125" y1="502.7344" y2="524.7344"/><polygon fill="#00FF7F" points="549.125,514.7344,553.125,524.7344,557.125,514.7344,553.125,518.7344" style="stroke: #00FF7F; stroke-width: 1.0;"/><line style="stroke: #A80036; stroke-width: 1.5;" x1="756.125" x2="766.125" y1="502.7344" y2="502.7344"/><line style="stroke: #A80036; stroke-width: 1.5;" x1="766.125" x2="766.125" y1="502.7344" y2="524.7344"/><polygon fill="#A80036" points="762.125,514.7344,766.125,524.7344,770.125,514.7344,766.125,518.7344" style="stroke: #A80036; stroke-width: 1.0;"/><line style="stroke: #A80036; stroke-width: 1.5;" x1="553.125" x2="553.125" y1="558.7031" y2="590.6719"/><line style="stroke: #A80036; stroke-width: 1.5;" x1="553.125" x2="647.625" y1="590.6719" y2="590.6719"/><polygon fill="#A80036" points="637.625,586.6719,647.625,590.6719,637.625,594.6719,641.625,590.6719" style="stroke: #A80036; stroke-width: 1.0;"/><line style="stroke: #FF4500; stroke-width: 1.5;" x1="766.125" x2="766.125" y1="572.6719" y2="590.6719"/><line style="stroke: #FF4500; stroke-width: 1.5;" x1="766.125" x2="671.625" y1="590.6719" y2="590.6719"/><polygon fill="#FF4500" points="681.625,586.6719,671.625,590.6719,681.625,594.6719,677.625,590.6719" style="stroke: #FF4500; stroke-width: 1.0;"/><line style="stroke: #A80036; stroke-width: 1.5;" x1="659.625" x2="659.625" y1="455.7344" y2="490.7344"/><polygon fill="#A80036" points="655.625,480.7344,659.625,490.7344,663.625,480.7344,659.625,484.7344" style="stroke: #A80036; stroke-width: 1.0;"/><line style="stroke: #00FF7F; stroke-width: 1.5;" x1="1009.125" x2="999.125" y1="341.8281" y2="341.8281"/><line style="stroke: #00FF7F; stroke-width: 1.5;" x1="999.125" x2="999.125" y1="341.8281" y2="363.8281"/><polygon fill="#00FF7F" points="995.125,353.8281,999.125,363.8281,1003.125,353.8281,999.125,357.8281" style="stroke: #00FF7F; stroke-width: 1.0;"/><line style="stroke: #A80036; stroke-width: 1.5;" x1="1217.125" x2="1227.125" y1="341.8281" y2="341.8281"/><line style="stroke: #A80036; stroke-width: 1.5;" x1="1227.125" x2="1227.125" y1="341.8281" y2="363.8281"/><polygon fill="#A80036" points="1223.125,353.8281,1227.125,363.8281,1231.125,353.8281,1227.125,357.8281" style="stroke: #A80036; stroke-width: 1.0;"/><line style="stroke: #A80036; stroke-width: 1.5;" x1="999.125" x2="999.125" y1="397.7969" y2="429.7656"/><line style="stroke: #A80036; stroke-width: 1.5;" x1="999.125" x2="1101.125" y1="429.7656" y2="429.7656"/><polygon fill="#A80036" points="1091.125,425.7656,1101.125,429.7656,1091.125,433.7656,1095.125,429.7656" style="stroke: #A80036; stroke-width: 1.0;"/><line style="stroke: #FF4500; stroke-width: 1.5;" x1="1227.125" x2="1227.125" y1="411.7656" y2="429.7656"/><line style="stroke: #FF4500; stroke-width: 1.5;" x1="1227.125" x2="1125.125" y1="429.7656" y2="429.7656"/><polygon fill="#FF4500" points="1135.125,425.7656,1125.125,429.7656,1135.125,433.7656,1131.125,429.7656" style="stroke: #FF4500; stroke-width: 1.0;"/><line style="stroke: #A80036; stroke-width: 1.5;" x1="1113.125" x2="1113.125" y1="294.8281" y2="329.8281"/><polygon fill="#A80036" points="1109.125,319.8281,1113.125,329.8281,1117.125,319.8281,1113.125,323.8281" style="stroke: #A80036; stroke-width: 1.0;"/><line style="stroke: #00FF7F; stroke-width: 1.5;" x1="1016.625" x2="1006.625" y1="488.7656" y2="488.7656"/><line style="stroke: #00FF7F; stroke-width: 1.5;" x1="1006.625" x2="1006.625" y1="488.7656" y2="510.7656"/><polygon fill="#00FF7F" points="1002.625,500.7656,1006.625,510.7656,1010.625,500.7656,1006.625,504.7656" style="stroke: #00FF7F; stroke-width: 1.0;"/><line style="stroke: #FF4500; stroke-width: 1.5;" x1="1209.625" x2="1219.625" y1="488.7656" y2="488.7656"/><line style="stroke: #FF4500; stroke-width: 1.5;" x1="1219.625" x2="1219.625" y1="488.7656" y2="510.7656"/><polygon fill="#FF4500" points="1215.625,500.7656,1219.625,510.7656,1223.625,500.7656,1219.625,504.7656" style="stroke: #FF4500; stroke-width: 1.0;"/><line style="stroke: #A80036; stroke-width: 1.5;" x1="1006.625" x2="1006.625" y1="544.7344" y2="576.7031"/><line style="stroke: #A80036; stroke-width: 1.5;" x1="1006.625" x2="1101.125" y1="576.7031" y2="576.7031"/><polygon fill="#A80036" points="1091.125,572.7031,1101.125,576.7031,1091.125,580.7031,1095.125,576.7031" style="stroke: #A80036; stroke-width: 1.0;"/><line style="stroke: #A80036; stroke-width: 1.5;" x1="1219.625" x2="1219.625" y1="558.7031" y2="576.7031"/><line style="stroke: #A80036; stroke-width: 1.5;" x1="1219.625" x2="1125.125" y1="576.7031" y2="576.7031"/><polygon fill="#A80036" points="1135.125,572.7031,1125.125,576.7031,1135.125,580.7031,1131.125,576.7031" style="stroke: #A80036; stroke-width: 1.0;"/><line style="stroke: #A80036; stroke-width: 1.5;" x1="1113.125" x2="1113.125" y1="441.7656" y2="476.7656"/><polygon fill="#A80036" points="1109.125,466.7656,1113.125,476.7656,1117.125,466.7656,1113.125,470.7656" style="stroke: #A80036; stroke-width: 1.0;"/><line style="stroke: #FF4500; stroke-width: 1.5;" x1="785.875" x2="659.625" y1="238.8594" y2="238.8594"/><line style="stroke: #FF4500; stroke-width: 1.5;" x1="659.625" x2="659.625" y1="238.8594" y2="260.8594"/><polygon fill="#FF4500" points="655.625,250.8594,659.625,260.8594,663.625,250.8594,659.625,254.8594" style="stroke: #FF4500; stroke-width: 1.0;"/><line style="stroke: #00FF7F; stroke-width: 1.5;" x1="986.875" x2="1113.125" y1="238.8594" y2="238.8594"/><line style="stroke: #00FF7F; stroke-width: 1.5;" x1="1113.125" x2="1113.125" y1="238.8594" y2="260.8594"/><polygon fill="#00FF7F" points="1109.125,250.8594,1113.125,260.8594,1117.125,250.8594,1113.125,254.8594" style="stroke: #00FF7F; stroke-width: 1.0;"/><line style="stroke: #A80036; stroke-width: 1.5;" x1="659.625" x2="659.625" y1="602.6719" y2="620.6719"/><line style="stroke: #A80036; stroke-width: 1.5;" x1="659.625" x2="874.375" y1="620.6719" y2="620.6719"/><polygon fill="#A80036" points="864.375,616.6719,874.375,620.6719,864.375,624.6719,868.375,620.6719" style="stroke: #A80036; stroke-width: 1.0;"/><line style="stroke: #A80036; stroke-width: 1.5;" x1="1113.125" x2="1113.125" y1="588.7031" y2="620.6719"/><line style="stroke: #A80036; stroke-width: 1.5;" x1="1113.125" x2="898.375" y1="620.6719" y2="620.6719"/><polygon fill="#A80036" points="908.375,616.6719,898.375,620.6719,908.375,624.6719,904.375,620.6719" style="stroke: #A80036; stroke-width: 1.0;"/><line style="stroke: #A80036; stroke-width: 1.5;" x1="886.375" x2="886.375" y1="192.8906" y2="226.8594"/><polygon fill="#A80036" points="882.375,216.8594,886.375,226.8594,890.375,216.8594,886.375,220.8594" style="stroke: #A80036; stroke-width: 1.0;"/><line style="stroke: #A80036; stroke-width: 1.5;" x1="448" x2="225" y1="136.9219" y2="136.9219"/><line style="stroke: #A80036; stroke-width: 1.5;" x1="225" x2="225" y1="136.9219" y2="158.9219"/><polygon fill="#A80036" points="221,148.9219,225,158.9219,229,148.9219,225,152.9219" style="stroke: #A80036; stroke-width: 1.0;"/><line style="stroke: #00FF7F; stroke-width: 1.5;" x1="635" x2="886.375" y1="136.9219" y2="136.9219"/><line style="stroke: #00FF7F; stroke-width: 1.5;" x1="886.375" x2="886.375" y1="136.9219" y2="158.9219"/><polygon fill="#00FF7F" points="882.375,148.9219,886.375,158.9219,890.375,148.9219,886.375,152.9219" style="stroke: #00FF7F; stroke-width: 1.0;"/><line style="stroke: #A80036; stroke-width: 1.5;" x1="225" x2="225" y1="659.4453" y2="677.4453"/><line style="stroke: #A80036; stroke-width: 1.5;" x1="225" x2="529.5" y1="677.4453" y2="677.4453"/><polygon fill="#A80036" points="519.5,673.4453,529.5,677.4453,519.5,681.4453,523.5,677.4453" style="stroke: #A80036; stroke-width: 1.0;"/><line style="stroke: #A80036; stroke-width: 1.5;" x1="886.375" x2="886.375" y1="632.6719" y2="677.4453"/><line style="stroke: #A80036; stroke-width: 1.5;" x1="886.375" x2="553.5" y1="677.4453" y2="677.4453"/><polygon fill="#A80036" points="563.5,673.4453,553.5,677.4453,563.5,681.4453,559.5,677.4453" style="stroke: #A80036; stroke-width: 1.0;"/><line style="stroke: #A80036; stroke-width: 1.5;" x1="541.5" x2="541.5" y1="104.9219" y2="124.9219"/><polygon fill="#A80036" points="537.5,114.9219,541.5,124.9219,545.5,114.9219,541.5,118.9219" style="stroke: #A80036; stroke-width: 1.0;"/><line style="stroke: #A80036; stroke-width: 1.5;" x1="541.5" x2="541.5" y1="689.4453" y2="709.4453"/><polygon fill="#A80036" points="537.5,699.4453,541.5,709.4453,545.5,699.4453,541.5,703.4453" style="stroke: #A80036; stroke-width: 1.0;"/><!--MD5=[3ee4a6ee35dd3a4e6c5570898f29cc31]
@startuml ../../../design/aggregateComponentConditions.svg
title Aggregate Component Conditions

start
  #springgreen:Set **ReconcileComplete = True**]
  !x=1
if ((x) [Degraded = True] Exists) then
  !x=x+1
  #orangered:<<implicit>>\n**Degraded = True** /
  -[#orangered]-> yes;
  if ((x) [Progressing = True] Exists) then
	!x=x+1
	-[#springgreen]-> no;
	#springgreen:(x) Set **Progressing = False**]
	!x=x+1
  else
	-[#orangered]-> yes;
	#orangered:<<implicit>>\n**Progressing = True** /
  endif
  if ((x) [Upgradable = False] Exists) then
	!x=x+1
	-[#springgreen]-> no;
	#orangered:(x) Set **Upgradable = False**]
	!x=x+1
  else
	-[#orangered]-> yes;
	#orangered:<<implicit>>\n**Upgradable = False** /
  endif
  if ((x) [Available = False] Exists) then
	!x=x+1
	-[#springgreen]-> no;
	#orangered:(x) Set **Available = False**]
	!x=x+1
  else
	-[#orangered]-> yes;
	#orangered:<<implicit>>\n**Available = False** /
  endif
else
  -[#springgreen]-> no;
  #springgreen:(x) Set **Degraded = False**]
  !x=x+1
  if ((x) [Progressing = True] Exists) then
	!x=x+1
	-[#orangered]-> yes;
	#orangered:<<implicit>>\n**Progressing = True** /
	if ((x) [Upgradable = False] Exists) then
	  !x=x+1
	  -[#springgreen]-> no;
	  #orangered:(x) Set **Upgradable = False**]
	  !x=x+1
	else
	  -[#orangered]-> yes;
	  #orangered:<<implicit>>\n**Upgradable = False** /
	endif
	if ((x) [Available = False] Exists) then
	  !x=x+1
	  -[#springgreen]-> no;
	  #springgreen:(x) Set **Available = True**]
	  !x=x+1
	else
	  #orangered:<<implicit>>\n**Available = False** /
	  -[#orangered]-> yes;
	endif
  else
	-[#springgreen]-> no;
	#springgreen:(x) Set **Progressing = False**]
	!x=x+1
	if ((x) [Upgradable = False] Exists) then
	  !x=x+1
	  -[#springgreen]-> no;
	  #springgreen:(x) Set **Upgradable = True**]
	  !x=x+1
	else
	#orangered:<<implicit>>\n**Upgradable = False** /
	  -[#orangered]-> yes;
	endif
	if ((x) [Available = False] Exists) then
	  !x=x+1
	  -[#springgreen]-> no;
	  #springgreen:(x) Set **Available = True**]
	  !x=x+1
	else
	  -[#orangered]-> yes;
	  #orangered:<<implicit>>\n**Available = False** /
	endif
  endif
endif
end
@enduml

@startuml ../../../design/aggregateComponentConditions.svg
title Aggregate Component Conditions

start
  #springgreen:Set **ReconcileComplete = True**]
if ((1) [Degraded = True] Exists) then
  #orangered:<<implicit>>\n**Degraded = True** /
  -[#orangered]-> yes;
  if ((2) [Progressing = True] Exists) then
	-[#springgreen]-> no;
	#springgreen:(3) Set **Progressing = False**]
  else
	-[#orangered]-> yes;
	#orangered:<<implicit>>\n**Progressing = True** /
  endif
  if ((4) [Upgradable = False] Exists) then
	-[#springgreen]-> no;
	#orangered:(5) Set **Upgradable = False**]
  else
	-[#orangered]-> yes;
	#orangered:<<implicit>>\n**Upgradable = False** /
  endif
  if ((6) [Available = False] Exists) then
	-[#springgreen]-> no;
	#orangered:(7) Set **Available = False**]
  else
	-[#orangered]-> yes;
	#orangered:<<implicit>>\n**Available = False** /
  endif
else
  -[#springgreen]-> no;
  #springgreen:(8) Set **Degraded = False**]
  if ((9) [Progressing = True] Exists) then
	-[#orangered]-> yes;
	#orangered:<<implicit>>\n**Progressing = True** /
	if ((10) [Upgradable = False] Exists) then
	  -[#springgreen]-> no;
	  #orangered:(11) Set **Upgradable = False**]
	else
	  -[#orangered]-> yes;
	  #orangered:<<implicit>>\n**Upgradable = False** /
	endif
	if ((12) [Available = False] Exists) then
	  -[#springgreen]-> no;
	  #springgreen:(13) Set **Available = True**]
	else
	  #orangered:<<implicit>>\n**Available = False** /
	  -[#orangered]-> yes;
	endif
  else
	-[#springgreen]-> no;
	#springgreen:(14) Set **Progressing = False**]
	if ((15) [Upgradable = False] Exists) then
	  -[#springgreen]-> no;
	  #springgreen:(16) Set **Upgradable = True**]
	else
	#orangered:<<implicit>>\n**Upgradable = False** /
	  -[#orangered]-> yes;
	endif
	if ((17) [Available = False] Exists) then
	  -[#springgreen]-> no;
	  #springgreen:(18) Set **Available = True**]
	else
	  -[#orangered]-> yes;
	  #orangered:<<implicit>>\n**Available = False** /
	endif
  endif
endif
end
@enduml

PlantUML version 1.2020.10(Sun May 17 12:35:57 IDT 2020)
(GPL source distribution)
Java Runtime: OpenJDK Runtime Environment
JVM: OpenJDK 64-Bit Server VM
Java Version: 1.8.0_232-b09
Operating System: Linux
Default Encoding: UTF-8
Language: en
Country: US
--></g></svg>