<?xml version="1.0" encoding="UTF-8" standalone="no"?>
<!DOCTYPE svg PUBLIC "-//W3C//DTD SVG 1.1//EN"
 "http://www.w3.org/Graphics/SVG/1.1/DTD/svg11.dtd">
<!-- Generated by graphviz version 2.40.1 (0)
 -->
<!-- Title: component Pages: 1 -->
<svg width="4291pt" height="706pt"
 viewBox="0.00 0.00 4291.00 706.00" xmlns="http://www.w3.org/2000/svg" xmlns:xlink="http://www.w3.org/1999/xlink">
<g id="graph0" class="graph" transform="scale(1 1) rotate(0) translate(4 702)">
<title>component</title>
<polygon fill="#ffffff" stroke="transparent" points="-4,4 -4,-702 4287,-702 4287,4 -4,4"/>
<g id="clust1" class="cluster">
<title>cluster_compute</title>
<polygon fill="none" stroke="#000000" stroke-dasharray="5,2" points="8,-188 8,-690 625,-690 625,-188 8,-188"/>
<text text-anchor="middle" x="316.5" y="-652.4" font-family="Courier,monospace" font-weight="bold" font-size="42.00" fill="#000000">compute</text>
</g>
<g id="clust2" class="cluster">
<title>cluster_deployment</title>
<polygon fill="none" stroke="#000000" stroke-dasharray="5,2" points="645,-368 645,-690 1333,-690 1333,-368 645,-368"/>
<text text-anchor="middle" x="989" y="-652.4" font-family="Courier,monospace" font-weight="bold" font-size="42.00" fill="#000000">deployment</text>
</g>
<g id="clust3" class="cluster">
<title>cluster_network</title>
<polygon fill="none" stroke="#000000" stroke-dasharray="5,2" points="1353,-8 1353,-690 2027,-690 2027,-8 1353,-8"/>
<text text-anchor="middle" x="1690" y="-652.4" font-family="Courier,monospace" font-weight="bold" font-size="42.00" fill="#000000">network</text>
</g>
<g id="clust4" class="cluster">
<title>cluster_schedule</title>
<polygon fill="none" stroke="#000000" stroke-dasharray="5,2" points="2047,-458 2047,-690 2521,-690 2521,-458 2047,-458"/>
<text text-anchor="middle" x="2284" y="-652.4" font-family="Courier,monospace" font-weight="bold" font-size="42.00" fill="#000000">schedule</text>
</g>
<g id="clust5" class="cluster">
<title>cluster_storage</title>
<polygon fill="none" stroke="#000000" stroke-dasharray="5,2" points="2541,-8 2541,-690 3144,-690 3144,-8 2541,-8"/>
<text text-anchor="middle" x="2842.5" y="-652.4" font-family="Courier,monospace" font-weight="bold" font-size="42.00" fill="#000000">storage</text>
</g>
<g id="clust6" class="cluster">
<title>cluster_templating</title>
<polygon fill="none" stroke="#000000" stroke-dasharray="5,2" points="3164,-548 3164,-690 3681,-690 3681,-548 3164,-548"/>
<text text-anchor="middle" x="3422.5" y="-652.4" font-family="Courier,monospace" font-weight="bold" font-size="42.00" fill="#000000">templating</text>
</g>
<g id="clust7" class="cluster">
<title>cluster_unassigned</title>
<polygon fill="none" stroke="#000000" stroke-dasharray="5,2" points="3701,-548 3701,-690 4275,-690 4275,-548 3701,-548"/>
<text text-anchor="middle" x="3988" y="-652.4" font-family="Courier,monospace" font-weight="bold" font-size="42.00" fill="#000000">unassigned</text>
</g>
<!-- KubeVirt/kubevirt&#45;kubevirt&#45;hyperconverged -->
<g id="node1" class="node">
<title>KubeVirt/kubevirt&#45;kubevirt&#45;hyperconverged</title>
<path fill="none" stroke="#000000" d="M605,-628C605,-628 28,-628 28,-628 22,-628 16,-622 16,-616 16,-616 16,-568 16,-568 16,-562 22,-556 28,-556 28,-556 605,-556 605,-556 611,-556 617,-562 617,-568 617,-568 617,-616 617,-616 617,-622 611,-628 605,-628"/>
<text text-anchor="middle" x="316.5" y="-585.8" font-family="Courier,monospace" font-weight="bold" font-size="24.00" fill="#000000">KubeVirt/kubevirt&#45;kubevirt&#45;hyperconverged</text>
</g>
<!-- deployment/hco&#45;operator -->
<g id="node6" class="node">
<title>deployment/hco&#45;operator</title>
<path fill="none" stroke="#000000" d="M1149,-628C1149,-628 829,-628 829,-628 823,-628 817,-622 817,-616 817,-616 817,-568 817,-568 817,-562 823,-556 829,-556 829,-556 1149,-556 1149,-556 1155,-556 1161,-562 1161,-568 1161,-568 1161,-616 1161,-616 1161,-622 1155,-628 1149,-628"/>
<text text-anchor="middle" x="989" y="-585.8" font-family="Courier,monospace" font-weight="bold" font-size="24.00" fill="#000000">deployment/hco&#45;operator</text>
</g>
<!-- KubeVirt/kubevirt&#45;kubevirt&#45;hyperconverged&#45;&gt;deployment/hco&#45;operator -->
<!-- daemonset/virt&#45;handler -->
<g id="node2" class="node">
<title>daemonset/virt&#45;handler</title>
<path fill="none" stroke="#000000" d="M469.5,-538C469.5,-538 163.5,-538 163.5,-538 157.5,-538 151.5,-532 151.5,-526 151.5,-526 151.5,-478 151.5,-478 151.5,-472 157.5,-466 163.5,-466 163.5,-466 469.5,-466 469.5,-466 475.5,-466 481.5,-472 481.5,-478 481.5,-478 481.5,-526 481.5,-526 481.5,-532 475.5,-538 469.5,-538"/>
<text text-anchor="middle" x="316.5" y="-495.8" font-family="Courier,monospace" font-weight="bold" font-size="24.00" fill="#000000">daemonset/virt&#45;handler</text>
</g>
<!-- deployment/virt&#45;api -->
<g id="node3" class="node">
<title>deployment/virt&#45;api</title>
<path fill="none" stroke="#000000" d="M448,-448C448,-448 185,-448 185,-448 179,-448 173,-442 173,-436 173,-436 173,-388 173,-388 173,-382 179,-376 185,-376 185,-376 448,-376 448,-376 454,-376 460,-382 460,-388 460,-388 460,-436 460,-436 460,-442 454,-448 448,-448"/>
<text text-anchor="middle" x="316.5" y="-405.8" font-family="Courier,monospace" font-weight="bold" font-size="24.00" fill="#000000">deployment/virt&#45;api</text>
</g>
<!-- deployment/virt&#45;controller -->
<g id="node4" class="node">
<title>deployment/virt&#45;controller</title>
<path fill="none" stroke="#000000" d="M498,-358C498,-358 135,-358 135,-358 129,-358 123,-352 123,-346 123,-346 123,-298 123,-298 123,-292 129,-286 135,-286 135,-286 498,-286 498,-286 504,-286 510,-292 510,-298 510,-298 510,-346 510,-346 510,-352 504,-358 498,-358"/>
<text text-anchor="middle" x="316.5" y="-315.8" font-family="Courier,monospace" font-weight="bold" font-size="24.00" fill="#000000">deployment/virt&#45;controller</text>
</g>
<!-- deployment/virt&#45;operator -->
<g id="node5" class="node">
<title>deployment/virt&#45;operator</title>
<path fill="none" stroke="#000000" d="M484,-268C484,-268 149,-268 149,-268 143,-268 137,-262 137,-256 137,-256 137,-208 137,-208 137,-202 143,-196 149,-196 149,-196 484,-196 484,-196 490,-196 496,-202 496,-208 496,-208 496,-256 496,-256 496,-262 490,-268 484,-268"/>
<text text-anchor="middle" x="316.5" y="-225.8" font-family="Courier,monospace" font-weight="bold" font-size="24.00" fill="#000000">deployment/virt&#45;operator</text>
</g>
<!-- NetworkAddonsConfig/cluster -->
<g id="node9" class="node">
<title>NetworkAddonsConfig/cluster</title>
<path fill="none" stroke="#000000" d="M1871.5,-628C1871.5,-628 1508.5,-628 1508.5,-628 1502.5,-628 1496.5,-622 1496.5,-616 1496.5,-616 1496.5,-568 1496.5,-568 1496.5,-562 1502.5,-556 1508.5,-556 1508.5,-556 1871.5,-556 1871.5,-556 1877.5,-556 1883.5,-562 1883.5,-568 1883.5,-568 1883.5,-616 1883.5,-616 1883.5,-622 1877.5,-628 1871.5,-628"/>
<text text-anchor="middle" x="1690" y="-585.8" font-family="Courier,monospace" font-weight="bold" font-size="24.00" fill="#000000">NetworkAddonsConfig/cluster</text>
</g>
<!-- deployment/hco&#45;operator&#45;&gt;NetworkAddonsConfig/cluster -->
<!-- deployment/hco&#45;webhook -->
<g id="node7" class="node">
<title>deployment/hco&#45;webhook</title>
<path fill="none" stroke="#000000" d="M1142,-538C1142,-538 836,-538 836,-538 830,-538 824,-532 824,-526 824,-526 824,-478 824,-478 824,-472 830,-466 836,-466 836,-466 1142,-466 1142,-466 1148,-466 1154,-472 1154,-478 1154,-478 1154,-526 1154,-526 1154,-532 1148,-538 1142,-538"/>
<text text-anchor="middle" x="989" y="-495.8" font-family="Courier,monospace" font-weight="bold" font-size="24.00" fill="#000000">deployment/hco&#45;webhook</text>
</g>
<!-- deployment/hyperconverged&#45;cluster&#45;cli&#45;download -->
<g id="node8" class="node">
<title>deployment/hyperconverged&#45;cluster&#45;cli&#45;download</title>
<path fill="none" stroke="#000000" d="M1313,-448C1313,-448 665,-448 665,-448 659,-448 653,-442 653,-436 653,-436 653,-388 653,-388 653,-382 659,-376 665,-376 665,-376 1313,-376 1313,-376 1319,-376 1325,-382 1325,-388 1325,-388 1325,-436 1325,-436 1325,-442 1319,-448 1313,-448"/>
<text text-anchor="middle" x="989" y="-405.8" font-family="Courier,monospace" font-weight="bold" font-size="24.00" fill="#000000">deployment/hyperconverged&#45;cluster&#45;cli&#45;download</text>
</g>
<!-- SSP/ssp&#45;kubevirt&#45;hyperconverged -->
<g id="node16" class="node">
<title>SSP/ssp&#45;kubevirt&#45;hyperconverged</title>
<path fill="none" stroke="#000000" d="M2501,-628C2501,-628 2067,-628 2067,-628 2061,-628 2055,-622 2055,-616 2055,-616 2055,-568 2055,-568 2055,-562 2061,-556 2067,-556 2067,-556 2501,-556 2501,-556 2507,-556 2513,-562 2513,-568 2513,-568 2513,-616 2513,-616 2513,-622 2507,-628 2501,-628"/>
<text text-anchor="middle" x="2284" y="-585.8" font-family="Courier,monospace" font-weight="bold" font-size="24.00" fill="#000000">SSP/ssp&#45;kubevirt&#45;hyperconverged</text>
</g>
<!-- NetworkAddonsConfig/cluster&#45;&gt;SSP/ssp&#45;kubevirt&#45;hyperconverged -->
<!-- daemonset/bridge&#45;marker -->
<g id="node10" class="node">
<title>daemonset/bridge&#45;marker</title>
<path fill="none" stroke="#000000" d="M1850,-538C1850,-538 1530,-538 1530,-538 1524,-538 1518,-532 1518,-526 1518,-526 1518,-478 1518,-478 1518,-472 1524,-466 1530,-466 1530,-466 1850,-466 1850,-466 1856,-466 1862,-472 1862,-478 1862,-478 1862,-526 1862,-526 1862,-532 1856,-538 1850,-538"/>
<text text-anchor="middle" x="1690" y="-495.8" font-family="Courier,monospace" font-weight="bold" font-size="24.00" fill="#000000">daemonset/bridge&#45;marker</text>
</g>
<!-- daemonset/kube&#45;cni&#45;linux&#45;bridge&#45;plugin -->
<g id="node11" class="node">
<title>daemonset/kube&#45;cni&#45;linux&#45;bridge&#45;plugin</title>
<path fill="none" stroke="#000000" d="M1957,-448C1957,-448 1423,-448 1423,-448 1417,-448 1411,-442 1411,-436 1411,-436 1411,-388 1411,-388 1411,-382 1417,-376 1423,-376 1423,-376 1957,-376 1957,-376 1963,-376 1969,-382 1969,-388 1969,-388 1969,-436 1969,-436 1969,-442 1963,-448 1957,-448"/>
<text text-anchor="middle" x="1690" y="-405.8" font-family="Courier,monospace" font-weight="bold" font-size="24.00" fill="#000000">daemonset/kube&#45;cni&#45;linux&#45;bridge&#45;plugin</text>
</g>
<!-- deployment/cluster&#45;network&#45;addons&#45;operator -->
<g id="node12" class="node">
<title>deployment/cluster&#45;network&#45;addons&#45;operator</title>
<path fill="none" stroke="#000000" d="M1985.5,-358C1985.5,-358 1394.5,-358 1394.5,-358 1388.5,-358 1382.5,-352 1382.5,-346 1382.5,-346 1382.5,-298 1382.5,-298 1382.5,-292 1388.5,-286 1394.5,-286 1394.5,-286 1985.5,-286 1985.5,-286 1991.5,-286 1997.5,-292 1997.5,-298 1997.5,-298 1997.5,-346 1997.5,-346 1997.5,-352 1991.5,-358 1985.5,-358"/>
<text text-anchor="middle" x="1690" y="-315.8" font-family="Courier,monospace" font-weight="bold" font-size="24.00" fill="#000000">deployment/cluster&#45;network&#45;addons&#45;operator</text>
</g>
<!-- deployment/kubemacpool&#45;cert&#45;manager -->
<g id="node13" class="node">
<title>deployment/kubemacpool&#45;cert&#45;manager</title>
<path fill="none" stroke="#000000" d="M1935.5,-268C1935.5,-268 1444.5,-268 1444.5,-268 1438.5,-268 1432.5,-262 1432.5,-256 1432.5,-256 1432.5,-208 1432.5,-208 1432.5,-202 1438.5,-196 1444.5,-196 1444.5,-196 1935.5,-196 1935.5,-196 1941.5,-196 1947.5,-202 1947.5,-208 1947.5,-208 1947.5,-256 1947.5,-256 1947.5,-262 1941.5,-268 1935.5,-268"/>
<text text-anchor="middle" x="1690" y="-225.8" font-family="Courier,monospace" font-weight="bold" font-size="24.00" fill="#000000">deployment/kubemacpool&#45;cert&#45;manager</text>
</g>
<!-- deployment/kubemacpool&#45;mac&#45;controller&#45;manager -->
<g id="node14" class="node">
<title>deployment/kubemacpool&#45;mac&#45;controller&#45;manager</title>
<path fill="none" stroke="#000000" d="M2007,-178C2007,-178 1373,-178 1373,-178 1367,-178 1361,-172 1361,-166 1361,-166 1361,-118 1361,-118 1361,-112 1367,-106 1373,-106 1373,-106 2007,-106 2007,-106 2013,-106 2019,-112 2019,-118 2019,-118 2019,-166 2019,-166 2019,-172 2013,-178 2007,-178"/>
<text text-anchor="middle" x="1690" y="-135.8" font-family="Courier,monospace" font-weight="bold" font-size="24.00" fill="#000000">deployment/kubemacpool&#45;mac&#45;controller&#45;manager</text>
</g>
<!-- deployment/node&#45;maintenance&#45;operator -->
<g id="node15" class="node">
<title>deployment/node&#45;maintenance&#45;operator</title>
<path fill="none" stroke="#000000" d="M1943,-88C1943,-88 1437,-88 1437,-88 1431,-88 1425,-82 1425,-76 1425,-76 1425,-28 1425,-28 1425,-22 1431,-16 1437,-16 1437,-16 1943,-16 1943,-16 1949,-16 1955,-22 1955,-28 1955,-28 1955,-76 1955,-76 1955,-82 1949,-88 1943,-88"/>
<text text-anchor="middle" x="1690" y="-45.8" font-family="Courier,monospace" font-weight="bold" font-size="24.00" fill="#000000">deployment/node&#45;maintenance&#45;operator</text>
</g>
<!-- CDI/cdi&#45;kubevirt&#45;hyperconverged -->
<g id="node18" class="node">
<title>CDI/cdi&#45;kubevirt&#45;hyperconverged</title>
<path fill="none" stroke="#000000" d="M3059.5,-628C3059.5,-628 2625.5,-628 2625.5,-628 2619.5,-628 2613.5,-622 2613.5,-616 2613.5,-616 2613.5,-568 2613.5,-568 2613.5,-562 2619.5,-556 2625.5,-556 2625.5,-556 3059.5,-556 3059.5,-556 3065.5,-556 3071.5,-562 3071.5,-568 3071.5,-568 3071.5,-616 3071.5,-616 3071.5,-622 3065.5,-628 3059.5,-628"/>
<text text-anchor="middle" x="2842.5" y="-585.8" font-family="Courier,monospace" font-weight="bold" font-size="24.00" fill="#000000">CDI/cdi&#45;kubevirt&#45;hyperconverged</text>
</g>
<!-- SSP/ssp&#45;kubevirt&#45;hyperconverged&#45;&gt;CDI/cdi&#45;kubevirt&#45;hyperconverged -->
<!-- deployment/ssp&#45;operator -->
<g id="node17" class="node">
<title>deployment/ssp&#45;operator</title>
<path fill="none" stroke="#000000" d="M2444,-538C2444,-538 2124,-538 2124,-538 2118,-538 2112,-532 2112,-526 2112,-526 2112,-478 2112,-478 2112,-472 2118,-466 2124,-466 2124,-466 2444,-466 2444,-466 2450,-466 2456,-472 2456,-478 2456,-478 2456,-526 2456,-526 2456,-532 2450,-538 2444,-538"/>
<text text-anchor="middle" x="2284" y="-495.8" font-family="Courier,monospace" font-weight="bold" font-size="24.00" fill="#000000">deployment/ssp&#45;operator</text>
</g>
<!-- deployment/virt&#45;template&#45;validator -->
<g id="node25" class="node">
<title>deployment/virt&#45;template&#45;validator</title>
<path fill="none" stroke="#000000" d="M3661,-628C3661,-628 3184,-628 3184,-628 3178,-628 3172,-622 3172,-616 3172,-616 3172,-568 3172,-568 3172,-562 3178,-556 3184,-556 3184,-556 3661,-556 3661,-556 3667,-556 3673,-562 3673,-568 3673,-568 3673,-616 3673,-616 3673,-622 3667,-628 3661,-628"/>
<text text-anchor="middle" x="3422.5" y="-585.8" font-family="Courier,monospace" font-weight="bold" font-size="24.00" fill="#000000">deployment/virt&#45;template&#45;validator</text>
</g>
<!-- CDI/cdi&#45;kubevirt&#45;hyperconverged&#45;&gt;deployment/virt&#45;template&#45;validator -->
<!-- CDIConfig/config -->
<g id="node19" class="node">
<title>CDIConfig/config</title>
<path fill="none" stroke="#000000" d="M2938.5,-538C2938.5,-538 2746.5,-538 2746.5,-538 2740.5,-538 2734.5,-532 2734.5,-526 2734.5,-526 2734.5,-478 2734.5,-478 2734.5,-472 2740.5,-466 2746.5,-466 2746.5,-466 2938.5,-466 2938.5,-466 2944.5,-466 2950.5,-472 2950.5,-478 2950.5,-478 2950.5,-526 2950.5,-526 2950.5,-532 2944.5,-538 2938.5,-538"/>
<text text-anchor="middle" x="2842.5" y="-495.8" font-family="Courier,monospace" font-weight="bold" font-size="24.00" fill="#000000">CDIConfig/config</text>
</g>
<!-- deployment/cdi&#45;apiserver -->
<g id="node20" class="node">
<title>deployment/cdi&#45;apiserver</title>
<path fill="none" stroke="#000000" d="M3010,-448C3010,-448 2675,-448 2675,-448 2669,-448 2663,-442 2663,-436 2663,-436 2663,-388 2663,-388 2663,-382 2669,-376 2675,-376 2675,-376 3010,-376 3010,-376 3016,-376 3022,-382 3022,-388 3022,-388 3022,-436 3022,-436 3022,-442 3016,-448 3010,-448"/>
<text text-anchor="middle" x="2842.5" y="-405.8" font-family="Courier,monospace" font-weight="bold" font-size="24.00" fill="#000000">deployment/cdi&#45;apiserver</text>
</g>
<!-- deployment/cdi&#45;deployment -->
<g id="node21" class="node">
<title>deployment/cdi&#45;deployment</title>
<path fill="none" stroke="#000000" d="M3017,-358C3017,-358 2668,-358 2668,-358 2662,-358 2656,-352 2656,-346 2656,-346 2656,-298 2656,-298 2656,-292 2662,-286 2668,-286 2668,-286 3017,-286 3017,-286 3023,-286 3029,-292 3029,-298 3029,-298 3029,-346 3029,-346 3029,-352 3023,-358 3017,-358"/>
<text text-anchor="middle" x="2842.5" y="-315.8" font-family="Courier,monospace" font-weight="bold" font-size="24.00" fill="#000000">deployment/cdi&#45;deployment</text>
</g>
<!-- deployment/cdi&#45;operator -->
<g id="node22" class="node">
<title>deployment/cdi&#45;operator</title>
<path fill="none" stroke="#000000" d="M3002.5,-268C3002.5,-268 2682.5,-268 2682.5,-268 2676.5,-268 2670.5,-262 2670.5,-256 2670.5,-256 2670.5,-208 2670.5,-208 2670.5,-202 2676.5,-196 2682.5,-196 2682.5,-196 3002.5,-196 3002.5,-196 3008.5,-196 3014.5,-202 3014.5,-208 3014.5,-208 3014.5,-256 3014.5,-256 3014.5,-262 3008.5,-268 3002.5,-268"/>
<text text-anchor="middle" x="2842.5" y="-225.8" font-family="Courier,monospace" font-weight="bold" font-size="24.00" fill="#000000">deployment/cdi&#45;operator</text>
</g>
<!-- deployment/cdi&#45;uploadproxy -->
<g id="node23" class="node">
<title>deployment/cdi&#45;uploadproxy</title>
<path fill="none" stroke="#000000" d="M3024,-178C3024,-178 2661,-178 2661,-178 2655,-178 2649,-172 2649,-166 2649,-166 2649,-118 2649,-118 2649,-112 2655,-106 2661,-106 2661,-106 3024,-106 3024,-106 3030,-106 3036,-112 3036,-118 3036,-118 3036,-166 3036,-166 3036,-172 3030,-178 3024,-178"/>
<text text-anchor="middle" x="2842.5" y="-135.8" font-family="Courier,monospace" font-weight="bold" font-size="24.00" fill="#000000">deployment/cdi&#45;uploadproxy</text>
</g>
<!-- deployment/hostpath&#45;provisioner&#45;operator -->
<g id="node24" class="node">
<title>deployment/hostpath&#45;provisioner&#45;operator</title>
<path fill="none" stroke="#000000" d="M3124,-88C3124,-88 2561,-88 2561,-88 2555,-88 2549,-82 2549,-76 2549,-76 2549,-28 2549,-28 2549,-22 2555,-16 2561,-16 2561,-16 3124,-16 3124,-16 3130,-16 3136,-22 3136,-28 3136,-28 3136,-76 3136,-76 3136,-82 3130,-88 3124,-88"/>
<text text-anchor="middle" x="2842.5" y="-45.8" font-family="Courier,monospace" font-weight="bold" font-size="24.00" fill="#000000">deployment/hostpath&#45;provisioner&#45;operator</text>
</g>
<!-- HyperConverged/kubevirt&#45;hyperconverged -->
<g id="node26" class="node">
<title>HyperConverged/kubevirt&#45;hyperconverged</title>
<path fill="none" stroke="#000000" d="M4255,-628C4255,-628 3721,-628 3721,-628 3715,-628 3709,-622 3709,-616 3709,-616 3709,-568 3709,-568 3709,-562 3715,-556 3721,-556 3721,-556 4255,-556 4255,-556 4261,-556 4267,-562 4267,-568 4267,-568 4267,-616 4267,-616 4267,-622 4261,-628 4255,-628"/>
<text text-anchor="middle" x="3988" y="-585.8" font-family="Courier,monospace" font-weight="bold" font-size="24.00" fill="#000000">HyperConverged/kubevirt&#45;hyperconverged</text>
</g>
<!-- deployment/virt&#45;template&#45;validator&#45;&gt;HyperConverged/kubevirt&#45;hyperconverged -->
</g>
</svg>
