<?xml version="1.0" encoding="UTF-8" standalone="no"?>
<!DOCTYPE svg PUBLIC "-//W3C//DTD SVG 1.1//EN"
 "http://www.w3.org/Graphics/SVG/1.1/DTD/svg11.dtd">
<!-- Generated by graphviz version 2.44.0 (0)
 -->
<!-- Title: component Pages: 1 -->
<svg width="5414pt" height="706pt"
 viewBox="0.00 0.00 5414.00 706.00" xmlns="http://www.w3.org/2000/svg" xmlns:xlink="http://www.w3.org/1999/xlink">
<g id="graph0" class="graph" transform="scale(1 1) rotate(0) translate(4 702)">
<title>component</title>
<polygon fill="white" stroke="transparent" points="-4,4 -4,-702 5410,-702 5410,4 -4,4"/>
<g id="clust1" class="cluster">
<title>cluster_compute</title>
<polygon fill="none" stroke="black" stroke-dasharray="5,2" points="8,-98 8,-690 562,-690 562,-98 8,-98"/>
<text text-anchor="middle" x="285" y="-652.4" font-family="Courier-Bold" font-size="42.00">compute</text>
</g>
<g id="clust2" class="cluster">
<title>cluster_deployment</title>
<polygon fill="none" stroke="black" stroke-dasharray="5,2" points="582,-368 582,-690 1214,-690 1214,-368 582,-368"/>
<text text-anchor="middle" x="898" y="-652.4" font-family="Courier-Bold" font-size="42.00">deployment</text>
</g>
<g id="clust3" class="cluster">
<title>cluster_kubevirt&#45;apiserver&#45;proxy</title>
<polygon fill="none" stroke="black" stroke-dasharray="5,2" points="1234,-548 1234,-690 1764,-690 1764,-548 1234,-548"/>
<text text-anchor="middle" x="1499" y="-652.4" font-family="Courier-Bold" font-size="42.00">kubevirt&#45;apiserver&#45;proxy</text>
</g>
<g id="clust4" class="cluster">
<title>cluster_kubevirt&#45;console&#45;plugin</title>
<polygon fill="none" stroke="black" stroke-dasharray="5,2" points="1784,-548 1784,-690 2293,-690 2293,-548 1784,-548"/>
<text text-anchor="middle" x="2038.5" y="-652.4" font-family="Courier-Bold" font-size="42.00">kubevirt&#45;console&#45;plugin</text>
</g>
<g id="clust5" class="cluster">
<title>cluster_multi&#45;tenant</title>
<polygon fill="none" stroke="black" stroke-dasharray="5,2" points="2313,-548 2313,-690 2659,-690 2659,-548 2313,-548"/>
<text text-anchor="middle" x="2486" y="-652.4" font-family="Courier-Bold" font-size="42.00">multi&#45;tenant</text>
</g>
<g id="clust6" class="cluster">
<title>cluster_network</title>
<polygon fill="none" stroke="black" stroke-dasharray="5,2" points="2679,-98 2679,-690 3327,-690 3327,-98 2679,-98"/>
<text text-anchor="middle" x="3003" y="-652.4" font-family="Courier-Bold" font-size="42.00">network</text>
</g>
<g id="clust7" class="cluster">
<title>cluster_schedule</title>
<polygon fill="none" stroke="black" stroke-dasharray="5,2" points="3347,-458 3347,-690 3785,-690 3785,-458 3347,-458"/>
<text text-anchor="middle" x="3566" y="-652.4" font-family="Courier-Bold" font-size="42.00">schedule</text>
</g>
<g id="clust8" class="cluster">
<title>cluster_storage</title>
<polygon fill="none" stroke="black" stroke-dasharray="5,2" points="3805,-8 3805,-690 4352,-690 4352,-8 3805,-8"/>
<text text-anchor="middle" x="4078.5" y="-652.4" font-family="Courier-Bold" font-size="42.00">storage</text>
</g>
<g id="clust9" class="cluster">
<title>cluster_templating</title>
<polygon fill="none" stroke="black" stroke-dasharray="5,2" points="4372,-548 4372,-690 4831,-690 4831,-548 4372,-548"/>
<text text-anchor="middle" x="4601.5" y="-652.4" font-family="Courier-Bold" font-size="42.00">templating</text>
</g>
<g id="clust10" class="cluster">
<title>cluster_unassigned</title>
<polygon fill="none" stroke="black" stroke-dasharray="5,2" points="4851,-548 4851,-690 5398,-690 5398,-548 4851,-548"/>
<text text-anchor="middle" x="5124.5" y="-652.4" font-family="Courier-Bold" font-size="42.00">unassigned</text>
</g>
<!-- KubeVirt/kubevirt&#45;kubevirt&#45;hyperconverged -->
<g id="node1" class="node">
<title>KubeVirt/kubevirt&#45;kubevirt&#45;hyperconverged</title>
<path fill="none" stroke="black" d="M542,-628C542,-628 28,-628 28,-628 22,-628 16,-622 16,-616 16,-616 16,-568 16,-568 16,-562 22,-556 28,-556 28,-556 542,-556 542,-556 548,-556 554,-562 554,-568 554,-568 554,-616 554,-616 554,-622 548,-628 542,-628"/>
<text text-anchor="middle" x="285" y="-585.8" font-family="Courier-Bold" font-size="24.00">KubeVirt/kubevirt&#45;kubevirt&#45;hyperconverged</text>
</g>
<!-- deployment/hco&#45;operator -->
<g id="node7" class="node">
<title>deployment/hco&#45;operator</title>
<path fill="none" stroke="black" d="M1049,-628C1049,-628 747,-628 747,-628 741,-628 735,-622 735,-616 735,-616 735,-568 735,-568 735,-562 741,-556 747,-556 747,-556 1049,-556 1049,-556 1055,-556 1061,-562 1061,-568 1061,-568 1061,-616 1061,-616 1061,-622 1055,-628 1049,-628"/>
<text text-anchor="middle" x="898" y="-585.8" font-family="Courier-Bold" font-size="24.00">deployment/hco&#45;operator</text>
</g>
<!-- KubeVirt/kubevirt&#45;kubevirt&#45;hyperconverged&#45;&gt;deployment/hco&#45;operator -->
<!-- daemonset/virt&#45;handler -->
<g id="node2" class="node">
<title>daemonset/virt&#45;handler</title>
<path fill="none" stroke="black" d="M424,-538C424,-538 146,-538 146,-538 140,-538 134,-532 134,-526 134,-526 134,-478 134,-478 134,-472 140,-466 146,-466 146,-466 424,-466 424,-466 430,-466 436,-472 436,-478 436,-478 436,-526 436,-526 436,-532 430,-538 424,-538"/>
<text text-anchor="middle" x="285" y="-495.8" font-family="Courier-Bold" font-size="24.00">daemonset/virt&#45;handler</text>
</g>
<!-- deployment/virt&#45;api -->
<g id="node3" class="node">
<title>deployment/virt&#45;api</title>
<path fill="none" stroke="black" d="M400.5,-448C400.5,-448 169.5,-448 169.5,-448 163.5,-448 157.5,-442 157.5,-436 157.5,-436 157.5,-388 157.5,-388 157.5,-382 163.5,-376 169.5,-376 169.5,-376 400.5,-376 400.5,-376 406.5,-376 412.5,-382 412.5,-388 412.5,-388 412.5,-436 412.5,-436 412.5,-442 406.5,-448 400.5,-448"/>
<text text-anchor="middle" x="285" y="-405.8" font-family="Courier-Bold" font-size="24.00">deployment/virt&#45;api</text>
</g>
<!-- deployment/virt&#45;controller -->
<g id="node4" class="node">
<title>deployment/virt&#45;controller</title>
<path fill="none" stroke="black" d="M440,-358C440,-358 130,-358 130,-358 124,-358 118,-352 118,-346 118,-346 118,-298 118,-298 118,-292 124,-286 130,-286 130,-286 440,-286 440,-286 446,-286 452,-292 452,-298 452,-298 452,-346 452,-346 452,-352 446,-358 440,-358"/>
<text text-anchor="middle" x="285" y="-315.8" font-family="Courier-Bold" font-size="24.00">deployment/virt&#45;controller</text>
</g>
<!-- deployment/virt&#45;exportproxy -->
<g id="node5" class="node">
<title>deployment/virt&#45;exportproxy</title>
<path fill="none" stroke="black" d="M454.5,-268C454.5,-268 115.5,-268 115.5,-268 109.5,-268 103.5,-262 103.5,-256 103.5,-256 103.5,-208 103.5,-208 103.5,-202 109.5,-196 115.5,-196 115.5,-196 454.5,-196 454.5,-196 460.5,-196 466.5,-202 466.5,-208 466.5,-208 466.5,-256 466.5,-256 466.5,-262 460.5,-268 454.5,-268"/>
<text text-anchor="middle" x="285" y="-225.8" font-family="Courier-Bold" font-size="24.00">deployment/virt&#45;exportproxy</text>
</g>
<!-- deployment/virt&#45;operator -->
<g id="node6" class="node">
<title>deployment/virt&#45;operator</title>
<path fill="none" stroke="black" d="M434.5,-178C434.5,-178 135.5,-178 135.5,-178 129.5,-178 123.5,-172 123.5,-166 123.5,-166 123.5,-118 123.5,-118 123.5,-112 129.5,-106 135.5,-106 135.5,-106 434.5,-106 434.5,-106 440.5,-106 446.5,-112 446.5,-118 446.5,-118 446.5,-166 446.5,-166 446.5,-172 440.5,-178 434.5,-178"/>
<text text-anchor="middle" x="285" y="-135.8" font-family="Courier-Bold" font-size="24.00">deployment/virt&#45;operator</text>
</g>
<!-- deployment/kubevirt&#45;apiserver&#45;proxy -->
<g id="node10" class="node">
<title>deployment/kubevirt&#45;apiserver&#45;proxy</title>
<path fill="none" stroke="black" d="M1719,-628C1719,-628 1279,-628 1279,-628 1273,-628 1267,-622 1267,-616 1267,-616 1267,-568 1267,-568 1267,-562 1273,-556 1279,-556 1279,-556 1719,-556 1719,-556 1725,-556 1731,-562 1731,-568 1731,-568 1731,-616 1731,-616 1731,-622 1725,-628 1719,-628"/>
<text text-anchor="middle" x="1499" y="-585.8" font-family="Courier-Bold" font-size="24.00">deployment/kubevirt&#45;apiserver&#45;proxy</text>
</g>
<!-- deployment/hco&#45;operator&#45;&gt;deployment/kubevirt&#45;apiserver&#45;proxy -->
<!-- deployment/hco&#45;webhook -->
<g id="node8" class="node">
<title>deployment/hco&#45;webhook</title>
<path fill="none" stroke="black" d="M1051,-538C1051,-538 745,-538 745,-538 739,-538 733,-532 733,-526 733,-526 733,-478 733,-478 733,-472 739,-466 745,-466 745,-466 1051,-466 1051,-466 1057,-466 1063,-472 1063,-478 1063,-478 1063,-526 1063,-526 1063,-532 1057,-538 1051,-538"/>
<text text-anchor="middle" x="898" y="-495.8" font-family="Courier-Bold" font-size="24.00">deployment/hco&#45;webhook</text>
</g>
<!-- deployment/hyperconverged&#45;cluster&#45;cli&#45;download -->
<g id="node9" class="node">
<title>deployment/hyperconverged&#45;cluster&#45;cli&#45;download</title>
<path fill="none" stroke="black" d="M1194,-448C1194,-448 602,-448 602,-448 596,-448 590,-442 590,-436 590,-436 590,-388 590,-388 590,-382 596,-376 602,-376 602,-376 1194,-376 1194,-376 1200,-376 1206,-382 1206,-388 1206,-388 1206,-436 1206,-436 1206,-442 1200,-448 1194,-448"/>
<text text-anchor="middle" x="898" y="-405.8" font-family="Courier-Bold" font-size="24.00">deployment/hyperconverged&#45;cluster&#45;cli&#45;download</text>
</g>
<!-- deployment/kubevirt&#45;console&#45;plugin -->
<g id="node11" class="node">
<title>deployment/kubevirt&#45;console&#45;plugin</title>
<path fill="none" stroke="black" d="M2252,-628C2252,-628 1824,-628 1824,-628 1818,-628 1812,-622 1812,-616 1812,-616 1812,-568 1812,-568 1812,-562 1818,-556 1824,-556 1824,-556 2252,-556 2252,-556 2258,-556 2264,-562 2264,-568 2264,-568 2264,-616 2264,-616 2264,-622 2258,-628 2252,-628"/>
<text text-anchor="middle" x="2038" y="-585.8" font-family="Courier-Bold" font-size="24.00">deployment/kubevirt&#45;console&#45;plugin</text>
</g>
<!-- deployment/kubevirt&#45;apiserver&#45;proxy&#45;&gt;deployment/kubevirt&#45;console&#45;plugin -->
<!-- deployment/mtq&#45;operator -->
<g id="node12" class="node">
<title>deployment/mtq&#45;operator</title>
<path fill="none" stroke="black" d="M2639,-628C2639,-628 2333,-628 2333,-628 2327,-628 2321,-622 2321,-616 2321,-616 2321,-568 2321,-568 2321,-562 2327,-556 2333,-556 2333,-556 2639,-556 2639,-556 2645,-556 2651,-562 2651,-568 2651,-568 2651,-616 2651,-616 2651,-622 2645,-628 2639,-628"/>
<text text-anchor="middle" x="2486" y="-585.8" font-family="Courier-Bold" font-size="24.00">deployment/mtq&#45;operator</text>
</g>
<!-- deployment/kubevirt&#45;console&#45;plugin&#45;&gt;deployment/mtq&#45;operator -->
<!-- NetworkAddonsConfig/cluster -->
<g id="node13" class="node">
<title>NetworkAddonsConfig/cluster</title>
<path fill="none" stroke="black" d="M3178,-628C3178,-628 2828,-628 2828,-628 2822,-628 2816,-622 2816,-616 2816,-616 2816,-568 2816,-568 2816,-562 2822,-556 2828,-556 2828,-556 3178,-556 3178,-556 3184,-556 3190,-562 3190,-568 3190,-568 3190,-616 3190,-616 3190,-622 3184,-628 3178,-628"/>
<text text-anchor="middle" x="3003" y="-585.8" font-family="Courier-Bold" font-size="24.00">NetworkAddonsConfig/cluster</text>
</g>
<!-- deployment/mtq&#45;operator&#45;&gt;NetworkAddonsConfig/cluster -->
<!-- SSP/ssp&#45;kubevirt&#45;hyperconverged -->
<g id="node19" class="node">
<title>SSP/ssp&#45;kubevirt&#45;hyperconverged</title>
<path fill="none" stroke="black" d="M3765,-628C3765,-628 3367,-628 3367,-628 3361,-628 3355,-622 3355,-616 3355,-616 3355,-568 3355,-568 3355,-562 3361,-556 3367,-556 3367,-556 3765,-556 3765,-556 3771,-556 3777,-562 3777,-568 3777,-568 3777,-616 3777,-616 3777,-622 3771,-628 3765,-628"/>
<text text-anchor="middle" x="3566" y="-585.8" font-family="Courier-Bold" font-size="24.00">SSP/ssp&#45;kubevirt&#45;hyperconverged</text>
</g>
<!-- NetworkAddonsConfig/cluster&#45;&gt;SSP/ssp&#45;kubevirt&#45;hyperconverged -->
<!-- daemonset/bridge&#45;marker -->
<g id="node14" class="node">
<title>daemonset/bridge&#45;marker</title>
<path fill="none" stroke="black" d="M3157,-538C3157,-538 2849,-538 2849,-538 2843,-538 2837,-532 2837,-526 2837,-526 2837,-478 2837,-478 2837,-472 2843,-466 2849,-466 2849,-466 3157,-466 3157,-466 3163,-466 3169,-472 3169,-478 3169,-478 3169,-526 3169,-526 3169,-532 3163,-538 3157,-538"/>
<text text-anchor="middle" x="3003" y="-495.8" font-family="Courier-Bold" font-size="24.00">daemonset/bridge&#45;marker</text>
</g>
<!-- daemonset/kube&#45;cni&#45;linux&#45;bridge&#45;plugin -->
<g id="node15" class="node">
<title>daemonset/kube&#45;cni&#45;linux&#45;bridge&#45;plugin</title>
<path fill="none" stroke="black" d="M3240,-448C3240,-448 2766,-448 2766,-448 2760,-448 2754,-442 2754,-436 2754,-436 2754,-388 2754,-388 2754,-382 2760,-376 2766,-376 2766,-376 3240,-376 3240,-376 3246,-376 3252,-382 3252,-388 3252,-388 3252,-436 3252,-436 3252,-442 3246,-448 3240,-448"/>
<text text-anchor="middle" x="3003" y="-405.8" font-family="Courier-Bold" font-size="24.00">daemonset/kube&#45;cni&#45;linux&#45;bridge&#45;plugin</text>
</g>
<!-- deployment/cluster&#45;network&#45;addons&#45;operator -->
<g id="node16" class="node">
<title>deployment/cluster&#45;network&#45;addons&#45;operator</title>
<path fill="none" stroke="black" d="M3274.5,-358C3274.5,-358 2731.5,-358 2731.5,-358 2725.5,-358 2719.5,-352 2719.5,-346 2719.5,-346 2719.5,-298 2719.5,-298 2719.5,-292 2725.5,-286 2731.5,-286 2731.5,-286 3274.5,-286 3274.5,-286 3280.5,-286 3286.5,-292 3286.5,-298 3286.5,-298 3286.5,-346 3286.5,-346 3286.5,-352 3280.5,-358 3274.5,-358"/>
<text text-anchor="middle" x="3003" y="-315.8" font-family="Courier-Bold" font-size="24.00">deployment/cluster&#45;network&#45;addons&#45;operator</text>
</g>
<!-- deployment/kubemacpool&#45;cert&#45;manager -->
<g id="node17" class="node">
<title>deployment/kubemacpool&#45;cert&#45;manager</title>
<path fill="none" stroke="black" d="M3243.5,-268C3243.5,-268 2762.5,-268 2762.5,-268 2756.5,-268 2750.5,-262 2750.5,-256 2750.5,-256 2750.5,-208 2750.5,-208 2750.5,-202 2756.5,-196 2762.5,-196 2762.5,-196 3243.5,-196 3243.5,-196 3249.5,-196 3255.5,-202 3255.5,-208 3255.5,-208 3255.5,-256 3255.5,-256 3255.5,-262 3249.5,-268 3243.5,-268"/>
<text text-anchor="middle" x="3003" y="-225.8" font-family="Courier-Bold" font-size="24.00">deployment/kubemacpool&#45;cert&#45;manager</text>
</g>
<!-- deployment/kubemacpool&#45;mac&#45;controller&#45;manager -->
<g id="node18" class="node">
<title>deployment/kubemacpool&#45;mac&#45;controller&#45;manager</title>
<path fill="none" stroke="black" d="M3307,-178C3307,-178 2699,-178 2699,-178 2693,-178 2687,-172 2687,-166 2687,-166 2687,-118 2687,-118 2687,-112 2693,-106 2699,-106 2699,-106 3307,-106 3307,-106 3313,-106 3319,-112 3319,-118 3319,-118 3319,-166 3319,-166 3319,-172 3313,-178 3307,-178"/>
<text text-anchor="middle" x="3003" y="-135.8" font-family="Courier-Bold" font-size="24.00">deployment/kubemacpool&#45;mac&#45;controller&#45;manager</text>
</g>
<!-- CDI/cdi&#45;kubevirt&#45;hyperconverged -->
<g id="node21" class="node">
<title>CDI/cdi&#45;kubevirt&#45;hyperconverged</title>
<path fill="none" stroke="black" d="M4274,-628C4274,-628 3883,-628 3883,-628 3877,-628 3871,-622 3871,-616 3871,-616 3871,-568 3871,-568 3871,-562 3877,-556 3883,-556 3883,-556 4274,-556 4274,-556 4280,-556 4286,-562 4286,-568 4286,-568 4286,-616 4286,-616 4286,-622 4280,-628 4274,-628"/>
<text text-anchor="middle" x="4078.5" y="-585.8" font-family="Courier-Bold" font-size="24.00">CDI/cdi&#45;kubevirt&#45;hyperconverged</text>
</g>
<!-- SSP/ssp&#45;kubevirt&#45;hyperconverged&#45;&gt;CDI/cdi&#45;kubevirt&#45;hyperconverged -->
<!-- deployment/ssp&#45;operator -->
<g id="node20" class="node">
<title>deployment/ssp&#45;operator</title>
<path fill="none" stroke="black" d="M3715.5,-538C3715.5,-538 3416.5,-538 3416.5,-538 3410.5,-538 3404.5,-532 3404.5,-526 3404.5,-526 3404.5,-478 3404.5,-478 3404.5,-472 3410.5,-466 3416.5,-466 3416.5,-466 3715.5,-466 3715.5,-466 3721.5,-466 3727.5,-472 3727.5,-478 3727.5,-478 3727.5,-526 3727.5,-526 3727.5,-532 3721.5,-538 3715.5,-538"/>
<text text-anchor="middle" x="3566" y="-495.8" font-family="Courier-Bold" font-size="24.00">deployment/ssp&#45;operator</text>
</g>
<!-- deployment/virt&#45;template&#45;validator -->
<g id="node28" class="node">
<title>deployment/virt&#45;template&#45;validator</title>
<path fill="none" stroke="black" d="M4811,-628C4811,-628 4392,-628 4392,-628 4386,-628 4380,-622 4380,-616 4380,-616 4380,-568 4380,-568 4380,-562 4386,-556 4392,-556 4392,-556 4811,-556 4811,-556 4817,-556 4823,-562 4823,-568 4823,-568 4823,-616 4823,-616 4823,-622 4817,-628 4811,-628"/>
<text text-anchor="middle" x="4601.5" y="-585.8" font-family="Courier-Bold" font-size="24.00">deployment/virt&#45;template&#45;validator</text>
</g>
<!-- CDI/cdi&#45;kubevirt&#45;hyperconverged&#45;&gt;deployment/virt&#45;template&#45;validator -->
<!-- CDIConfig/config -->
<g id="node22" class="node">
<title>CDIConfig/config</title>
<path fill="none" stroke="black" d="M4175,-538C4175,-538 3982,-538 3982,-538 3976,-538 3970,-532 3970,-526 3970,-526 3970,-478 3970,-478 3970,-472 3976,-466 3982,-466 3982,-466 4175,-466 4175,-466 4181,-466 4187,-472 4187,-478 4187,-478 4187,-526 4187,-526 4187,-532 4181,-538 4175,-538"/>
<text text-anchor="middle" x="4078.5" y="-495.8" font-family="Courier-Bold" font-size="24.00">CDIConfig/config</text>
</g>
<!-- deployment/cdi&#45;apiserver -->
<g id="node23" class="node">
<title>deployment/cdi&#45;apiserver</title>
<path fill="none" stroke="black" d="M4229.5,-448C4229.5,-448 3927.5,-448 3927.5,-448 3921.5,-448 3915.5,-442 3915.5,-436 3915.5,-436 3915.5,-388 3915.5,-388 3915.5,-382 3921.5,-376 3927.5,-376 3927.5,-376 4229.5,-376 4229.5,-376 4235.5,-376 4241.5,-382 4241.5,-388 4241.5,-388 4241.5,-436 4241.5,-436 4241.5,-442 4235.5,-448 4229.5,-448"/>
<text text-anchor="middle" x="4078.5" y="-405.8" font-family="Courier-Bold" font-size="24.00">deployment/cdi&#45;apiserver</text>
</g>
<!-- deployment/cdi&#45;deployment -->
<g id="node24" class="node">
<title>deployment/cdi&#45;deployment</title>
<path fill="none" stroke="black" d="M4245,-358C4245,-358 3912,-358 3912,-358 3906,-358 3900,-352 3900,-346 3900,-346 3900,-298 3900,-298 3900,-292 3906,-286 3912,-286 3912,-286 4245,-286 4245,-286 4251,-286 4257,-292 4257,-298 4257,-298 4257,-346 4257,-346 4257,-352 4251,-358 4245,-358"/>
<text text-anchor="middle" x="4078.5" y="-315.8" font-family="Courier-Bold" font-size="24.00">deployment/cdi&#45;deployment</text>
</g>
<!-- deployment/cdi&#45;operator -->
<g id="node25" class="node">
<title>deployment/cdi&#45;operator</title>
<path fill="none" stroke="black" d="M4225,-268C4225,-268 3932,-268 3932,-268 3926,-268 3920,-262 3920,-256 3920,-256 3920,-208 3920,-208 3920,-202 3926,-196 3932,-196 3932,-196 4225,-196 4225,-196 4231,-196 4237,-202 4237,-208 4237,-208 4237,-256 4237,-256 4237,-262 4231,-268 4225,-268"/>
<text text-anchor="middle" x="4078.5" y="-225.8" font-family="Courier-Bold" font-size="24.00">deployment/cdi&#45;operator</text>
</g>
<!-- deployment/cdi&#45;uploadproxy -->
<g id="node26" class="node">
<title>deployment/cdi&#45;uploadproxy</title>
<path fill="none" stroke="black" d="M4247.5,-178C4247.5,-178 3909.5,-178 3909.5,-178 3903.5,-178 3897.5,-172 3897.5,-166 3897.5,-166 3897.5,-118 3897.5,-118 3897.5,-112 3903.5,-106 3909.5,-106 3909.5,-106 4247.5,-106 4247.5,-106 4253.5,-106 4259.5,-112 4259.5,-118 4259.5,-118 4259.5,-166 4259.5,-166 4259.5,-172 4253.5,-178 4247.5,-178"/>
<text text-anchor="middle" x="4078.5" y="-135.8" font-family="Courier-Bold" font-size="24.00">deployment/cdi&#45;uploadproxy</text>
</g>
<!-- deployment/hostpath&#45;provisioner&#45;operator -->
<g id="node27" class="node">
<title>deployment/hostpath&#45;provisioner&#45;operator</title>
<path fill="none" stroke="black" d="M4332,-88C4332,-88 3825,-88 3825,-88 3819,-88 3813,-82 3813,-76 3813,-76 3813,-28 3813,-28 3813,-22 3819,-16 3825,-16 3825,-16 4332,-16 4332,-16 4338,-16 4344,-22 4344,-28 4344,-28 4344,-76 4344,-76 4344,-82 4338,-88 4332,-88"/>
<text text-anchor="middle" x="4078.5" y="-45.8" font-family="Courier-Bold" font-size="24.00">deployment/hostpath&#45;provisioner&#45;operator</text>
</g>
<!-- HyperConverged/kubevirt&#45;hyperconverged -->
<g id="node29" class="node">
<title>HyperConverged/kubevirt&#45;hyperconverged</title>
<path fill="none" stroke="black" d="M5378,-628C5378,-628 4871,-628 4871,-628 4865,-628 4859,-622 4859,-616 4859,-616 4859,-568 4859,-568 4859,-562 4865,-556 4871,-556 4871,-556 5378,-556 5378,-556 5384,-556 5390,-562 5390,-568 5390,-568 5390,-616 5390,-616 5390,-622 5384,-628 5378,-628"/>
<text text-anchor="middle" x="5124.5" y="-585.8" font-family="Courier-Bold" font-size="24.00">HyperConverged/kubevirt&#45;hyperconverged</text>
</g>
<!-- deployment/virt&#45;template&#45;validator&#45;&gt;HyperConverged/kubevirt&#45;hyperconverged -->
</g>
</svg>
