<?xml version="1.0" encoding="UTF-8" standalone="no"?>
<!DOCTYPE svg PUBLIC "-//W3C//DTD SVG 1.1//EN"
 "http://www.w3.org/Graphics/SVG/1.1/DTD/svg11.dtd">
<!-- Generated by graphviz version 2.44.0 (0)
 -->
<!-- Title: component Pages: 1 -->
<svg width="4498pt" height="706pt"
 viewBox="0.00 0.00 4498.00 706.00" xmlns="http://www.w3.org/2000/svg" xmlns:xlink="http://www.w3.org/1999/xlink">
<g id="graph0" class="graph" transform="scale(1 1) rotate(0) translate(4 702)">
<title>component</title>
<polygon fill="white" stroke="transparent" points="-4,4 -4,-702 4494,-702 4494,4 -4,4"/>
<g id="clust1" class="cluster">
<title>cluster_compute</title>
<polygon fill="none" stroke="black" stroke-dasharray="5,2" points="8,-98 8,-690 562,-690 562,-98 8,-98"/>
<text text-anchor="middle" x="285" y="-652.4" font-family="Courier-Bold" font-size="42.00">compute</text>
</g>
<g id="clust2" class="cluster">
<title>cluster_deployment</title>
<polygon fill="none" stroke="black" stroke-dasharray="5,2" points="582,-368 582,-690 1214,-690 1214,-368 582,-368"/>
<text text-anchor="middle" x="898" y="-652.4" font-family="Courier-Bold" font-size="42.00">deployment</text>
</g>
<g id="clust3" class="cluster">
<title>cluster_kubevirt&#45;console&#45;plugin</title>
<polygon fill="none" stroke="black" stroke-dasharray="5,2" points="1234,-548 1234,-690 1743,-690 1743,-548 1234,-548"/>
<text text-anchor="middle" x="1488.5" y="-652.4" font-family="Courier-Bold" font-size="42.00">kubevirt&#45;console&#45;plugin</text>
</g>
<g id="clust4" class="cluster">
<title>cluster_network</title>
<polygon fill="none" stroke="black" stroke-dasharray="5,2" points="1763,-98 1763,-690 2411,-690 2411,-98 1763,-98"/>
<text text-anchor="middle" x="2087" y="-652.4" font-family="Courier-Bold" font-size="42.00">network</text>
</g>
<g id="clust5" class="cluster">
<title>cluster_schedule</title>
<polygon fill="none" stroke="black" stroke-dasharray="5,2" points="2431,-458 2431,-690 2869,-690 2869,-458 2431,-458"/>
<text text-anchor="middle" x="2650" y="-652.4" font-family="Courier-Bold" font-size="42.00">schedule</text>
</g>
<g id="clust6" class="cluster">
<title>cluster_storage</title>
<polygon fill="none" stroke="black" stroke-dasharray="5,2" points="2889,-8 2889,-690 3436,-690 3436,-8 2889,-8"/>
<text text-anchor="middle" x="3162.5" y="-652.4" font-family="Courier-Bold" font-size="42.00">storage</text>
</g>
<g id="clust7" class="cluster">
<title>cluster_templating</title>
<polygon fill="none" stroke="black" stroke-dasharray="5,2" points="3456,-548 3456,-690 3915,-690 3915,-548 3456,-548"/>
<text text-anchor="middle" x="3685.5" y="-652.4" font-family="Courier-Bold" font-size="42.00">templating</text>
</g>
<g id="clust8" class="cluster">
<title>cluster_unassigned</title>
<polygon fill="none" stroke="black" stroke-dasharray="5,2" points="3935,-548 3935,-690 4482,-690 4482,-548 3935,-548"/>
<text text-anchor="middle" x="4208.5" y="-652.4" font-family="Courier-Bold" font-size="42.00">unassigned</text>
</g>
<!-- KubeVirt/kubevirt&#45;kubevirt&#45;hyperconverged -->
<g id="node1" class="node">
<title>KubeVirt/kubevirt&#45;kubevirt&#45;hyperconverged</title>
<path fill="none" stroke="black" d="M542,-628C542,-628 28,-628 28,-628 22,-628 16,-622 16,-616 16,-616 16,-568 16,-568 16,-562 22,-556 28,-556 28,-556 542,-556 542,-556 548,-556 554,-562 554,-568 554,-568 554,-616 554,-616 554,-622 548,-628 542,-628"/>
<text text-anchor="middle" x="285" y="-585.8" font-family="Courier-Bold" font-size="24.00">KubeVirt/kubevirt&#45;kubevirt&#45;hyperconverged</text>
</g>
<!-- deployment/hco&#45;operator -->
<g id="node7" class="node">
<title>deployment/hco&#45;operator</title>
<path fill="none" stroke="black" d="M1049,-628C1049,-628 747,-628 747,-628 741,-628 735,-622 735,-616 735,-616 735,-568 735,-568 735,-562 741,-556 747,-556 747,-556 1049,-556 1049,-556 1055,-556 1061,-562 1061,-568 1061,-568 1061,-616 1061,-616 1061,-622 1055,-628 1049,-628"/>
<text text-anchor="middle" x="898" y="-585.8" font-family="Courier-Bold" font-size="24.00">deployment/hco&#45;operator</text>
</g>
<!-- KubeVirt/kubevirt&#45;kubevirt&#45;hyperconverged&#45;&gt;deployment/hco&#45;operator -->
<!-- daemonset/virt&#45;handler -->
<g id="node2" class="node">
<title>daemonset/virt&#45;handler</title>
<path fill="none" stroke="black" d="M424,-538C424,-538 146,-538 146,-538 140,-538 134,-532 134,-526 134,-526 134,-478 134,-478 134,-472 140,-466 146,-466 146,-466 424,-466 424,-466 430,-466 436,-472 436,-478 436,-478 436,-526 436,-526 436,-532 430,-538 424,-538"/>
<text text-anchor="middle" x="285" y="-495.8" font-family="Courier-Bold" font-size="24.00">daemonset/virt&#45;handler</text>
</g>
<!-- deployment/virt&#45;api -->
<g id="node3" class="node">
<title>deployment/virt&#45;api</title>
<path fill="none" stroke="black" d="M400.5,-448C400.5,-448 169.5,-448 169.5,-448 163.5,-448 157.5,-442 157.5,-436 157.5,-436 157.5,-388 157.5,-388 157.5,-382 163.5,-376 169.5,-376 169.5,-376 400.5,-376 400.5,-376 406.5,-376 412.5,-382 412.5,-388 412.5,-388 412.5,-436 412.5,-436 412.5,-442 406.5,-448 400.5,-448"/>
<text text-anchor="middle" x="285" y="-405.8" font-family="Courier-Bold" font-size="24.00">deployment/virt&#45;api</text>
</g>
<!-- deployment/virt&#45;controller -->
<g id="node4" class="node">
<title>deployment/virt&#45;controller</title>
<path fill="none" stroke="black" d="M440,-358C440,-358 130,-358 130,-358 124,-358 118,-352 118,-346 118,-346 118,-298 118,-298 118,-292 124,-286 130,-286 130,-286 440,-286 440,-286 446,-286 452,-292 452,-298 452,-298 452,-346 452,-346 452,-352 446,-358 440,-358"/>
<text text-anchor="middle" x="285" y="-315.8" font-family="Courier-Bold" font-size="24.00">deployment/virt&#45;controller</text>
</g>
<!-- deployment/virt&#45;exportproxy -->
<g id="node5" class="node">
<title>deployment/virt&#45;exportproxy</title>
<path fill="none" stroke="black" d="M454.5,-268C454.5,-268 115.5,-268 115.5,-268 109.5,-268 103.5,-262 103.5,-256 103.5,-256 103.5,-208 103.5,-208 103.5,-202 109.5,-196 115.5,-196 115.5,-196 454.5,-196 454.5,-196 460.5,-196 466.5,-202 466.5,-208 466.5,-208 466.5,-256 466.5,-256 466.5,-262 460.5,-268 454.5,-268"/>
<text text-anchor="middle" x="285" y="-225.8" font-family="Courier-Bold" font-size="24.00">deployment/virt&#45;exportproxy</text>
</g>
<!-- deployment/virt&#45;operator -->
<g id="node6" class="node">
<title>deployment/virt&#45;operator</title>
<path fill="none" stroke="black" d="M434.5,-178C434.5,-178 135.5,-178 135.5,-178 129.5,-178 123.5,-172 123.5,-166 123.5,-166 123.5,-118 123.5,-118 123.5,-112 129.5,-106 135.5,-106 135.5,-106 434.5,-106 434.5,-106 440.5,-106 446.5,-112 446.5,-118 446.5,-118 446.5,-166 446.5,-166 446.5,-172 440.5,-178 434.5,-178"/>
<text text-anchor="middle" x="285" y="-135.8" font-family="Courier-Bold" font-size="24.00">deployment/virt&#45;operator</text>
</g>
<!-- deployment/kubevirt&#45;console&#45;plugin -->
<g id="node10" class="node">
<title>deployment/kubevirt&#45;console&#45;plugin</title>
<path fill="none" stroke="black" d="M1702,-628C1702,-628 1274,-628 1274,-628 1268,-628 1262,-622 1262,-616 1262,-616 1262,-568 1262,-568 1262,-562 1268,-556 1274,-556 1274,-556 1702,-556 1702,-556 1708,-556 1714,-562 1714,-568 1714,-568 1714,-616 1714,-616 1714,-622 1708,-628 1702,-628"/>
<text text-anchor="middle" x="1488" y="-585.8" font-family="Courier-Bold" font-size="24.00">deployment/kubevirt&#45;console&#45;plugin</text>
</g>
<!-- deployment/hco&#45;operator&#45;&gt;deployment/kubevirt&#45;console&#45;plugin -->
<!-- deployment/hco&#45;webhook -->
<g id="node8" class="node">
<title>deployment/hco&#45;webhook</title>
<path fill="none" stroke="black" d="M1051,-538C1051,-538 745,-538 745,-538 739,-538 733,-532 733,-526 733,-526 733,-478 733,-478 733,-472 739,-466 745,-466 745,-466 1051,-466 1051,-466 1057,-466 1063,-472 1063,-478 1063,-478 1063,-526 1063,-526 1063,-532 1057,-538 1051,-538"/>
<text text-anchor="middle" x="898" y="-495.8" font-family="Courier-Bold" font-size="24.00">deployment/hco&#45;webhook</text>
</g>
<!-- deployment/hyperconverged&#45;cluster&#45;cli&#45;download -->
<g id="node9" class="node">
<title>deployment/hyperconverged&#45;cluster&#45;cli&#45;download</title>
<path fill="none" stroke="black" d="M1194,-448C1194,-448 602,-448 602,-448 596,-448 590,-442 590,-436 590,-436 590,-388 590,-388 590,-382 596,-376 602,-376 602,-376 1194,-376 1194,-376 1200,-376 1206,-382 1206,-388 1206,-388 1206,-436 1206,-436 1206,-442 1200,-448 1194,-448"/>
<text text-anchor="middle" x="898" y="-405.8" font-family="Courier-Bold" font-size="24.00">deployment/hyperconverged&#45;cluster&#45;cli&#45;download</text>
</g>
<!-- NetworkAddonsConfig/cluster -->
<g id="node11" class="node">
<title>NetworkAddonsConfig/cluster</title>
<path fill="none" stroke="black" d="M2262,-628C2262,-628 1912,-628 1912,-628 1906,-628 1900,-622 1900,-616 1900,-616 1900,-568 1900,-568 1900,-562 1906,-556 1912,-556 1912,-556 2262,-556 2262,-556 2268,-556 2274,-562 2274,-568 2274,-568 2274,-616 2274,-616 2274,-622 2268,-628 2262,-628"/>
<text text-anchor="middle" x="2087" y="-585.8" font-family="Courier-Bold" font-size="24.00">NetworkAddonsConfig/cluster</text>
</g>
<!-- deployment/kubevirt&#45;console&#45;plugin&#45;&gt;NetworkAddonsConfig/cluster -->
<!-- SSP/ssp&#45;kubevirt&#45;hyperconverged -->
<g id="node17" class="node">
<title>SSP/ssp&#45;kubevirt&#45;hyperconverged</title>
<path fill="none" stroke="black" d="M2849,-628C2849,-628 2451,-628 2451,-628 2445,-628 2439,-622 2439,-616 2439,-616 2439,-568 2439,-568 2439,-562 2445,-556 2451,-556 2451,-556 2849,-556 2849,-556 2855,-556 2861,-562 2861,-568 2861,-568 2861,-616 2861,-616 2861,-622 2855,-628 2849,-628"/>
<text text-anchor="middle" x="2650" y="-585.8" font-family="Courier-Bold" font-size="24.00">SSP/ssp&#45;kubevirt&#45;hyperconverged</text>
</g>
<!-- NetworkAddonsConfig/cluster&#45;&gt;SSP/ssp&#45;kubevirt&#45;hyperconverged -->
<!-- daemonset/bridge&#45;marker -->
<g id="node12" class="node">
<title>daemonset/bridge&#45;marker</title>
<path fill="none" stroke="black" d="M2241,-538C2241,-538 1933,-538 1933,-538 1927,-538 1921,-532 1921,-526 1921,-526 1921,-478 1921,-478 1921,-472 1927,-466 1933,-466 1933,-466 2241,-466 2241,-466 2247,-466 2253,-472 2253,-478 2253,-478 2253,-526 2253,-526 2253,-532 2247,-538 2241,-538"/>
<text text-anchor="middle" x="2087" y="-495.8" font-family="Courier-Bold" font-size="24.00">daemonset/bridge&#45;marker</text>
</g>
<!-- daemonset/kube&#45;cni&#45;linux&#45;bridge&#45;plugin -->
<g id="node13" class="node">
<title>daemonset/kube&#45;cni&#45;linux&#45;bridge&#45;plugin</title>
<path fill="none" stroke="black" d="M2324,-448C2324,-448 1850,-448 1850,-448 1844,-448 1838,-442 1838,-436 1838,-436 1838,-388 1838,-388 1838,-382 1844,-376 1850,-376 1850,-376 2324,-376 2324,-376 2330,-376 2336,-382 2336,-388 2336,-388 2336,-436 2336,-436 2336,-442 2330,-448 2324,-448"/>
<text text-anchor="middle" x="2087" y="-405.8" font-family="Courier-Bold" font-size="24.00">daemonset/kube&#45;cni&#45;linux&#45;bridge&#45;plugin</text>
</g>
<!-- deployment/cluster&#45;network&#45;addons&#45;operator -->
<g id="node14" class="node">
<title>deployment/cluster&#45;network&#45;addons&#45;operator</title>
<path fill="none" stroke="black" d="M2358.5,-358C2358.5,-358 1815.5,-358 1815.5,-358 1809.5,-358 1803.5,-352 1803.5,-346 1803.5,-346 1803.5,-298 1803.5,-298 1803.5,-292 1809.5,-286 1815.5,-286 1815.5,-286 2358.5,-286 2358.5,-286 2364.5,-286 2370.5,-292 2370.5,-298 2370.5,-298 2370.5,-346 2370.5,-346 2370.5,-352 2364.5,-358 2358.5,-358"/>
<text text-anchor="middle" x="2087" y="-315.8" font-family="Courier-Bold" font-size="24.00">deployment/cluster&#45;network&#45;addons&#45;operator</text>
</g>
<!-- deployment/kubemacpool&#45;cert&#45;manager -->
<g id="node15" class="node">
<title>deployment/kubemacpool&#45;cert&#45;manager</title>
<path fill="none" stroke="black" d="M2327.5,-268C2327.5,-268 1846.5,-268 1846.5,-268 1840.5,-268 1834.5,-262 1834.5,-256 1834.5,-256 1834.5,-208 1834.5,-208 1834.5,-202 1840.5,-196 1846.5,-196 1846.5,-196 2327.5,-196 2327.5,-196 2333.5,-196 2339.5,-202 2339.5,-208 2339.5,-208 2339.5,-256 2339.5,-256 2339.5,-262 2333.5,-268 2327.5,-268"/>
<text text-anchor="middle" x="2087" y="-225.8" font-family="Courier-Bold" font-size="24.00">deployment/kubemacpool&#45;cert&#45;manager</text>
</g>
<!-- deployment/kubemacpool&#45;mac&#45;controller&#45;manager -->
<g id="node16" class="node">
<title>deployment/kubemacpool&#45;mac&#45;controller&#45;manager</title>
<path fill="none" stroke="black" d="M2391,-178C2391,-178 1783,-178 1783,-178 1777,-178 1771,-172 1771,-166 1771,-166 1771,-118 1771,-118 1771,-112 1777,-106 1783,-106 1783,-106 2391,-106 2391,-106 2397,-106 2403,-112 2403,-118 2403,-118 2403,-166 2403,-166 2403,-172 2397,-178 2391,-178"/>
<text text-anchor="middle" x="2087" y="-135.8" font-family="Courier-Bold" font-size="24.00">deployment/kubemacpool&#45;mac&#45;controller&#45;manager</text>
</g>
<!-- CDI/cdi&#45;kubevirt&#45;hyperconverged -->
<g id="node19" class="node">
<title>CDI/cdi&#45;kubevirt&#45;hyperconverged</title>
<path fill="none" stroke="black" d="M3358,-628C3358,-628 2967,-628 2967,-628 2961,-628 2955,-622 2955,-616 2955,-616 2955,-568 2955,-568 2955,-562 2961,-556 2967,-556 2967,-556 3358,-556 3358,-556 3364,-556 3370,-562 3370,-568 3370,-568 3370,-616 3370,-616 3370,-622 3364,-628 3358,-628"/>
<text text-anchor="middle" x="3162.5" y="-585.8" font-family="Courier-Bold" font-size="24.00">CDI/cdi&#45;kubevirt&#45;hyperconverged</text>
</g>
<!-- SSP/ssp&#45;kubevirt&#45;hyperconverged&#45;&gt;CDI/cdi&#45;kubevirt&#45;hyperconverged -->
<!-- deployment/ssp&#45;operator -->
<g id="node18" class="node">
<title>deployment/ssp&#45;operator</title>
<path fill="none" stroke="black" d="M2799.5,-538C2799.5,-538 2500.5,-538 2500.5,-538 2494.5,-538 2488.5,-532 2488.5,-526 2488.5,-526 2488.5,-478 2488.5,-478 2488.5,-472 2494.5,-466 2500.5,-466 2500.5,-466 2799.5,-466 2799.5,-466 2805.5,-466 2811.5,-472 2811.5,-478 2811.5,-478 2811.5,-526 2811.5,-526 2811.5,-532 2805.5,-538 2799.5,-538"/>
<text text-anchor="middle" x="2650" y="-495.8" font-family="Courier-Bold" font-size="24.00">deployment/ssp&#45;operator</text>
</g>
<!-- deployment/virt&#45;template&#45;validator -->
<g id="node26" class="node">
<title>deployment/virt&#45;template&#45;validator</title>
<path fill="none" stroke="black" d="M3895,-628C3895,-628 3476,-628 3476,-628 3470,-628 3464,-622 3464,-616 3464,-616 3464,-568 3464,-568 3464,-562 3470,-556 3476,-556 3476,-556 3895,-556 3895,-556 3901,-556 3907,-562 3907,-568 3907,-568 3907,-616 3907,-616 3907,-622 3901,-628 3895,-628"/>
<text text-anchor="middle" x="3685.5" y="-585.8" font-family="Courier-Bold" font-size="24.00">deployment/virt&#45;template&#45;validator</text>
</g>
<!-- CDI/cdi&#45;kubevirt&#45;hyperconverged&#45;&gt;deployment/virt&#45;template&#45;validator -->
<!-- CDIConfig/config -->
<g id="node20" class="node">
<title>CDIConfig/config</title>
<path fill="none" stroke="black" d="M3259,-538C3259,-538 3066,-538 3066,-538 3060,-538 3054,-532 3054,-526 3054,-526 3054,-478 3054,-478 3054,-472 3060,-466 3066,-466 3066,-466 3259,-466 3259,-466 3265,-466 3271,-472 3271,-478 3271,-478 3271,-526 3271,-526 3271,-532 3265,-538 3259,-538"/>
<text text-anchor="middle" x="3162.5" y="-495.8" font-family="Courier-Bold" font-size="24.00">CDIConfig/config</text>
</g>
<!-- deployment/cdi&#45;apiserver -->
<g id="node21" class="node">
<title>deployment/cdi&#45;apiserver</title>
<path fill="none" stroke="black" d="M3313.5,-448C3313.5,-448 3011.5,-448 3011.5,-448 3005.5,-448 2999.5,-442 2999.5,-436 2999.5,-436 2999.5,-388 2999.5,-388 2999.5,-382 3005.5,-376 3011.5,-376 3011.5,-376 3313.5,-376 3313.5,-376 3319.5,-376 3325.5,-382 3325.5,-388 3325.5,-388 3325.5,-436 3325.5,-436 3325.5,-442 3319.5,-448 3313.5,-448"/>
<text text-anchor="middle" x="3162.5" y="-405.8" font-family="Courier-Bold" font-size="24.00">deployment/cdi&#45;apiserver</text>
</g>
<!-- deployment/cdi&#45;deployment -->
<g id="node22" class="node">
<title>deployment/cdi&#45;deployment</title>
<path fill="none" stroke="black" d="M3329,-358C3329,-358 2996,-358 2996,-358 2990,-358 2984,-352 2984,-346 2984,-346 2984,-298 2984,-298 2984,-292 2990,-286 2996,-286 2996,-286 3329,-286 3329,-286 3335,-286 3341,-292 3341,-298 3341,-298 3341,-346 3341,-346 3341,-352 3335,-358 3329,-358"/>
<text text-anchor="middle" x="3162.5" y="-315.8" font-family="Courier-Bold" font-size="24.00">deployment/cdi&#45;deployment</text>
</g>
<!-- deployment/cdi&#45;operator -->
<g id="node23" class="node">
<title>deployment/cdi&#45;operator</title>
<path fill="none" stroke="black" d="M3309,-268C3309,-268 3016,-268 3016,-268 3010,-268 3004,-262 3004,-256 3004,-256 3004,-208 3004,-208 3004,-202 3010,-196 3016,-196 3016,-196 3309,-196 3309,-196 3315,-196 3321,-202 3321,-208 3321,-208 3321,-256 3321,-256 3321,-262 3315,-268 3309,-268"/>
<text text-anchor="middle" x="3162.5" y="-225.8" font-family="Courier-Bold" font-size="24.00">deployment/cdi&#45;operator</text>
</g>
<!-- deployment/cdi&#45;uploadproxy -->
<g id="node24" class="node">
<title>deployment/cdi&#45;uploadproxy</title>
<path fill="none" stroke="black" d="M3331.5,-178C3331.5,-178 2993.5,-178 2993.5,-178 2987.5,-178 2981.5,-172 2981.5,-166 2981.5,-166 2981.5,-118 2981.5,-118 2981.5,-112 2987.5,-106 2993.5,-106 2993.5,-106 3331.5,-106 3331.5,-106 3337.5,-106 3343.5,-112 3343.5,-118 3343.5,-118 3343.5,-166 3343.5,-166 3343.5,-172 3337.5,-178 3331.5,-178"/>
<text text-anchor="middle" x="3162.5" y="-135.8" font-family="Courier-Bold" font-size="24.00">deployment/cdi&#45;uploadproxy</text>
</g>
<!-- deployment/hostpath&#45;provisioner&#45;operator -->
<g id="node25" class="node">
<title>deployment/hostpath&#45;provisioner&#45;operator</title>
<path fill="none" stroke="black" d="M3416,-88C3416,-88 2909,-88 2909,-88 2903,-88 2897,-82 2897,-76 2897,-76 2897,-28 2897,-28 2897,-22 2903,-16 2909,-16 2909,-16 3416,-16 3416,-16 3422,-16 3428,-22 3428,-28 3428,-28 3428,-76 3428,-76 3428,-82 3422,-88 3416,-88"/>
<text text-anchor="middle" x="3162.5" y="-45.8" font-family="Courier-Bold" font-size="24.00">deployment/hostpath&#45;provisioner&#45;operator</text>
</g>
<!-- HyperConverged/kubevirt&#45;hyperconverged -->
<g id="node27" class="node">
<title>HyperConverged/kubevirt&#45;hyperconverged</title>
<path fill="none" stroke="black" d="M4462,-628C4462,-628 3955,-628 3955,-628 3949,-628 3943,-622 3943,-616 3943,-616 3943,-568 3943,-568 3943,-562 3949,-556 3955,-556 3955,-556 4462,-556 4462,-556 4468,-556 4474,-562 4474,-568 4474,-568 4474,-616 4474,-616 4474,-622 4468,-628 4462,-628"/>
<text text-anchor="middle" x="4208.5" y="-585.8" font-family="Courier-Bold" font-size="24.00">HyperConverged/kubevirt&#45;hyperconverged</text>
</g>
<!-- deployment/virt&#45;template&#45;validator&#45;&gt;HyperConverged/kubevirt&#45;hyperconverged -->
</g>
</svg>
