<?xml version="1.0" encoding="UTF-8" standalone="no"?>
<!DOCTYPE svg PUBLIC "-//W3C//DTD SVG 1.1//EN"
 "http://www.w3.org/Graphics/SVG/1.1/DTD/svg11.dtd">
<!-- Generated by graphviz version 2.44.0 (0)
 -->
<!-- Title: component Pages: 1 -->
<svg width="5501pt" height="706pt"
 viewBox="0.00 0.00 5501.00 706.00" xmlns="http://www.w3.org/2000/svg" xmlns:xlink="http://www.w3.org/1999/xlink">
<g id="graph0" class="graph" transform="scale(1 1) rotate(0) translate(4 702)">
<title>component</title>
<polygon fill="white" stroke="transparent" points="-4,4 -4,-702 5497,-702 5497,4 -4,4"/>
<g id="clust1" class="cluster">
<title>cluster_compute</title>
<polygon fill="none" stroke="black" stroke-dasharray="5,2" points="8,-98 8,-690 562,-690 562,-98 8,-98"/>
<text text-anchor="middle" x="285" y="-652.4" font-family="Courier-Bold" font-size="42.00">compute</text>
</g>
<g id="clust2" class="cluster">
<title>cluster_deployment</title>
<polygon fill="none" stroke="black" stroke-dasharray="5,2" points="582,-368 582,-690 1214,-690 1214,-368 582,-368"/>
<text text-anchor="middle" x="898" y="-652.4" font-family="Courier-Bold" font-size="42.00">deployment</text>
</g>
<g id="clust3" class="cluster">
<title>cluster_kubevirt&#45;apiserver&#45;proxy</title>
<polygon fill="none" stroke="black" stroke-dasharray="5,2" points="1234,-548 1234,-690 1764,-690 1764,-548 1234,-548"/>
<text text-anchor="middle" x="1499" y="-652.4" font-family="Courier-Bold" font-size="42.00">kubevirt&#45;apiserver&#45;proxy</text>
</g>
<g id="clust4" class="cluster">
<title>cluster_kubevirt&#45;console&#45;plugin</title>
<polygon fill="none" stroke="black" stroke-dasharray="5,2" points="1784,-548 1784,-690 2293,-690 2293,-548 1784,-548"/>
<text text-anchor="middle" x="2038.5" y="-652.4" font-family="Courier-Bold" font-size="42.00">kubevirt&#45;console&#45;plugin</text>
</g>
<g id="clust5" class="cluster">
<title>cluster_network</title>
<polygon fill="none" stroke="black" stroke-dasharray="5,2" points="2313,-98 2313,-690 2961,-690 2961,-98 2313,-98"/>
<text text-anchor="middle" x="2637" y="-652.4" font-family="Courier-Bold" font-size="42.00">network</text>
</g>
<g id="clust6" class="cluster">
<title>cluster_quota&#45;management</title>
<polygon fill="none" stroke="black" stroke-dasharray="5,2" points="2981,-548 2981,-690 3414,-690 3414,-548 2981,-548"/>
<text text-anchor="middle" x="3197.5" y="-652.4" font-family="Courier-Bold" font-size="42.00">quota&#45;management</text>
</g>
<g id="clust7" class="cluster">
<title>cluster_schedule</title>
<polygon fill="none" stroke="black" stroke-dasharray="5,2" points="3434,-458 3434,-690 3872,-690 3872,-458 3434,-458"/>
<text text-anchor="middle" x="3653" y="-652.4" font-family="Courier-Bold" font-size="42.00">schedule</text>
</g>
<g id="clust8" class="cluster">
<title>cluster_storage</title>
<polygon fill="none" stroke="black" stroke-dasharray="5,2" points="3892,-8 3892,-690 4439,-690 4439,-8 3892,-8"/>
<text text-anchor="middle" x="4165.5" y="-652.4" font-family="Courier-Bold" font-size="42.00">storage</text>
</g>
<g id="clust9" class="cluster">
<title>cluster_templating</title>
<polygon fill="none" stroke="black" stroke-dasharray="5,2" points="4459,-548 4459,-690 4918,-690 4918,-548 4459,-548"/>
<text text-anchor="middle" x="4688.5" y="-652.4" font-family="Courier-Bold" font-size="42.00">templating</text>
</g>
<g id="clust10" class="cluster">
<title>cluster_unassigned</title>
<polygon fill="none" stroke="black" stroke-dasharray="5,2" points="4938,-548 4938,-690 5485,-690 5485,-548 4938,-548"/>
<text text-anchor="middle" x="5211.5" y="-652.4" font-family="Courier-Bold" font-size="42.00">unassigned</text>
</g>
<!-- KubeVirt/kubevirt&#45;kubevirt&#45;hyperconverged -->
<g id="node1" class="node">
<title>KubeVirt/kubevirt&#45;kubevirt&#45;hyperconverged</title>
<path fill="none" stroke="black" d="M542,-628C542,-628 28,-628 28,-628 22,-628 16,-622 16,-616 16,-616 16,-568 16,-568 16,-562 22,-556 28,-556 28,-556 542,-556 542,-556 548,-556 554,-562 554,-568 554,-568 554,-616 554,-616 554,-622 548,-628 542,-628"/>
<text text-anchor="middle" x="285" y="-585.8" font-family="Courier-Bold" font-size="24.00">KubeVirt/kubevirt&#45;kubevirt&#45;hyperconverged</text>
</g>
<!-- deployment/hco&#45;operator -->
<g id="node7" class="node">
<title>deployment/hco&#45;operator</title>
<path fill="none" stroke="black" d="M1049,-628C1049,-628 747,-628 747,-628 741,-628 735,-622 735,-616 735,-616 735,-568 735,-568 735,-562 741,-556 747,-556 747,-556 1049,-556 1049,-556 1055,-556 1061,-562 1061,-568 1061,-568 1061,-616 1061,-616 1061,-622 1055,-628 1049,-628"/>
<text text-anchor="middle" x="898" y="-585.8" font-family="Courier-Bold" font-size="24.00">deployment/hco&#45;operator</text>
</g>
<!-- KubeVirt/kubevirt&#45;kubevirt&#45;hyperconverged&#45;&gt;deployment/hco&#45;operator -->
<!-- daemonset/virt&#45;handler -->
<g id="node2" class="node">
<title>daemonset/virt&#45;handler</title>
<path fill="none" stroke="black" d="M424,-538C424,-538 146,-538 146,-538 140,-538 134,-532 134,-526 134,-526 134,-478 134,-478 134,-472 140,-466 146,-466 146,-466 424,-466 424,-466 430,-466 436,-472 436,-478 436,-478 436,-526 436,-526 436,-532 430,-538 424,-538"/>
<text text-anchor="middle" x="285" y="-495.8" font-family="Courier-Bold" font-size="24.00">daemonset/virt&#45;handler</text>
</g>
<!-- deployment/virt&#45;api -->
<g id="node3" class="node">
<title>deployment/virt&#45;api</title>
<path fill="none" stroke="black" d="M400.5,-448C400.5,-448 169.5,-448 169.5,-448 163.5,-448 157.5,-442 157.5,-436 157.5,-436 157.5,-388 157.5,-388 157.5,-382 163.5,-376 169.5,-376 169.5,-376 400.5,-376 400.5,-376 406.5,-376 412.5,-382 412.5,-388 412.5,-388 412.5,-436 412.5,-436 412.5,-442 406.5,-448 400.5,-448"/>
<text text-anchor="middle" x="285" y="-405.8" font-family="Courier-Bold" font-size="24.00">deployment/virt&#45;api</text>
</g>
<!-- deployment/virt&#45;controller -->
<g id="node4" class="node">
<title>deployment/virt&#45;controller</title>
<path fill="none" stroke="black" d="M440,-358C440,-358 130,-358 130,-358 124,-358 118,-352 118,-346 118,-346 118,-298 118,-298 118,-292 124,-286 130,-286 130,-286 440,-286 440,-286 446,-286 452,-292 452,-298 452,-298 452,-346 452,-346 452,-352 446,-358 440,-358"/>
<text text-anchor="middle" x="285" y="-315.8" font-family="Courier-Bold" font-size="24.00">deployment/virt&#45;controller</text>
</g>
<!-- deployment/virt&#45;exportproxy -->
<g id="node5" class="node">
<title>deployment/virt&#45;exportproxy</title>
<path fill="none" stroke="black" d="M454.5,-268C454.5,-268 115.5,-268 115.5,-268 109.5,-268 103.5,-262 103.5,-256 103.5,-256 103.5,-208 103.5,-208 103.5,-202 109.5,-196 115.5,-196 115.5,-196 454.5,-196 454.5,-196 460.5,-196 466.5,-202 466.5,-208 466.5,-208 466.5,-256 466.5,-256 466.5,-262 460.5,-268 454.5,-268"/>
<text text-anchor="middle" x="285" y="-225.8" font-family="Courier-Bold" font-size="24.00">deployment/virt&#45;exportproxy</text>
</g>
<!-- deployment/virt&#45;operator -->
<g id="node6" class="node">
<title>deployment/virt&#45;operator</title>
<path fill="none" stroke="black" d="M434.5,-178C434.5,-178 135.5,-178 135.5,-178 129.5,-178 123.5,-172 123.5,-166 123.5,-166 123.5,-118 123.5,-118 123.5,-112 129.5,-106 135.5,-106 135.5,-106 434.5,-106 434.5,-106 440.5,-106 446.5,-112 446.5,-118 446.5,-118 446.5,-166 446.5,-166 446.5,-172 440.5,-178 434.5,-178"/>
<text text-anchor="middle" x="285" y="-135.8" font-family="Courier-Bold" font-size="24.00">deployment/virt&#45;operator</text>
</g>
<!-- deployment/kubevirt&#45;apiserver&#45;proxy -->
<g id="node10" class="node">
<title>deployment/kubevirt&#45;apiserver&#45;proxy</title>
<path fill="none" stroke="black" d="M1719,-628C1719,-628 1279,-628 1279,-628 1273,-628 1267,-622 1267,-616 1267,-616 1267,-568 1267,-568 1267,-562 1273,-556 1279,-556 1279,-556 1719,-556 1719,-556 1725,-556 1731,-562 1731,-568 1731,-568 1731,-616 1731,-616 1731,-622 1725,-628 1719,-628"/>
<text text-anchor="middle" x="1499" y="-585.8" font-family="Courier-Bold" font-size="24.00">deployment/kubevirt&#45;apiserver&#45;proxy</text>
</g>
<!-- deployment/hco&#45;operator&#45;&gt;deployment/kubevirt&#45;apiserver&#45;proxy -->
<!-- deployment/hco&#45;webhook -->
<g id="node8" class="node">
<title>deployment/hco&#45;webhook</title>
<path fill="none" stroke="black" d="M1051,-538C1051,-538 745,-538 745,-538 739,-538 733,-532 733,-526 733,-526 733,-478 733,-478 733,-472 739,-466 745,-466 745,-466 1051,-466 1051,-466 1057,-466 1063,-472 1063,-478 1063,-478 1063,-526 1063,-526 1063,-532 1057,-538 1051,-538"/>
<text text-anchor="middle" x="898" y="-495.8" font-family="Courier-Bold" font-size="24.00">deployment/hco&#45;webhook</text>
</g>
<!-- deployment/hyperconverged&#45;cluster&#45;cli&#45;download -->
<g id="node9" class="node">
<title>deployment/hyperconverged&#45;cluster&#45;cli&#45;download</title>
<path fill="none" stroke="black" d="M1194,-448C1194,-448 602,-448 602,-448 596,-448 590,-442 590,-436 590,-436 590,-388 590,-388 590,-382 596,-376 602,-376 602,-376 1194,-376 1194,-376 1200,-376 1206,-382 1206,-388 1206,-388 1206,-436 1206,-436 1206,-442 1200,-448 1194,-448"/>
<text text-anchor="middle" x="898" y="-405.8" font-family="Courier-Bold" font-size="24.00">deployment/hyperconverged&#45;cluster&#45;cli&#45;download</text>
</g>
<!-- deployment/kubevirt&#45;console&#45;plugin -->
<g id="node11" class="node">
<title>deployment/kubevirt&#45;console&#45;plugin</title>
<path fill="none" stroke="black" d="M2252,-628C2252,-628 1824,-628 1824,-628 1818,-628 1812,-622 1812,-616 1812,-616 1812,-568 1812,-568 1812,-562 1818,-556 1824,-556 1824,-556 2252,-556 2252,-556 2258,-556 2264,-562 2264,-568 2264,-568 2264,-616 2264,-616 2264,-622 2258,-628 2252,-628"/>
<text text-anchor="middle" x="2038" y="-585.8" font-family="Courier-Bold" font-size="24.00">deployment/kubevirt&#45;console&#45;plugin</text>
</g>
<!-- deployment/kubevirt&#45;apiserver&#45;proxy&#45;&gt;deployment/kubevirt&#45;console&#45;plugin -->
<!-- NetworkAddonsConfig/cluster -->
<g id="node12" class="node">
<title>NetworkAddonsConfig/cluster</title>
<path fill="none" stroke="black" d="M2812,-628C2812,-628 2462,-628 2462,-628 2456,-628 2450,-622 2450,-616 2450,-616 2450,-568 2450,-568 2450,-562 2456,-556 2462,-556 2462,-556 2812,-556 2812,-556 2818,-556 2824,-562 2824,-568 2824,-568 2824,-616 2824,-616 2824,-622 2818,-628 2812,-628"/>
<text text-anchor="middle" x="2637" y="-585.8" font-family="Courier-Bold" font-size="24.00">NetworkAddonsConfig/cluster</text>
</g>
<!-- deployment/kubevirt&#45;console&#45;plugin&#45;&gt;NetworkAddonsConfig/cluster -->
<!-- deployment/aaq&#45;operator -->
<g id="node18" class="node">
<title>deployment/aaq&#45;operator</title>
<path fill="none" stroke="black" d="M3349,-628C3349,-628 3046,-628 3046,-628 3040,-628 3034,-622 3034,-616 3034,-616 3034,-568 3034,-568 3034,-562 3040,-556 3046,-556 3046,-556 3349,-556 3349,-556 3355,-556 3361,-562 3361,-568 3361,-568 3361,-616 3361,-616 3361,-622 3355,-628 3349,-628"/>
<text text-anchor="middle" x="3197.5" y="-585.8" font-family="Courier-Bold" font-size="24.00">deployment/aaq&#45;operator</text>
</g>
<!-- NetworkAddonsConfig/cluster&#45;&gt;deployment/aaq&#45;operator -->
<!-- daemonset/bridge&#45;marker -->
<g id="node13" class="node">
<title>daemonset/bridge&#45;marker</title>
<path fill="none" stroke="black" d="M2791,-538C2791,-538 2483,-538 2483,-538 2477,-538 2471,-532 2471,-526 2471,-526 2471,-478 2471,-478 2471,-472 2477,-466 2483,-466 2483,-466 2791,-466 2791,-466 2797,-466 2803,-472 2803,-478 2803,-478 2803,-526 2803,-526 2803,-532 2797,-538 2791,-538"/>
<text text-anchor="middle" x="2637" y="-495.8" font-family="Courier-Bold" font-size="24.00">daemonset/bridge&#45;marker</text>
</g>
<!-- daemonset/kube&#45;cni&#45;linux&#45;bridge&#45;plugin -->
<g id="node14" class="node">
<title>daemonset/kube&#45;cni&#45;linux&#45;bridge&#45;plugin</title>
<path fill="none" stroke="black" d="M2874,-448C2874,-448 2400,-448 2400,-448 2394,-448 2388,-442 2388,-436 2388,-436 2388,-388 2388,-388 2388,-382 2394,-376 2400,-376 2400,-376 2874,-376 2874,-376 2880,-376 2886,-382 2886,-388 2886,-388 2886,-436 2886,-436 2886,-442 2880,-448 2874,-448"/>
<text text-anchor="middle" x="2637" y="-405.8" font-family="Courier-Bold" font-size="24.00">daemonset/kube&#45;cni&#45;linux&#45;bridge&#45;plugin</text>
</g>
<!-- deployment/cluster&#45;network&#45;addons&#45;operator -->
<g id="node15" class="node">
<title>deployment/cluster&#45;network&#45;addons&#45;operator</title>
<path fill="none" stroke="black" d="M2908.5,-358C2908.5,-358 2365.5,-358 2365.5,-358 2359.5,-358 2353.5,-352 2353.5,-346 2353.5,-346 2353.5,-298 2353.5,-298 2353.5,-292 2359.5,-286 2365.5,-286 2365.5,-286 2908.5,-286 2908.5,-286 2914.5,-286 2920.5,-292 2920.5,-298 2920.5,-298 2920.5,-346 2920.5,-346 2920.5,-352 2914.5,-358 2908.5,-358"/>
<text text-anchor="middle" x="2637" y="-315.8" font-family="Courier-Bold" font-size="24.00">deployment/cluster&#45;network&#45;addons&#45;operator</text>
</g>
<!-- deployment/kubemacpool&#45;cert&#45;manager -->
<g id="node16" class="node">
<title>deployment/kubemacpool&#45;cert&#45;manager</title>
<path fill="none" stroke="black" d="M2877.5,-268C2877.5,-268 2396.5,-268 2396.5,-268 2390.5,-268 2384.5,-262 2384.5,-256 2384.5,-256 2384.5,-208 2384.5,-208 2384.5,-202 2390.5,-196 2396.5,-196 2396.5,-196 2877.5,-196 2877.5,-196 2883.5,-196 2889.5,-202 2889.5,-208 2889.5,-208 2889.5,-256 2889.5,-256 2889.5,-262 2883.5,-268 2877.5,-268"/>
<text text-anchor="middle" x="2637" y="-225.8" font-family="Courier-Bold" font-size="24.00">deployment/kubemacpool&#45;cert&#45;manager</text>
</g>
<!-- deployment/kubemacpool&#45;mac&#45;controller&#45;manager -->
<g id="node17" class="node">
<title>deployment/kubemacpool&#45;mac&#45;controller&#45;manager</title>
<path fill="none" stroke="black" d="M2941,-178C2941,-178 2333,-178 2333,-178 2327,-178 2321,-172 2321,-166 2321,-166 2321,-118 2321,-118 2321,-112 2327,-106 2333,-106 2333,-106 2941,-106 2941,-106 2947,-106 2953,-112 2953,-118 2953,-118 2953,-166 2953,-166 2953,-172 2947,-178 2941,-178"/>
<text text-anchor="middle" x="2637" y="-135.8" font-family="Courier-Bold" font-size="24.00">deployment/kubemacpool&#45;mac&#45;controller&#45;manager</text>
</g>
<!-- SSP/ssp&#45;kubevirt&#45;hyperconverged -->
<g id="node19" class="node">
<title>SSP/ssp&#45;kubevirt&#45;hyperconverged</title>
<path fill="none" stroke="black" d="M3852,-628C3852,-628 3454,-628 3454,-628 3448,-628 3442,-622 3442,-616 3442,-616 3442,-568 3442,-568 3442,-562 3448,-556 3454,-556 3454,-556 3852,-556 3852,-556 3858,-556 3864,-562 3864,-568 3864,-568 3864,-616 3864,-616 3864,-622 3858,-628 3852,-628"/>
<text text-anchor="middle" x="3653" y="-585.8" font-family="Courier-Bold" font-size="24.00">SSP/ssp&#45;kubevirt&#45;hyperconverged</text>
</g>
<!-- deployment/aaq&#45;operator&#45;&gt;SSP/ssp&#45;kubevirt&#45;hyperconverged -->
<!-- CDI/cdi&#45;kubevirt&#45;hyperconverged -->
<g id="node21" class="node">
<title>CDI/cdi&#45;kubevirt&#45;hyperconverged</title>
<path fill="none" stroke="black" d="M4361,-628C4361,-628 3970,-628 3970,-628 3964,-628 3958,-622 3958,-616 3958,-616 3958,-568 3958,-568 3958,-562 3964,-556 3970,-556 3970,-556 4361,-556 4361,-556 4367,-556 4373,-562 4373,-568 4373,-568 4373,-616 4373,-616 4373,-622 4367,-628 4361,-628"/>
<text text-anchor="middle" x="4165.5" y="-585.8" font-family="Courier-Bold" font-size="24.00">CDI/cdi&#45;kubevirt&#45;hyperconverged</text>
</g>
<!-- SSP/ssp&#45;kubevirt&#45;hyperconverged&#45;&gt;CDI/cdi&#45;kubevirt&#45;hyperconverged -->
<!-- deployment/ssp&#45;operator -->
<g id="node20" class="node">
<title>deployment/ssp&#45;operator</title>
<path fill="none" stroke="black" d="M3802.5,-538C3802.5,-538 3503.5,-538 3503.5,-538 3497.5,-538 3491.5,-532 3491.5,-526 3491.5,-526 3491.5,-478 3491.5,-478 3491.5,-472 3497.5,-466 3503.5,-466 3503.5,-466 3802.5,-466 3802.5,-466 3808.5,-466 3814.5,-472 3814.5,-478 3814.5,-478 3814.5,-526 3814.5,-526 3814.5,-532 3808.5,-538 3802.5,-538"/>
<text text-anchor="middle" x="3653" y="-495.8" font-family="Courier-Bold" font-size="24.00">deployment/ssp&#45;operator</text>
</g>
<!-- deployment/virt&#45;template&#45;validator -->
<g id="node28" class="node">
<title>deployment/virt&#45;template&#45;validator</title>
<path fill="none" stroke="black" d="M4898,-628C4898,-628 4479,-628 4479,-628 4473,-628 4467,-622 4467,-616 4467,-616 4467,-568 4467,-568 4467,-562 4473,-556 4479,-556 4479,-556 4898,-556 4898,-556 4904,-556 4910,-562 4910,-568 4910,-568 4910,-616 4910,-616 4910,-622 4904,-628 4898,-628"/>
<text text-anchor="middle" x="4688.5" y="-585.8" font-family="Courier-Bold" font-size="24.00">deployment/virt&#45;template&#45;validator</text>
</g>
<!-- CDI/cdi&#45;kubevirt&#45;hyperconverged&#45;&gt;deployment/virt&#45;template&#45;validator -->
<!-- CDIConfig/config -->
<g id="node22" class="node">
<title>CDIConfig/config</title>
<path fill="none" stroke="black" d="M4262,-538C4262,-538 4069,-538 4069,-538 4063,-538 4057,-532 4057,-526 4057,-526 4057,-478 4057,-478 4057,-472 4063,-466 4069,-466 4069,-466 4262,-466 4262,-466 4268,-466 4274,-472 4274,-478 4274,-478 4274,-526 4274,-526 4274,-532 4268,-538 4262,-538"/>
<text text-anchor="middle" x="4165.5" y="-495.8" font-family="Courier-Bold" font-size="24.00">CDIConfig/config</text>
</g>
<!-- deployment/cdi&#45;apiserver -->
<g id="node23" class="node">
<title>deployment/cdi&#45;apiserver</title>
<path fill="none" stroke="black" d="M4316.5,-448C4316.5,-448 4014.5,-448 4014.5,-448 4008.5,-448 4002.5,-442 4002.5,-436 4002.5,-436 4002.5,-388 4002.5,-388 4002.5,-382 4008.5,-376 4014.5,-376 4014.5,-376 4316.5,-376 4316.5,-376 4322.5,-376 4328.5,-382 4328.5,-388 4328.5,-388 4328.5,-436 4328.5,-436 4328.5,-442 4322.5,-448 4316.5,-448"/>
<text text-anchor="middle" x="4165.5" y="-405.8" font-family="Courier-Bold" font-size="24.00">deployment/cdi&#45;apiserver</text>
</g>
<!-- deployment/cdi&#45;deployment -->
<g id="node24" class="node">
<title>deployment/cdi&#45;deployment</title>
<path fill="none" stroke="black" d="M4332,-358C4332,-358 3999,-358 3999,-358 3993,-358 3987,-352 3987,-346 3987,-346 3987,-298 3987,-298 3987,-292 3993,-286 3999,-286 3999,-286 4332,-286 4332,-286 4338,-286 4344,-292 4344,-298 4344,-298 4344,-346 4344,-346 4344,-352 4338,-358 4332,-358"/>
<text text-anchor="middle" x="4165.5" y="-315.8" font-family="Courier-Bold" font-size="24.00">deployment/cdi&#45;deployment</text>
</g>
<!-- deployment/cdi&#45;operator -->
<g id="node25" class="node">
<title>deployment/cdi&#45;operator</title>
<path fill="none" stroke="black" d="M4312,-268C4312,-268 4019,-268 4019,-268 4013,-268 4007,-262 4007,-256 4007,-256 4007,-208 4007,-208 4007,-202 4013,-196 4019,-196 4019,-196 4312,-196 4312,-196 4318,-196 4324,-202 4324,-208 4324,-208 4324,-256 4324,-256 4324,-262 4318,-268 4312,-268"/>
<text text-anchor="middle" x="4165.5" y="-225.8" font-family="Courier-Bold" font-size="24.00">deployment/cdi&#45;operator</text>
</g>
<!-- deployment/cdi&#45;uploadproxy -->
<g id="node26" class="node">
<title>deployment/cdi&#45;uploadproxy</title>
<path fill="none" stroke="black" d="M4334.5,-178C4334.5,-178 3996.5,-178 3996.5,-178 3990.5,-178 3984.5,-172 3984.5,-166 3984.5,-166 3984.5,-118 3984.5,-118 3984.5,-112 3990.5,-106 3996.5,-106 3996.5,-106 4334.5,-106 4334.5,-106 4340.5,-106 4346.5,-112 4346.5,-118 4346.5,-118 4346.5,-166 4346.5,-166 4346.5,-172 4340.5,-178 4334.5,-178"/>
<text text-anchor="middle" x="4165.5" y="-135.8" font-family="Courier-Bold" font-size="24.00">deployment/cdi&#45;uploadproxy</text>
</g>
<!-- deployment/hostpath&#45;provisioner&#45;operator -->
<g id="node27" class="node">
<title>deployment/hostpath&#45;provisioner&#45;operator</title>
<path fill="none" stroke="black" d="M4419,-88C4419,-88 3912,-88 3912,-88 3906,-88 3900,-82 3900,-76 3900,-76 3900,-28 3900,-28 3900,-22 3906,-16 3912,-16 3912,-16 4419,-16 4419,-16 4425,-16 4431,-22 4431,-28 4431,-28 4431,-76 4431,-76 4431,-82 4425,-88 4419,-88"/>
<text text-anchor="middle" x="4165.5" y="-45.8" font-family="Courier-Bold" font-size="24.00">deployment/hostpath&#45;provisioner&#45;operator</text>
</g>
<!-- HyperConverged/kubevirt&#45;hyperconverged -->
<g id="node29" class="node">
<title>HyperConverged/kubevirt&#45;hyperconverged</title>
<path fill="none" stroke="black" d="M5465,-628C5465,-628 4958,-628 4958,-628 4952,-628 4946,-622 4946,-616 4946,-616 4946,-568 4946,-568 4946,-562 4952,-556 4958,-556 4958,-556 5465,-556 5465,-556 5471,-556 5477,-562 5477,-568 5477,-568 5477,-616 5477,-616 5477,-622 5471,-628 5465,-628"/>
<text text-anchor="middle" x="5211.5" y="-585.8" font-family="Courier-Bold" font-size="24.00">HyperConverged/kubevirt&#45;hyperconverged</text>
</g>
<!-- deployment/virt&#45;template&#45;validator&#45;&gt;HyperConverged/kubevirt&#45;hyperconverged -->
</g>
</svg>
