<?xml version="1.0" encoding="UTF-8" standalone="no"?>
<!DOCTYPE svg PUBLIC "-//W3C//DTD SVG 1.1//EN"
 "http://www.w3.org/Graphics/SVG/1.1/DTD/svg11.dtd">
<!-- Generated by graphviz version 2.44.0 (0)
 -->
<!-- Title: component Pages: 1 -->
<svg width="5048pt" height="706pt"
 viewBox="0.00 0.00 5048.00 706.00" xmlns="http://www.w3.org/2000/svg" xmlns:xlink="http://www.w3.org/1999/xlink">
<g id="graph0" class="graph" transform="scale(1 1) rotate(0) translate(4 702)">
<title>component</title>
<polygon fill="white" stroke="transparent" points="-4,4 -4,-702 5044,-702 5044,4 -4,4"/>
<g id="clust1" class="cluster">
<title>cluster_compute</title>
<polygon fill="none" stroke="black" stroke-dasharray="5,2" points="8,-8 8,-690 562,-690 562,-8 8,-8"/>
<text text-anchor="middle" x="285" y="-652.4" font-family="Courier-Bold" font-size="42.00">compute</text>
</g>
<g id="clust2" class="cluster">
<title>cluster_deployment</title>
<polygon fill="none" stroke="black" stroke-dasharray="5,2" points="582,-368 582,-690 1214,-690 1214,-368 582,-368"/>
<text text-anchor="middle" x="898" y="-652.4" font-family="Courier-Bold" font-size="42.00">deployment</text>
</g>
<g id="clust3" class="cluster">
<title>cluster_kubevirt&#45;apiserver&#45;proxy</title>
<polygon fill="none" stroke="black" stroke-dasharray="5,2" points="1234,-548 1234,-690 1764,-690 1764,-548 1234,-548"/>
<text text-anchor="middle" x="1499" y="-652.4" font-family="Courier-Bold" font-size="42.00">kubevirt&#45;apiserver&#45;proxy</text>
</g>
<g id="clust4" class="cluster">
<title>cluster_kubevirt&#45;console&#45;plugin</title>
<polygon fill="none" stroke="black" stroke-dasharray="5,2" points="1784,-548 1784,-690 2293,-690 2293,-548 1784,-548"/>
<text text-anchor="middle" x="2038.5" y="-652.4" font-family="Courier-Bold" font-size="42.00">kubevirt&#45;console&#45;plugin</text>
</g>
<g id="clust5" class="cluster">
<title>cluster_network</title>
<polygon fill="none" stroke="black" stroke-dasharray="5,2" points="2313,-98 2313,-690 2961,-690 2961,-98 2313,-98"/>
<text text-anchor="middle" x="2637" y="-652.4" font-family="Courier-Bold" font-size="42.00">network</text>
</g>
<g id="clust6" class="cluster">
<title>cluster_schedule</title>
<polygon fill="none" stroke="black" stroke-dasharray="5,2" points="2981,-458 2981,-690 3419,-690 3419,-458 2981,-458"/>
<text text-anchor="middle" x="3200" y="-652.4" font-family="Courier-Bold" font-size="42.00">schedule</text>
</g>
<g id="clust7" class="cluster">
<title>cluster_storage</title>
<polygon fill="none" stroke="black" stroke-dasharray="5,2" points="3439,-8 3439,-690 3986,-690 3986,-8 3439,-8"/>
<text text-anchor="middle" x="3712.5" y="-652.4" font-family="Courier-Bold" font-size="42.00">storage</text>
</g>
<g id="clust8" class="cluster">
<title>cluster_templating</title>
<polygon fill="none" stroke="black" stroke-dasharray="5,2" points="4006,-548 4006,-690 4465,-690 4465,-548 4006,-548"/>
<text text-anchor="middle" x="4235.5" y="-652.4" font-family="Courier-Bold" font-size="42.00">templating</text>
</g>
<g id="clust9" class="cluster">
<title>cluster_unassigned</title>
<polygon fill="none" stroke="black" stroke-dasharray="5,2" points="4485,-548 4485,-690 5032,-690 5032,-548 4485,-548"/>
<text text-anchor="middle" x="4758.5" y="-652.4" font-family="Courier-Bold" font-size="42.00">unassigned</text>
</g>
<!-- KubeVirt/kubevirt&#45;kubevirt&#45;hyperconverged -->
<g id="node1" class="node">
<title>KubeVirt/kubevirt&#45;kubevirt&#45;hyperconverged</title>
<path fill="none" stroke="black" d="M542,-628C542,-628 28,-628 28,-628 22,-628 16,-622 16,-616 16,-616 16,-568 16,-568 16,-562 22,-556 28,-556 28,-556 542,-556 542,-556 548,-556 554,-562 554,-568 554,-568 554,-616 554,-616 554,-622 548,-628 542,-628"/>
<text text-anchor="middle" x="285" y="-585.8" font-family="Courier-Bold" font-size="24.00">KubeVirt/kubevirt&#45;kubevirt&#45;hyperconverged</text>
</g>
<!-- deployment/hco&#45;operator -->
<g id="node8" class="node">
<title>deployment/hco&#45;operator</title>
<path fill="none" stroke="black" d="M1049,-628C1049,-628 747,-628 747,-628 741,-628 735,-622 735,-616 735,-616 735,-568 735,-568 735,-562 741,-556 747,-556 747,-556 1049,-556 1049,-556 1055,-556 1061,-562 1061,-568 1061,-568 1061,-616 1061,-616 1061,-622 1055,-628 1049,-628"/>
<text text-anchor="middle" x="898" y="-585.8" font-family="Courier-Bold" font-size="24.00">deployment/hco&#45;operator</text>
</g>
<!-- KubeVirt/kubevirt&#45;kubevirt&#45;hyperconverged&#45;&gt;deployment/hco&#45;operator -->
<!-- daemonset/virt&#45;handler -->
<g id="node2" class="node">
<title>daemonset/virt&#45;handler</title>
<path fill="none" stroke="black" d="M424,-538C424,-538 146,-538 146,-538 140,-538 134,-532 134,-526 134,-526 134,-478 134,-478 134,-472 140,-466 146,-466 146,-466 424,-466 424,-466 430,-466 436,-472 436,-478 436,-478 436,-526 436,-526 436,-532 430,-538 424,-538"/>
<text text-anchor="middle" x="285" y="-495.8" font-family="Courier-Bold" font-size="24.00">daemonset/virt&#45;handler</text>
</g>
<!-- deployment/mtq&#45;operator -->
<g id="node3" class="node">
<title>deployment/mtq&#45;operator</title>
<path fill="none" stroke="black" d="M438,-448C438,-448 132,-448 132,-448 126,-448 120,-442 120,-436 120,-436 120,-388 120,-388 120,-382 126,-376 132,-376 132,-376 438,-376 438,-376 444,-376 450,-382 450,-388 450,-388 450,-436 450,-436 450,-442 444,-448 438,-448"/>
<text text-anchor="middle" x="285" y="-405.8" font-family="Courier-Bold" font-size="24.00">deployment/mtq&#45;operator</text>
</g>
<!-- deployment/virt&#45;api -->
<g id="node4" class="node">
<title>deployment/virt&#45;api</title>
<path fill="none" stroke="black" d="M400.5,-358C400.5,-358 169.5,-358 169.5,-358 163.5,-358 157.5,-352 157.5,-346 157.5,-346 157.5,-298 157.5,-298 157.5,-292 163.5,-286 169.5,-286 169.5,-286 400.5,-286 400.5,-286 406.5,-286 412.5,-292 412.5,-298 412.5,-298 412.5,-346 412.5,-346 412.5,-352 406.5,-358 400.5,-358"/>
<text text-anchor="middle" x="285" y="-315.8" font-family="Courier-Bold" font-size="24.00">deployment/virt&#45;api</text>
</g>
<!-- deployment/virt&#45;controller -->
<g id="node5" class="node">
<title>deployment/virt&#45;controller</title>
<path fill="none" stroke="black" d="M440,-268C440,-268 130,-268 130,-268 124,-268 118,-262 118,-256 118,-256 118,-208 118,-208 118,-202 124,-196 130,-196 130,-196 440,-196 440,-196 446,-196 452,-202 452,-208 452,-208 452,-256 452,-256 452,-262 446,-268 440,-268"/>
<text text-anchor="middle" x="285" y="-225.8" font-family="Courier-Bold" font-size="24.00">deployment/virt&#45;controller</text>
</g>
<!-- deployment/virt&#45;exportproxy -->
<g id="node6" class="node">
<title>deployment/virt&#45;exportproxy</title>
<path fill="none" stroke="black" d="M454.5,-178C454.5,-178 115.5,-178 115.5,-178 109.5,-178 103.5,-172 103.5,-166 103.5,-166 103.5,-118 103.5,-118 103.5,-112 109.5,-106 115.5,-106 115.5,-106 454.5,-106 454.5,-106 460.5,-106 466.5,-112 466.5,-118 466.5,-118 466.5,-166 466.5,-166 466.5,-172 460.5,-178 454.5,-178"/>
<text text-anchor="middle" x="285" y="-135.8" font-family="Courier-Bold" font-size="24.00">deployment/virt&#45;exportproxy</text>
</g>
<!-- deployment/virt&#45;operator -->
<g id="node7" class="node">
<title>deployment/virt&#45;operator</title>
<path fill="none" stroke="black" d="M434.5,-88C434.5,-88 135.5,-88 135.5,-88 129.5,-88 123.5,-82 123.5,-76 123.5,-76 123.5,-28 123.5,-28 123.5,-22 129.5,-16 135.5,-16 135.5,-16 434.5,-16 434.5,-16 440.5,-16 446.5,-22 446.5,-28 446.5,-28 446.5,-76 446.5,-76 446.5,-82 440.5,-88 434.5,-88"/>
<text text-anchor="middle" x="285" y="-45.8" font-family="Courier-Bold" font-size="24.00">deployment/virt&#45;operator</text>
</g>
<!-- deployment/kubevirt&#45;apiserver&#45;proxy -->
<g id="node11" class="node">
<title>deployment/kubevirt&#45;apiserver&#45;proxy</title>
<path fill="none" stroke="black" d="M1719,-628C1719,-628 1279,-628 1279,-628 1273,-628 1267,-622 1267,-616 1267,-616 1267,-568 1267,-568 1267,-562 1273,-556 1279,-556 1279,-556 1719,-556 1719,-556 1725,-556 1731,-562 1731,-568 1731,-568 1731,-616 1731,-616 1731,-622 1725,-628 1719,-628"/>
<text text-anchor="middle" x="1499" y="-585.8" font-family="Courier-Bold" font-size="24.00">deployment/kubevirt&#45;apiserver&#45;proxy</text>
</g>
<!-- deployment/hco&#45;operator&#45;&gt;deployment/kubevirt&#45;apiserver&#45;proxy -->
<!-- deployment/hco&#45;webhook -->
<g id="node9" class="node">
<title>deployment/hco&#45;webhook</title>
<path fill="none" stroke="black" d="M1051,-538C1051,-538 745,-538 745,-538 739,-538 733,-532 733,-526 733,-526 733,-478 733,-478 733,-472 739,-466 745,-466 745,-466 1051,-466 1051,-466 1057,-466 1063,-472 1063,-478 1063,-478 1063,-526 1063,-526 1063,-532 1057,-538 1051,-538"/>
<text text-anchor="middle" x="898" y="-495.8" font-family="Courier-Bold" font-size="24.00">deployment/hco&#45;webhook</text>
</g>
<!-- deployment/hyperconverged&#45;cluster&#45;cli&#45;download -->
<g id="node10" class="node">
<title>deployment/hyperconverged&#45;cluster&#45;cli&#45;download</title>
<path fill="none" stroke="black" d="M1194,-448C1194,-448 602,-448 602,-448 596,-448 590,-442 590,-436 590,-436 590,-388 590,-388 590,-382 596,-376 602,-376 602,-376 1194,-376 1194,-376 1200,-376 1206,-382 1206,-388 1206,-388 1206,-436 1206,-436 1206,-442 1200,-448 1194,-448"/>
<text text-anchor="middle" x="898" y="-405.8" font-family="Courier-Bold" font-size="24.00">deployment/hyperconverged&#45;cluster&#45;cli&#45;download</text>
</g>
<!-- deployment/kubevirt&#45;console&#45;plugin -->
<g id="node12" class="node">
<title>deployment/kubevirt&#45;console&#45;plugin</title>
<path fill="none" stroke="black" d="M2252,-628C2252,-628 1824,-628 1824,-628 1818,-628 1812,-622 1812,-616 1812,-616 1812,-568 1812,-568 1812,-562 1818,-556 1824,-556 1824,-556 2252,-556 2252,-556 2258,-556 2264,-562 2264,-568 2264,-568 2264,-616 2264,-616 2264,-622 2258,-628 2252,-628"/>
<text text-anchor="middle" x="2038" y="-585.8" font-family="Courier-Bold" font-size="24.00">deployment/kubevirt&#45;console&#45;plugin</text>
</g>
<!-- deployment/kubevirt&#45;apiserver&#45;proxy&#45;&gt;deployment/kubevirt&#45;console&#45;plugin -->
<!-- NetworkAddonsConfig/cluster -->
<g id="node13" class="node">
<title>NetworkAddonsConfig/cluster</title>
<path fill="none" stroke="black" d="M2812,-628C2812,-628 2462,-628 2462,-628 2456,-628 2450,-622 2450,-616 2450,-616 2450,-568 2450,-568 2450,-562 2456,-556 2462,-556 2462,-556 2812,-556 2812,-556 2818,-556 2824,-562 2824,-568 2824,-568 2824,-616 2824,-616 2824,-622 2818,-628 2812,-628"/>
<text text-anchor="middle" x="2637" y="-585.8" font-family="Courier-Bold" font-size="24.00">NetworkAddonsConfig/cluster</text>
</g>
<!-- deployment/kubevirt&#45;console&#45;plugin&#45;&gt;NetworkAddonsConfig/cluster -->
<!-- SSP/ssp&#45;kubevirt&#45;hyperconverged -->
<g id="node19" class="node">
<title>SSP/ssp&#45;kubevirt&#45;hyperconverged</title>
<path fill="none" stroke="black" d="M3399,-628C3399,-628 3001,-628 3001,-628 2995,-628 2989,-622 2989,-616 2989,-616 2989,-568 2989,-568 2989,-562 2995,-556 3001,-556 3001,-556 3399,-556 3399,-556 3405,-556 3411,-562 3411,-568 3411,-568 3411,-616 3411,-616 3411,-622 3405,-628 3399,-628"/>
<text text-anchor="middle" x="3200" y="-585.8" font-family="Courier-Bold" font-size="24.00">SSP/ssp&#45;kubevirt&#45;hyperconverged</text>
</g>
<!-- NetworkAddonsConfig/cluster&#45;&gt;SSP/ssp&#45;kubevirt&#45;hyperconverged -->
<!-- daemonset/bridge&#45;marker -->
<g id="node14" class="node">
<title>daemonset/bridge&#45;marker</title>
<path fill="none" stroke="black" d="M2791,-538C2791,-538 2483,-538 2483,-538 2477,-538 2471,-532 2471,-526 2471,-526 2471,-478 2471,-478 2471,-472 2477,-466 2483,-466 2483,-466 2791,-466 2791,-466 2797,-466 2803,-472 2803,-478 2803,-478 2803,-526 2803,-526 2803,-532 2797,-538 2791,-538"/>
<text text-anchor="middle" x="2637" y="-495.8" font-family="Courier-Bold" font-size="24.00">daemonset/bridge&#45;marker</text>
</g>
<!-- daemonset/kube&#45;cni&#45;linux&#45;bridge&#45;plugin -->
<g id="node15" class="node">
<title>daemonset/kube&#45;cni&#45;linux&#45;bridge&#45;plugin</title>
<path fill="none" stroke="black" d="M2874,-448C2874,-448 2400,-448 2400,-448 2394,-448 2388,-442 2388,-436 2388,-436 2388,-388 2388,-388 2388,-382 2394,-376 2400,-376 2400,-376 2874,-376 2874,-376 2880,-376 2886,-382 2886,-388 2886,-388 2886,-436 2886,-436 2886,-442 2880,-448 2874,-448"/>
<text text-anchor="middle" x="2637" y="-405.8" font-family="Courier-Bold" font-size="24.00">daemonset/kube&#45;cni&#45;linux&#45;bridge&#45;plugin</text>
</g>
<!-- deployment/cluster&#45;network&#45;addons&#45;operator -->
<g id="node16" class="node">
<title>deployment/cluster&#45;network&#45;addons&#45;operator</title>
<path fill="none" stroke="black" d="M2908.5,-358C2908.5,-358 2365.5,-358 2365.5,-358 2359.5,-358 2353.5,-352 2353.5,-346 2353.5,-346 2353.5,-298 2353.5,-298 2353.5,-292 2359.5,-286 2365.5,-286 2365.5,-286 2908.5,-286 2908.5,-286 2914.5,-286 2920.5,-292 2920.5,-298 2920.5,-298 2920.5,-346 2920.5,-346 2920.5,-352 2914.5,-358 2908.5,-358"/>
<text text-anchor="middle" x="2637" y="-315.8" font-family="Courier-Bold" font-size="24.00">deployment/cluster&#45;network&#45;addons&#45;operator</text>
</g>
<!-- deployment/kubemacpool&#45;cert&#45;manager -->
<g id="node17" class="node">
<title>deployment/kubemacpool&#45;cert&#45;manager</title>
<path fill="none" stroke="black" d="M2877.5,-268C2877.5,-268 2396.5,-268 2396.5,-268 2390.5,-268 2384.5,-262 2384.5,-256 2384.5,-256 2384.5,-208 2384.5,-208 2384.5,-202 2390.5,-196 2396.5,-196 2396.5,-196 2877.5,-196 2877.5,-196 2883.5,-196 2889.5,-202 2889.5,-208 2889.5,-208 2889.5,-256 2889.5,-256 2889.5,-262 2883.5,-268 2877.5,-268"/>
<text text-anchor="middle" x="2637" y="-225.8" font-family="Courier-Bold" font-size="24.00">deployment/kubemacpool&#45;cert&#45;manager</text>
</g>
<!-- deployment/kubemacpool&#45;mac&#45;controller&#45;manager -->
<g id="node18" class="node">
<title>deployment/kubemacpool&#45;mac&#45;controller&#45;manager</title>
<path fill="none" stroke="black" d="M2941,-178C2941,-178 2333,-178 2333,-178 2327,-178 2321,-172 2321,-166 2321,-166 2321,-118 2321,-118 2321,-112 2327,-106 2333,-106 2333,-106 2941,-106 2941,-106 2947,-106 2953,-112 2953,-118 2953,-118 2953,-166 2953,-166 2953,-172 2947,-178 2941,-178"/>
<text text-anchor="middle" x="2637" y="-135.8" font-family="Courier-Bold" font-size="24.00">deployment/kubemacpool&#45;mac&#45;controller&#45;manager</text>
</g>
<!-- CDI/cdi&#45;kubevirt&#45;hyperconverged -->
<g id="node21" class="node">
<title>CDI/cdi&#45;kubevirt&#45;hyperconverged</title>
<path fill="none" stroke="black" d="M3908,-628C3908,-628 3517,-628 3517,-628 3511,-628 3505,-622 3505,-616 3505,-616 3505,-568 3505,-568 3505,-562 3511,-556 3517,-556 3517,-556 3908,-556 3908,-556 3914,-556 3920,-562 3920,-568 3920,-568 3920,-616 3920,-616 3920,-622 3914,-628 3908,-628"/>
<text text-anchor="middle" x="3712.5" y="-585.8" font-family="Courier-Bold" font-size="24.00">CDI/cdi&#45;kubevirt&#45;hyperconverged</text>
</g>
<!-- SSP/ssp&#45;kubevirt&#45;hyperconverged&#45;&gt;CDI/cdi&#45;kubevirt&#45;hyperconverged -->
<!-- deployment/ssp&#45;operator -->
<g id="node20" class="node">
<title>deployment/ssp&#45;operator</title>
<path fill="none" stroke="black" d="M3349.5,-538C3349.5,-538 3050.5,-538 3050.5,-538 3044.5,-538 3038.5,-532 3038.5,-526 3038.5,-526 3038.5,-478 3038.5,-478 3038.5,-472 3044.5,-466 3050.5,-466 3050.5,-466 3349.5,-466 3349.5,-466 3355.5,-466 3361.5,-472 3361.5,-478 3361.5,-478 3361.5,-526 3361.5,-526 3361.5,-532 3355.5,-538 3349.5,-538"/>
<text text-anchor="middle" x="3200" y="-495.8" font-family="Courier-Bold" font-size="24.00">deployment/ssp&#45;operator</text>
</g>
<!-- deployment/virt&#45;template&#45;validator -->
<g id="node28" class="node">
<title>deployment/virt&#45;template&#45;validator</title>
<path fill="none" stroke="black" d="M4445,-628C4445,-628 4026,-628 4026,-628 4020,-628 4014,-622 4014,-616 4014,-616 4014,-568 4014,-568 4014,-562 4020,-556 4026,-556 4026,-556 4445,-556 4445,-556 4451,-556 4457,-562 4457,-568 4457,-568 4457,-616 4457,-616 4457,-622 4451,-628 4445,-628"/>
<text text-anchor="middle" x="4235.5" y="-585.8" font-family="Courier-Bold" font-size="24.00">deployment/virt&#45;template&#45;validator</text>
</g>
<!-- CDI/cdi&#45;kubevirt&#45;hyperconverged&#45;&gt;deployment/virt&#45;template&#45;validator -->
<!-- CDIConfig/config -->
<g id="node22" class="node">
<title>CDIConfig/config</title>
<path fill="none" stroke="black" d="M3809,-538C3809,-538 3616,-538 3616,-538 3610,-538 3604,-532 3604,-526 3604,-526 3604,-478 3604,-478 3604,-472 3610,-466 3616,-466 3616,-466 3809,-466 3809,-466 3815,-466 3821,-472 3821,-478 3821,-478 3821,-526 3821,-526 3821,-532 3815,-538 3809,-538"/>
<text text-anchor="middle" x="3712.5" y="-495.8" font-family="Courier-Bold" font-size="24.00">CDIConfig/config</text>
</g>
<!-- deployment/cdi&#45;apiserver -->
<g id="node23" class="node">
<title>deployment/cdi&#45;apiserver</title>
<path fill="none" stroke="black" d="M3863.5,-448C3863.5,-448 3561.5,-448 3561.5,-448 3555.5,-448 3549.5,-442 3549.5,-436 3549.5,-436 3549.5,-388 3549.5,-388 3549.5,-382 3555.5,-376 3561.5,-376 3561.5,-376 3863.5,-376 3863.5,-376 3869.5,-376 3875.5,-382 3875.5,-388 3875.5,-388 3875.5,-436 3875.5,-436 3875.5,-442 3869.5,-448 3863.5,-448"/>
<text text-anchor="middle" x="3712.5" y="-405.8" font-family="Courier-Bold" font-size="24.00">deployment/cdi&#45;apiserver</text>
</g>
<!-- deployment/cdi&#45;deployment -->
<g id="node24" class="node">
<title>deployment/cdi&#45;deployment</title>
<path fill="none" stroke="black" d="M3879,-358C3879,-358 3546,-358 3546,-358 3540,-358 3534,-352 3534,-346 3534,-346 3534,-298 3534,-298 3534,-292 3540,-286 3546,-286 3546,-286 3879,-286 3879,-286 3885,-286 3891,-292 3891,-298 3891,-298 3891,-346 3891,-346 3891,-352 3885,-358 3879,-358"/>
<text text-anchor="middle" x="3712.5" y="-315.8" font-family="Courier-Bold" font-size="24.00">deployment/cdi&#45;deployment</text>
</g>
<!-- deployment/cdi&#45;operator -->
<g id="node25" class="node">
<title>deployment/cdi&#45;operator</title>
<path fill="none" stroke="black" d="M3859,-268C3859,-268 3566,-268 3566,-268 3560,-268 3554,-262 3554,-256 3554,-256 3554,-208 3554,-208 3554,-202 3560,-196 3566,-196 3566,-196 3859,-196 3859,-196 3865,-196 3871,-202 3871,-208 3871,-208 3871,-256 3871,-256 3871,-262 3865,-268 3859,-268"/>
<text text-anchor="middle" x="3712.5" y="-225.8" font-family="Courier-Bold" font-size="24.00">deployment/cdi&#45;operator</text>
</g>
<!-- deployment/cdi&#45;uploadproxy -->
<g id="node26" class="node">
<title>deployment/cdi&#45;uploadproxy</title>
<path fill="none" stroke="black" d="M3881.5,-178C3881.5,-178 3543.5,-178 3543.5,-178 3537.5,-178 3531.5,-172 3531.5,-166 3531.5,-166 3531.5,-118 3531.5,-118 3531.5,-112 3537.5,-106 3543.5,-106 3543.5,-106 3881.5,-106 3881.5,-106 3887.5,-106 3893.5,-112 3893.5,-118 3893.5,-118 3893.5,-166 3893.5,-166 3893.5,-172 3887.5,-178 3881.5,-178"/>
<text text-anchor="middle" x="3712.5" y="-135.8" font-family="Courier-Bold" font-size="24.00">deployment/cdi&#45;uploadproxy</text>
</g>
<!-- deployment/hostpath&#45;provisioner&#45;operator -->
<g id="node27" class="node">
<title>deployment/hostpath&#45;provisioner&#45;operator</title>
<path fill="none" stroke="black" d="M3966,-88C3966,-88 3459,-88 3459,-88 3453,-88 3447,-82 3447,-76 3447,-76 3447,-28 3447,-28 3447,-22 3453,-16 3459,-16 3459,-16 3966,-16 3966,-16 3972,-16 3978,-22 3978,-28 3978,-28 3978,-76 3978,-76 3978,-82 3972,-88 3966,-88"/>
<text text-anchor="middle" x="3712.5" y="-45.8" font-family="Courier-Bold" font-size="24.00">deployment/hostpath&#45;provisioner&#45;operator</text>
</g>
<!-- HyperConverged/kubevirt&#45;hyperconverged -->
<g id="node29" class="node">
<title>HyperConverged/kubevirt&#45;hyperconverged</title>
<path fill="none" stroke="black" d="M5012,-628C5012,-628 4505,-628 4505,-628 4499,-628 4493,-622 4493,-616 4493,-616 4493,-568 4493,-568 4493,-562 4499,-556 4505,-556 4505,-556 5012,-556 5012,-556 5018,-556 5024,-562 5024,-568 5024,-568 5024,-616 5024,-616 5024,-622 5018,-628 5012,-628"/>
<text text-anchor="middle" x="4758.5" y="-585.8" font-family="Courier-Bold" font-size="24.00">HyperConverged/kubevirt&#45;hyperconverged</text>
</g>
<!-- deployment/virt&#45;template&#45;validator&#45;&gt;HyperConverged/kubevirt&#45;hyperconverged -->
</g>
</svg>
