<?xml version="1.0" encoding="UTF-8" standalone="no"?>
<!DOCTYPE svg PUBLIC "-//W3C//DTD SVG 1.1//EN"
 "http://www.w3.org/Graphics/SVG/1.1/DTD/svg11.dtd">
<!-- Generated by graphviz version 2.44.0 (0)
 -->
<!-- Title: component Pages: 1 -->
<svg width="5501pt" height="796pt"
 viewBox="0.00 0.00 5501.00 796.00" xmlns="http://www.w3.org/2000/svg" xmlns:xlink="http://www.w3.org/1999/xlink">
<g id="graph0" class="graph" transform="scale(1 1) rotate(0) translate(4 792)">
<title>component</title>
<polygon fill="white" stroke="transparent" points="-4,4 -4,-792 5497,-792 5497,4 -4,4"/>
<g id="clust1" class="cluster">
<title>cluster_compute</title>
<polygon fill="none" stroke="black" stroke-dasharray="5,2" points="8,-188 8,-780 562,-780 562,-188 8,-188"/>
<text text-anchor="middle" x="285" y="-742.4" font-family="Courier-Bold" font-size="42.00">compute</text>
</g>
<g id="clust2" class="cluster">
<title>cluster_deployment</title>
<polygon fill="none" stroke="black" stroke-dasharray="5,2" points="582,-458 582,-780 1214,-780 1214,-458 582,-458"/>
<text text-anchor="middle" x="898" y="-742.4" font-family="Courier-Bold" font-size="42.00">deployment</text>
</g>
<g id="clust3" class="cluster">
<title>cluster_kubevirt&#45;apiserver&#45;proxy</title>
<polygon fill="none" stroke="black" stroke-dasharray="5,2" points="1234,-638 1234,-780 1764,-780 1764,-638 1234,-638"/>
<text text-anchor="middle" x="1499" y="-742.4" font-family="Courier-Bold" font-size="42.00">kubevirt&#45;apiserver&#45;proxy</text>
</g>
<g id="clust4" class="cluster">
<title>cluster_kubevirt&#45;console&#45;plugin</title>
<polygon fill="none" stroke="black" stroke-dasharray="5,2" points="1784,-638 1784,-780 2293,-780 2293,-638 1784,-638"/>
<text text-anchor="middle" x="2038.5" y="-742.4" font-family="Courier-Bold" font-size="42.00">kubevirt&#45;console&#45;plugin</text>
</g>
<g id="clust5" class="cluster">
<title>cluster_network</title>
<polygon fill="none" stroke="black" stroke-dasharray="5,2" points="2313,-8 2313,-780 2961,-780 2961,-8 2313,-8"/>
<text text-anchor="middle" x="2637" y="-742.4" font-family="Courier-Bold" font-size="42.00">network</text>
</g>
<g id="clust6" class="cluster">
<title>cluster_quota&#45;management</title>
<polygon fill="none" stroke="black" stroke-dasharray="5,2" points="2981,-638 2981,-780 3414,-780 3414,-638 2981,-638"/>
<text text-anchor="middle" x="3197.5" y="-742.4" font-family="Courier-Bold" font-size="42.00">quota&#45;management</text>
</g>
<g id="clust7" class="cluster">
<title>cluster_schedule</title>
<polygon fill="none" stroke="black" stroke-dasharray="5,2" points="3434,-548 3434,-780 3872,-780 3872,-548 3434,-548"/>
<text text-anchor="middle" x="3653" y="-742.4" font-family="Courier-Bold" font-size="42.00">schedule</text>
</g>
<g id="clust8" class="cluster">
<title>cluster_storage</title>
<polygon fill="none" stroke="black" stroke-dasharray="5,2" points="3892,-98 3892,-780 4439,-780 4439,-98 3892,-98"/>
<text text-anchor="middle" x="4165.5" y="-742.4" font-family="Courier-Bold" font-size="42.00">storage</text>
</g>
<g id="clust9" class="cluster">
<title>cluster_templating</title>
<polygon fill="none" stroke="black" stroke-dasharray="5,2" points="4459,-638 4459,-780 4918,-780 4918,-638 4459,-638"/>
<text text-anchor="middle" x="4688.5" y="-742.4" font-family="Courier-Bold" font-size="42.00">templating</text>
</g>
<g id="clust10" class="cluster">
<title>cluster_unassigned</title>
<polygon fill="none" stroke="black" stroke-dasharray="5,2" points="4938,-638 4938,-780 5485,-780 5485,-638 4938,-638"/>
<text text-anchor="middle" x="5211.5" y="-742.4" font-family="Courier-Bold" font-size="42.00">unassigned</text>
</g>
<!-- KubeVirt/kubevirt&#45;kubevirt&#45;hyperconverged -->
<g id="node1" class="node">
<title>KubeVirt/kubevirt&#45;kubevirt&#45;hyperconverged</title>
<path fill="none" stroke="black" d="M542,-718C542,-718 28,-718 28,-718 22,-718 16,-712 16,-706 16,-706 16,-658 16,-658 16,-652 22,-646 28,-646 28,-646 542,-646 542,-646 548,-646 554,-652 554,-658 554,-658 554,-706 554,-706 554,-712 548,-718 542,-718"/>
<text text-anchor="middle" x="285" y="-675.8" font-family="Courier-Bold" font-size="24.00">KubeVirt/kubevirt&#45;kubevirt&#45;hyperconverged</text>
</g>
<!-- deployment/hco&#45;operator -->
<g id="node7" class="node">
<title>deployment/hco&#45;operator</title>
<path fill="none" stroke="black" d="M1049,-718C1049,-718 747,-718 747,-718 741,-718 735,-712 735,-706 735,-706 735,-658 735,-658 735,-652 741,-646 747,-646 747,-646 1049,-646 1049,-646 1055,-646 1061,-652 1061,-658 1061,-658 1061,-706 1061,-706 1061,-712 1055,-718 1049,-718"/>
<text text-anchor="middle" x="898" y="-675.8" font-family="Courier-Bold" font-size="24.00">deployment/hco&#45;operator</text>
</g>
<!-- KubeVirt/kubevirt&#45;kubevirt&#45;hyperconverged&#45;&gt;deployment/hco&#45;operator -->
<!-- daemonset/virt&#45;handler -->
<g id="node2" class="node">
<title>daemonset/virt&#45;handler</title>
<path fill="none" stroke="black" d="M424,-628C424,-628 146,-628 146,-628 140,-628 134,-622 134,-616 134,-616 134,-568 134,-568 134,-562 140,-556 146,-556 146,-556 424,-556 424,-556 430,-556 436,-562 436,-568 436,-568 436,-616 436,-616 436,-622 430,-628 424,-628"/>
<text text-anchor="middle" x="285" y="-585.8" font-family="Courier-Bold" font-size="24.00">daemonset/virt&#45;handler</text>
</g>
<!-- deployment/virt&#45;api -->
<g id="node3" class="node">
<title>deployment/virt&#45;api</title>
<path fill="none" stroke="black" d="M400.5,-538C400.5,-538 169.5,-538 169.5,-538 163.5,-538 157.5,-532 157.5,-526 157.5,-526 157.5,-478 157.5,-478 157.5,-472 163.5,-466 169.5,-466 169.5,-466 400.5,-466 400.5,-466 406.5,-466 412.5,-472 412.5,-478 412.5,-478 412.5,-526 412.5,-526 412.5,-532 406.5,-538 400.5,-538"/>
<text text-anchor="middle" x="285" y="-495.8" font-family="Courier-Bold" font-size="24.00">deployment/virt&#45;api</text>
</g>
<!-- deployment/virt&#45;controller -->
<g id="node4" class="node">
<title>deployment/virt&#45;controller</title>
<path fill="none" stroke="black" d="M440,-448C440,-448 130,-448 130,-448 124,-448 118,-442 118,-436 118,-436 118,-388 118,-388 118,-382 124,-376 130,-376 130,-376 440,-376 440,-376 446,-376 452,-382 452,-388 452,-388 452,-436 452,-436 452,-442 446,-448 440,-448"/>
<text text-anchor="middle" x="285" y="-405.8" font-family="Courier-Bold" font-size="24.00">deployment/virt&#45;controller</text>
</g>
<!-- deployment/virt&#45;exportproxy -->
<g id="node5" class="node">
<title>deployment/virt&#45;exportproxy</title>
<path fill="none" stroke="black" d="M454.5,-358C454.5,-358 115.5,-358 115.5,-358 109.5,-358 103.5,-352 103.5,-346 103.5,-346 103.5,-298 103.5,-298 103.5,-292 109.5,-286 115.5,-286 115.5,-286 454.5,-286 454.5,-286 460.5,-286 466.5,-292 466.5,-298 466.5,-298 466.5,-346 466.5,-346 466.5,-352 460.5,-358 454.5,-358"/>
<text text-anchor="middle" x="285" y="-315.8" font-family="Courier-Bold" font-size="24.00">deployment/virt&#45;exportproxy</text>
</g>
<!-- deployment/virt&#45;operator -->
<g id="node6" class="node">
<title>deployment/virt&#45;operator</title>
<path fill="none" stroke="black" d="M434.5,-268C434.5,-268 135.5,-268 135.5,-268 129.5,-268 123.5,-262 123.5,-256 123.5,-256 123.5,-208 123.5,-208 123.5,-202 129.5,-196 135.5,-196 135.5,-196 434.5,-196 434.5,-196 440.5,-196 446.5,-202 446.5,-208 446.5,-208 446.5,-256 446.5,-256 446.5,-262 440.5,-268 434.5,-268"/>
<text text-anchor="middle" x="285" y="-225.8" font-family="Courier-Bold" font-size="24.00">deployment/virt&#45;operator</text>
</g>
<!-- deployment/kubevirt&#45;apiserver&#45;proxy -->
<g id="node10" class="node">
<title>deployment/kubevirt&#45;apiserver&#45;proxy</title>
<path fill="none" stroke="black" d="M1719,-718C1719,-718 1279,-718 1279,-718 1273,-718 1267,-712 1267,-706 1267,-706 1267,-658 1267,-658 1267,-652 1273,-646 1279,-646 1279,-646 1719,-646 1719,-646 1725,-646 1731,-652 1731,-658 1731,-658 1731,-706 1731,-706 1731,-712 1725,-718 1719,-718"/>
<text text-anchor="middle" x="1499" y="-675.8" font-family="Courier-Bold" font-size="24.00">deployment/kubevirt&#45;apiserver&#45;proxy</text>
</g>
<!-- deployment/hco&#45;operator&#45;&gt;deployment/kubevirt&#45;apiserver&#45;proxy -->
<!-- deployment/hco&#45;webhook -->
<g id="node8" class="node">
<title>deployment/hco&#45;webhook</title>
<path fill="none" stroke="black" d="M1051,-628C1051,-628 745,-628 745,-628 739,-628 733,-622 733,-616 733,-616 733,-568 733,-568 733,-562 739,-556 745,-556 745,-556 1051,-556 1051,-556 1057,-556 1063,-562 1063,-568 1063,-568 1063,-616 1063,-616 1063,-622 1057,-628 1051,-628"/>
<text text-anchor="middle" x="898" y="-585.8" font-family="Courier-Bold" font-size="24.00">deployment/hco&#45;webhook</text>
</g>
<!-- deployment/hyperconverged&#45;cluster&#45;cli&#45;download -->
<g id="node9" class="node">
<title>deployment/hyperconverged&#45;cluster&#45;cli&#45;download</title>
<path fill="none" stroke="black" d="M1194,-538C1194,-538 602,-538 602,-538 596,-538 590,-532 590,-526 590,-526 590,-478 590,-478 590,-472 596,-466 602,-466 602,-466 1194,-466 1194,-466 1200,-466 1206,-472 1206,-478 1206,-478 1206,-526 1206,-526 1206,-532 1200,-538 1194,-538"/>
<text text-anchor="middle" x="898" y="-495.8" font-family="Courier-Bold" font-size="24.00">deployment/hyperconverged&#45;cluster&#45;cli&#45;download</text>
</g>
<!-- deployment/kubevirt&#45;console&#45;plugin -->
<g id="node11" class="node">
<title>deployment/kubevirt&#45;console&#45;plugin</title>
<path fill="none" stroke="black" d="M2252,-718C2252,-718 1824,-718 1824,-718 1818,-718 1812,-712 1812,-706 1812,-706 1812,-658 1812,-658 1812,-652 1818,-646 1824,-646 1824,-646 2252,-646 2252,-646 2258,-646 2264,-652 2264,-658 2264,-658 2264,-706 2264,-706 2264,-712 2258,-718 2252,-718"/>
<text text-anchor="middle" x="2038" y="-675.8" font-family="Courier-Bold" font-size="24.00">deployment/kubevirt&#45;console&#45;plugin</text>
</g>
<!-- deployment/kubevirt&#45;apiserver&#45;proxy&#45;&gt;deployment/kubevirt&#45;console&#45;plugin -->
<!-- NetworkAddonsConfig/cluster -->
<g id="node12" class="node">
<title>NetworkAddonsConfig/cluster</title>
<path fill="none" stroke="black" d="M2812,-718C2812,-718 2462,-718 2462,-718 2456,-718 2450,-712 2450,-706 2450,-706 2450,-658 2450,-658 2450,-652 2456,-646 2462,-646 2462,-646 2812,-646 2812,-646 2818,-646 2824,-652 2824,-658 2824,-658 2824,-706 2824,-706 2824,-712 2818,-718 2812,-718"/>
<text text-anchor="middle" x="2637" y="-675.8" font-family="Courier-Bold" font-size="24.00">NetworkAddonsConfig/cluster</text>
</g>
<!-- deployment/kubevirt&#45;console&#45;plugin&#45;&gt;NetworkAddonsConfig/cluster -->
<!-- deployment/aaq&#45;operator -->
<g id="node20" class="node">
<title>deployment/aaq&#45;operator</title>
<path fill="none" stroke="black" d="M3349,-718C3349,-718 3046,-718 3046,-718 3040,-718 3034,-712 3034,-706 3034,-706 3034,-658 3034,-658 3034,-652 3040,-646 3046,-646 3046,-646 3349,-646 3349,-646 3355,-646 3361,-652 3361,-658 3361,-658 3361,-706 3361,-706 3361,-712 3355,-718 3349,-718"/>
<text text-anchor="middle" x="3197.5" y="-675.8" font-family="Courier-Bold" font-size="24.00">deployment/aaq&#45;operator</text>
</g>
<!-- NetworkAddonsConfig/cluster&#45;&gt;deployment/aaq&#45;operator -->
<!-- daemonset/bridge&#45;marker -->
<g id="node13" class="node">
<title>daemonset/bridge&#45;marker</title>
<path fill="none" stroke="black" d="M2791,-628C2791,-628 2483,-628 2483,-628 2477,-628 2471,-622 2471,-616 2471,-616 2471,-568 2471,-568 2471,-562 2477,-556 2483,-556 2483,-556 2791,-556 2791,-556 2797,-556 2803,-562 2803,-568 2803,-568 2803,-616 2803,-616 2803,-622 2797,-628 2791,-628"/>
<text text-anchor="middle" x="2637" y="-585.8" font-family="Courier-Bold" font-size="24.00">daemonset/bridge&#45;marker</text>
</g>
<!-- daemonset/kube&#45;cni&#45;linux&#45;bridge&#45;plugin -->
<g id="node14" class="node">
<title>daemonset/kube&#45;cni&#45;linux&#45;bridge&#45;plugin</title>
<path fill="none" stroke="black" d="M2874,-538C2874,-538 2400,-538 2400,-538 2394,-538 2388,-532 2388,-526 2388,-526 2388,-478 2388,-478 2388,-472 2394,-466 2400,-466 2400,-466 2874,-466 2874,-466 2880,-466 2886,-472 2886,-478 2886,-478 2886,-526 2886,-526 2886,-532 2880,-538 2874,-538"/>
<text text-anchor="middle" x="2637" y="-495.8" font-family="Courier-Bold" font-size="24.00">daemonset/kube&#45;cni&#45;linux&#45;bridge&#45;plugin</text>
</g>
<!-- daemonset/passt&#45;binding&#45;cni -->
<g id="node15" class="node">
<title>daemonset/passt&#45;binding&#45;cni</title>
<path fill="none" stroke="black" d="M2809,-448C2809,-448 2465,-448 2465,-448 2459,-448 2453,-442 2453,-436 2453,-436 2453,-388 2453,-388 2453,-382 2459,-376 2465,-376 2465,-376 2809,-376 2809,-376 2815,-376 2821,-382 2821,-388 2821,-388 2821,-436 2821,-436 2821,-442 2815,-448 2809,-448"/>
<text text-anchor="middle" x="2637" y="-405.8" font-family="Courier-Bold" font-size="24.00">daemonset/passt&#45;binding&#45;cni</text>
</g>
<!-- deployment/cluster&#45;network&#45;addons&#45;operator -->
<g id="node16" class="node">
<title>deployment/cluster&#45;network&#45;addons&#45;operator</title>
<path fill="none" stroke="black" d="M2908.5,-358C2908.5,-358 2365.5,-358 2365.5,-358 2359.5,-358 2353.5,-352 2353.5,-346 2353.5,-346 2353.5,-298 2353.5,-298 2353.5,-292 2359.5,-286 2365.5,-286 2365.5,-286 2908.5,-286 2908.5,-286 2914.5,-286 2920.5,-292 2920.5,-298 2920.5,-298 2920.5,-346 2920.5,-346 2920.5,-352 2914.5,-358 2908.5,-358"/>
<text text-anchor="middle" x="2637" y="-315.8" font-family="Courier-Bold" font-size="24.00">deployment/cluster&#45;network&#45;addons&#45;operator</text>
</g>
<!-- deployment/kubemacpool&#45;cert&#45;manager -->
<g id="node17" class="node">
<title>deployment/kubemacpool&#45;cert&#45;manager</title>
<path fill="none" stroke="black" d="M2877.5,-268C2877.5,-268 2396.5,-268 2396.5,-268 2390.5,-268 2384.5,-262 2384.5,-256 2384.5,-256 2384.5,-208 2384.5,-208 2384.5,-202 2390.5,-196 2396.5,-196 2396.5,-196 2877.5,-196 2877.5,-196 2883.5,-196 2889.5,-202 2889.5,-208 2889.5,-208 2889.5,-256 2889.5,-256 2889.5,-262 2883.5,-268 2877.5,-268"/>
<text text-anchor="middle" x="2637" y="-225.8" font-family="Courier-Bold" font-size="24.00">deployment/kubemacpool&#45;cert&#45;manager</text>
</g>
<!-- deployment/kubemacpool&#45;mac&#45;controller&#45;manager -->
<g id="node18" class="node">
<title>deployment/kubemacpool&#45;mac&#45;controller&#45;manager</title>
<path fill="none" stroke="black" d="M2941,-178C2941,-178 2333,-178 2333,-178 2327,-178 2321,-172 2321,-166 2321,-166 2321,-118 2321,-118 2321,-112 2327,-106 2333,-106 2333,-106 2941,-106 2941,-106 2947,-106 2953,-112 2953,-118 2953,-118 2953,-166 2953,-166 2953,-172 2947,-178 2941,-178"/>
<text text-anchor="middle" x="2637" y="-135.8" font-family="Courier-Bold" font-size="24.00">deployment/kubemacpool&#45;mac&#45;controller&#45;manager</text>
</g>
<!-- deployment/kubevirt&#45;ipam&#45;controller&#45;manager -->
<g id="node19" class="node">
<title>deployment/kubevirt&#45;ipam&#45;controller&#45;manager</title>
<path fill="none" stroke="black" d="M2913.5,-88C2913.5,-88 2360.5,-88 2360.5,-88 2354.5,-88 2348.5,-82 2348.5,-76 2348.5,-76 2348.5,-28 2348.5,-28 2348.5,-22 2354.5,-16 2360.5,-16 2360.5,-16 2913.5,-16 2913.5,-16 2919.5,-16 2925.5,-22 2925.5,-28 2925.5,-28 2925.5,-76 2925.5,-76 2925.5,-82 2919.5,-88 2913.5,-88"/>
<text text-anchor="middle" x="2637" y="-45.8" font-family="Courier-Bold" font-size="24.00">deployment/kubevirt&#45;ipam&#45;controller&#45;manager</text>
</g>
<!-- SSP/ssp&#45;kubevirt&#45;hyperconverged -->
<g id="node21" class="node">
<title>SSP/ssp&#45;kubevirt&#45;hyperconverged</title>
<path fill="none" stroke="black" d="M3852,-718C3852,-718 3454,-718 3454,-718 3448,-718 3442,-712 3442,-706 3442,-706 3442,-658 3442,-658 3442,-652 3448,-646 3454,-646 3454,-646 3852,-646 3852,-646 3858,-646 3864,-652 3864,-658 3864,-658 3864,-706 3864,-706 3864,-712 3858,-718 3852,-718"/>
<text text-anchor="middle" x="3653" y="-675.8" font-family="Courier-Bold" font-size="24.00">SSP/ssp&#45;kubevirt&#45;hyperconverged</text>
</g>
<!-- deployment/aaq&#45;operator&#45;&gt;SSP/ssp&#45;kubevirt&#45;hyperconverged -->
<!-- CDI/cdi&#45;kubevirt&#45;hyperconverged -->
<g id="node23" class="node">
<title>CDI/cdi&#45;kubevirt&#45;hyperconverged</title>
<path fill="none" stroke="black" d="M4361,-718C4361,-718 3970,-718 3970,-718 3964,-718 3958,-712 3958,-706 3958,-706 3958,-658 3958,-658 3958,-652 3964,-646 3970,-646 3970,-646 4361,-646 4361,-646 4367,-646 4373,-652 4373,-658 4373,-658 4373,-706 4373,-706 4373,-712 4367,-718 4361,-718"/>
<text text-anchor="middle" x="4165.5" y="-675.8" font-family="Courier-Bold" font-size="24.00">CDI/cdi&#45;kubevirt&#45;hyperconverged</text>
</g>
<!-- SSP/ssp&#45;kubevirt&#45;hyperconverged&#45;&gt;CDI/cdi&#45;kubevirt&#45;hyperconverged -->
<!-- deployment/ssp&#45;operator -->
<g id="node22" class="node">
<title>deployment/ssp&#45;operator</title>
<path fill="none" stroke="black" d="M3802.5,-628C3802.5,-628 3503.5,-628 3503.5,-628 3497.5,-628 3491.5,-622 3491.5,-616 3491.5,-616 3491.5,-568 3491.5,-568 3491.5,-562 3497.5,-556 3503.5,-556 3503.5,-556 3802.5,-556 3802.5,-556 3808.5,-556 3814.5,-562 3814.5,-568 3814.5,-568 3814.5,-616 3814.5,-616 3814.5,-622 3808.5,-628 3802.5,-628"/>
<text text-anchor="middle" x="3653" y="-585.8" font-family="Courier-Bold" font-size="24.00">deployment/ssp&#45;operator</text>
</g>
<!-- deployment/virt&#45;template&#45;validator -->
<g id="node30" class="node">
<title>deployment/virt&#45;template&#45;validator</title>
<path fill="none" stroke="black" d="M4898,-718C4898,-718 4479,-718 4479,-718 4473,-718 4467,-712 4467,-706 4467,-706 4467,-658 4467,-658 4467,-652 4473,-646 4479,-646 4479,-646 4898,-646 4898,-646 4904,-646 4910,-652 4910,-658 4910,-658 4910,-706 4910,-706 4910,-712 4904,-718 4898,-718"/>
<text text-anchor="middle" x="4688.5" y="-675.8" font-family="Courier-Bold" font-size="24.00">deployment/virt&#45;template&#45;validator</text>
</g>
<!-- CDI/cdi&#45;kubevirt&#45;hyperconverged&#45;&gt;deployment/virt&#45;template&#45;validator -->
<!-- CDIConfig/config -->
<g id="node24" class="node">
<title>CDIConfig/config</title>
<path fill="none" stroke="black" d="M4262,-628C4262,-628 4069,-628 4069,-628 4063,-628 4057,-622 4057,-616 4057,-616 4057,-568 4057,-568 4057,-562 4063,-556 4069,-556 4069,-556 4262,-556 4262,-556 4268,-556 4274,-562 4274,-568 4274,-568 4274,-616 4274,-616 4274,-622 4268,-628 4262,-628"/>
<text text-anchor="middle" x="4165.5" y="-585.8" font-family="Courier-Bold" font-size="24.00">CDIConfig/config</text>
</g>
<!-- deployment/cdi&#45;apiserver -->
<g id="node25" class="node">
<title>deployment/cdi&#45;apiserver</title>
<path fill="none" stroke="black" d="M4316.5,-538C4316.5,-538 4014.5,-538 4014.5,-538 4008.5,-538 4002.5,-532 4002.5,-526 4002.5,-526 4002.5,-478 4002.5,-478 4002.5,-472 4008.5,-466 4014.5,-466 4014.5,-466 4316.5,-466 4316.5,-466 4322.5,-466 4328.5,-472 4328.5,-478 4328.5,-478 4328.5,-526 4328.5,-526 4328.5,-532 4322.5,-538 4316.5,-538"/>
<text text-anchor="middle" x="4165.5" y="-495.8" font-family="Courier-Bold" font-size="24.00">deployment/cdi&#45;apiserver</text>
</g>
<!-- deployment/cdi&#45;deployment -->
<g id="node26" class="node">
<title>deployment/cdi&#45;deployment</title>
<path fill="none" stroke="black" d="M4332,-448C4332,-448 3999,-448 3999,-448 3993,-448 3987,-442 3987,-436 3987,-436 3987,-388 3987,-388 3987,-382 3993,-376 3999,-376 3999,-376 4332,-376 4332,-376 4338,-376 4344,-382 4344,-388 4344,-388 4344,-436 4344,-436 4344,-442 4338,-448 4332,-448"/>
<text text-anchor="middle" x="4165.5" y="-405.8" font-family="Courier-Bold" font-size="24.00">deployment/cdi&#45;deployment</text>
</g>
<!-- deployment/cdi&#45;operator -->
<g id="node27" class="node">
<title>deployment/cdi&#45;operator</title>
<path fill="none" stroke="black" d="M4312,-358C4312,-358 4019,-358 4019,-358 4013,-358 4007,-352 4007,-346 4007,-346 4007,-298 4007,-298 4007,-292 4013,-286 4019,-286 4019,-286 4312,-286 4312,-286 4318,-286 4324,-292 4324,-298 4324,-298 4324,-346 4324,-346 4324,-352 4318,-358 4312,-358"/>
<text text-anchor="middle" x="4165.5" y="-315.8" font-family="Courier-Bold" font-size="24.00">deployment/cdi&#45;operator</text>
</g>
<!-- deployment/cdi&#45;uploadproxy -->
<g id="node28" class="node">
<title>deployment/cdi&#45;uploadproxy</title>
<path fill="none" stroke="black" d="M4334.5,-268C4334.5,-268 3996.5,-268 3996.5,-268 3990.5,-268 3984.5,-262 3984.5,-256 3984.5,-256 3984.5,-208 3984.5,-208 3984.5,-202 3990.5,-196 3996.5,-196 3996.5,-196 4334.5,-196 4334.5,-196 4340.5,-196 4346.5,-202 4346.5,-208 4346.5,-208 4346.5,-256 4346.5,-256 4346.5,-262 4340.5,-268 4334.5,-268"/>
<text text-anchor="middle" x="4165.5" y="-225.8" font-family="Courier-Bold" font-size="24.00">deployment/cdi&#45;uploadproxy</text>
</g>
<!-- deployment/hostpath&#45;provisioner&#45;operator -->
<g id="node29" class="node">
<title>deployment/hostpath&#45;provisioner&#45;operator</title>
<path fill="none" stroke="black" d="M4419,-178C4419,-178 3912,-178 3912,-178 3906,-178 3900,-172 3900,-166 3900,-166 3900,-118 3900,-118 3900,-112 3906,-106 3912,-106 3912,-106 4419,-106 4419,-106 4425,-106 4431,-112 4431,-118 4431,-118 4431,-166 4431,-166 4431,-172 4425,-178 4419,-178"/>
<text text-anchor="middle" x="4165.5" y="-135.8" font-family="Courier-Bold" font-size="24.00">deployment/hostpath&#45;provisioner&#45;operator</text>
</g>
<!-- HyperConverged/kubevirt&#45;hyperconverged -->
<g id="node31" class="node">
<title>HyperConverged/kubevirt&#45;hyperconverged</title>
<path fill="none" stroke="black" d="M5465,-718C5465,-718 4958,-718 4958,-718 4952,-718 4946,-712 4946,-706 4946,-706 4946,-658 4946,-658 4946,-652 4952,-646 4958,-646 4958,-646 5465,-646 5465,-646 5471,-646 5477,-652 5477,-658 5477,-658 5477,-706 5477,-706 5477,-712 5471,-718 5465,-718"/>
<text text-anchor="middle" x="5211.5" y="-675.8" font-family="Courier-Bold" font-size="24.00">HyperConverged/kubevirt&#45;hyperconverged</text>
</g>
<!-- deployment/virt&#45;template&#45;validator&#45;&gt;HyperConverged/kubevirt&#45;hyperconverged -->
</g>
</svg>
