<?xml version="1.0" encoding="UTF-8" standalone="no"?>
<!DOCTYPE svg PUBLIC "-//W3C//DTD SVG 1.1//EN"
 "http://www.w3.org/Graphics/SVG/1.1/DTD/svg11.dtd">
<!-- Generated by graphviz version 2.44.0 (0)
 -->
<!-- Title: component Pages: 1 -->
<svg width="5867pt" height="706pt"
 viewBox="0.00 0.00 5867.00 706.00" xmlns="http://www.w3.org/2000/svg" xmlns:xlink="http://www.w3.org/1999/xlink">
<g id="graph0" class="graph" transform="scale(1 1) rotate(0) translate(4 702)">
<title>component</title>
<polygon fill="white" stroke="transparent" points="-4,4 -4,-702 5863,-702 5863,4 -4,4"/>
<g id="clust1" class="cluster">
<title>cluster_compute</title>
<polygon fill="none" stroke="black" stroke-dasharray="5,2" points="8,-98 8,-690 562,-690 562,-98 8,-98"/>
<text text-anchor="middle" x="285" y="-652.4" font-family="Courier-Bold" font-size="42.00">compute</text>
</g>
<g id="clust2" class="cluster">
<title>cluster_deployment</title>
<polygon fill="none" stroke="black" stroke-dasharray="5,2" points="582,-368 582,-690 1214,-690 1214,-368 582,-368"/>
<text text-anchor="middle" x="898" y="-652.4" font-family="Courier-Bold" font-size="42.00">deployment</text>
</g>
<g id="clust3" class="cluster">
<title>cluster_kubevirt&#45;apiserver&#45;proxy</title>
<polygon fill="none" stroke="black" stroke-dasharray="5,2" points="1234,-548 1234,-690 1764,-690 1764,-548 1234,-548"/>
<text text-anchor="middle" x="1499" y="-652.4" font-family="Courier-Bold" font-size="42.00">kubevirt&#45;apiserver&#45;proxy</text>
</g>
<g id="clust4" class="cluster">
<title>cluster_kubevirt&#45;console&#45;plugin</title>
<polygon fill="none" stroke="black" stroke-dasharray="5,2" points="1784,-548 1784,-690 2293,-690 2293,-548 1784,-548"/>
<text text-anchor="middle" x="2038.5" y="-652.4" font-family="Courier-Bold" font-size="42.00">kubevirt&#45;console&#45;plugin</text>
</g>
<g id="clust5" class="cluster">
<title>cluster_multi&#45;tenant</title>
<polygon fill="none" stroke="black" stroke-dasharray="5,2" points="2313,-548 2313,-690 2659,-690 2659,-548 2313,-548"/>
<text text-anchor="middle" x="2486" y="-652.4" font-family="Courier-Bold" font-size="42.00">multi&#45;tenant</text>
</g>
<g id="clust6" class="cluster">
<title>cluster_network</title>
<polygon fill="none" stroke="black" stroke-dasharray="5,2" points="2679,-98 2679,-690 3327,-690 3327,-98 2679,-98"/>
<text text-anchor="middle" x="3003" y="-652.4" font-family="Courier-Bold" font-size="42.00">network</text>
</g>
<g id="clust7" class="cluster">
<title>cluster_quota&#45;management</title>
<polygon fill="none" stroke="black" stroke-dasharray="5,2" points="3347,-548 3347,-690 3780,-690 3780,-548 3347,-548"/>
<text text-anchor="middle" x="3563.5" y="-652.4" font-family="Courier-Bold" font-size="42.00">quota&#45;management</text>
</g>
<g id="clust8" class="cluster">
<title>cluster_schedule</title>
<polygon fill="none" stroke="black" stroke-dasharray="5,2" points="3800,-458 3800,-690 4238,-690 4238,-458 3800,-458"/>
<text text-anchor="middle" x="4019" y="-652.4" font-family="Courier-Bold" font-size="42.00">schedule</text>
</g>
<g id="clust9" class="cluster">
<title>cluster_storage</title>
<polygon fill="none" stroke="black" stroke-dasharray="5,2" points="4258,-8 4258,-690 4805,-690 4805,-8 4258,-8"/>
<text text-anchor="middle" x="4531.5" y="-652.4" font-family="Courier-Bold" font-size="42.00">storage</text>
</g>
<g id="clust10" class="cluster">
<title>cluster_templating</title>
<polygon fill="none" stroke="black" stroke-dasharray="5,2" points="4825,-548 4825,-690 5284,-690 5284,-548 4825,-548"/>
<text text-anchor="middle" x="5054.5" y="-652.4" font-family="Courier-Bold" font-size="42.00">templating</text>
</g>
<g id="clust11" class="cluster">
<title>cluster_unassigned</title>
<polygon fill="none" stroke="black" stroke-dasharray="5,2" points="5304,-548 5304,-690 5851,-690 5851,-548 5304,-548"/>
<text text-anchor="middle" x="5577.5" y="-652.4" font-family="Courier-Bold" font-size="42.00">unassigned</text>
</g>
<!-- KubeVirt/kubevirt&#45;kubevirt&#45;hyperconverged -->
<g id="node1" class="node">
<title>KubeVirt/kubevirt&#45;kubevirt&#45;hyperconverged</title>
<path fill="none" stroke="black" d="M542,-628C542,-628 28,-628 28,-628 22,-628 16,-622 16,-616 16,-616 16,-568 16,-568 16,-562 22,-556 28,-556 28,-556 542,-556 542,-556 548,-556 554,-562 554,-568 554,-568 554,-616 554,-616 554,-622 548,-628 542,-628"/>
<text text-anchor="middle" x="285" y="-585.8" font-family="Courier-Bold" font-size="24.00">KubeVirt/kubevirt&#45;kubevirt&#45;hyperconverged</text>
</g>
<!-- deployment/hco&#45;operator -->
<g id="node7" class="node">
<title>deployment/hco&#45;operator</title>
<path fill="none" stroke="black" d="M1049,-628C1049,-628 747,-628 747,-628 741,-628 735,-622 735,-616 735,-616 735,-568 735,-568 735,-562 741,-556 747,-556 747,-556 1049,-556 1049,-556 1055,-556 1061,-562 1061,-568 1061,-568 1061,-616 1061,-616 1061,-622 1055,-628 1049,-628"/>
<text text-anchor="middle" x="898" y="-585.8" font-family="Courier-Bold" font-size="24.00">deployment/hco&#45;operator</text>
</g>
<!-- KubeVirt/kubevirt&#45;kubevirt&#45;hyperconverged&#45;&gt;deployment/hco&#45;operator -->
<!-- daemonset/virt&#45;handler -->
<g id="node2" class="node">
<title>daemonset/virt&#45;handler</title>
<path fill="none" stroke="black" d="M424,-538C424,-538 146,-538 146,-538 140,-538 134,-532 134,-526 134,-526 134,-478 134,-478 134,-472 140,-466 146,-466 146,-466 424,-466 424,-466 430,-466 436,-472 436,-478 436,-478 436,-526 436,-526 436,-532 430,-538 424,-538"/>
<text text-anchor="middle" x="285" y="-495.8" font-family="Courier-Bold" font-size="24.00">daemonset/virt&#45;handler</text>
</g>
<!-- deployment/virt&#45;api -->
<g id="node3" class="node">
<title>deployment/virt&#45;api</title>
<path fill="none" stroke="black" d="M400.5,-448C400.5,-448 169.5,-448 169.5,-448 163.5,-448 157.5,-442 157.5,-436 157.5,-436 157.5,-388 157.5,-388 157.5,-382 163.5,-376 169.5,-376 169.5,-376 400.5,-376 400.5,-376 406.5,-376 412.5,-382 412.5,-388 412.5,-388 412.5,-436 412.5,-436 412.5,-442 406.5,-448 400.5,-448"/>
<text text-anchor="middle" x="285" y="-405.8" font-family="Courier-Bold" font-size="24.00">deployment/virt&#45;api</text>
</g>
<!-- deployment/virt&#45;controller -->
<g id="node4" class="node">
<title>deployment/virt&#45;controller</title>
<path fill="none" stroke="black" d="M440,-358C440,-358 130,-358 130,-358 124,-358 118,-352 118,-346 118,-346 118,-298 118,-298 118,-292 124,-286 130,-286 130,-286 440,-286 440,-286 446,-286 452,-292 452,-298 452,-298 452,-346 452,-346 452,-352 446,-358 440,-358"/>
<text text-anchor="middle" x="285" y="-315.8" font-family="Courier-Bold" font-size="24.00">deployment/virt&#45;controller</text>
</g>
<!-- deployment/virt&#45;exportproxy -->
<g id="node5" class="node">
<title>deployment/virt&#45;exportproxy</title>
<path fill="none" stroke="black" d="M454.5,-268C454.5,-268 115.5,-268 115.5,-268 109.5,-268 103.5,-262 103.5,-256 103.5,-256 103.5,-208 103.5,-208 103.5,-202 109.5,-196 115.5,-196 115.5,-196 454.5,-196 454.5,-196 460.5,-196 466.5,-202 466.5,-208 466.5,-208 466.5,-256 466.5,-256 466.5,-262 460.5,-268 454.5,-268"/>
<text text-anchor="middle" x="285" y="-225.8" font-family="Courier-Bold" font-size="24.00">deployment/virt&#45;exportproxy</text>
</g>
<!-- deployment/virt&#45;operator -->
<g id="node6" class="node">
<title>deployment/virt&#45;operator</title>
<path fill="none" stroke="black" d="M434.5,-178C434.5,-178 135.5,-178 135.5,-178 129.5,-178 123.5,-172 123.5,-166 123.5,-166 123.5,-118 123.5,-118 123.5,-112 129.5,-106 135.5,-106 135.5,-106 434.5,-106 434.5,-106 440.5,-106 446.5,-112 446.5,-118 446.5,-118 446.5,-166 446.5,-166 446.5,-172 440.5,-178 434.5,-178"/>
<text text-anchor="middle" x="285" y="-135.8" font-family="Courier-Bold" font-size="24.00">deployment/virt&#45;operator</text>
</g>
<!-- deployment/kubevirt&#45;apiserver&#45;proxy -->
<g id="node10" class="node">
<title>deployment/kubevirt&#45;apiserver&#45;proxy</title>
<path fill="none" stroke="black" d="M1719,-628C1719,-628 1279,-628 1279,-628 1273,-628 1267,-622 1267,-616 1267,-616 1267,-568 1267,-568 1267,-562 1273,-556 1279,-556 1279,-556 1719,-556 1719,-556 1725,-556 1731,-562 1731,-568 1731,-568 1731,-616 1731,-616 1731,-622 1725,-628 1719,-628"/>
<text text-anchor="middle" x="1499" y="-585.8" font-family="Courier-Bold" font-size="24.00">deployment/kubevirt&#45;apiserver&#45;proxy</text>
</g>
<!-- deployment/hco&#45;operator&#45;&gt;deployment/kubevirt&#45;apiserver&#45;proxy -->
<!-- deployment/hco&#45;webhook -->
<g id="node8" class="node">
<title>deployment/hco&#45;webhook</title>
<path fill="none" stroke="black" d="M1051,-538C1051,-538 745,-538 745,-538 739,-538 733,-532 733,-526 733,-526 733,-478 733,-478 733,-472 739,-466 745,-466 745,-466 1051,-466 1051,-466 1057,-466 1063,-472 1063,-478 1063,-478 1063,-526 1063,-526 1063,-532 1057,-538 1051,-538"/>
<text text-anchor="middle" x="898" y="-495.8" font-family="Courier-Bold" font-size="24.00">deployment/hco&#45;webhook</text>
</g>
<!-- deployment/hyperconverged&#45;cluster&#45;cli&#45;download -->
<g id="node9" class="node">
<title>deployment/hyperconverged&#45;cluster&#45;cli&#45;download</title>
<path fill="none" stroke="black" d="M1194,-448C1194,-448 602,-448 602,-448 596,-448 590,-442 590,-436 590,-436 590,-388 590,-388 590,-382 596,-376 602,-376 602,-376 1194,-376 1194,-376 1200,-376 1206,-382 1206,-388 1206,-388 1206,-436 1206,-436 1206,-442 1200,-448 1194,-448"/>
<text text-anchor="middle" x="898" y="-405.8" font-family="Courier-Bold" font-size="24.00">deployment/hyperconverged&#45;cluster&#45;cli&#45;download</text>
</g>
<!-- deployment/kubevirt&#45;console&#45;plugin -->
<g id="node11" class="node">
<title>deployment/kubevirt&#45;console&#45;plugin</title>
<path fill="none" stroke="black" d="M2252,-628C2252,-628 1824,-628 1824,-628 1818,-628 1812,-622 1812,-616 1812,-616 1812,-568 1812,-568 1812,-562 1818,-556 1824,-556 1824,-556 2252,-556 2252,-556 2258,-556 2264,-562 2264,-568 2264,-568 2264,-616 2264,-616 2264,-622 2258,-628 2252,-628"/>
<text text-anchor="middle" x="2038" y="-585.8" font-family="Courier-Bold" font-size="24.00">deployment/kubevirt&#45;console&#45;plugin</text>
</g>
<!-- deployment/kubevirt&#45;apiserver&#45;proxy&#45;&gt;deployment/kubevirt&#45;console&#45;plugin -->
<!-- deployment/mtq&#45;operator -->
<g id="node12" class="node">
<title>deployment/mtq&#45;operator</title>
<path fill="none" stroke="black" d="M2639,-628C2639,-628 2333,-628 2333,-628 2327,-628 2321,-622 2321,-616 2321,-616 2321,-568 2321,-568 2321,-562 2327,-556 2333,-556 2333,-556 2639,-556 2639,-556 2645,-556 2651,-562 2651,-568 2651,-568 2651,-616 2651,-616 2651,-622 2645,-628 2639,-628"/>
<text text-anchor="middle" x="2486" y="-585.8" font-family="Courier-Bold" font-size="24.00">deployment/mtq&#45;operator</text>
</g>
<!-- deployment/kubevirt&#45;console&#45;plugin&#45;&gt;deployment/mtq&#45;operator -->
<!-- NetworkAddonsConfig/cluster -->
<g id="node13" class="node">
<title>NetworkAddonsConfig/cluster</title>
<path fill="none" stroke="black" d="M3178,-628C3178,-628 2828,-628 2828,-628 2822,-628 2816,-622 2816,-616 2816,-616 2816,-568 2816,-568 2816,-562 2822,-556 2828,-556 2828,-556 3178,-556 3178,-556 3184,-556 3190,-562 3190,-568 3190,-568 3190,-616 3190,-616 3190,-622 3184,-628 3178,-628"/>
<text text-anchor="middle" x="3003" y="-585.8" font-family="Courier-Bold" font-size="24.00">NetworkAddonsConfig/cluster</text>
</g>
<!-- deployment/mtq&#45;operator&#45;&gt;NetworkAddonsConfig/cluster -->
<!-- deployment/aaq&#45;operator -->
<g id="node19" class="node">
<title>deployment/aaq&#45;operator</title>
<path fill="none" stroke="black" d="M3715,-628C3715,-628 3412,-628 3412,-628 3406,-628 3400,-622 3400,-616 3400,-616 3400,-568 3400,-568 3400,-562 3406,-556 3412,-556 3412,-556 3715,-556 3715,-556 3721,-556 3727,-562 3727,-568 3727,-568 3727,-616 3727,-616 3727,-622 3721,-628 3715,-628"/>
<text text-anchor="middle" x="3563.5" y="-585.8" font-family="Courier-Bold" font-size="24.00">deployment/aaq&#45;operator</text>
</g>
<!-- NetworkAddonsConfig/cluster&#45;&gt;deployment/aaq&#45;operator -->
<!-- daemonset/bridge&#45;marker -->
<g id="node14" class="node">
<title>daemonset/bridge&#45;marker</title>
<path fill="none" stroke="black" d="M3157,-538C3157,-538 2849,-538 2849,-538 2843,-538 2837,-532 2837,-526 2837,-526 2837,-478 2837,-478 2837,-472 2843,-466 2849,-466 2849,-466 3157,-466 3157,-466 3163,-466 3169,-472 3169,-478 3169,-478 3169,-526 3169,-526 3169,-532 3163,-538 3157,-538"/>
<text text-anchor="middle" x="3003" y="-495.8" font-family="Courier-Bold" font-size="24.00">daemonset/bridge&#45;marker</text>
</g>
<!-- daemonset/kube&#45;cni&#45;linux&#45;bridge&#45;plugin -->
<g id="node15" class="node">
<title>daemonset/kube&#45;cni&#45;linux&#45;bridge&#45;plugin</title>
<path fill="none" stroke="black" d="M3240,-448C3240,-448 2766,-448 2766,-448 2760,-448 2754,-442 2754,-436 2754,-436 2754,-388 2754,-388 2754,-382 2760,-376 2766,-376 2766,-376 3240,-376 3240,-376 3246,-376 3252,-382 3252,-388 3252,-388 3252,-436 3252,-436 3252,-442 3246,-448 3240,-448"/>
<text text-anchor="middle" x="3003" y="-405.8" font-family="Courier-Bold" font-size="24.00">daemonset/kube&#45;cni&#45;linux&#45;bridge&#45;plugin</text>
</g>
<!-- deployment/cluster&#45;network&#45;addons&#45;operator -->
<g id="node16" class="node">
<title>deployment/cluster&#45;network&#45;addons&#45;operator</title>
<path fill="none" stroke="black" d="M3274.5,-358C3274.5,-358 2731.5,-358 2731.5,-358 2725.5,-358 2719.5,-352 2719.5,-346 2719.5,-346 2719.5,-298 2719.5,-298 2719.5,-292 2725.5,-286 2731.5,-286 2731.5,-286 3274.5,-286 3274.5,-286 3280.5,-286 3286.5,-292 3286.5,-298 3286.5,-298 3286.5,-346 3286.5,-346 3286.5,-352 3280.5,-358 3274.5,-358"/>
<text text-anchor="middle" x="3003" y="-315.8" font-family="Courier-Bold" font-size="24.00">deployment/cluster&#45;network&#45;addons&#45;operator</text>
</g>
<!-- deployment/kubemacpool&#45;cert&#45;manager -->
<g id="node17" class="node">
<title>deployment/kubemacpool&#45;cert&#45;manager</title>
<path fill="none" stroke="black" d="M3243.5,-268C3243.5,-268 2762.5,-268 2762.5,-268 2756.5,-268 2750.5,-262 2750.5,-256 2750.5,-256 2750.5,-208 2750.5,-208 2750.5,-202 2756.5,-196 2762.5,-196 2762.5,-196 3243.5,-196 3243.5,-196 3249.5,-196 3255.5,-202 3255.5,-208 3255.5,-208 3255.5,-256 3255.5,-256 3255.5,-262 3249.5,-268 3243.5,-268"/>
<text text-anchor="middle" x="3003" y="-225.8" font-family="Courier-Bold" font-size="24.00">deployment/kubemacpool&#45;cert&#45;manager</text>
</g>
<!-- deployment/kubemacpool&#45;mac&#45;controller&#45;manager -->
<g id="node18" class="node">
<title>deployment/kubemacpool&#45;mac&#45;controller&#45;manager</title>
<path fill="none" stroke="black" d="M3307,-178C3307,-178 2699,-178 2699,-178 2693,-178 2687,-172 2687,-166 2687,-166 2687,-118 2687,-118 2687,-112 2693,-106 2699,-106 2699,-106 3307,-106 3307,-106 3313,-106 3319,-112 3319,-118 3319,-118 3319,-166 3319,-166 3319,-172 3313,-178 3307,-178"/>
<text text-anchor="middle" x="3003" y="-135.8" font-family="Courier-Bold" font-size="24.00">deployment/kubemacpool&#45;mac&#45;controller&#45;manager</text>
</g>
<!-- SSP/ssp&#45;kubevirt&#45;hyperconverged -->
<g id="node20" class="node">
<title>SSP/ssp&#45;kubevirt&#45;hyperconverged</title>
<path fill="none" stroke="black" d="M4218,-628C4218,-628 3820,-628 3820,-628 3814,-628 3808,-622 3808,-616 3808,-616 3808,-568 3808,-568 3808,-562 3814,-556 3820,-556 3820,-556 4218,-556 4218,-556 4224,-556 4230,-562 4230,-568 4230,-568 4230,-616 4230,-616 4230,-622 4224,-628 4218,-628"/>
<text text-anchor="middle" x="4019" y="-585.8" font-family="Courier-Bold" font-size="24.00">SSP/ssp&#45;kubevirt&#45;hyperconverged</text>
</g>
<!-- deployment/aaq&#45;operator&#45;&gt;SSP/ssp&#45;kubevirt&#45;hyperconverged -->
<!-- CDI/cdi&#45;kubevirt&#45;hyperconverged -->
<g id="node22" class="node">
<title>CDI/cdi&#45;kubevirt&#45;hyperconverged</title>
<path fill="none" stroke="black" d="M4727,-628C4727,-628 4336,-628 4336,-628 4330,-628 4324,-622 4324,-616 4324,-616 4324,-568 4324,-568 4324,-562 4330,-556 4336,-556 4336,-556 4727,-556 4727,-556 4733,-556 4739,-562 4739,-568 4739,-568 4739,-616 4739,-616 4739,-622 4733,-628 4727,-628"/>
<text text-anchor="middle" x="4531.5" y="-585.8" font-family="Courier-Bold" font-size="24.00">CDI/cdi&#45;kubevirt&#45;hyperconverged</text>
</g>
<!-- SSP/ssp&#45;kubevirt&#45;hyperconverged&#45;&gt;CDI/cdi&#45;kubevirt&#45;hyperconverged -->
<!-- deployment/ssp&#45;operator -->
<g id="node21" class="node">
<title>deployment/ssp&#45;operator</title>
<path fill="none" stroke="black" d="M4168.5,-538C4168.5,-538 3869.5,-538 3869.5,-538 3863.5,-538 3857.5,-532 3857.5,-526 3857.5,-526 3857.5,-478 3857.5,-478 3857.5,-472 3863.5,-466 3869.5,-466 3869.5,-466 4168.5,-466 4168.5,-466 4174.5,-466 4180.5,-472 4180.5,-478 4180.5,-478 4180.5,-526 4180.5,-526 4180.5,-532 4174.5,-538 4168.5,-538"/>
<text text-anchor="middle" x="4019" y="-495.8" font-family="Courier-Bold" font-size="24.00">deployment/ssp&#45;operator</text>
</g>
<!-- deployment/virt&#45;template&#45;validator -->
<g id="node29" class="node">
<title>deployment/virt&#45;template&#45;validator</title>
<path fill="none" stroke="black" d="M5264,-628C5264,-628 4845,-628 4845,-628 4839,-628 4833,-622 4833,-616 4833,-616 4833,-568 4833,-568 4833,-562 4839,-556 4845,-556 4845,-556 5264,-556 5264,-556 5270,-556 5276,-562 5276,-568 5276,-568 5276,-616 5276,-616 5276,-622 5270,-628 5264,-628"/>
<text text-anchor="middle" x="5054.5" y="-585.8" font-family="Courier-Bold" font-size="24.00">deployment/virt&#45;template&#45;validator</text>
</g>
<!-- CDI/cdi&#45;kubevirt&#45;hyperconverged&#45;&gt;deployment/virt&#45;template&#45;validator -->
<!-- CDIConfig/config -->
<g id="node23" class="node">
<title>CDIConfig/config</title>
<path fill="none" stroke="black" d="M4628,-538C4628,-538 4435,-538 4435,-538 4429,-538 4423,-532 4423,-526 4423,-526 4423,-478 4423,-478 4423,-472 4429,-466 4435,-466 4435,-466 4628,-466 4628,-466 4634,-466 4640,-472 4640,-478 4640,-478 4640,-526 4640,-526 4640,-532 4634,-538 4628,-538"/>
<text text-anchor="middle" x="4531.5" y="-495.8" font-family="Courier-Bold" font-size="24.00">CDIConfig/config</text>
</g>
<!-- deployment/cdi&#45;apiserver -->
<g id="node24" class="node">
<title>deployment/cdi&#45;apiserver</title>
<path fill="none" stroke="black" d="M4682.5,-448C4682.5,-448 4380.5,-448 4380.5,-448 4374.5,-448 4368.5,-442 4368.5,-436 4368.5,-436 4368.5,-388 4368.5,-388 4368.5,-382 4374.5,-376 4380.5,-376 4380.5,-376 4682.5,-376 4682.5,-376 4688.5,-376 4694.5,-382 4694.5,-388 4694.5,-388 4694.5,-436 4694.5,-436 4694.5,-442 4688.5,-448 4682.5,-448"/>
<text text-anchor="middle" x="4531.5" y="-405.8" font-family="Courier-Bold" font-size="24.00">deployment/cdi&#45;apiserver</text>
</g>
<!-- deployment/cdi&#45;deployment -->
<g id="node25" class="node">
<title>deployment/cdi&#45;deployment</title>
<path fill="none" stroke="black" d="M4698,-358C4698,-358 4365,-358 4365,-358 4359,-358 4353,-352 4353,-346 4353,-346 4353,-298 4353,-298 4353,-292 4359,-286 4365,-286 4365,-286 4698,-286 4698,-286 4704,-286 4710,-292 4710,-298 4710,-298 4710,-346 4710,-346 4710,-352 4704,-358 4698,-358"/>
<text text-anchor="middle" x="4531.5" y="-315.8" font-family="Courier-Bold" font-size="24.00">deployment/cdi&#45;deployment</text>
</g>
<!-- deployment/cdi&#45;operator -->
<g id="node26" class="node">
<title>deployment/cdi&#45;operator</title>
<path fill="none" stroke="black" d="M4678,-268C4678,-268 4385,-268 4385,-268 4379,-268 4373,-262 4373,-256 4373,-256 4373,-208 4373,-208 4373,-202 4379,-196 4385,-196 4385,-196 4678,-196 4678,-196 4684,-196 4690,-202 4690,-208 4690,-208 4690,-256 4690,-256 4690,-262 4684,-268 4678,-268"/>
<text text-anchor="middle" x="4531.5" y="-225.8" font-family="Courier-Bold" font-size="24.00">deployment/cdi&#45;operator</text>
</g>
<!-- deployment/cdi&#45;uploadproxy -->
<g id="node27" class="node">
<title>deployment/cdi&#45;uploadproxy</title>
<path fill="none" stroke="black" d="M4700.5,-178C4700.5,-178 4362.5,-178 4362.5,-178 4356.5,-178 4350.5,-172 4350.5,-166 4350.5,-166 4350.5,-118 4350.5,-118 4350.5,-112 4356.5,-106 4362.5,-106 4362.5,-106 4700.5,-106 4700.5,-106 4706.5,-106 4712.5,-112 4712.5,-118 4712.5,-118 4712.5,-166 4712.5,-166 4712.5,-172 4706.5,-178 4700.5,-178"/>
<text text-anchor="middle" x="4531.5" y="-135.8" font-family="Courier-Bold" font-size="24.00">deployment/cdi&#45;uploadproxy</text>
</g>
<!-- deployment/hostpath&#45;provisioner&#45;operator -->
<g id="node28" class="node">
<title>deployment/hostpath&#45;provisioner&#45;operator</title>
<path fill="none" stroke="black" d="M4785,-88C4785,-88 4278,-88 4278,-88 4272,-88 4266,-82 4266,-76 4266,-76 4266,-28 4266,-28 4266,-22 4272,-16 4278,-16 4278,-16 4785,-16 4785,-16 4791,-16 4797,-22 4797,-28 4797,-28 4797,-76 4797,-76 4797,-82 4791,-88 4785,-88"/>
<text text-anchor="middle" x="4531.5" y="-45.8" font-family="Courier-Bold" font-size="24.00">deployment/hostpath&#45;provisioner&#45;operator</text>
</g>
<!-- HyperConverged/kubevirt&#45;hyperconverged -->
<g id="node30" class="node">
<title>HyperConverged/kubevirt&#45;hyperconverged</title>
<path fill="none" stroke="black" d="M5831,-628C5831,-628 5324,-628 5324,-628 5318,-628 5312,-622 5312,-616 5312,-616 5312,-568 5312,-568 5312,-562 5318,-556 5324,-556 5324,-556 5831,-556 5831,-556 5837,-556 5843,-562 5843,-568 5843,-568 5843,-616 5843,-616 5843,-622 5837,-628 5831,-628"/>
<text text-anchor="middle" x="5577.5" y="-585.8" font-family="Courier-Bold" font-size="24.00">HyperConverged/kubevirt&#45;hyperconverged</text>
</g>
<!-- deployment/virt&#45;template&#45;validator&#45;&gt;HyperConverged/kubevirt&#45;hyperconverged -->
</g>
</svg>
