<?xml version="1.0" encoding="UTF-8" standalone="no"?>
<!DOCTYPE svg PUBLIC "-//W3C//DTD SVG 1.1//EN"
 "http://www.w3.org/Graphics/SVG/1.1/DTD/svg11.dtd">
<!-- Generated by graphviz version 2.44.0 (0)
 -->
<!-- Title: component Pages: 1 -->
<svg width="3969pt" height="706pt"
 viewBox="0.00 0.00 3969.00 706.00" xmlns="http://www.w3.org/2000/svg" xmlns:xlink="http://www.w3.org/1999/xlink">
<g id="graph0" class="graph" transform="scale(1 1) rotate(0) translate(4 702)">
<title>component</title>
<polygon fill="white" stroke="transparent" points="-4,4 -4,-702 3965,-702 3965,4 -4,4"/>
<g id="clust1" class="cluster">
<title>cluster_compute</title>
<polygon fill="none" stroke="black" stroke-dasharray="5,2" points="8,-98 8,-690 562,-690 562,-98 8,-98"/>
<text text-anchor="middle" x="285" y="-652.4" font-family="Courier-Bold" font-size="42.00">compute</text>
</g>
<g id="clust2" class="cluster">
<title>cluster_deployment</title>
<polygon fill="none" stroke="black" stroke-dasharray="5,2" points="582,-278 582,-690 1214,-690 1214,-278 582,-278"/>
<text text-anchor="middle" x="898" y="-652.4" font-family="Courier-Bold" font-size="42.00">deployment</text>
</g>
<g id="clust3" class="cluster">
<title>cluster_network</title>
<polygon fill="none" stroke="black" stroke-dasharray="5,2" points="1234,-98 1234,-690 1882,-690 1882,-98 1234,-98"/>
<text text-anchor="middle" x="1558" y="-652.4" font-family="Courier-Bold" font-size="42.00">network</text>
</g>
<g id="clust4" class="cluster">
<title>cluster_schedule</title>
<polygon fill="none" stroke="black" stroke-dasharray="5,2" points="1902,-458 1902,-690 2340,-690 2340,-458 1902,-458"/>
<text text-anchor="middle" x="2121" y="-652.4" font-family="Courier-Bold" font-size="42.00">schedule</text>
</g>
<g id="clust5" class="cluster">
<title>cluster_storage</title>
<polygon fill="none" stroke="black" stroke-dasharray="5,2" points="2360,-8 2360,-690 2907,-690 2907,-8 2360,-8"/>
<text text-anchor="middle" x="2633.5" y="-652.4" font-family="Courier-Bold" font-size="42.00">storage</text>
</g>
<g id="clust6" class="cluster">
<title>cluster_templating</title>
<polygon fill="none" stroke="black" stroke-dasharray="5,2" points="2927,-548 2927,-690 3386,-690 3386,-548 2927,-548"/>
<text text-anchor="middle" x="3156.5" y="-652.4" font-family="Courier-Bold" font-size="42.00">templating</text>
</g>
<g id="clust7" class="cluster">
<title>cluster_unassigned</title>
<polygon fill="none" stroke="black" stroke-dasharray="5,2" points="3406,-548 3406,-690 3953,-690 3953,-548 3406,-548"/>
<text text-anchor="middle" x="3679.5" y="-652.4" font-family="Courier-Bold" font-size="42.00">unassigned</text>
</g>
<!-- KubeVirt/kubevirt&#45;kubevirt&#45;hyperconverged -->
<g id="node1" class="node">
<title>KubeVirt/kubevirt&#45;kubevirt&#45;hyperconverged</title>
<path fill="none" stroke="black" d="M542,-628C542,-628 28,-628 28,-628 22,-628 16,-622 16,-616 16,-616 16,-568 16,-568 16,-562 22,-556 28,-556 28,-556 542,-556 542,-556 548,-556 554,-562 554,-568 554,-568 554,-616 554,-616 554,-622 548,-628 542,-628"/>
<text text-anchor="middle" x="285" y="-585.8" font-family="Courier-Bold" font-size="24.00">KubeVirt/kubevirt&#45;kubevirt&#45;hyperconverged</text>
</g>
<!-- deployment/hco&#45;operator -->
<g id="node7" class="node">
<title>deployment/hco&#45;operator</title>
<path fill="none" stroke="black" d="M1049,-628C1049,-628 747,-628 747,-628 741,-628 735,-622 735,-616 735,-616 735,-568 735,-568 735,-562 741,-556 747,-556 747,-556 1049,-556 1049,-556 1055,-556 1061,-562 1061,-568 1061,-568 1061,-616 1061,-616 1061,-622 1055,-628 1049,-628"/>
<text text-anchor="middle" x="898" y="-585.8" font-family="Courier-Bold" font-size="24.00">deployment/hco&#45;operator</text>
</g>
<!-- KubeVirt/kubevirt&#45;kubevirt&#45;hyperconverged&#45;&gt;deployment/hco&#45;operator -->
<!-- daemonset/virt&#45;handler -->
<g id="node2" class="node">
<title>daemonset/virt&#45;handler</title>
<path fill="none" stroke="black" d="M424,-538C424,-538 146,-538 146,-538 140,-538 134,-532 134,-526 134,-526 134,-478 134,-478 134,-472 140,-466 146,-466 146,-466 424,-466 424,-466 430,-466 436,-472 436,-478 436,-478 436,-526 436,-526 436,-532 430,-538 424,-538"/>
<text text-anchor="middle" x="285" y="-495.8" font-family="Courier-Bold" font-size="24.00">daemonset/virt&#45;handler</text>
</g>
<!-- deployment/virt&#45;api -->
<g id="node3" class="node">
<title>deployment/virt&#45;api</title>
<path fill="none" stroke="black" d="M400.5,-448C400.5,-448 169.5,-448 169.5,-448 163.5,-448 157.5,-442 157.5,-436 157.5,-436 157.5,-388 157.5,-388 157.5,-382 163.5,-376 169.5,-376 169.5,-376 400.5,-376 400.5,-376 406.5,-376 412.5,-382 412.5,-388 412.5,-388 412.5,-436 412.5,-436 412.5,-442 406.5,-448 400.5,-448"/>
<text text-anchor="middle" x="285" y="-405.8" font-family="Courier-Bold" font-size="24.00">deployment/virt&#45;api</text>
</g>
<!-- deployment/virt&#45;controller -->
<g id="node4" class="node">
<title>deployment/virt&#45;controller</title>
<path fill="none" stroke="black" d="M440,-358C440,-358 130,-358 130,-358 124,-358 118,-352 118,-346 118,-346 118,-298 118,-298 118,-292 124,-286 130,-286 130,-286 440,-286 440,-286 446,-286 452,-292 452,-298 452,-298 452,-346 452,-346 452,-352 446,-358 440,-358"/>
<text text-anchor="middle" x="285" y="-315.8" font-family="Courier-Bold" font-size="24.00">deployment/virt&#45;controller</text>
</g>
<!-- deployment/virt&#45;exportproxy -->
<g id="node5" class="node">
<title>deployment/virt&#45;exportproxy</title>
<path fill="none" stroke="black" d="M454.5,-268C454.5,-268 115.5,-268 115.5,-268 109.5,-268 103.5,-262 103.5,-256 103.5,-256 103.5,-208 103.5,-208 103.5,-202 109.5,-196 115.5,-196 115.5,-196 454.5,-196 454.5,-196 460.5,-196 466.5,-202 466.5,-208 466.5,-208 466.5,-256 466.5,-256 466.5,-262 460.5,-268 454.5,-268"/>
<text text-anchor="middle" x="285" y="-225.8" font-family="Courier-Bold" font-size="24.00">deployment/virt&#45;exportproxy</text>
</g>
<!-- deployment/virt&#45;operator -->
<g id="node6" class="node">
<title>deployment/virt&#45;operator</title>
<path fill="none" stroke="black" d="M434.5,-178C434.5,-178 135.5,-178 135.5,-178 129.5,-178 123.5,-172 123.5,-166 123.5,-166 123.5,-118 123.5,-118 123.5,-112 129.5,-106 135.5,-106 135.5,-106 434.5,-106 434.5,-106 440.5,-106 446.5,-112 446.5,-118 446.5,-118 446.5,-166 446.5,-166 446.5,-172 440.5,-178 434.5,-178"/>
<text text-anchor="middle" x="285" y="-135.8" font-family="Courier-Bold" font-size="24.00">deployment/virt&#45;operator</text>
</g>
<!-- NetworkAddonsConfig/cluster -->
<g id="node11" class="node">
<title>NetworkAddonsConfig/cluster</title>
<path fill="none" stroke="black" d="M1733,-628C1733,-628 1383,-628 1383,-628 1377,-628 1371,-622 1371,-616 1371,-616 1371,-568 1371,-568 1371,-562 1377,-556 1383,-556 1383,-556 1733,-556 1733,-556 1739,-556 1745,-562 1745,-568 1745,-568 1745,-616 1745,-616 1745,-622 1739,-628 1733,-628"/>
<text text-anchor="middle" x="1558" y="-585.8" font-family="Courier-Bold" font-size="24.00">NetworkAddonsConfig/cluster</text>
</g>
<!-- deployment/hco&#45;operator&#45;&gt;NetworkAddonsConfig/cluster -->
<!-- deployment/hco&#45;webhook -->
<g id="node8" class="node">
<title>deployment/hco&#45;webhook</title>
<path fill="none" stroke="black" d="M1051,-538C1051,-538 745,-538 745,-538 739,-538 733,-532 733,-526 733,-526 733,-478 733,-478 733,-472 739,-466 745,-466 745,-466 1051,-466 1051,-466 1057,-466 1063,-472 1063,-478 1063,-478 1063,-526 1063,-526 1063,-532 1057,-538 1051,-538"/>
<text text-anchor="middle" x="898" y="-495.8" font-family="Courier-Bold" font-size="24.00">deployment/hco&#45;webhook</text>
</g>
<!-- deployment/hyperconverged&#45;cluster&#45;cli&#45;download -->
<g id="node9" class="node">
<title>deployment/hyperconverged&#45;cluster&#45;cli&#45;download</title>
<path fill="none" stroke="black" d="M1194,-448C1194,-448 602,-448 602,-448 596,-448 590,-442 590,-436 590,-436 590,-388 590,-388 590,-382 596,-376 602,-376 602,-376 1194,-376 1194,-376 1200,-376 1206,-382 1206,-388 1206,-388 1206,-436 1206,-436 1206,-442 1200,-448 1194,-448"/>
<text text-anchor="middle" x="898" y="-405.8" font-family="Courier-Bold" font-size="24.00">deployment/hyperconverged&#45;cluster&#45;cli&#45;download</text>
</g>
<!-- deployment/kubevirt&#45;console&#45;plugin -->
<g id="node10" class="node">
<title>deployment/kubevirt&#45;console&#45;plugin</title>
<path fill="none" stroke="black" d="M1112,-358C1112,-358 684,-358 684,-358 678,-358 672,-352 672,-346 672,-346 672,-298 672,-298 672,-292 678,-286 684,-286 684,-286 1112,-286 1112,-286 1118,-286 1124,-292 1124,-298 1124,-298 1124,-346 1124,-346 1124,-352 1118,-358 1112,-358"/>
<text text-anchor="middle" x="898" y="-315.8" font-family="Courier-Bold" font-size="24.00">deployment/kubevirt&#45;console&#45;plugin</text>
</g>
<!-- SSP/ssp&#45;kubevirt&#45;hyperconverged -->
<g id="node17" class="node">
<title>SSP/ssp&#45;kubevirt&#45;hyperconverged</title>
<path fill="none" stroke="black" d="M2320,-628C2320,-628 1922,-628 1922,-628 1916,-628 1910,-622 1910,-616 1910,-616 1910,-568 1910,-568 1910,-562 1916,-556 1922,-556 1922,-556 2320,-556 2320,-556 2326,-556 2332,-562 2332,-568 2332,-568 2332,-616 2332,-616 2332,-622 2326,-628 2320,-628"/>
<text text-anchor="middle" x="2121" y="-585.8" font-family="Courier-Bold" font-size="24.00">SSP/ssp&#45;kubevirt&#45;hyperconverged</text>
</g>
<!-- NetworkAddonsConfig/cluster&#45;&gt;SSP/ssp&#45;kubevirt&#45;hyperconverged -->
<!-- daemonset/bridge&#45;marker -->
<g id="node12" class="node">
<title>daemonset/bridge&#45;marker</title>
<path fill="none" stroke="black" d="M1712,-538C1712,-538 1404,-538 1404,-538 1398,-538 1392,-532 1392,-526 1392,-526 1392,-478 1392,-478 1392,-472 1398,-466 1404,-466 1404,-466 1712,-466 1712,-466 1718,-466 1724,-472 1724,-478 1724,-478 1724,-526 1724,-526 1724,-532 1718,-538 1712,-538"/>
<text text-anchor="middle" x="1558" y="-495.8" font-family="Courier-Bold" font-size="24.00">daemonset/bridge&#45;marker</text>
</g>
<!-- daemonset/kube&#45;cni&#45;linux&#45;bridge&#45;plugin -->
<g id="node13" class="node">
<title>daemonset/kube&#45;cni&#45;linux&#45;bridge&#45;plugin</title>
<path fill="none" stroke="black" d="M1795,-448C1795,-448 1321,-448 1321,-448 1315,-448 1309,-442 1309,-436 1309,-436 1309,-388 1309,-388 1309,-382 1315,-376 1321,-376 1321,-376 1795,-376 1795,-376 1801,-376 1807,-382 1807,-388 1807,-388 1807,-436 1807,-436 1807,-442 1801,-448 1795,-448"/>
<text text-anchor="middle" x="1558" y="-405.8" font-family="Courier-Bold" font-size="24.00">daemonset/kube&#45;cni&#45;linux&#45;bridge&#45;plugin</text>
</g>
<!-- deployment/cluster&#45;network&#45;addons&#45;operator -->
<g id="node14" class="node">
<title>deployment/cluster&#45;network&#45;addons&#45;operator</title>
<path fill="none" stroke="black" d="M1829.5,-358C1829.5,-358 1286.5,-358 1286.5,-358 1280.5,-358 1274.5,-352 1274.5,-346 1274.5,-346 1274.5,-298 1274.5,-298 1274.5,-292 1280.5,-286 1286.5,-286 1286.5,-286 1829.5,-286 1829.5,-286 1835.5,-286 1841.5,-292 1841.5,-298 1841.5,-298 1841.5,-346 1841.5,-346 1841.5,-352 1835.5,-358 1829.5,-358"/>
<text text-anchor="middle" x="1558" y="-315.8" font-family="Courier-Bold" font-size="24.00">deployment/cluster&#45;network&#45;addons&#45;operator</text>
</g>
<!-- deployment/kubemacpool&#45;cert&#45;manager -->
<g id="node15" class="node">
<title>deployment/kubemacpool&#45;cert&#45;manager</title>
<path fill="none" stroke="black" d="M1798.5,-268C1798.5,-268 1317.5,-268 1317.5,-268 1311.5,-268 1305.5,-262 1305.5,-256 1305.5,-256 1305.5,-208 1305.5,-208 1305.5,-202 1311.5,-196 1317.5,-196 1317.5,-196 1798.5,-196 1798.5,-196 1804.5,-196 1810.5,-202 1810.5,-208 1810.5,-208 1810.5,-256 1810.5,-256 1810.5,-262 1804.5,-268 1798.5,-268"/>
<text text-anchor="middle" x="1558" y="-225.8" font-family="Courier-Bold" font-size="24.00">deployment/kubemacpool&#45;cert&#45;manager</text>
</g>
<!-- deployment/kubemacpool&#45;mac&#45;controller&#45;manager -->
<g id="node16" class="node">
<title>deployment/kubemacpool&#45;mac&#45;controller&#45;manager</title>
<path fill="none" stroke="black" d="M1862,-178C1862,-178 1254,-178 1254,-178 1248,-178 1242,-172 1242,-166 1242,-166 1242,-118 1242,-118 1242,-112 1248,-106 1254,-106 1254,-106 1862,-106 1862,-106 1868,-106 1874,-112 1874,-118 1874,-118 1874,-166 1874,-166 1874,-172 1868,-178 1862,-178"/>
<text text-anchor="middle" x="1558" y="-135.8" font-family="Courier-Bold" font-size="24.00">deployment/kubemacpool&#45;mac&#45;controller&#45;manager</text>
</g>
<!-- CDI/cdi&#45;kubevirt&#45;hyperconverged -->
<g id="node19" class="node">
<title>CDI/cdi&#45;kubevirt&#45;hyperconverged</title>
<path fill="none" stroke="black" d="M2829,-628C2829,-628 2438,-628 2438,-628 2432,-628 2426,-622 2426,-616 2426,-616 2426,-568 2426,-568 2426,-562 2432,-556 2438,-556 2438,-556 2829,-556 2829,-556 2835,-556 2841,-562 2841,-568 2841,-568 2841,-616 2841,-616 2841,-622 2835,-628 2829,-628"/>
<text text-anchor="middle" x="2633.5" y="-585.8" font-family="Courier-Bold" font-size="24.00">CDI/cdi&#45;kubevirt&#45;hyperconverged</text>
</g>
<!-- SSP/ssp&#45;kubevirt&#45;hyperconverged&#45;&gt;CDI/cdi&#45;kubevirt&#45;hyperconverged -->
<!-- deployment/ssp&#45;operator -->
<g id="node18" class="node">
<title>deployment/ssp&#45;operator</title>
<path fill="none" stroke="black" d="M2270.5,-538C2270.5,-538 1971.5,-538 1971.5,-538 1965.5,-538 1959.5,-532 1959.5,-526 1959.5,-526 1959.5,-478 1959.5,-478 1959.5,-472 1965.5,-466 1971.5,-466 1971.5,-466 2270.5,-466 2270.5,-466 2276.5,-466 2282.5,-472 2282.5,-478 2282.5,-478 2282.5,-526 2282.5,-526 2282.5,-532 2276.5,-538 2270.5,-538"/>
<text text-anchor="middle" x="2121" y="-495.8" font-family="Courier-Bold" font-size="24.00">deployment/ssp&#45;operator</text>
</g>
<!-- deployment/virt&#45;template&#45;validator -->
<g id="node26" class="node">
<title>deployment/virt&#45;template&#45;validator</title>
<path fill="none" stroke="black" d="M3366,-628C3366,-628 2947,-628 2947,-628 2941,-628 2935,-622 2935,-616 2935,-616 2935,-568 2935,-568 2935,-562 2941,-556 2947,-556 2947,-556 3366,-556 3366,-556 3372,-556 3378,-562 3378,-568 3378,-568 3378,-616 3378,-616 3378,-622 3372,-628 3366,-628"/>
<text text-anchor="middle" x="3156.5" y="-585.8" font-family="Courier-Bold" font-size="24.00">deployment/virt&#45;template&#45;validator</text>
</g>
<!-- CDI/cdi&#45;kubevirt&#45;hyperconverged&#45;&gt;deployment/virt&#45;template&#45;validator -->
<!-- CDIConfig/config -->
<g id="node20" class="node">
<title>CDIConfig/config</title>
<path fill="none" stroke="black" d="M2730,-538C2730,-538 2537,-538 2537,-538 2531,-538 2525,-532 2525,-526 2525,-526 2525,-478 2525,-478 2525,-472 2531,-466 2537,-466 2537,-466 2730,-466 2730,-466 2736,-466 2742,-472 2742,-478 2742,-478 2742,-526 2742,-526 2742,-532 2736,-538 2730,-538"/>
<text text-anchor="middle" x="2633.5" y="-495.8" font-family="Courier-Bold" font-size="24.00">CDIConfig/config</text>
</g>
<!-- deployment/cdi&#45;apiserver -->
<g id="node21" class="node">
<title>deployment/cdi&#45;apiserver</title>
<path fill="none" stroke="black" d="M2784.5,-448C2784.5,-448 2482.5,-448 2482.5,-448 2476.5,-448 2470.5,-442 2470.5,-436 2470.5,-436 2470.5,-388 2470.5,-388 2470.5,-382 2476.5,-376 2482.5,-376 2482.5,-376 2784.5,-376 2784.5,-376 2790.5,-376 2796.5,-382 2796.5,-388 2796.5,-388 2796.5,-436 2796.5,-436 2796.5,-442 2790.5,-448 2784.5,-448"/>
<text text-anchor="middle" x="2633.5" y="-405.8" font-family="Courier-Bold" font-size="24.00">deployment/cdi&#45;apiserver</text>
</g>
<!-- deployment/cdi&#45;deployment -->
<g id="node22" class="node">
<title>deployment/cdi&#45;deployment</title>
<path fill="none" stroke="black" d="M2800,-358C2800,-358 2467,-358 2467,-358 2461,-358 2455,-352 2455,-346 2455,-346 2455,-298 2455,-298 2455,-292 2461,-286 2467,-286 2467,-286 2800,-286 2800,-286 2806,-286 2812,-292 2812,-298 2812,-298 2812,-346 2812,-346 2812,-352 2806,-358 2800,-358"/>
<text text-anchor="middle" x="2633.5" y="-315.8" font-family="Courier-Bold" font-size="24.00">deployment/cdi&#45;deployment</text>
</g>
<!-- deployment/cdi&#45;operator -->
<g id="node23" class="node">
<title>deployment/cdi&#45;operator</title>
<path fill="none" stroke="black" d="M2780,-268C2780,-268 2487,-268 2487,-268 2481,-268 2475,-262 2475,-256 2475,-256 2475,-208 2475,-208 2475,-202 2481,-196 2487,-196 2487,-196 2780,-196 2780,-196 2786,-196 2792,-202 2792,-208 2792,-208 2792,-256 2792,-256 2792,-262 2786,-268 2780,-268"/>
<text text-anchor="middle" x="2633.5" y="-225.8" font-family="Courier-Bold" font-size="24.00">deployment/cdi&#45;operator</text>
</g>
<!-- deployment/cdi&#45;uploadproxy -->
<g id="node24" class="node">
<title>deployment/cdi&#45;uploadproxy</title>
<path fill="none" stroke="black" d="M2802.5,-178C2802.5,-178 2464.5,-178 2464.5,-178 2458.5,-178 2452.5,-172 2452.5,-166 2452.5,-166 2452.5,-118 2452.5,-118 2452.5,-112 2458.5,-106 2464.5,-106 2464.5,-106 2802.5,-106 2802.5,-106 2808.5,-106 2814.5,-112 2814.5,-118 2814.5,-118 2814.5,-166 2814.5,-166 2814.5,-172 2808.5,-178 2802.5,-178"/>
<text text-anchor="middle" x="2633.5" y="-135.8" font-family="Courier-Bold" font-size="24.00">deployment/cdi&#45;uploadproxy</text>
</g>
<!-- deployment/hostpath&#45;provisioner&#45;operator -->
<g id="node25" class="node">
<title>deployment/hostpath&#45;provisioner&#45;operator</title>
<path fill="none" stroke="black" d="M2887,-88C2887,-88 2380,-88 2380,-88 2374,-88 2368,-82 2368,-76 2368,-76 2368,-28 2368,-28 2368,-22 2374,-16 2380,-16 2380,-16 2887,-16 2887,-16 2893,-16 2899,-22 2899,-28 2899,-28 2899,-76 2899,-76 2899,-82 2893,-88 2887,-88"/>
<text text-anchor="middle" x="2633.5" y="-45.8" font-family="Courier-Bold" font-size="24.00">deployment/hostpath&#45;provisioner&#45;operator</text>
</g>
<!-- HyperConverged/kubevirt&#45;hyperconverged -->
<g id="node27" class="node">
<title>HyperConverged/kubevirt&#45;hyperconverged</title>
<path fill="none" stroke="black" d="M3933,-628C3933,-628 3426,-628 3426,-628 3420,-628 3414,-622 3414,-616 3414,-616 3414,-568 3414,-568 3414,-562 3420,-556 3426,-556 3426,-556 3933,-556 3933,-556 3939,-556 3945,-562 3945,-568 3945,-568 3945,-616 3945,-616 3945,-622 3939,-628 3933,-628"/>
<text text-anchor="middle" x="3679.5" y="-585.8" font-family="Courier-Bold" font-size="24.00">HyperConverged/kubevirt&#45;hyperconverged</text>
</g>
<!-- deployment/virt&#45;template&#45;validator&#45;&gt;HyperConverged/kubevirt&#45;hyperconverged -->
</g>
</svg>
