<?xml version="1.0" encoding="UTF-8" standalone="no"?>
<!DOCTYPE svg PUBLIC "-//W3C//DTD SVG 1.1//EN"
 "http://www.w3.org/Graphics/SVG/1.1/DTD/svg11.dtd">
<!-- Generated by graphviz version 2.44.0 (0)
 -->
<!-- Title: managed&#45;by Pages: 1 -->
<svg width="2465pt" height="1412pt"
 viewBox="14.40 14.40 2450.40 1397.40" xmlns="http://www.w3.org/2000/svg" xmlns:xlink="http://www.w3.org/1999/xlink">
<g id="graph0" class="graph" transform="scale(1 1) rotate(0) translate(18.4 1393.4)">
<title>managed&#45;by</title>
<polygon fill="white" stroke="transparent" points="-4,4 -4,-1379 2432,-1379 2432,4 -4,4"/>
<!-- HyperConverged/kubevirt&#45;hyperconverged -->
<g id="node1" class="node">
<title>HyperConverged/kubevirt&#45;hyperconverged</title>
<path fill="none" stroke="black" d="M519,-486C519,-486 12,-486 12,-486 6,-486 0,-480 0,-474 0,-474 0,-426 0,-426 0,-420 6,-414 12,-414 12,-414 519,-414 519,-414 525,-414 531,-420 531,-426 531,-426 531,-474 531,-474 531,-480 525,-486 519,-486"/>
<text text-anchor="middle" x="265.5" y="-443.8" font-family="Courier-Bold" font-size="24.00">HyperConverged/kubevirt&#45;hyperconverged</text>
</g>
<!-- KubeVirt/kubevirt&#45;kubevirt&#45;hyperconverged -->
<g id="node2" class="node">
<title>KubeVirt/kubevirt&#45;kubevirt&#45;hyperconverged</title>
<path fill="none" stroke="black" d="M2008,-1375C2008,-1375 1494,-1375 1494,-1375 1488,-1375 1482,-1369 1482,-1363 1482,-1363 1482,-1315 1482,-1315 1482,-1309 1488,-1303 1494,-1303 1494,-1303 2008,-1303 2008,-1303 2014,-1303 2020,-1309 2020,-1315 2020,-1315 2020,-1363 2020,-1363 2020,-1369 2014,-1375 2008,-1375"/>
<text text-anchor="middle" x="1751" y="-1332.8" font-family="Courier-Bold" font-size="24.00">KubeVirt/kubevirt&#45;kubevirt&#45;hyperconverged</text>
</g>
<!-- deployment/hco&#45;operator -->
<g id="node3" class="node">
<title>deployment/hco&#45;operator</title>
<path fill="none" stroke="black" d="M1134,-1177C1134,-1177 832,-1177 832,-1177 826,-1177 820,-1171 820,-1165 820,-1165 820,-1117 820,-1117 820,-1111 826,-1105 832,-1105 832,-1105 1134,-1105 1134,-1105 1140,-1105 1146,-1111 1146,-1117 1146,-1117 1146,-1165 1146,-1165 1146,-1171 1140,-1177 1134,-1177"/>
<text text-anchor="middle" x="983" y="-1134.8" font-family="Courier-Bold" font-size="24.00">deployment/hco&#45;operator</text>
</g>
<!-- deployment/hco&#45;operator&#45;&gt;KubeVirt/kubevirt&#45;kubevirt&#45;hyperconverged -->
<g id="edge1" class="edge">
<title>deployment/hco&#45;operator&#45;&gt;KubeVirt/kubevirt&#45;kubevirt&#45;hyperconverged</title>
<path fill="none" stroke="black" d="M1069.68,-1177.12C1159.23,-1213.41 1304.59,-1268.24 1435,-1299 1443.76,-1301.07 1452.69,-1303.03 1461.72,-1304.9"/>
<polygon fill="black" stroke="black" points="1481.65,-1308.84 1460.29,-1313.79 1471.84,-1306.9 1462.03,-1304.96 1462.03,-1304.96 1462.03,-1304.96 1471.84,-1306.9 1463.78,-1296.13 1481.65,-1308.84 1481.65,-1308.84"/>
</g>
<!-- SSP/ssp&#45;kubevirt&#45;hyperconverged -->
<g id="node4" class="node">
<title>SSP/ssp&#45;kubevirt&#45;hyperconverged</title>
<path fill="none" stroke="black" d="M1950,-1296C1950,-1296 1552,-1296 1552,-1296 1546,-1296 1540,-1290 1540,-1284 1540,-1284 1540,-1236 1540,-1236 1540,-1230 1546,-1224 1552,-1224 1552,-1224 1950,-1224 1950,-1224 1956,-1224 1962,-1230 1962,-1236 1962,-1236 1962,-1284 1962,-1284 1962,-1290 1956,-1296 1950,-1296"/>
<text text-anchor="middle" x="1751" y="-1253.8" font-family="Courier-Bold" font-size="24.00">SSP/ssp&#45;kubevirt&#45;hyperconverged</text>
</g>
<!-- deployment/hco&#45;operator&#45;&gt;SSP/ssp&#45;kubevirt&#45;hyperconverged -->
<g id="edge2" class="edge">
<title>deployment/hco&#45;operator&#45;&gt;SSP/ssp&#45;kubevirt&#45;hyperconverged</title>
<path fill="none" stroke="black" d="M1146.26,-1171.33C1231.97,-1186.86 1339.01,-1205.51 1435,-1220 1462.33,-1224.13 1491.03,-1228.17 1519.52,-1232.01"/>
<polygon fill="black" stroke="black" points="1539.7,-1234.69 1518.69,-1240.97 1529.79,-1233.37 1519.88,-1232.05 1519.88,-1232.05 1519.88,-1232.05 1529.79,-1233.37 1521.07,-1223.13 1539.7,-1234.69 1539.7,-1234.69"/>
</g>
<!-- CDI/cdi&#45;kubevirt&#45;hyperconverged -->
<g id="node5" class="node">
<title>CDI/cdi&#45;kubevirt&#45;hyperconverged</title>
<path fill="none" stroke="black" d="M1946.5,-1217C1946.5,-1217 1555.5,-1217 1555.5,-1217 1549.5,-1217 1543.5,-1211 1543.5,-1205 1543.5,-1205 1543.5,-1157 1543.5,-1157 1543.5,-1151 1549.5,-1145 1555.5,-1145 1555.5,-1145 1946.5,-1145 1946.5,-1145 1952.5,-1145 1958.5,-1151 1958.5,-1157 1958.5,-1157 1958.5,-1205 1958.5,-1205 1958.5,-1211 1952.5,-1217 1946.5,-1217"/>
<text text-anchor="middle" x="1751" y="-1174.8" font-family="Courier-Bold" font-size="24.00">CDI/cdi&#45;kubevirt&#45;hyperconverged</text>
</g>
<!-- deployment/hco&#45;operator&#45;&gt;CDI/cdi&#45;kubevirt&#45;hyperconverged -->
<g id="edge3" class="edge">
<title>deployment/hco&#45;operator&#45;&gt;CDI/cdi&#45;kubevirt&#45;hyperconverged</title>
<path fill="none" stroke="black" d="M1146.45,-1149.48C1255.95,-1155.2 1401.95,-1162.82 1522.92,-1169.14"/>
<polygon fill="black" stroke="black" points="1543.26,-1170.2 1522.82,-1178.15 1533.27,-1169.68 1523.29,-1169.16 1523.29,-1169.16 1523.29,-1169.16 1533.27,-1169.68 1523.76,-1160.17 1543.26,-1170.2 1543.26,-1170.2"/>
</g>
<!-- NetworkAddonsConfig/cluster -->
<g id="node8" class="node">
<title>NetworkAddonsConfig/cluster</title>
<path fill="none" stroke="black" d="M1926,-1138C1926,-1138 1576,-1138 1576,-1138 1570,-1138 1564,-1132 1564,-1126 1564,-1126 1564,-1078 1564,-1078 1564,-1072 1570,-1066 1576,-1066 1576,-1066 1926,-1066 1926,-1066 1932,-1066 1938,-1072 1938,-1078 1938,-1078 1938,-1126 1938,-1126 1938,-1132 1932,-1138 1926,-1138"/>
<text text-anchor="middle" x="1751" y="-1095.8" font-family="Courier-Bold" font-size="24.00">NetworkAddonsConfig/cluster</text>
</g>
<!-- deployment/hco&#45;operator&#45;&gt;NetworkAddonsConfig/cluster -->
<g id="edge5" class="edge">
<title>deployment/hco&#45;operator&#45;&gt;NetworkAddonsConfig/cluster</title>
<path fill="none" stroke="black" d="M1146.45,-1132.73C1262.32,-1126.83 1419.05,-1118.85 1543.76,-1112.5"/>
<polygon fill="black" stroke="black" points="1563.88,-1111.48 1544.36,-1121.48 1553.89,-1111.98 1543.9,-1112.49 1543.9,-1112.49 1543.9,-1112.49 1553.89,-1111.98 1543.45,-1103.5 1563.88,-1111.48 1563.88,-1111.48"/>
</g>
<!-- deployment/kubevirt&#45;console&#45;plugin -->
<g id="node19" class="node">
<title>deployment/kubevirt&#45;console&#45;plugin</title>
<path fill="none" stroke="black" d="M1965,-1059C1965,-1059 1537,-1059 1537,-1059 1531,-1059 1525,-1053 1525,-1047 1525,-1047 1525,-999 1525,-999 1525,-993 1531,-987 1537,-987 1537,-987 1965,-987 1965,-987 1971,-987 1977,-993 1977,-999 1977,-999 1977,-1047 1977,-1047 1977,-1053 1971,-1059 1965,-1059"/>
<text text-anchor="middle" x="1751" y="-1016.8" font-family="Courier-Bold" font-size="24.00">deployment/kubevirt&#45;console&#45;plugin</text>
</g>
<!-- deployment/hco&#45;operator&#45;&gt;deployment/kubevirt&#45;console&#45;plugin -->
<g id="edge17" class="edge">
<title>deployment/hco&#45;operator&#45;&gt;deployment/kubevirt&#45;console&#45;plugin</title>
<path fill="none" stroke="black" d="M1146.01,-1111.17C1231.77,-1095.83 1338.93,-1077.4 1435,-1063 1457.68,-1059.6 1481.31,-1056.25 1504.98,-1053.02"/>
<polygon fill="black" stroke="black" points="1524.85,-1050.34 1506.23,-1061.93 1514.94,-1051.68 1505.03,-1053.01 1505.03,-1053.01 1505.03,-1053.01 1514.94,-1051.68 1503.82,-1044.1 1524.85,-1050.34 1524.85,-1050.34"/>
</g>
<!-- CDIConfig/config -->
<g id="node6" class="node">
<title>CDIConfig/config</title>
<path fill="none" stroke="black" d="M2416,-980C2416,-980 2223,-980 2223,-980 2217,-980 2211,-974 2211,-968 2211,-968 2211,-920 2211,-920 2211,-914 2217,-908 2223,-908 2223,-908 2416,-908 2416,-908 2422,-908 2428,-914 2428,-920 2428,-920 2428,-968 2428,-968 2428,-974 2422,-980 2416,-980"/>
<text text-anchor="middle" x="2319.5" y="-937.8" font-family="Courier-Bold" font-size="24.00">CDIConfig/config</text>
</g>
<!-- deployment/cdi&#45;deployment -->
<g id="node7" class="node">
<title>deployment/cdi&#45;deployment</title>
<path fill="none" stroke="black" d="M1917.5,-980C1917.5,-980 1584.5,-980 1584.5,-980 1578.5,-980 1572.5,-974 1572.5,-968 1572.5,-968 1572.5,-920 1572.5,-920 1572.5,-914 1578.5,-908 1584.5,-908 1584.5,-908 1917.5,-908 1917.5,-908 1923.5,-908 1929.5,-914 1929.5,-920 1929.5,-920 1929.5,-968 1929.5,-968 1929.5,-974 1923.5,-980 1917.5,-980"/>
<text text-anchor="middle" x="1751" y="-937.8" font-family="Courier-Bold" font-size="24.00">deployment/cdi&#45;deployment</text>
</g>
<!-- deployment/cdi&#45;deployment&#45;&gt;CDIConfig/config -->
<g id="edge4" class="edge">
<title>deployment/cdi&#45;deployment&#45;&gt;CDIConfig/config</title>
<path fill="none" stroke="black" d="M1929.69,-944C2014.28,-944 2113.54,-944 2190.59,-944"/>
<polygon fill="black" stroke="black" points="2210.69,-944 2190.69,-953 2200.69,-944 2190.69,-944 2190.69,-944 2190.69,-944 2200.69,-944 2190.69,-935 2210.69,-944 2210.69,-944"/>
</g>
<!-- deployment/cdi&#45;apiserver -->
<g id="node9" class="node">
<title>deployment/cdi&#45;apiserver</title>
<path fill="none" stroke="black" d="M1902,-901C1902,-901 1600,-901 1600,-901 1594,-901 1588,-895 1588,-889 1588,-889 1588,-841 1588,-841 1588,-835 1594,-829 1600,-829 1600,-829 1902,-829 1902,-829 1908,-829 1914,-835 1914,-841 1914,-841 1914,-889 1914,-889 1914,-895 1908,-901 1902,-901"/>
<text text-anchor="middle" x="1751" y="-858.8" font-family="Courier-Bold" font-size="24.00">deployment/cdi&#45;apiserver</text>
</g>
<!-- deployment/cdi&#45;operator -->
<g id="node10" class="node">
<title>deployment/cdi&#45;operator</title>
<path fill="none" stroke="black" d="M1129.5,-862C1129.5,-862 836.5,-862 836.5,-862 830.5,-862 824.5,-856 824.5,-850 824.5,-850 824.5,-802 824.5,-802 824.5,-796 830.5,-790 836.5,-790 836.5,-790 1129.5,-790 1129.5,-790 1135.5,-790 1141.5,-796 1141.5,-802 1141.5,-802 1141.5,-850 1141.5,-850 1141.5,-856 1135.5,-862 1129.5,-862"/>
<text text-anchor="middle" x="983" y="-819.8" font-family="Courier-Bold" font-size="24.00">deployment/cdi&#45;operator</text>
</g>
<!-- deployment/cdi&#45;operator&#45;&gt;deployment/cdi&#45;deployment -->
<g id="edge7" class="edge">
<title>deployment/cdi&#45;operator&#45;&gt;deployment/cdi&#45;deployment</title>
<path fill="none" stroke="black" d="M1141.56,-855.04C1228.04,-870.52 1337.26,-889.35 1435,-904 1472.92,-909.68 1513.5,-915.23 1552.48,-920.3"/>
<polygon fill="black" stroke="black" points="1572.38,-922.86 1551.4,-929.24 1562.47,-921.59 1552.55,-920.31 1552.55,-920.31 1552.55,-920.31 1562.47,-921.59 1553.7,-911.38 1572.38,-922.86 1572.38,-922.86"/>
</g>
<!-- deployment/cdi&#45;operator&#45;&gt;deployment/cdi&#45;apiserver -->
<g id="edge6" class="edge">
<title>deployment/cdi&#45;operator&#45;&gt;deployment/cdi&#45;apiserver</title>
<path fill="none" stroke="black" d="M1141.79,-834.03C1265.59,-840.34 1438.09,-849.12 1567.77,-855.72"/>
<polygon fill="black" stroke="black" points="1587.8,-856.74 1567.37,-864.71 1577.81,-856.23 1567.82,-855.72 1567.82,-855.72 1567.82,-855.72 1577.81,-856.23 1568.28,-846.74 1587.8,-856.74 1587.8,-856.74"/>
</g>
<!-- deployment/cdi&#45;uploadproxy -->
<g id="node12" class="node">
<title>deployment/cdi&#45;uploadproxy</title>
<path fill="none" stroke="black" d="M1920,-822C1920,-822 1582,-822 1582,-822 1576,-822 1570,-816 1570,-810 1570,-810 1570,-762 1570,-762 1570,-756 1576,-750 1582,-750 1582,-750 1920,-750 1920,-750 1926,-750 1932,-756 1932,-762 1932,-762 1932,-810 1932,-810 1932,-816 1926,-822 1920,-822"/>
<text text-anchor="middle" x="1751" y="-779.8" font-family="Courier-Bold" font-size="24.00">deployment/cdi&#45;uploadproxy</text>
</g>
<!-- deployment/cdi&#45;operator&#45;&gt;deployment/cdi&#45;uploadproxy -->
<g id="edge9" class="edge">
<title>deployment/cdi&#45;operator&#45;&gt;deployment/cdi&#45;uploadproxy</title>
<path fill="none" stroke="black" d="M1141.79,-817.76C1259.96,-811.59 1422.49,-803.1 1549.81,-796.45"/>
<polygon fill="black" stroke="black" points="1569.93,-795.4 1550.42,-805.43 1559.94,-795.92 1549.95,-796.45 1549.95,-796.45 1549.95,-796.45 1559.94,-795.92 1549.48,-787.46 1569.93,-795.4 1569.93,-795.4"/>
</g>
<!-- olm -->
<g id="node11" class="node">
<title>olm</title>
<path fill="none" stroke="black" d="M361.5,-565C361.5,-565 169.5,-565 169.5,-565 163.5,-565 157.5,-559 157.5,-553 157.5,-553 157.5,-505 157.5,-505 157.5,-499 163.5,-493 169.5,-493 169.5,-493 361.5,-493 361.5,-493 367.5,-493 373.5,-499 373.5,-505 373.5,-505 373.5,-553 373.5,-553 373.5,-559 367.5,-565 361.5,-565"/>
<text text-anchor="middle" x="265.5" y="-522.8" font-family="Courier-Bold" font-size="24.00">olm</text>
</g>
<!-- olm&#45;&gt;deployment/hco&#45;operator -->
<g id="edge11" class="edge">
<title>olm&#45;&gt;deployment/hco&#45;operator</title>
<path fill="none" stroke="black" d="M308.85,-565.22C431,-669.7 784.14,-971.76 923.98,-1091.37"/>
<polygon fill="black" stroke="black" points="939.56,-1104.7 918.51,-1098.54 931.96,-1098.2 924.36,-1091.7 924.36,-1091.7 924.36,-1091.7 931.96,-1098.2 930.21,-1084.86 939.56,-1104.7 939.56,-1104.7"/>
</g>
<!-- olm&#45;&gt;deployment/cdi&#45;operator -->
<g id="edge8" class="edge">
<title>olm&#45;&gt;deployment/cdi&#45;operator</title>
<path fill="none" stroke="black" d="M353.52,-565.12C485.08,-619.73 734.29,-723.18 876.17,-782.07"/>
<polygon fill="black" stroke="black" points="895.03,-789.9 873.11,-790.54 885.79,-786.06 876.56,-782.23 876.56,-782.23 876.56,-782.23 885.79,-786.06 880.01,-773.92 895.03,-789.9 895.03,-789.9"/>
</g>
<!-- deployment/cluster&#45;network&#45;addons&#45;operator -->
<g id="node13" class="node">
<title>deployment/cluster&#45;network&#45;addons&#45;operator</title>
<path fill="none" stroke="black" d="M1254.5,-684C1254.5,-684 711.5,-684 711.5,-684 705.5,-684 699.5,-678 699.5,-672 699.5,-672 699.5,-624 699.5,-624 699.5,-618 705.5,-612 711.5,-612 711.5,-612 1254.5,-612 1254.5,-612 1260.5,-612 1266.5,-618 1266.5,-624 1266.5,-624 1266.5,-672 1266.5,-672 1266.5,-678 1260.5,-684 1254.5,-684"/>
<text text-anchor="middle" x="983" y="-641.8" font-family="Courier-Bold" font-size="24.00">deployment/cluster&#45;network&#45;addons&#45;operator</text>
</g>
<!-- olm&#45;&gt;deployment/cluster&#45;network&#45;addons&#45;operator -->
<g id="edge10" class="edge">
<title>olm&#45;&gt;deployment/cluster&#45;network&#45;addons&#45;operator</title>
<path fill="none" stroke="black" d="M373.69,-551.6C455.9,-568.48 572.32,-591.4 675,-608 676.67,-608.27 678.35,-608.54 680.03,-608.81"/>
<polygon fill="black" stroke="black" points="700.02,-611.94 678.86,-617.74 690.14,-610.39 680.26,-608.84 680.26,-608.84 680.26,-608.84 690.14,-610.39 681.65,-599.95 700.02,-611.94 700.02,-611.94"/>
</g>
<!-- deployment/hco&#45;webhook -->
<g id="node14" class="node">
<title>deployment/hco&#45;webhook</title>
<path fill="none" stroke="black" d="M1136,-605C1136,-605 830,-605 830,-605 824,-605 818,-599 818,-593 818,-593 818,-545 818,-545 818,-539 824,-533 830,-533 830,-533 1136,-533 1136,-533 1142,-533 1148,-539 1148,-545 1148,-545 1148,-593 1148,-593 1148,-599 1142,-605 1136,-605"/>
<text text-anchor="middle" x="983" y="-562.8" font-family="Courier-Bold" font-size="24.00">deployment/hco&#45;webhook</text>
</g>
<!-- olm&#45;&gt;deployment/hco&#45;webhook -->
<g id="edge12" class="edge">
<title>olm&#45;&gt;deployment/hco&#45;webhook</title>
<path fill="none" stroke="black" d="M373.62,-534.99C485.51,-541.24 663.14,-551.17 797.64,-558.69"/>
<polygon fill="black" stroke="black" points="817.99,-559.83 797.52,-567.7 808.01,-559.27 798.03,-558.71 798.03,-558.71 798.03,-558.71 808.01,-559.27 798.53,-549.73 817.99,-559.83 817.99,-559.83"/>
</g>
<!-- deployment/hostpath&#45;provisioner&#45;operator -->
<g id="node15" class="node">
<title>deployment/hostpath&#45;provisioner&#45;operator</title>
<path fill="none" stroke="black" d="M1236.5,-526C1236.5,-526 729.5,-526 729.5,-526 723.5,-526 717.5,-520 717.5,-514 717.5,-514 717.5,-466 717.5,-466 717.5,-460 723.5,-454 729.5,-454 729.5,-454 1236.5,-454 1236.5,-454 1242.5,-454 1248.5,-460 1248.5,-466 1248.5,-466 1248.5,-514 1248.5,-514 1248.5,-520 1242.5,-526 1236.5,-526"/>
<text text-anchor="middle" x="983" y="-483.8" font-family="Courier-Bold" font-size="24.00">deployment/hostpath&#45;provisioner&#45;operator</text>
</g>
<!-- olm&#45;&gt;deployment/hostpath&#45;provisioner&#45;operator -->
<g id="edge13" class="edge">
<title>olm&#45;&gt;deployment/hostpath&#45;provisioner&#45;operator</title>
<path fill="none" stroke="black" d="M373.62,-523.16C459.3,-518.49 583.54,-511.72 697.43,-505.51"/>
<polygon fill="black" stroke="black" points="717.46,-504.42 697.98,-514.49 707.47,-504.96 697.49,-505.51 697.49,-505.51 697.49,-505.51 707.47,-504.96 697,-496.52 717.46,-504.42 717.46,-504.42"/>
</g>
<!-- deployment/hyperconverged&#45;cluster&#45;cli&#45;download -->
<g id="node16" class="node">
<title>deployment/hyperconverged&#45;cluster&#45;cli&#45;download</title>
<path fill="none" stroke="black" d="M1279,-447C1279,-447 687,-447 687,-447 681,-447 675,-441 675,-435 675,-435 675,-387 675,-387 675,-381 681,-375 687,-375 687,-375 1279,-375 1279,-375 1285,-375 1291,-381 1291,-387 1291,-387 1291,-435 1291,-435 1291,-441 1285,-447 1279,-447"/>
<text text-anchor="middle" x="983" y="-404.8" font-family="Courier-Bold" font-size="24.00">deployment/hyperconverged&#45;cluster&#45;cli&#45;download</text>
</g>
<!-- olm&#45;&gt;deployment/hyperconverged&#45;cluster&#45;cli&#45;download -->
<g id="edge14" class="edge">
<title>olm&#45;&gt;deployment/hyperconverged&#45;cluster&#45;cli&#45;download</title>
<path fill="none" stroke="black" d="M373.78,-515.46C422.05,-508.67 479.61,-499.63 531,-489 595.82,-475.59 610.05,-463.75 675,-451 675.32,-450.94 675.64,-450.87 675.96,-450.81"/>
<polygon fill="black" stroke="black" points="695.83,-447.06 677.84,-459.62 686,-448.92 676.17,-450.77 676.17,-450.77 676.17,-450.77 686,-448.92 674.51,-441.93 695.83,-447.06 695.83,-447.06"/>
</g>
<!-- deployment/ssp&#45;operator -->
<g id="node20" class="node">
<title>deployment/ssp&#45;operator</title>
<path fill="none" stroke="black" d="M1132.5,-368C1132.5,-368 833.5,-368 833.5,-368 827.5,-368 821.5,-362 821.5,-356 821.5,-356 821.5,-308 821.5,-308 821.5,-302 827.5,-296 833.5,-296 833.5,-296 1132.5,-296 1132.5,-296 1138.5,-296 1144.5,-302 1144.5,-308 1144.5,-308 1144.5,-356 1144.5,-356 1144.5,-362 1138.5,-368 1132.5,-368"/>
<text text-anchor="middle" x="983" y="-325.8" font-family="Courier-Bold" font-size="24.00">deployment/ssp&#45;operator</text>
</g>
<!-- olm&#45;&gt;deployment/ssp&#45;operator -->
<g id="edge18" class="edge">
<title>olm&#45;&gt;deployment/ssp&#45;operator</title>
<path fill="none" stroke="black" d="M373.73,-525.68C423.31,-520.95 481.94,-510.69 531,-489 606.42,-455.66 599.24,-404.56 675,-372 714.22,-355.14 758.65,-344.9 801.29,-338.78"/>
<polygon fill="black" stroke="black" points="821.38,-336.17 802.71,-347.67 811.47,-337.46 801.55,-338.75 801.55,-338.75 801.55,-338.75 811.47,-337.46 800.39,-329.82 821.38,-336.17 821.38,-336.17"/>
</g>
<!-- deployment/virt&#45;operator -->
<g id="node22" class="node">
<title>deployment/virt&#45;operator</title>
<path fill="none" stroke="black" d="M1132.5,-230C1132.5,-230 833.5,-230 833.5,-230 827.5,-230 821.5,-224 821.5,-218 821.5,-218 821.5,-170 821.5,-170 821.5,-164 827.5,-158 833.5,-158 833.5,-158 1132.5,-158 1132.5,-158 1138.5,-158 1144.5,-164 1144.5,-170 1144.5,-170 1144.5,-218 1144.5,-218 1144.5,-224 1138.5,-230 1132.5,-230"/>
<text text-anchor="middle" x="983" y="-187.8" font-family="Courier-Bold" font-size="24.00">deployment/virt&#45;operator</text>
</g>
<!-- olm&#45;&gt;deployment/virt&#45;operator -->
<g id="edge22" class="edge">
<title>olm&#45;&gt;deployment/virt&#45;operator</title>
<path fill="none" stroke="black" d="M373.68,-531.4C424.53,-528.07 484.23,-517.34 531,-489 623.75,-432.79 587,-355.39 675,-292 712.55,-264.95 757.89,-245.15 802.06,-230.73"/>
<polygon fill="black" stroke="black" points="821.23,-224.78 804.8,-239.31 811.68,-227.75 802.13,-230.71 802.13,-230.71 802.13,-230.71 811.68,-227.75 799.46,-222.12 821.23,-224.78 821.23,-224.78"/>
</g>
<!-- deployment/kubemacpool&#45;cert&#45;manager -->
<g id="node17" class="node">
<title>deployment/kubemacpool&#45;cert&#45;manager</title>
<path fill="none" stroke="black" d="M1991.5,-743C1991.5,-743 1510.5,-743 1510.5,-743 1504.5,-743 1498.5,-737 1498.5,-731 1498.5,-731 1498.5,-683 1498.5,-683 1498.5,-677 1504.5,-671 1510.5,-671 1510.5,-671 1991.5,-671 1991.5,-671 1997.5,-671 2003.5,-677 2003.5,-683 2003.5,-683 2003.5,-731 2003.5,-731 2003.5,-737 1997.5,-743 1991.5,-743"/>
<text text-anchor="middle" x="1751" y="-700.8" font-family="Courier-Bold" font-size="24.00">deployment/kubemacpool&#45;cert&#45;manager</text>
</g>
<!-- deployment/cluster&#45;network&#45;addons&#45;operator&#45;&gt;deployment/kubemacpool&#45;cert&#45;manager -->
<g id="edge15" class="edge">
<title>deployment/cluster&#45;network&#45;addons&#45;operator&#45;&gt;deployment/kubemacpool&#45;cert&#45;manager</title>
<path fill="none" stroke="black" d="M1266.51,-669.76C1335.68,-675.09 1409.57,-680.78 1478.22,-686.07"/>
<polygon fill="black" stroke="black" points="1498.39,-687.62 1477.76,-695.06 1488.42,-686.85 1478.45,-686.08 1478.45,-686.08 1478.45,-686.08 1488.42,-686.85 1479.15,-677.11 1498.39,-687.62 1498.39,-687.62"/>
</g>
<!-- deployment/kubemacpool&#45;mac&#45;controller&#45;manager -->
<g id="node18" class="node">
<title>deployment/kubemacpool&#45;mac&#45;controller&#45;manager</title>
<path fill="none" stroke="black" d="M2055,-664C2055,-664 1447,-664 1447,-664 1441,-664 1435,-658 1435,-652 1435,-652 1435,-604 1435,-604 1435,-598 1441,-592 1447,-592 1447,-592 2055,-592 2055,-592 2061,-592 2067,-598 2067,-604 2067,-604 2067,-652 2067,-652 2067,-658 2061,-664 2055,-664"/>
<text text-anchor="middle" x="1751" y="-621.8" font-family="Courier-Bold" font-size="24.00">deployment/kubemacpool&#45;mac&#45;controller&#45;manager</text>
</g>
<!-- deployment/cluster&#45;network&#45;addons&#45;operator&#45;&gt;deployment/kubemacpool&#45;mac&#45;controller&#45;manager -->
<g id="edge16" class="edge">
<title>deployment/cluster&#45;network&#45;addons&#45;operator&#45;&gt;deployment/kubemacpool&#45;mac&#45;controller&#45;manager</title>
<path fill="none" stroke="black" d="M1266.51,-640.62C1314.77,-639.36 1365.33,-638.04 1414.8,-636.75"/>
<polygon fill="black" stroke="black" points="1434.81,-636.23 1415.05,-645.75 1424.81,-636.49 1414.81,-636.75 1414.81,-636.75 1414.81,-636.75 1424.81,-636.49 1414.58,-627.75 1434.81,-636.23 1434.81,-636.23"/>
</g>
<!-- daemonset/bridge&#45;marker -->
<g id="node26" class="node">
<title>daemonset/bridge&#45;marker</title>
<path fill="none" stroke="black" d="M1905,-585C1905,-585 1597,-585 1597,-585 1591,-585 1585,-579 1585,-573 1585,-573 1585,-525 1585,-525 1585,-519 1591,-513 1597,-513 1597,-513 1905,-513 1905,-513 1911,-513 1917,-519 1917,-525 1917,-525 1917,-573 1917,-573 1917,-579 1911,-585 1905,-585"/>
<text text-anchor="middle" x="1751" y="-542.8" font-family="Courier-Bold" font-size="24.00">daemonset/bridge&#45;marker</text>
</g>
<!-- deployment/cluster&#45;network&#45;addons&#45;operator&#45;&gt;daemonset/bridge&#45;marker -->
<g id="edge24" class="edge">
<title>deployment/cluster&#45;network&#45;addons&#45;operator&#45;&gt;daemonset/bridge&#45;marker</title>
<path fill="none" stroke="black" d="M1260.55,-611.99C1270.83,-610.64 1281.01,-609.31 1291,-608 1355.01,-599.61 1370.98,-597.29 1435,-589 1477,-583.56 1522.17,-577.79 1564.81,-572.36"/>
<polygon fill="black" stroke="black" points="1584.86,-569.82 1566.16,-581.26 1574.94,-571.08 1565.02,-572.34 1565.02,-572.34 1565.02,-572.34 1574.94,-571.08 1563.89,-563.41 1584.86,-569.82 1584.86,-569.82"/>
</g>
<!-- daemonset/kube&#45;cni&#45;linux&#45;bridge&#45;plugin -->
<g id="node27" class="node">
<title>daemonset/kube&#45;cni&#45;linux&#45;bridge&#45;plugin</title>
<path fill="none" stroke="black" d="M1988,-506C1988,-506 1514,-506 1514,-506 1508,-506 1502,-500 1502,-494 1502,-494 1502,-446 1502,-446 1502,-440 1508,-434 1514,-434 1514,-434 1988,-434 1988,-434 1994,-434 2000,-440 2000,-446 2000,-446 2000,-494 2000,-494 2000,-500 1994,-506 1988,-506"/>
<text text-anchor="middle" x="1751" y="-463.8" font-family="Courier-Bold" font-size="24.00">daemonset/kube&#45;cni&#45;linux&#45;bridge&#45;plugin</text>
</g>
<!-- deployment/cluster&#45;network&#45;addons&#45;operator&#45;&gt;daemonset/kube&#45;cni&#45;linux&#45;bridge&#45;plugin -->
<g id="edge25" class="edge">
<title>deployment/cluster&#45;network&#45;addons&#45;operator&#45;&gt;daemonset/kube&#45;cni&#45;linux&#45;bridge&#45;plugin</title>
<path fill="none" stroke="black" d="M1266.75,-616.39C1274.99,-613.8 1283.09,-611.01 1291,-608 1363.35,-580.47 1362.6,-537.41 1435,-510 1450.2,-504.24 1466.08,-499.28 1482.28,-495.01"/>
<polygon fill="black" stroke="black" points="1501.8,-490.22 1484.52,-503.73 1492.08,-492.61 1482.37,-494.99 1482.37,-494.99 1482.37,-494.99 1492.08,-492.61 1480.23,-486.25 1501.8,-490.22 1501.8,-490.22"/>
</g>
<!-- deployment/virt&#45;template&#45;validator -->
<g id="node25" class="node">
<title>deployment/virt&#45;template&#45;validator</title>
<path fill="none" stroke="black" d="M1960.5,-388C1960.5,-388 1541.5,-388 1541.5,-388 1535.5,-388 1529.5,-382 1529.5,-376 1529.5,-376 1529.5,-328 1529.5,-328 1529.5,-322 1535.5,-316 1541.5,-316 1541.5,-316 1960.5,-316 1960.5,-316 1966.5,-316 1972.5,-322 1972.5,-328 1972.5,-328 1972.5,-376 1972.5,-376 1972.5,-382 1966.5,-388 1960.5,-388"/>
<text text-anchor="middle" x="1751" y="-345.8" font-family="Courier-Bold" font-size="24.00">deployment/virt&#45;template&#45;validator</text>
</g>
<!-- deployment/ssp&#45;operator&#45;&gt;deployment/virt&#45;template&#45;validator -->
<g id="edge23" class="edge">
<title>deployment/ssp&#45;operator&#45;&gt;deployment/virt&#45;template&#45;validator</title>
<path fill="none" stroke="black" d="M1144.58,-336.19C1250.23,-338.95 1390.44,-342.61 1509.32,-345.72"/>
<polygon fill="black" stroke="black" points="1529.35,-346.24 1509.12,-354.71 1519.35,-345.98 1509.36,-345.72 1509.36,-345.72 1509.36,-345.72 1519.35,-345.98 1509.59,-336.72 1529.35,-346.24 1529.35,-346.24"/>
</g>
<!-- deployment/virt&#45;api -->
<g id="node21" class="node">
<title>deployment/virt&#45;api</title>
<path fill="none" stroke="black" d="M1866.5,-309C1866.5,-309 1635.5,-309 1635.5,-309 1629.5,-309 1623.5,-303 1623.5,-297 1623.5,-297 1623.5,-249 1623.5,-249 1623.5,-243 1629.5,-237 1635.5,-237 1635.5,-237 1866.5,-237 1866.5,-237 1872.5,-237 1878.5,-243 1878.5,-249 1878.5,-249 1878.5,-297 1878.5,-297 1878.5,-303 1872.5,-309 1866.5,-309"/>
<text text-anchor="middle" x="1751" y="-266.8" font-family="Courier-Bold" font-size="24.00">deployment/virt&#45;api</text>
</g>
<!-- deployment/virt&#45;operator&#45;&gt;deployment/virt&#45;api -->
<g id="edge19" class="edge">
<title>deployment/virt&#45;operator&#45;&gt;deployment/virt&#45;api</title>
<path fill="none" stroke="black" d="M1144.58,-210.56C1279.95,-224.52 1472.06,-244.33 1603.34,-257.87"/>
<polygon fill="black" stroke="black" points="1623.47,-259.95 1602.65,-266.85 1613.52,-258.92 1603.57,-257.9 1603.57,-257.9 1603.57,-257.9 1613.52,-258.92 1604.5,-248.95 1623.47,-259.95 1623.47,-259.95"/>
</g>
<!-- deployment/virt&#45;controller -->
<g id="node23" class="node">
<title>deployment/virt&#45;controller</title>
<path fill="none" stroke="black" d="M1906,-230C1906,-230 1596,-230 1596,-230 1590,-230 1584,-224 1584,-218 1584,-218 1584,-170 1584,-170 1584,-164 1590,-158 1596,-158 1596,-158 1906,-158 1906,-158 1912,-158 1918,-164 1918,-170 1918,-170 1918,-218 1918,-218 1918,-224 1912,-230 1906,-230"/>
<text text-anchor="middle" x="1751" y="-187.8" font-family="Courier-Bold" font-size="24.00">deployment/virt&#45;controller</text>
</g>
<!-- deployment/virt&#45;operator&#45;&gt;deployment/virt&#45;controller -->
<g id="edge20" class="edge">
<title>deployment/virt&#45;operator&#45;&gt;deployment/virt&#45;controller</title>
<path fill="none" stroke="black" d="M1144.58,-194C1266.8,-194 1435.26,-194 1563.46,-194"/>
<polygon fill="black" stroke="black" points="1583.68,-194 1563.68,-203 1573.68,-194 1563.68,-194 1563.68,-194 1563.68,-194 1573.68,-194 1563.68,-185 1583.68,-194 1583.68,-194"/>
</g>
<!-- deployment/virt&#45;exportproxy -->
<g id="node24" class="node">
<title>deployment/virt&#45;exportproxy</title>
<path fill="none" stroke="black" d="M1920.5,-151C1920.5,-151 1581.5,-151 1581.5,-151 1575.5,-151 1569.5,-145 1569.5,-139 1569.5,-139 1569.5,-91 1569.5,-91 1569.5,-85 1575.5,-79 1581.5,-79 1581.5,-79 1920.5,-79 1920.5,-79 1926.5,-79 1932.5,-85 1932.5,-91 1932.5,-91 1932.5,-139 1932.5,-139 1932.5,-145 1926.5,-151 1920.5,-151"/>
<text text-anchor="middle" x="1751" y="-108.8" font-family="Courier-Bold" font-size="24.00">deployment/virt&#45;exportproxy</text>
</g>
<!-- deployment/virt&#45;operator&#45;&gt;deployment/virt&#45;exportproxy -->
<g id="edge21" class="edge">
<title>deployment/virt&#45;operator&#45;&gt;deployment/virt&#45;exportproxy</title>
<path fill="none" stroke="black" d="M1144.58,-177.44C1262.32,-165.3 1422.99,-148.73 1549.22,-135.71"/>
<polygon fill="black" stroke="black" points="1569.17,-133.65 1550.2,-144.65 1559.22,-134.68 1549.27,-135.7 1549.27,-135.7 1549.27,-135.7 1559.22,-134.68 1548.35,-126.75 1569.17,-133.65 1569.17,-133.65"/>
</g>
<!-- daemonset/virt&#45;handler -->
<g id="node28" class="node">
<title>daemonset/virt&#45;handler</title>
<path fill="none" stroke="black" d="M1890,-72C1890,-72 1612,-72 1612,-72 1606,-72 1600,-66 1600,-60 1600,-60 1600,-12 1600,-12 1600,-6 1606,0 1612,0 1612,0 1890,0 1890,0 1896,0 1902,-6 1902,-12 1902,-12 1902,-60 1902,-60 1902,-66 1896,-72 1890,-72"/>
<text text-anchor="middle" x="1751" y="-29.8" font-family="Courier-Bold" font-size="24.00">daemonset/virt&#45;handler</text>
</g>
<!-- deployment/virt&#45;operator&#45;&gt;daemonset/virt&#45;handler -->
<g id="edge26" class="edge">
<title>deployment/virt&#45;operator&#45;&gt;daemonset/virt&#45;handler</title>
<path fill="none" stroke="black" d="M1104.57,-157.9C1194.85,-131.99 1321.77,-97.91 1435,-76 1481.77,-66.95 1532.85,-59.46 1580.01,-53.49"/>
<polygon fill="black" stroke="black" points="1599.95,-51.03 1581.2,-62.41 1590.03,-52.26 1580.1,-53.48 1580.1,-53.48 1580.1,-53.48 1590.03,-52.26 1579,-44.55 1599.95,-51.03 1599.95,-51.03"/>
</g>
</g>
</svg>
