<?xml version="1.0" encoding="UTF-8" standalone="no"?>
<!DOCTYPE svg PUBLIC "-//W3C//DTD SVG 1.1//EN"
 "http://www.w3.org/Graphics/SVG/1.1/DTD/svg11.dtd">
<!-- Generated by graphviz version 2.40.1 (0)
 -->
<!-- Title: managed&#45;by Pages: 1 -->
<svg width="2573pt" height="1373pt"
 viewBox="14.40 14.40 2558.40 1358.40" xmlns="http://www.w3.org/2000/svg" xmlns:xlink="http://www.w3.org/1999/xlink">
<g id="graph0" class="graph" transform="scale(1 1) rotate(0) translate(18.4 1354.4)">
<title>managed&#45;by</title>
<polygon fill="#ffffff" stroke="transparent" points="-4,4 -4,-1340 2540,-1340 2540,4 -4,4"/>
<!-- HyperConverged/kubevirt&#45;hyperconverged -->
<g id="node1" class="node">
<title>HyperConverged/kubevirt&#45;hyperconverged</title>
<path fill="none" stroke="#000000" d="M546,-467C546,-467 12,-467 12,-467 6,-467 0,-461 0,-455 0,-455 0,-407 0,-407 0,-401 6,-395 12,-395 12,-395 546,-395 546,-395 552,-395 558,-401 558,-407 558,-407 558,-455 558,-455 558,-461 552,-467 546,-467"/>
<text text-anchor="middle" x="279" y="-424.8" font-family="Courier,monospace" font-weight="bold" font-size="24.00" fill="#000000">HyperConverged/kubevirt&#45;hyperconverged</text>
</g>
<!-- KubeVirt/kubevirt&#45;kubevirt&#45;hyperconverged -->
<g id="node2" class="node">
<title>KubeVirt/kubevirt&#45;kubevirt&#45;hyperconverged</title>
<path fill="none" stroke="#000000" d="M2135.5,-1336C2135.5,-1336 1558.5,-1336 1558.5,-1336 1552.5,-1336 1546.5,-1330 1546.5,-1324 1546.5,-1324 1546.5,-1276 1546.5,-1276 1546.5,-1270 1552.5,-1264 1558.5,-1264 1558.5,-1264 2135.5,-1264 2135.5,-1264 2141.5,-1264 2147.5,-1270 2147.5,-1276 2147.5,-1276 2147.5,-1324 2147.5,-1324 2147.5,-1330 2141.5,-1336 2135.5,-1336"/>
<text text-anchor="middle" x="1847" y="-1293.8" font-family="Courier,monospace" font-weight="bold" font-size="24.00" fill="#000000">KubeVirt/kubevirt&#45;kubevirt&#45;hyperconverged</text>
</g>
<!-- deployment/hco&#45;operator -->
<g id="node3" class="node">
<title>deployment/hco&#45;operator</title>
<path fill="none" stroke="#000000" d="M1198,-1138C1198,-1138 878,-1138 878,-1138 872,-1138 866,-1132 866,-1126 866,-1126 866,-1078 866,-1078 866,-1072 872,-1066 878,-1066 878,-1066 1198,-1066 1198,-1066 1204,-1066 1210,-1072 1210,-1078 1210,-1078 1210,-1126 1210,-1126 1210,-1132 1204,-1138 1198,-1138"/>
<text text-anchor="middle" x="1038" y="-1095.8" font-family="Courier,monospace" font-weight="bold" font-size="24.00" fill="#000000">deployment/hco&#45;operator</text>
</g>
<!-- deployment/hco&#45;operator&#45;&gt;KubeVirt/kubevirt&#45;kubevirt&#45;hyperconverged -->
<g id="edge1" class="edge">
<title>deployment/hco&#45;operator&#45;&gt;KubeVirt/kubevirt&#45;kubevirt&#45;hyperconverged</title>
<path fill="none" stroke="#000000" d="M1129.4013,-1138.0832C1224.8727,-1174.3427 1379.7123,-1229.15 1518,-1260 1520.7509,-1260.6137 1523.5169,-1261.2185 1526.2966,-1261.8146"/>
<polygon fill="#000000" stroke="#000000" points="1546.2544,-1265.9048 1524.8547,-1270.7061 1536.4581,-1263.8971 1526.6617,-1261.8894 1526.6617,-1261.8894 1526.6617,-1261.8894 1536.4581,-1263.8971 1528.4686,-1253.0726 1546.2544,-1265.9048 1546.2544,-1265.9048"/>
</g>
<!-- SSP/ssp&#45;kubevirt&#45;hyperconverged -->
<g id="node4" class="node">
<title>SSP/ssp&#45;kubevirt&#45;hyperconverged</title>
<path fill="none" stroke="#000000" d="M2064,-1257C2064,-1257 1630,-1257 1630,-1257 1624,-1257 1618,-1251 1618,-1245 1618,-1245 1618,-1197 1618,-1197 1618,-1191 1624,-1185 1630,-1185 1630,-1185 2064,-1185 2064,-1185 2070,-1185 2076,-1191 2076,-1197 2076,-1197 2076,-1245 2076,-1245 2076,-1251 2070,-1257 2064,-1257"/>
<text text-anchor="middle" x="1847" y="-1214.8" font-family="Courier,monospace" font-weight="bold" font-size="24.00" fill="#000000">SSP/ssp&#45;kubevirt&#45;hyperconverged</text>
</g>
<!-- deployment/hco&#45;operator&#45;&gt;SSP/ssp&#45;kubevirt&#45;hyperconverged -->
<g id="edge2" class="edge">
<title>deployment/hco&#45;operator&#45;&gt;SSP/ssp&#45;kubevirt&#45;hyperconverged</title>
<path fill="none" stroke="#000000" d="M1210.1853,-1132.1423C1301.509,-1147.6726 1415.6899,-1166.3679 1518,-1181 1543.7707,-1184.6856 1570.7085,-1188.3179 1597.5961,-1191.8006"/>
<polygon fill="#000000" stroke="#000000" points="1617.6354,-1194.3706 1596.653,-1200.7533 1607.7166,-1193.0985 1597.7979,-1191.8264 1597.7979,-1191.8264 1597.7979,-1191.8264 1607.7166,-1193.0985 1598.9428,-1182.8995 1617.6354,-1194.3706 1617.6354,-1194.3706"/>
</g>
<!-- CDI/cdi&#45;kubevirt&#45;hyperconverged -->
<g id="node5" class="node">
<title>CDI/cdi&#45;kubevirt&#45;hyperconverged</title>
<path fill="none" stroke="#000000" d="M2064,-1178C2064,-1178 1630,-1178 1630,-1178 1624,-1178 1618,-1172 1618,-1166 1618,-1166 1618,-1118 1618,-1118 1618,-1112 1624,-1106 1630,-1106 1630,-1106 2064,-1106 2064,-1106 2070,-1106 2076,-1112 2076,-1118 2076,-1118 2076,-1166 2076,-1166 2076,-1172 2070,-1178 2064,-1178"/>
<text text-anchor="middle" x="1847" y="-1135.8" font-family="Courier,monospace" font-weight="bold" font-size="24.00" fill="#000000">CDI/cdi&#45;kubevirt&#45;hyperconverged</text>
</g>
<!-- deployment/hco&#45;operator&#45;&gt;CDI/cdi&#45;kubevirt&#45;hyperconverged -->
<g id="edge3" class="edge">
<title>deployment/hco&#45;operator&#45;&gt;CDI/cdi&#45;kubevirt&#45;hyperconverged</title>
<path fill="none" stroke="#000000" d="M1210.0631,-1110.5074C1322.7934,-1116.0813 1471.981,-1123.4577 1597.6316,-1129.6703"/>
<polygon fill="#000000" stroke="#000000" points="1617.9866,-1130.6767 1597.5665,-1138.678 1607.9988,-1130.1828 1598.011,-1129.689 1598.011,-1129.689 1598.011,-1129.689 1607.9988,-1130.1828 1598.4555,-1120.6999 1617.9866,-1130.6767 1617.9866,-1130.6767"/>
</g>
<!-- NetworkAddonsConfig/cluster -->
<g id="node8" class="node">
<title>NetworkAddonsConfig/cluster</title>
<path fill="none" stroke="#000000" d="M2028.5,-1099C2028.5,-1099 1665.5,-1099 1665.5,-1099 1659.5,-1099 1653.5,-1093 1653.5,-1087 1653.5,-1087 1653.5,-1039 1653.5,-1039 1653.5,-1033 1659.5,-1027 1665.5,-1027 1665.5,-1027 2028.5,-1027 2028.5,-1027 2034.5,-1027 2040.5,-1033 2040.5,-1039 2040.5,-1039 2040.5,-1087 2040.5,-1087 2040.5,-1093 2034.5,-1099 2028.5,-1099"/>
<text text-anchor="middle" x="1847" y="-1056.8" font-family="Courier,monospace" font-weight="bold" font-size="24.00" fill="#000000">NetworkAddonsConfig/cluster</text>
</g>
<!-- deployment/hco&#45;operator&#45;&gt;NetworkAddonsConfig/cluster -->
<g id="edge5" class="edge">
<title>deployment/hco&#45;operator&#45;&gt;NetworkAddonsConfig/cluster</title>
<path fill="none" stroke="#000000" d="M1210.0631,-1093.7052C1333.6221,-1087.7487 1500.979,-1079.6809 1633.1364,-1073.3099"/>
<polygon fill="#000000" stroke="#000000" points="1653.2002,-1072.3426 1633.6568,-1082.2953 1643.2118,-1072.8242 1633.2234,-1073.3058 1633.2234,-1073.3058 1633.2234,-1073.3058 1643.2118,-1072.8242 1632.79,-1064.3162 1653.2002,-1072.3426 1653.2002,-1072.3426"/>
</g>
<!-- deployment/kubevirt&#45;console&#45;plugin -->
<g id="node19" class="node">
<title>deployment/kubevirt&#45;console&#45;plugin</title>
<path fill="none" stroke="#000000" d="M2085.5,-1020C2085.5,-1020 1608.5,-1020 1608.5,-1020 1602.5,-1020 1596.5,-1014 1596.5,-1008 1596.5,-1008 1596.5,-960 1596.5,-960 1596.5,-954 1602.5,-948 1608.5,-948 1608.5,-948 2085.5,-948 2085.5,-948 2091.5,-948 2097.5,-954 2097.5,-960 2097.5,-960 2097.5,-1008 2097.5,-1008 2097.5,-1014 2091.5,-1020 2085.5,-1020"/>
<text text-anchor="middle" x="1847" y="-977.8" font-family="Courier,monospace" font-weight="bold" font-size="24.00" fill="#000000">deployment/kubevirt&#45;console&#45;plugin</text>
</g>
<!-- deployment/hco&#45;operator&#45;&gt;deployment/kubevirt&#45;console&#45;plugin -->
<g id="edge17" class="edge">
<title>deployment/hco&#45;operator&#45;&gt;deployment/kubevirt&#45;console&#45;plugin</title>
<path fill="none" stroke="#000000" d="M1210.201,-1072.3019C1301.529,-1056.9855 1415.7091,-1038.5235 1518,-1024 1536.9138,-1021.3146 1556.4555,-1018.6529 1576.144,-1016.054"/>
<polygon fill="#000000" stroke="#000000" points="1596.2769,-1013.424 1577.6112,-1024.9389 1586.3612,-1014.7194 1576.4454,-1016.0147 1576.4454,-1016.0147 1576.4454,-1016.0147 1586.3612,-1014.7194 1575.2796,-1007.0905 1596.2769,-1013.424 1596.2769,-1013.424"/>
</g>
<!-- CDIConfig/config -->
<g id="node6" class="node">
<title>CDIConfig/config</title>
<path fill="none" stroke="#000000" d="M2524,-941C2524,-941 2332,-941 2332,-941 2326,-941 2320,-935 2320,-929 2320,-929 2320,-881 2320,-881 2320,-875 2326,-869 2332,-869 2332,-869 2524,-869 2524,-869 2530,-869 2536,-875 2536,-881 2536,-881 2536,-929 2536,-929 2536,-935 2530,-941 2524,-941"/>
<text text-anchor="middle" x="2428" y="-898.8" font-family="Courier,monospace" font-weight="bold" font-size="24.00" fill="#000000">CDIConfig/config</text>
</g>
<!-- deployment/cdi&#45;deployment -->
<g id="node7" class="node">
<title>deployment/cdi&#45;deployment</title>
<path fill="none" stroke="#000000" d="M2021.5,-941C2021.5,-941 1672.5,-941 1672.5,-941 1666.5,-941 1660.5,-935 1660.5,-929 1660.5,-929 1660.5,-881 1660.5,-881 1660.5,-875 1666.5,-869 1672.5,-869 1672.5,-869 2021.5,-869 2021.5,-869 2027.5,-869 2033.5,-875 2033.5,-881 2033.5,-881 2033.5,-929 2033.5,-929 2033.5,-935 2027.5,-941 2021.5,-941"/>
<text text-anchor="middle" x="1847" y="-898.8" font-family="Courier,monospace" font-weight="bold" font-size="24.00" fill="#000000">deployment/cdi&#45;deployment</text>
</g>
<!-- deployment/cdi&#45;deployment&#45;&gt;CDIConfig/config -->
<g id="edge4" class="edge">
<title>deployment/cdi&#45;deployment&#45;&gt;CDIConfig/config</title>
<path fill="none" stroke="#000000" d="M2033.6297,-905C2120.4412,-905 2221.5049,-905 2299.5891,-905"/>
<polygon fill="#000000" stroke="#000000" points="2319.9453,-905 2299.9453,-914.0001 2309.9453,-905 2299.9453,-905.0001 2299.9453,-905.0001 2299.9453,-905.0001 2309.9453,-905 2299.9452,-896.0001 2319.9453,-905 2319.9453,-905"/>
</g>
<!-- deployment/cdi&#45;apiserver -->
<g id="node9" class="node">
<title>deployment/cdi&#45;apiserver</title>
<path fill="none" stroke="#000000" d="M2014.5,-862C2014.5,-862 1679.5,-862 1679.5,-862 1673.5,-862 1667.5,-856 1667.5,-850 1667.5,-850 1667.5,-802 1667.5,-802 1667.5,-796 1673.5,-790 1679.5,-790 1679.5,-790 2014.5,-790 2014.5,-790 2020.5,-790 2026.5,-796 2026.5,-802 2026.5,-802 2026.5,-850 2026.5,-850 2026.5,-856 2020.5,-862 2014.5,-862"/>
<text text-anchor="middle" x="1847" y="-819.8" font-family="Courier,monospace" font-weight="bold" font-size="24.00" fill="#000000">deployment/cdi&#45;apiserver</text>
</g>
<!-- deployment/cdi&#45;operator -->
<g id="node10" class="node">
<title>deployment/cdi&#45;operator</title>
<path fill="none" stroke="#000000" d="M1198,-823C1198,-823 878,-823 878,-823 872,-823 866,-817 866,-811 866,-811 866,-763 866,-763 866,-757 872,-751 878,-751 878,-751 1198,-751 1198,-751 1204,-751 1210,-757 1210,-763 1210,-763 1210,-811 1210,-811 1210,-817 1204,-823 1198,-823"/>
<text text-anchor="middle" x="1038" y="-780.8" font-family="Courier,monospace" font-weight="bold" font-size="24.00" fill="#000000">deployment/cdi&#45;operator</text>
</g>
<!-- deployment/cdi&#45;operator&#45;&gt;deployment/cdi&#45;deployment -->
<g id="edge7" class="edge">
<title>deployment/cdi&#45;operator&#45;&gt;deployment/cdi&#45;deployment</title>
<path fill="none" stroke="#000000" d="M1210.201,-816.6981C1301.529,-832.0145 1415.7091,-850.4765 1518,-865 1557.4424,-870.6001 1599.6151,-876.0969 1640.1562,-881.1367"/>
<polygon fill="#000000" stroke="#000000" points="1660.2252,-883.6113 1639.2741,-890.096 1650.3004,-882.3874 1640.3755,-881.1636 1640.3755,-881.1636 1640.3755,-881.1636 1650.3004,-882.3874 1641.477,-872.2313 1660.2252,-883.6113 1660.2252,-883.6113"/>
</g>
<!-- deployment/cdi&#45;operator&#45;&gt;deployment/cdi&#45;apiserver -->
<g id="edge6" class="edge">
<title>deployment/cdi&#45;operator&#45;&gt;deployment/cdi&#45;apiserver</title>
<path fill="none" stroke="#000000" d="M1210.0631,-795.2948C1338.035,-801.464 1512.9889,-809.8981 1647.1578,-816.3661"/>
<polygon fill="#000000" stroke="#000000" points="1667.4861,-817.3461 1647.0759,-825.3725 1657.4977,-816.8645 1647.5093,-816.3829 1647.5093,-816.3829 1647.5093,-816.3829 1657.4977,-816.8645 1647.9427,-807.3934 1667.4861,-817.3461 1667.4861,-817.3461"/>
</g>
<!-- deployment/cdi&#45;uploadproxy -->
<g id="node12" class="node">
<title>deployment/cdi&#45;uploadproxy</title>
<path fill="none" stroke="#000000" d="M2028.5,-783C2028.5,-783 1665.5,-783 1665.5,-783 1659.5,-783 1653.5,-777 1653.5,-771 1653.5,-771 1653.5,-723 1653.5,-723 1653.5,-717 1659.5,-711 1665.5,-711 1665.5,-711 2028.5,-711 2028.5,-711 2034.5,-711 2040.5,-717 2040.5,-723 2040.5,-723 2040.5,-771 2040.5,-771 2040.5,-777 2034.5,-783 2028.5,-783"/>
<text text-anchor="middle" x="1847" y="-740.8" font-family="Courier,monospace" font-weight="bold" font-size="24.00" fill="#000000">deployment/cdi&#45;uploadproxy</text>
</g>
<!-- deployment/cdi&#45;operator&#45;&gt;deployment/cdi&#45;uploadproxy -->
<g id="edge9" class="edge">
<title>deployment/cdi&#45;operator&#45;&gt;deployment/cdi&#45;uploadproxy</title>
<path fill="none" stroke="#000000" d="M1210.0631,-778.4926C1333.6221,-772.3833 1500.979,-764.1086 1633.1364,-757.5742"/>
<polygon fill="#000000" stroke="#000000" points="1653.2002,-756.5822 1633.6691,-766.559 1643.2124,-757.0761 1633.2246,-757.57 1633.2246,-757.57 1633.2246,-757.57 1643.2124,-757.0761 1632.7801,-748.5809 1653.2002,-756.5822 1653.2002,-756.5822"/>
</g>
<!-- olm -->
<g id="node11" class="node">
<title>olm</title>
<path fill="none" stroke="#000000" d="M375,-546C375,-546 183,-546 183,-546 177,-546 171,-540 171,-534 171,-534 171,-486 171,-486 171,-480 177,-474 183,-474 183,-474 375,-474 375,-474 381,-474 387,-480 387,-486 387,-486 387,-534 387,-534 387,-540 381,-546 375,-546"/>
<text text-anchor="middle" x="279" y="-503.8" font-family="Courier,monospace" font-weight="bold" font-size="24.00" fill="#000000">olm</text>
</g>
<!-- olm&#45;&gt;deployment/hco&#45;operator -->
<g id="edge11" class="edge">
<title>olm&#45;&gt;deployment/hco&#45;operator</title>
<path fill="none" stroke="#000000" d="M325.3363,-546.1411C455.9641,-648.0274 827.3066,-937.6647 975.6571,-1053.3742"/>
<polygon fill="#000000" stroke="#000000" points="991.789,-1065.9567 970.4836,-1060.7529 983.9039,-1059.8065 976.0188,-1053.6562 976.0188,-1053.6562 976.0188,-1053.6562 983.9039,-1059.8065 981.554,-1046.5596 991.789,-1065.9567 991.789,-1065.9567"/>
</g>
<!-- olm&#45;&gt;deployment/cdi&#45;operator -->
<g id="edge8" class="edge">
<title>olm&#45;&gt;deployment/cdi&#45;operator</title>
<path fill="none" stroke="#000000" d="M345.379,-546.0579C427.2272,-589.3 571.5451,-661.6156 702,-707 747.9188,-722.9749 798.4549,-736.8554 846.0776,-748.3659"/>
<polygon fill="#000000" stroke="#000000" points="865.576,-752.9879 844.0393,-757.1321 855.8456,-750.6813 846.1152,-748.3747 846.1152,-748.3747 846.1152,-748.3747 855.8456,-750.6813 848.1911,-739.6174 865.576,-752.9879 865.576,-752.9879"/>
</g>
<!-- deployment/cluster&#45;network&#45;addons&#45;operator -->
<g id="node13" class="node">
<title>deployment/cluster&#45;network&#45;addons&#45;operator</title>
<path fill="none" stroke="#000000" d="M1333.5,-704C1333.5,-704 742.5,-704 742.5,-704 736.5,-704 730.5,-698 730.5,-692 730.5,-692 730.5,-644 730.5,-644 730.5,-638 736.5,-632 742.5,-632 742.5,-632 1333.5,-632 1333.5,-632 1339.5,-632 1345.5,-638 1345.5,-644 1345.5,-644 1345.5,-692 1345.5,-692 1345.5,-698 1339.5,-704 1333.5,-704"/>
<text text-anchor="middle" x="1038" y="-661.8" font-family="Courier,monospace" font-weight="bold" font-size="24.00" fill="#000000">deployment/cluster&#45;network&#45;addons&#45;operator</text>
</g>
<!-- olm&#45;&gt;deployment/cluster&#45;network&#45;addons&#45;operator -->
<g id="edge10" class="edge">
<title>olm&#45;&gt;deployment/cluster&#45;network&#45;addons&#45;operator</title>
<path fill="none" stroke="#000000" d="M387.0082,-545.0812C471.8308,-571.4219 593.3639,-606.5132 702,-628 704.7374,-628.5414 707.4888,-629.0765 710.2529,-629.6053"/>
<polygon fill="#000000" stroke="#000000" points="730.0856,-633.2579 708.7863,-638.4865 720.251,-631.4466 710.4164,-629.6354 710.4164,-629.6354 710.4164,-629.6354 720.251,-631.4466 712.0465,-620.7842 730.0856,-633.2579 730.0856,-633.2579"/>
</g>
<!-- deployment/hco&#45;webhook -->
<g id="node14" class="node">
<title>deployment/hco&#45;webhook</title>
<path fill="none" stroke="#000000" d="M1191,-625C1191,-625 885,-625 885,-625 879,-625 873,-619 873,-613 873,-613 873,-565 873,-565 873,-559 879,-553 885,-553 885,-553 1191,-553 1191,-553 1197,-553 1203,-559 1203,-565 1203,-565 1203,-613 1203,-613 1203,-619 1197,-625 1191,-625"/>
<text text-anchor="middle" x="1038" y="-582.8" font-family="Courier,monospace" font-weight="bold" font-size="24.00" fill="#000000">deployment/hco&#45;webhook</text>
</g>
<!-- olm&#45;&gt;deployment/hco&#45;webhook -->
<g id="edge12" class="edge">
<title>olm&#45;&gt;deployment/hco&#45;webhook</title>
<path fill="none" stroke="#000000" d="M387.3429,-521.2768C508.4156,-533.8786 706.5647,-554.5028 852.4362,-569.6857"/>
<polygon fill="#000000" stroke="#000000" points="872.6589,-571.7906 851.8346,-578.6716 862.7127,-570.7553 852.7664,-569.72 852.7664,-569.72 852.7664,-569.72 862.7127,-570.7553 853.6982,-560.7684 872.6589,-571.7906 872.6589,-571.7906"/>
</g>
<!-- deployment/hostpath&#45;provisioner&#45;operator -->
<g id="node15" class="node">
<title>deployment/hostpath&#45;provisioner&#45;operator</title>
<path fill="none" stroke="#000000" d="M1319.5,-546C1319.5,-546 756.5,-546 756.5,-546 750.5,-546 744.5,-540 744.5,-534 744.5,-534 744.5,-486 744.5,-486 744.5,-480 750.5,-474 756.5,-474 756.5,-474 1319.5,-474 1319.5,-474 1325.5,-474 1331.5,-480 1331.5,-486 1331.5,-486 1331.5,-534 1331.5,-534 1331.5,-540 1325.5,-546 1319.5,-546"/>
<text text-anchor="middle" x="1038" y="-503.8" font-family="Courier,monospace" font-weight="bold" font-size="24.00" fill="#000000">deployment/hostpath&#45;provisioner&#45;operator</text>
</g>
<!-- olm&#45;&gt;deployment/hostpath&#45;provisioner&#45;operator -->
<g id="edge13" class="edge">
<title>olm&#45;&gt;deployment/hostpath&#45;provisioner&#45;operator</title>
<path fill="none" stroke="#000000" d="M387.3429,-510C475.4223,-510 604.294,-510 724.1539,-510"/>
<polygon fill="#000000" stroke="#000000" points="744.4673,-510 724.4673,-519.0001 734.4673,-510 724.4673,-510.0001 724.4673,-510.0001 724.4673,-510.0001 734.4673,-510 724.4672,-501.0001 744.4673,-510 744.4673,-510"/>
</g>
<!-- deployment/hyperconverged&#45;cluster&#45;cli&#45;download -->
<g id="node16" class="node">
<title>deployment/hyperconverged&#45;cluster&#45;cli&#45;download</title>
<path fill="none" stroke="#000000" d="M1362,-467C1362,-467 714,-467 714,-467 708,-467 702,-461 702,-455 702,-455 702,-407 702,-407 702,-401 708,-395 714,-395 714,-395 1362,-395 1362,-395 1368,-395 1374,-401 1374,-407 1374,-407 1374,-455 1374,-455 1374,-461 1368,-467 1362,-467"/>
<text text-anchor="middle" x="1038" y="-424.8" font-family="Courier,monospace" font-weight="bold" font-size="24.00" fill="#000000">deployment/hyperconverged&#45;cluster&#45;cli&#45;download</text>
</g>
<!-- olm&#45;&gt;deployment/hyperconverged&#45;cluster&#45;cli&#45;download -->
<g id="edge14" class="edge">
<title>olm&#45;&gt;deployment/hyperconverged&#45;cluster&#45;cli&#45;download</title>
<path fill="none" stroke="#000000" d="M387.3429,-498.7232C465.1353,-490.6262 574.748,-479.2173 681.8683,-468.0677"/>
<polygon fill="#000000" stroke="#000000" points="701.8328,-465.9897 682.8721,-477.012 691.8866,-467.025 681.9403,-468.0603 681.9403,-468.0603 681.9403,-468.0603 691.8866,-467.025 681.0085,-459.1087 701.8328,-465.9897 701.8328,-465.9897"/>
</g>
<!-- deployment/ssp&#45;operator -->
<g id="node20" class="node">
<title>deployment/ssp&#45;operator</title>
<path fill="none" stroke="#000000" d="M1198,-388C1198,-388 878,-388 878,-388 872,-388 866,-382 866,-376 866,-376 866,-328 866,-328 866,-322 872,-316 878,-316 878,-316 1198,-316 1198,-316 1204,-316 1210,-322 1210,-328 1210,-328 1210,-376 1210,-376 1210,-382 1204,-388 1198,-388"/>
<text text-anchor="middle" x="1038" y="-345.8" font-family="Courier,monospace" font-weight="bold" font-size="24.00" fill="#000000">deployment/ssp&#45;operator</text>
</g>
<!-- olm&#45;&gt;deployment/ssp&#45;operator -->
<g id="edge18" class="edge">
<title>olm&#45;&gt;deployment/ssp&#45;operator</title>
<path fill="none" stroke="#000000" d="M387.0241,-503.467C439.6197,-498.046 503.1798,-488.131 558,-470 627.1044,-447.1447 632.6274,-414.0276 702,-392 747.5412,-377.5395 798.0621,-368.23 845.801,-362.258"/>
<polygon fill="#000000" stroke="#000000" points="865.7102,-359.9363 846.8873,-371.1924 855.7775,-361.0946 845.8448,-362.253 845.8448,-362.253 845.8448,-362.253 855.7775,-361.0946 844.8023,-353.3136 865.7102,-359.9363 865.7102,-359.9363"/>
</g>
<!-- deployment/tekton&#45;tasks&#45;operator -->
<g id="node21" class="node">
<title>deployment/tekton&#45;tasks&#45;operator</title>
<path fill="none" stroke="#000000" d="M1262.5,-309C1262.5,-309 813.5,-309 813.5,-309 807.5,-309 801.5,-303 801.5,-297 801.5,-297 801.5,-249 801.5,-249 801.5,-243 807.5,-237 813.5,-237 813.5,-237 1262.5,-237 1262.5,-237 1268.5,-237 1274.5,-243 1274.5,-249 1274.5,-249 1274.5,-297 1274.5,-297 1274.5,-303 1268.5,-309 1262.5,-309"/>
<text text-anchor="middle" x="1038" y="-266.8" font-family="Courier,monospace" font-weight="bold" font-size="24.00" fill="#000000">deployment/tekton&#45;tasks&#45;operator</text>
</g>
<!-- olm&#45;&gt;deployment/tekton&#45;tasks&#45;operator -->
<g id="edge19" class="edge">
<title>olm&#45;&gt;deployment/tekton&#45;tasks&#45;operator</title>
<path fill="none" stroke="#000000" d="M387.2524,-511.3481C441.247,-507.9456 505.9574,-497.4574 558,-470 641.7428,-425.8176 617.735,-356.1781 702,-313 726.7305,-300.3279 753.7935,-290.9731 781.4828,-284.1424"/>
<polygon fill="#000000" stroke="#000000" points="801.2289,-279.7053 783.6886,-292.8712 791.4722,-281.8977 781.7155,-284.0902 781.7155,-284.0902 781.7155,-284.0902 791.4722,-281.8977 779.7423,-275.3091 801.2289,-279.7053 801.2289,-279.7053"/>
</g>
<!-- deployment/virt&#45;operator -->
<g id="node23" class="node">
<title>deployment/virt&#45;operator</title>
<path fill="none" stroke="#000000" d="M1205.5,-230C1205.5,-230 870.5,-230 870.5,-230 864.5,-230 858.5,-224 858.5,-218 858.5,-218 858.5,-170 858.5,-170 858.5,-164 864.5,-158 870.5,-158 870.5,-158 1205.5,-158 1205.5,-158 1211.5,-158 1217.5,-164 1217.5,-170 1217.5,-170 1217.5,-218 1217.5,-218 1217.5,-224 1211.5,-230 1205.5,-230"/>
<text text-anchor="middle" x="1038" y="-187.8" font-family="Courier,monospace" font-weight="bold" font-size="24.00" fill="#000000">deployment/virt&#45;operator</text>
</g>
<!-- olm&#45;&gt;deployment/virt&#45;operator -->
<g id="edge23" class="edge">
<title>olm&#45;&gt;deployment/virt&#45;operator</title>
<path fill="none" stroke="#000000" d="M387.3285,-515.5953C442.4514,-513.4732 508.1523,-502.8489 558,-470 660.5985,-402.3891 598.6006,-300.3796 702,-234 742.2092,-208.1868 790.7863,-194.7386 838.3549,-188.4039"/>
<polygon fill="#000000" stroke="#000000" points="858.2927,-186.143 839.4342,-197.3393 848.3564,-187.2698 838.4201,-188.3966 838.4201,-188.3966 838.4201,-188.3966 848.3564,-187.2698 837.4059,-179.4539 858.2927,-186.143 858.2927,-186.143"/>
</g>
<!-- deployment/kubemacpool&#45;cert&#45;manager -->
<g id="node17" class="node">
<title>deployment/kubemacpool&#45;cert&#45;manager</title>
<path fill="none" stroke="#000000" d="M2092.5,-704C2092.5,-704 1601.5,-704 1601.5,-704 1595.5,-704 1589.5,-698 1589.5,-692 1589.5,-692 1589.5,-644 1589.5,-644 1589.5,-638 1595.5,-632 1601.5,-632 1601.5,-632 2092.5,-632 2092.5,-632 2098.5,-632 2104.5,-638 2104.5,-644 2104.5,-644 2104.5,-692 2104.5,-692 2104.5,-698 2098.5,-704 2092.5,-704"/>
<text text-anchor="middle" x="1847" y="-661.8" font-family="Courier,monospace" font-weight="bold" font-size="24.00" fill="#000000">deployment/kubemacpool&#45;cert&#45;manager</text>
</g>
<!-- deployment/cluster&#45;network&#45;addons&#45;operator&#45;&gt;deployment/kubemacpool&#45;cert&#45;manager -->
<g id="edge15" class="edge">
<title>deployment/cluster&#45;network&#45;addons&#45;operator&#45;&gt;deployment/kubemacpool&#45;cert&#45;manager</title>
<path fill="none" stroke="#000000" d="M1345.5788,-668C1419.085,-668 1497.1285,-668 1569.2024,-668"/>
<polygon fill="#000000" stroke="#000000" points="1589.3639,-668 1569.3639,-677.0001 1579.3639,-668 1569.3639,-668.0001 1569.3639,-668.0001 1569.3639,-668.0001 1579.3639,-668 1569.3639,-659.0001 1589.3639,-668 1589.3639,-668"/>
</g>
<!-- deployment/kubemacpool&#45;mac&#45;controller&#45;manager -->
<g id="node18" class="node">
<title>deployment/kubemacpool&#45;mac&#45;controller&#45;manager</title>
<path fill="none" stroke="#000000" d="M2164,-625C2164,-625 1530,-625 1530,-625 1524,-625 1518,-619 1518,-613 1518,-613 1518,-565 1518,-565 1518,-559 1524,-553 1530,-553 1530,-553 2164,-553 2164,-553 2170,-553 2176,-559 2176,-565 2176,-565 2176,-613 2176,-613 2176,-619 2170,-625 2164,-625"/>
<text text-anchor="middle" x="1847" y="-582.8" font-family="Courier,monospace" font-weight="bold" font-size="24.00" fill="#000000">deployment/kubemacpool&#45;mac&#45;controller&#45;manager</text>
</g>
<!-- deployment/cluster&#45;network&#45;addons&#45;operator&#45;&gt;deployment/kubemacpool&#45;mac&#45;controller&#45;manager -->
<g id="edge16" class="edge">
<title>deployment/cluster&#45;network&#45;addons&#45;operator&#45;&gt;deployment/kubemacpool&#45;mac&#45;controller&#45;manager</title>
<path fill="none" stroke="#000000" d="M1345.5788,-637.9645C1395.274,-633.1117 1447.0431,-628.0564 1497.6393,-623.1156"/>
<polygon fill="#000000" stroke="#000000" points="1517.7186,-621.1548 1498.688,-632.0561 1507.7659,-622.1267 1497.8133,-623.0987 1497.8133,-623.0987 1497.8133,-623.0987 1507.7659,-622.1267 1496.9385,-614.1413 1517.7186,-621.1548 1517.7186,-621.1548"/>
</g>
<!-- daemonset/bridge&#45;marker -->
<g id="node27" class="node">
<title>daemonset/bridge&#45;marker</title>
<path fill="none" stroke="#000000" d="M2007,-546C2007,-546 1687,-546 1687,-546 1681,-546 1675,-540 1675,-534 1675,-534 1675,-486 1675,-486 1675,-480 1681,-474 1687,-474 1687,-474 2007,-474 2007,-474 2013,-474 2019,-480 2019,-486 2019,-486 2019,-534 2019,-534 2019,-540 2013,-546 2007,-546"/>
<text text-anchor="middle" x="1847" y="-503.8" font-family="Courier,monospace" font-weight="bold" font-size="24.00" fill="#000000">daemonset/bridge&#45;marker</text>
</g>
<!-- deployment/cluster&#45;network&#45;addons&#45;operator&#45;&gt;daemonset/bridge&#45;marker -->
<g id="edge25" class="edge">
<title>deployment/cluster&#45;network&#45;addons&#45;operator&#45;&gt;daemonset/bridge&#45;marker</title>
<path fill="none" stroke="#000000" d="M1345.7347,-636.1795C1355.3182,-633.6549 1364.7616,-630.9334 1374,-628 1443.3726,-605.9724 1448.6549,-572.1141 1518,-550 1561.3351,-536.1804 1609.2786,-527.0815 1654.8521,-521.1056"/>
<polygon fill="#000000" stroke="#000000" points="1674.906,-518.6526 1656.1468,-530.0144 1664.98,-519.8668 1655.054,-521.081 1655.054,-521.081 1655.054,-521.081 1664.98,-519.8668 1653.9612,-512.1476 1674.906,-518.6526 1674.906,-518.6526"/>
</g>
<!-- daemonset/kube&#45;cni&#45;linux&#45;bridge&#45;plugin -->
<g id="node28" class="node">
<title>daemonset/kube&#45;cni&#45;linux&#45;bridge&#45;plugin</title>
<path fill="none" stroke="#000000" d="M2114,-467C2114,-467 1580,-467 1580,-467 1574,-467 1568,-461 1568,-455 1568,-455 1568,-407 1568,-407 1568,-401 1574,-395 1580,-395 1580,-395 2114,-395 2114,-395 2120,-395 2126,-401 2126,-407 2126,-407 2126,-455 2126,-455 2126,-461 2120,-467 2114,-467"/>
<text text-anchor="middle" x="1847" y="-424.8" font-family="Courier,monospace" font-weight="bold" font-size="24.00" fill="#000000">daemonset/kube&#45;cni&#45;linux&#45;bridge&#45;plugin</text>
</g>
<!-- deployment/cluster&#45;network&#45;addons&#45;operator&#45;&gt;daemonset/kube&#45;cni&#45;linux&#45;bridge&#45;plugin -->
<g id="edge26" class="edge">
<title>deployment/cluster&#45;network&#45;addons&#45;operator&#45;&gt;daemonset/kube&#45;cni&#45;linux&#45;bridge&#45;plugin</title>
<path fill="none" stroke="#000000" d="M1345.681,-640.7425C1355.3823,-636.9222 1364.8508,-632.6881 1374,-628 1458.265,-584.8219 1433.789,-514.2833 1518,-471 1527.8351,-465.9449 1538.0478,-461.4233 1548.5259,-457.3837"/>
<polygon fill="#000000" stroke="#000000" points="1567.6488,-450.6218 1551.7934,-465.7745 1558.2209,-453.9556 1548.7929,-457.2893 1548.7929,-457.2893 1548.7929,-457.2893 1558.2209,-453.9556 1545.7925,-448.8042 1567.6488,-450.6218 1567.6488,-450.6218"/>
</g>
<!-- deployment/virt&#45;template&#45;validator -->
<g id="node26" class="node">
<title>deployment/virt&#45;template&#45;validator</title>
<path fill="none" stroke="#000000" d="M2085.5,-388C2085.5,-388 1608.5,-388 1608.5,-388 1602.5,-388 1596.5,-382 1596.5,-376 1596.5,-376 1596.5,-328 1596.5,-328 1596.5,-322 1602.5,-316 1608.5,-316 1608.5,-316 2085.5,-316 2085.5,-316 2091.5,-316 2097.5,-322 2097.5,-328 2097.5,-328 2097.5,-376 2097.5,-376 2097.5,-382 2091.5,-388 2085.5,-388"/>
<text text-anchor="middle" x="1847" y="-345.8" font-family="Courier,monospace" font-weight="bold" font-size="24.00" fill="#000000">deployment/virt&#45;template&#45;validator</text>
</g>
<!-- deployment/ssp&#45;operator&#45;&gt;deployment/virt&#45;template&#45;validator -->
<g id="edge24" class="edge">
<title>deployment/ssp&#45;operator&#45;&gt;deployment/virt&#45;template&#45;validator</title>
<path fill="none" stroke="#000000" d="M1210.0631,-352C1316.5247,-352 1455.5018,-352 1576.4621,-352"/>
<polygon fill="#000000" stroke="#000000" points="1596.4875,-352 1576.4876,-361.0001 1586.4875,-352 1576.4875,-352.0001 1576.4875,-352.0001 1576.4875,-352.0001 1586.4875,-352 1576.4875,-343.0001 1596.4875,-352 1596.4875,-352"/>
</g>
<!-- deployment/virt&#45;api -->
<g id="node22" class="node">
<title>deployment/virt&#45;api</title>
<path fill="none" stroke="#000000" d="M1978.5,-309C1978.5,-309 1715.5,-309 1715.5,-309 1709.5,-309 1703.5,-303 1703.5,-297 1703.5,-297 1703.5,-249 1703.5,-249 1703.5,-243 1709.5,-237 1715.5,-237 1715.5,-237 1978.5,-237 1978.5,-237 1984.5,-237 1990.5,-243 1990.5,-249 1990.5,-249 1990.5,-297 1990.5,-297 1990.5,-303 1984.5,-309 1978.5,-309"/>
<text text-anchor="middle" x="1847" y="-266.8" font-family="Courier,monospace" font-weight="bold" font-size="24.00" fill="#000000">deployment/virt&#45;api</text>
</g>
<!-- deployment/virt&#45;operator&#45;&gt;deployment/virt&#45;api -->
<g id="edge20" class="edge">
<title>deployment/virt&#45;operator&#45;&gt;deployment/virt&#45;api</title>
<path fill="none" stroke="#000000" d="M1217.5433,-211.5327C1356.828,-225.134 1548.2907,-243.8306 1683.377,-257.022"/>
<polygon fill="#000000" stroke="#000000" points="1703.3029,-258.9678 1682.5228,-265.9813 1693.3502,-257.9958 1683.3975,-257.0239 1683.3975,-257.0239 1683.3975,-257.0239 1693.3502,-257.9958 1684.2723,-248.0665 1703.3029,-258.9678 1703.3029,-258.9678"/>
</g>
<!-- deployment/virt&#45;controller -->
<g id="node24" class="node">
<title>deployment/virt&#45;controller</title>
<path fill="none" stroke="#000000" d="M2028.5,-230C2028.5,-230 1665.5,-230 1665.5,-230 1659.5,-230 1653.5,-224 1653.5,-218 1653.5,-218 1653.5,-170 1653.5,-170 1653.5,-164 1659.5,-158 1665.5,-158 1665.5,-158 2028.5,-158 2028.5,-158 2034.5,-158 2040.5,-164 2040.5,-170 2040.5,-170 2040.5,-218 2040.5,-218 2040.5,-224 2034.5,-230 2028.5,-230"/>
<text text-anchor="middle" x="1847" y="-187.8" font-family="Courier,monospace" font-weight="bold" font-size="24.00" fill="#000000">deployment/virt&#45;controller</text>
</g>
<!-- deployment/virt&#45;operator&#45;&gt;deployment/virt&#45;controller -->
<g id="edge21" class="edge">
<title>deployment/virt&#45;operator&#45;&gt;deployment/virt&#45;controller</title>
<path fill="none" stroke="#000000" d="M1217.5433,-194C1340.3976,-194 1503.8459,-194 1633.3963,-194"/>
<polygon fill="#000000" stroke="#000000" points="1653.4774,-194 1633.4775,-203.0001 1643.4774,-194 1633.4774,-194.0001 1633.4774,-194.0001 1633.4774,-194.0001 1643.4774,-194 1633.4774,-185.0001 1653.4774,-194 1653.4774,-194"/>
</g>
<!-- deployment/virt&#45;exportproxy -->
<g id="node25" class="node">
<title>deployment/virt&#45;exportproxy</title>
<path fill="none" stroke="#000000" d="M2035.5,-151C2035.5,-151 1658.5,-151 1658.5,-151 1652.5,-151 1646.5,-145 1646.5,-139 1646.5,-139 1646.5,-91 1646.5,-91 1646.5,-85 1652.5,-79 1658.5,-79 1658.5,-79 2035.5,-79 2035.5,-79 2041.5,-79 2047.5,-85 2047.5,-91 2047.5,-91 2047.5,-139 2047.5,-139 2047.5,-145 2041.5,-151 2035.5,-151"/>
<text text-anchor="middle" x="1847" y="-108.8" font-family="Courier,monospace" font-weight="bold" font-size="24.00" fill="#000000">deployment/virt&#45;exportproxy</text>
</g>
<!-- deployment/virt&#45;operator&#45;&gt;deployment/virt&#45;exportproxy -->
<g id="edge22" class="edge">
<title>deployment/virt&#45;operator&#45;&gt;deployment/virt&#45;exportproxy</title>
<path fill="none" stroke="#000000" d="M1217.5433,-176.4673C1338.186,-164.6864 1497.9743,-149.0829 1626.3674,-136.5451"/>
<polygon fill="#000000" stroke="#000000" points="1646.2877,-134.5998 1627.2571,-145.5011 1636.335,-135.5718 1626.3824,-136.5437 1626.3824,-136.5437 1626.3824,-136.5437 1636.335,-135.5718 1625.5076,-127.5863 1646.2877,-134.5998 1646.2877,-134.5998"/>
</g>
<!-- daemonset/virt&#45;handler -->
<g id="node29" class="node">
<title>daemonset/virt&#45;handler</title>
<path fill="none" stroke="#000000" d="M2000,-72C2000,-72 1694,-72 1694,-72 1688,-72 1682,-66 1682,-60 1682,-60 1682,-12 1682,-12 1682,-6 1688,0 1694,0 1694,0 2000,0 2000,0 2006,0 2012,-6 2012,-12 2012,-12 2012,-60 2012,-60 2012,-66 2006,-72 2000,-72"/>
<text text-anchor="middle" x="1847" y="-29.8" font-family="Courier,monospace" font-weight="bold" font-size="24.00" fill="#000000">daemonset/virt&#45;handler</text>
</g>
<!-- deployment/virt&#45;operator&#45;&gt;daemonset/virt&#45;handler -->
<g id="edge27" class="edge">
<title>deployment/virt&#45;operator&#45;&gt;daemonset/virt&#45;handler</title>
<path fill="none" stroke="#000000" d="M1166.4593,-157.9651C1262.6113,-132.0837 1397.7124,-98.0155 1518,-76 1564.4285,-67.5025 1614.8835,-60.3437 1662.0175,-54.5381"/>
<polygon fill="#000000" stroke="#000000" points="1681.993,-52.1329 1663.2123,-63.4593 1672.0647,-53.3283 1662.1364,-54.5238 1662.1364,-54.5238 1662.1364,-54.5238 1672.0647,-53.3283 1661.0605,-45.5884 1681.993,-52.1329 1681.993,-52.1329"/>
</g>
</g>
</svg>
