<?xml version="1.0" encoding="UTF-8" standalone="no"?>
<!DOCTYPE svg PUBLIC "-//W3C//DTD SVG 1.1//EN"
 "http://www.w3.org/Graphics/SVG/1.1/DTD/svg11.dtd">
<!-- Generated by graphviz version 2.48.0 (0)
 -->
<!-- Title: managed&#45;by Pages: 1 -->
<svg width="2587pt" height="1239pt"
 viewBox="7.20 7.20 2580.20 1232.20" xmlns="http://www.w3.org/2000/svg" xmlns:xlink="http://www.w3.org/1999/xlink">
<g id="graph0" class="graph" transform="scale(1 1) rotate(0) translate(11.2 1228.2)">
<title>managed&#45;by</title>
<polygon fill="white" stroke="transparent" points="-4,4 -4,-1221 2569,-1221 2569,4 -4,4"/>
<!-- HyperConverged/kubevirt&#45;hyperconverged -->
<g id="node1" class="node">
<title>HyperConverged/kubevirt&#45;hyperconverged</title>
<path fill="none" stroke="black" d="M546,-427C546,-427 12,-427 12,-427 6,-427 0,-421 0,-415 0,-415 0,-367 0,-367 0,-361 6,-355 12,-355 12,-355 546,-355 546,-355 552,-355 558,-361 558,-367 558,-367 558,-415 558,-415 558,-421 552,-427 546,-427"/>
<text text-anchor="middle" x="279" y="-384.8" font-family="Courier,monospace" font-weight="bold" font-size="24.00">HyperConverged/kubevirt&#45;hyperconverged</text>
</g>
<!-- KubeVirt/kubevirt&#45;kubevirt&#45;hyperconverged -->
<g id="node2" class="node">
<title>KubeVirt/kubevirt&#45;kubevirt&#45;hyperconverged</title>
<path fill="none" stroke="black" d="M2135.5,-1217C2135.5,-1217 1558.5,-1217 1558.5,-1217 1552.5,-1217 1546.5,-1211 1546.5,-1205 1546.5,-1205 1546.5,-1157 1546.5,-1157 1546.5,-1151 1552.5,-1145 1558.5,-1145 1558.5,-1145 2135.5,-1145 2135.5,-1145 2141.5,-1145 2147.5,-1151 2147.5,-1157 2147.5,-1157 2147.5,-1205 2147.5,-1205 2147.5,-1211 2141.5,-1217 2135.5,-1217"/>
<text text-anchor="middle" x="1847" y="-1174.8" font-family="Courier,monospace" font-weight="bold" font-size="24.00">KubeVirt/kubevirt&#45;kubevirt&#45;hyperconverged</text>
</g>
<!-- deployment/hco&#45;operator -->
<g id="node3" class="node">
<title>deployment/hco&#45;operator</title>
<path fill="none" stroke="black" d="M1198,-1059C1198,-1059 878,-1059 878,-1059 872,-1059 866,-1053 866,-1047 866,-1047 866,-999 866,-999 866,-993 872,-987 878,-987 878,-987 1198,-987 1198,-987 1204,-987 1210,-993 1210,-999 1210,-999 1210,-1047 1210,-1047 1210,-1053 1204,-1059 1198,-1059"/>
<text text-anchor="middle" x="1038" y="-1016.8" font-family="Courier,monospace" font-weight="bold" font-size="24.00">deployment/hco&#45;operator</text>
</g>
<!-- deployment/hco&#45;operator&#45;&gt;KubeVirt/kubevirt&#45;kubevirt&#45;hyperconverged -->
<g id="edge1" class="edge">
<title>deployment/hco&#45;operator&#45;&gt;KubeVirt/kubevirt&#45;kubevirt&#45;hyperconverged</title>
<path fill="none" stroke="black" d="M1167.19,-1059.03C1263.14,-1084.91 1397.96,-1118.98 1518,-1141 1520.76,-1141.51 1523.54,-1142.01 1526.33,-1142.51"/>
<polygon fill="black" stroke="black" points="1546.36,-1145.96 1525.12,-1151.43 1536.5,-1144.26 1526.65,-1142.56 1526.65,-1142.56 1526.65,-1142.56 1536.5,-1144.26 1528.18,-1133.69 1546.36,-1145.96 1546.36,-1145.96"/>
</g>
<!-- SSP/ssp&#45;kubevirt&#45;hyperconverged -->
<g id="node4" class="node">
<title>SSP/ssp&#45;kubevirt&#45;hyperconverged</title>
<path fill="none" stroke="black" d="M2064,-1138C2064,-1138 1630,-1138 1630,-1138 1624,-1138 1618,-1132 1618,-1126 1618,-1126 1618,-1078 1618,-1078 1618,-1072 1624,-1066 1630,-1066 1630,-1066 2064,-1066 2064,-1066 2070,-1066 2076,-1072 2076,-1078 2076,-1078 2076,-1126 2076,-1126 2076,-1132 2070,-1138 2064,-1138"/>
<text text-anchor="middle" x="1847" y="-1095.8" font-family="Courier,monospace" font-weight="bold" font-size="24.00">SSP/ssp&#45;kubevirt&#45;hyperconverged</text>
</g>
<!-- deployment/hco&#45;operator&#45;&gt;SSP/ssp&#45;kubevirt&#45;hyperconverged -->
<g id="edge2" class="edge">
<title>deployment/hco&#45;operator&#45;&gt;SSP/ssp&#45;kubevirt&#45;hyperconverged</title>
<path fill="none" stroke="black" d="M1210.14,-1039.75C1322.79,-1050.78 1472.09,-1065.4 1597.71,-1077.69"/>
<polygon fill="black" stroke="black" points="1617.66,-1079.65 1596.88,-1086.66 1607.71,-1078.67 1597.76,-1077.7 1597.76,-1077.7 1597.76,-1077.7 1607.71,-1078.67 1598.63,-1068.74 1617.66,-1079.65 1617.66,-1079.65"/>
</g>
<!-- CDI/cdi&#45;kubevirt&#45;hyperconverged -->
<g id="node5" class="node">
<title>CDI/cdi&#45;kubevirt&#45;hyperconverged</title>
<path fill="none" stroke="black" d="M2064,-1059C2064,-1059 1630,-1059 1630,-1059 1624,-1059 1618,-1053 1618,-1047 1618,-1047 1618,-999 1618,-999 1618,-993 1624,-987 1630,-987 1630,-987 2064,-987 2064,-987 2070,-987 2076,-993 2076,-999 2076,-999 2076,-1047 2076,-1047 2076,-1053 2070,-1059 2064,-1059"/>
<text text-anchor="middle" x="1847" y="-1016.8" font-family="Courier,monospace" font-weight="bold" font-size="24.00">CDI/cdi&#45;kubevirt&#45;hyperconverged</text>
</g>
<!-- deployment/hco&#45;operator&#45;&gt;CDI/cdi&#45;kubevirt&#45;hyperconverged -->
<g id="edge3" class="edge">
<title>deployment/hco&#45;operator&#45;&gt;CDI/cdi&#45;kubevirt&#45;hyperconverged</title>
<path fill="none" stroke="black" d="M1210.14,-1023C1322.68,-1023 1471.79,-1023 1597.33,-1023"/>
<polygon fill="black" stroke="black" points="1617.66,-1023 1597.66,-1032 1607.66,-1023 1597.66,-1023 1597.66,-1023 1597.66,-1023 1607.66,-1023 1597.66,-1014 1617.66,-1023 1617.66,-1023"/>
</g>
<!-- NetworkAddonsConfig/cluster -->
<g id="node8" class="node">
<title>NetworkAddonsConfig/cluster</title>
<path fill="none" stroke="black" d="M2035.5,-980C2035.5,-980 1658.5,-980 1658.5,-980 1652.5,-980 1646.5,-974 1646.5,-968 1646.5,-968 1646.5,-920 1646.5,-920 1646.5,-914 1652.5,-908 1658.5,-908 1658.5,-908 2035.5,-908 2035.5,-908 2041.5,-908 2047.5,-914 2047.5,-920 2047.5,-920 2047.5,-968 2047.5,-968 2047.5,-974 2041.5,-980 2035.5,-980"/>
<text text-anchor="middle" x="1847" y="-937.8" font-family="Courier,monospace" font-weight="bold" font-size="24.00">NetworkAddonsConfig/cluster</text>
</g>
<!-- deployment/hco&#45;operator&#45;&gt;NetworkAddonsConfig/cluster -->
<g id="edge5" class="edge">
<title>deployment/hco&#45;operator&#45;&gt;NetworkAddonsConfig/cluster</title>
<path fill="none" stroke="black" d="M1210.14,-1006.25C1331.37,-994.38 1495.05,-978.36 1625.97,-965.54"/>
<polygon fill="black" stroke="black" points="1646.28,-963.55 1627.25,-974.46 1636.33,-964.53 1626.38,-965.5 1626.38,-965.5 1626.38,-965.5 1636.33,-964.53 1625.5,-956.54 1646.28,-963.55 1646.28,-963.55"/>
</g>
<!-- CDIConfig/config -->
<g id="node6" class="node">
<title>CDIConfig/config</title>
<path fill="none" stroke="black" d="M2553,-901C2553,-901 2332,-901 2332,-901 2326,-901 2320,-895 2320,-889 2320,-889 2320,-841 2320,-841 2320,-835 2326,-829 2332,-829 2332,-829 2553,-829 2553,-829 2559,-829 2565,-835 2565,-841 2565,-841 2565,-889 2565,-889 2565,-895 2559,-901 2553,-901"/>
<text text-anchor="middle" x="2442.5" y="-858.8" font-family="Courier,monospace" font-weight="bold" font-size="24.00">CDIConfig/config</text>
</g>
<!-- deployment/cdi&#45;deployment -->
<g id="node7" class="node">
<title>deployment/cdi&#45;deployment</title>
<path fill="none" stroke="black" d="M2021.5,-901C2021.5,-901 1672.5,-901 1672.5,-901 1666.5,-901 1660.5,-895 1660.5,-889 1660.5,-889 1660.5,-841 1660.5,-841 1660.5,-835 1666.5,-829 1672.5,-829 1672.5,-829 2021.5,-829 2021.5,-829 2027.5,-829 2033.5,-835 2033.5,-841 2033.5,-841 2033.5,-889 2033.5,-889 2033.5,-895 2027.5,-901 2021.5,-901"/>
<text text-anchor="middle" x="1847" y="-858.8" font-family="Courier,monospace" font-weight="bold" font-size="24.00">deployment/cdi&#45;deployment</text>
</g>
<!-- deployment/cdi&#45;deployment&#45;&gt;CDIConfig/config -->
<g id="edge4" class="edge">
<title>deployment/cdi&#45;deployment&#45;&gt;CDIConfig/config</title>
<path fill="none" stroke="black" d="M2033.75,-865C2119.71,-865 2220.18,-865 2299.88,-865"/>
<polygon fill="black" stroke="black" points="2319.94,-865 2299.94,-874 2309.94,-865 2299.94,-865 2299.94,-865 2299.94,-865 2309.94,-865 2299.94,-856 2319.94,-865 2319.94,-865"/>
</g>
<!-- deployment/cdi&#45;apiserver -->
<g id="node9" class="node">
<title>deployment/cdi&#45;apiserver</title>
<path fill="none" stroke="black" d="M2014.5,-822C2014.5,-822 1679.5,-822 1679.5,-822 1673.5,-822 1667.5,-816 1667.5,-810 1667.5,-810 1667.5,-762 1667.5,-762 1667.5,-756 1673.5,-750 1679.5,-750 1679.5,-750 2014.5,-750 2014.5,-750 2020.5,-750 2026.5,-756 2026.5,-762 2026.5,-762 2026.5,-810 2026.5,-810 2026.5,-816 2020.5,-822 2014.5,-822"/>
<text text-anchor="middle" x="1847" y="-779.8" font-family="Courier,monospace" font-weight="bold" font-size="24.00">deployment/cdi&#45;apiserver</text>
</g>
<!-- deployment/cdi&#45;operator -->
<g id="node10" class="node">
<title>deployment/cdi&#45;operator</title>
<path fill="none" stroke="black" d="M1198,-783C1198,-783 878,-783 878,-783 872,-783 866,-777 866,-771 866,-771 866,-723 866,-723 866,-717 872,-711 878,-711 878,-711 1198,-711 1198,-711 1204,-711 1210,-717 1210,-723 1210,-723 1210,-771 1210,-771 1210,-777 1204,-783 1198,-783"/>
<text text-anchor="middle" x="1038" y="-740.8" font-family="Courier,monospace" font-weight="bold" font-size="24.00">deployment/cdi&#45;operator</text>
</g>
<!-- deployment/cdi&#45;operator&#45;&gt;deployment/cdi&#45;deployment -->
<g id="edge7" class="edge">
<title>deployment/cdi&#45;operator&#45;&gt;deployment/cdi&#45;deployment</title>
<path fill="none" stroke="black" d="M1210,-776.55C1301.28,-791.9 1415.61,-810.43 1518,-825 1557.44,-830.61 1599.63,-836.13 1640.16,-841.18"/>
<polygon fill="black" stroke="black" points="1660.22,-843.66 1639.27,-850.14 1650.3,-842.43 1640.37,-841.2 1640.37,-841.2 1640.37,-841.2 1650.3,-842.43 1641.48,-832.27 1660.22,-843.66 1660.22,-843.66"/>
</g>
<!-- deployment/cdi&#45;operator&#45;&gt;deployment/cdi&#45;apiserver -->
<g id="edge6" class="edge">
<title>deployment/cdi&#45;operator&#45;&gt;deployment/cdi&#45;apiserver</title>
<path fill="none" stroke="black" d="M1210.14,-755.27C1337.99,-761.45 1513.04,-769.91 1647.11,-776.39"/>
<polygon fill="black" stroke="black" points="1667.42,-777.37 1647.01,-785.39 1657.43,-776.89 1647.44,-776.4 1647.44,-776.4 1647.44,-776.4 1657.43,-776.89 1647.87,-767.41 1667.42,-777.37 1667.42,-777.37"/>
</g>
<!-- deployment/cdi&#45;uploadproxy -->
<g id="node12" class="node">
<title>deployment/cdi&#45;uploadproxy</title>
<path fill="none" stroke="black" d="M2028.5,-743C2028.5,-743 1665.5,-743 1665.5,-743 1659.5,-743 1653.5,-737 1653.5,-731 1653.5,-731 1653.5,-683 1653.5,-683 1653.5,-677 1659.5,-671 1665.5,-671 1665.5,-671 2028.5,-671 2028.5,-671 2034.5,-671 2040.5,-677 2040.5,-683 2040.5,-683 2040.5,-731 2040.5,-731 2040.5,-737 2034.5,-743 2028.5,-743"/>
<text text-anchor="middle" x="1847" y="-700.8" font-family="Courier,monospace" font-weight="bold" font-size="24.00">deployment/cdi&#45;uploadproxy</text>
</g>
<!-- deployment/cdi&#45;operator&#45;&gt;deployment/cdi&#45;uploadproxy -->
<g id="edge9" class="edge">
<title>deployment/cdi&#45;operator&#45;&gt;deployment/cdi&#45;uploadproxy</title>
<path fill="none" stroke="black" d="M1210.14,-738.52C1333.59,-732.4 1501.04,-724.1 1633.12,-717.55"/>
<polygon fill="black" stroke="black" points="1653.17,-716.56 1633.64,-726.54 1643.18,-717.05 1633.19,-717.55 1633.19,-717.55 1633.19,-717.55 1643.18,-717.05 1632.75,-708.56 1653.17,-716.56 1653.17,-716.56"/>
</g>
<!-- olm -->
<g id="node11" class="node">
<title>olm</title>
<path fill="none" stroke="black" d="M375,-506C375,-506 183,-506 183,-506 177,-506 171,-500 171,-494 171,-494 171,-446 171,-446 171,-440 177,-434 183,-434 183,-434 375,-434 375,-434 381,-434 387,-440 387,-446 387,-446 387,-494 387,-494 387,-500 381,-506 375,-506"/>
<text text-anchor="middle" x="279" y="-463.8" font-family="Courier,monospace" font-weight="bold" font-size="24.00">olm</text>
</g>
<!-- olm&#45;&gt;deployment/hco&#45;operator -->
<g id="edge11" class="edge">
<title>olm&#45;&gt;deployment/hco&#45;operator</title>
<path fill="none" stroke="black" d="M327.47,-506.2C405.25,-565.37 564.92,-686.21 702,-786 793.6,-852.68 900.66,-927.97 968.64,-975.44"/>
<polygon fill="black" stroke="black" points="985.04,-986.89 963.49,-982.83 976.84,-981.17 968.64,-975.44 968.64,-975.44 968.64,-975.44 976.84,-981.17 973.79,-968.06 985.04,-986.89 985.04,-986.89"/>
</g>
<!-- olm&#45;&gt;deployment/cdi&#45;operator -->
<g id="edge8" class="edge">
<title>olm&#45;&gt;deployment/cdi&#45;operator</title>
<path fill="none" stroke="black" d="M346.22,-506.05C427.86,-549.29 571.83,-621.6 702,-667 748.03,-683.05 798.71,-696.99 846.41,-708.54"/>
<polygon fill="black" stroke="black" points="865.94,-713.18 844.4,-717.31 856.21,-710.87 846.48,-708.56 846.48,-708.56 846.48,-708.56 856.21,-710.87 848.56,-699.8 865.94,-713.18 865.94,-713.18"/>
</g>
<!-- deployment/cluster&#45;network&#45;addons&#45;operator -->
<g id="node13" class="node">
<title>deployment/cluster&#45;network&#45;addons&#45;operator</title>
<path fill="none" stroke="black" d="M1333.5,-664C1333.5,-664 742.5,-664 742.5,-664 736.5,-664 730.5,-658 730.5,-652 730.5,-652 730.5,-604 730.5,-604 730.5,-598 736.5,-592 742.5,-592 742.5,-592 1333.5,-592 1333.5,-592 1339.5,-592 1345.5,-598 1345.5,-604 1345.5,-604 1345.5,-652 1345.5,-652 1345.5,-658 1339.5,-664 1333.5,-664"/>
<text text-anchor="middle" x="1038" y="-621.8" font-family="Courier,monospace" font-weight="bold" font-size="24.00">deployment/cluster&#45;network&#45;addons&#45;operator</text>
</g>
<!-- olm&#45;&gt;deployment/cluster&#45;network&#45;addons&#45;operator -->
<g id="edge10" class="edge">
<title>olm&#45;&gt;deployment/cluster&#45;network&#45;addons&#45;operator</title>
<path fill="none" stroke="black" d="M387.31,-504.94C471.95,-531.3 593.43,-566.47 702,-588 704.77,-588.55 707.56,-589.09 710.36,-589.63"/>
<polygon fill="black" stroke="black" points="730.44,-593.33 709.14,-598.56 720.61,-591.52 710.78,-589.71 710.78,-589.71 710.78,-589.71 720.61,-591.52 712.41,-580.86 730.44,-593.33 730.44,-593.33"/>
</g>
<!-- deployment/hco&#45;webhook -->
<g id="node14" class="node">
<title>deployment/hco&#45;webhook</title>
<path fill="none" stroke="black" d="M1191,-585C1191,-585 885,-585 885,-585 879,-585 873,-579 873,-573 873,-573 873,-525 873,-525 873,-519 879,-513 885,-513 885,-513 1191,-513 1191,-513 1197,-513 1203,-519 1203,-525 1203,-525 1203,-573 1203,-573 1203,-579 1197,-585 1191,-585"/>
<text text-anchor="middle" x="1038" y="-542.8" font-family="Courier,monospace" font-weight="bold" font-size="24.00">deployment/hco&#45;webhook</text>
</g>
<!-- olm&#45;&gt;deployment/hco&#45;webhook -->
<g id="edge12" class="edge">
<title>olm&#45;&gt;deployment/hco&#45;webhook</title>
<path fill="none" stroke="black" d="M387.25,-481.19C508.11,-493.81 706.7,-514.53 852.57,-529.75"/>
<polygon fill="black" stroke="black" points="872.79,-531.86 851.97,-538.74 862.85,-530.83 852.9,-529.79 852.9,-529.79 852.9,-529.79 862.85,-530.83 853.84,-520.84 872.79,-531.86 872.79,-531.86"/>
</g>
<!-- deployment/hostpath&#45;provisioner&#45;operator -->
<g id="node15" class="node">
<title>deployment/hostpath&#45;provisioner&#45;operator</title>
<path fill="none" stroke="black" d="M1319.5,-506C1319.5,-506 756.5,-506 756.5,-506 750.5,-506 744.5,-500 744.5,-494 744.5,-494 744.5,-446 744.5,-446 744.5,-440 750.5,-434 756.5,-434 756.5,-434 1319.5,-434 1319.5,-434 1325.5,-434 1331.5,-440 1331.5,-446 1331.5,-446 1331.5,-494 1331.5,-494 1331.5,-500 1325.5,-506 1319.5,-506"/>
<text text-anchor="middle" x="1038" y="-463.8" font-family="Courier,monospace" font-weight="bold" font-size="24.00">deployment/hostpath&#45;provisioner&#45;operator</text>
</g>
<!-- olm&#45;&gt;deployment/hostpath&#45;provisioner&#45;operator -->
<g id="edge13" class="edge">
<title>olm&#45;&gt;deployment/hostpath&#45;provisioner&#45;operator</title>
<path fill="none" stroke="black" d="M387.25,-470C475.16,-470 604.18,-470 724.14,-470"/>
<polygon fill="black" stroke="black" points="744.46,-470 724.47,-479 734.46,-470 724.46,-470 724.46,-470 724.46,-470 734.46,-470 724.46,-461 744.46,-470 744.46,-470"/>
</g>
<!-- deployment/hyperconverged&#45;cluster&#45;cli&#45;download -->
<g id="node16" class="node">
<title>deployment/hyperconverged&#45;cluster&#45;cli&#45;download</title>
<path fill="none" stroke="black" d="M1362,-427C1362,-427 714,-427 714,-427 708,-427 702,-421 702,-415 702,-415 702,-367 702,-367 702,-361 708,-355 714,-355 714,-355 1362,-355 1362,-355 1368,-355 1374,-361 1374,-367 1374,-367 1374,-415 1374,-415 1374,-421 1368,-427 1362,-427"/>
<text text-anchor="middle" x="1038" y="-384.8" font-family="Courier,monospace" font-weight="bold" font-size="24.00">deployment/hyperconverged&#45;cluster&#45;cli&#45;download</text>
</g>
<!-- olm&#45;&gt;deployment/hyperconverged&#45;cluster&#45;cli&#45;download -->
<g id="edge14" class="edge">
<title>olm&#45;&gt;deployment/hyperconverged&#45;cluster&#45;cli&#45;download</title>
<path fill="none" stroke="black" d="M387.25,-458.81C464.91,-450.7 574.67,-439.25 681.91,-428.06"/>
<polygon fill="black" stroke="black" points="701.89,-425.97 682.93,-437 691.95,-427.01 682,-428.05 682,-428.05 682,-428.05 691.95,-427.01 681.07,-419.1 701.89,-425.97 701.89,-425.97"/>
</g>
<!-- deployment/node&#45;maintenance&#45;operator -->
<g id="node19" class="node">
<title>deployment/node&#45;maintenance&#45;operator</title>
<path fill="none" stroke="black" d="M1291,-348C1291,-348 785,-348 785,-348 779,-348 773,-342 773,-336 773,-336 773,-288 773,-288 773,-282 779,-276 785,-276 785,-276 1291,-276 1291,-276 1297,-276 1303,-282 1303,-288 1303,-288 1303,-336 1303,-336 1303,-342 1297,-348 1291,-348"/>
<text text-anchor="middle" x="1038" y="-305.8" font-family="Courier,monospace" font-weight="bold" font-size="24.00">deployment/node&#45;maintenance&#45;operator</text>
</g>
<!-- olm&#45;&gt;deployment/node&#45;maintenance&#45;operator -->
<g id="edge17" class="edge">
<title>olm&#45;&gt;deployment/node&#45;maintenance&#45;operator</title>
<path fill="none" stroke="black" d="M387.3,-463.46C439.78,-458.03 503.26,-448.12 558,-430 627.1,-407.13 632.63,-374.04 702,-352 718.43,-346.78 735.5,-342.23 752.86,-338.27"/>
<polygon fill="black" stroke="black" points="772.56,-334.04 754.9,-347.04 762.79,-336.14 753.01,-338.24 753.01,-338.24 753.01,-338.24 762.79,-336.14 751.12,-329.44 772.56,-334.04 772.56,-334.04"/>
</g>
<!-- deployment/ssp&#45;operator -->
<g id="node20" class="node">
<title>deployment/ssp&#45;operator</title>
<path fill="none" stroke="black" d="M1198,-269C1198,-269 878,-269 878,-269 872,-269 866,-263 866,-257 866,-257 866,-209 866,-209 866,-203 872,-197 878,-197 878,-197 1198,-197 1198,-197 1204,-197 1210,-203 1210,-209 1210,-209 1210,-257 1210,-257 1210,-263 1204,-269 1198,-269"/>
<text text-anchor="middle" x="1038" y="-226.8" font-family="Courier,monospace" font-weight="bold" font-size="24.00">deployment/ssp&#45;operator</text>
</g>
<!-- olm&#45;&gt;deployment/ssp&#45;operator -->
<g id="edge18" class="edge">
<title>olm&#45;&gt;deployment/ssp&#45;operator</title>
<path fill="none" stroke="black" d="M387.2,-471.32C441.13,-467.94 505.93,-457.49 558,-430 641.73,-385.8 617.74,-316.19 702,-273 745.75,-250.57 796.82,-238.55 845.72,-232.52"/>
<polygon fill="black" stroke="black" points="865.78,-230.36 846.85,-241.45 855.83,-231.43 845.89,-232.51 845.89,-232.51 845.89,-232.51 855.83,-231.43 844.93,-223.56 865.78,-230.36 865.78,-230.36"/>
</g>
<!-- deployment/virt&#45;operator -->
<g id="node22" class="node">
<title>deployment/virt&#45;operator</title>
<path fill="none" stroke="black" d="M1205.5,-190C1205.5,-190 870.5,-190 870.5,-190 864.5,-190 858.5,-184 858.5,-178 858.5,-178 858.5,-130 858.5,-130 858.5,-124 864.5,-118 870.5,-118 870.5,-118 1205.5,-118 1205.5,-118 1211.5,-118 1217.5,-124 1217.5,-130 1217.5,-130 1217.5,-178 1217.5,-178 1217.5,-184 1211.5,-190 1205.5,-190"/>
<text text-anchor="middle" x="1038" y="-147.8" font-family="Courier,monospace" font-weight="bold" font-size="24.00">deployment/virt&#45;operator</text>
</g>
<!-- olm&#45;&gt;deployment/virt&#45;operator -->
<g id="edge21" class="edge">
<title>olm&#45;&gt;deployment/virt&#45;operator</title>
<path fill="none" stroke="black" d="M387.27,-475.54C442.33,-473.45 508.13,-462.88 558,-430 660.58,-362.36 598.61,-260.4 702,-194 742.19,-168.19 790.78,-154.76 838.33,-148.45"/>
<polygon fill="black" stroke="black" points="858.26,-146.2 839.39,-157.39 848.32,-147.32 838.38,-148.44 838.38,-148.44 838.38,-148.44 848.32,-147.32 837.37,-139.5 858.26,-146.2 858.26,-146.2"/>
</g>
<!-- deployment/kubemacpool&#45;cert&#45;manager -->
<g id="node17" class="node">
<title>deployment/kubemacpool&#45;cert&#45;manager</title>
<path fill="none" stroke="black" d="M2092.5,-664C2092.5,-664 1601.5,-664 1601.5,-664 1595.5,-664 1589.5,-658 1589.5,-652 1589.5,-652 1589.5,-604 1589.5,-604 1589.5,-598 1595.5,-592 1601.5,-592 1601.5,-592 2092.5,-592 2092.5,-592 2098.5,-592 2104.5,-598 2104.5,-604 2104.5,-604 2104.5,-652 2104.5,-652 2104.5,-658 2098.5,-664 2092.5,-664"/>
<text text-anchor="middle" x="1847" y="-621.8" font-family="Courier,monospace" font-weight="bold" font-size="24.00">deployment/kubemacpool&#45;cert&#45;manager</text>
</g>
<!-- deployment/cluster&#45;network&#45;addons&#45;operator&#45;&gt;deployment/kubemacpool&#45;cert&#45;manager -->
<g id="edge15" class="edge">
<title>deployment/cluster&#45;network&#45;addons&#45;operator&#45;&gt;deployment/kubemacpool&#45;cert&#45;manager</title>
<path fill="none" stroke="black" d="M1345.53,-628C1419.08,-628 1497.19,-628 1569.3,-628"/>
<polygon fill="black" stroke="black" points="1589.47,-628 1569.47,-637 1579.47,-628 1569.47,-628 1569.47,-628 1569.47,-628 1579.47,-628 1569.47,-619 1589.47,-628 1589.47,-628"/>
</g>
<!-- deployment/kubemacpool&#45;mac&#45;controller&#45;manager -->
<g id="node18" class="node">
<title>deployment/kubemacpool&#45;mac&#45;controller&#45;manager</title>
<path fill="none" stroke="black" d="M2164,-585C2164,-585 1530,-585 1530,-585 1524,-585 1518,-579 1518,-573 1518,-573 1518,-525 1518,-525 1518,-519 1524,-513 1530,-513 1530,-513 2164,-513 2164,-513 2170,-513 2176,-519 2176,-525 2176,-525 2176,-573 2176,-573 2176,-579 2170,-585 2164,-585"/>
<text text-anchor="middle" x="1847" y="-542.8" font-family="Courier,monospace" font-weight="bold" font-size="24.00">deployment/kubemacpool&#45;mac&#45;controller&#45;manager</text>
</g>
<!-- deployment/cluster&#45;network&#45;addons&#45;operator&#45;&gt;deployment/kubemacpool&#45;mac&#45;controller&#45;manager -->
<g id="edge16" class="edge">
<title>deployment/cluster&#45;network&#45;addons&#45;operator&#45;&gt;deployment/kubemacpool&#45;mac&#45;controller&#45;manager</title>
<path fill="none" stroke="black" d="M1345.53,-597.99C1395.31,-593.12 1447.19,-588.04 1497.87,-583.08"/>
<polygon fill="black" stroke="black" points="1517.99,-581.11 1498.96,-592.02 1508.04,-582.08 1498.08,-583.06 1498.08,-583.06 1498.08,-583.06 1508.04,-582.08 1497.21,-574.1 1517.99,-581.11 1517.99,-581.11"/>
</g>
<!-- daemonset/bridge&#45;marker -->
<g id="node25" class="node">
<title>daemonset/bridge&#45;marker</title>
<path fill="none" stroke="black" d="M2007,-506C2007,-506 1687,-506 1687,-506 1681,-506 1675,-500 1675,-494 1675,-494 1675,-446 1675,-446 1675,-440 1681,-434 1687,-434 1687,-434 2007,-434 2007,-434 2013,-434 2019,-440 2019,-446 2019,-446 2019,-494 2019,-494 2019,-500 2013,-506 2007,-506"/>
<text text-anchor="middle" x="1847" y="-463.8" font-family="Courier,monospace" font-weight="bold" font-size="24.00">daemonset/bridge&#45;marker</text>
</g>
<!-- deployment/cluster&#45;network&#45;addons&#45;operator&#45;&gt;daemonset/bridge&#45;marker -->
<g id="edge23" class="edge">
<title>deployment/cluster&#45;network&#45;addons&#45;operator&#45;&gt;daemonset/bridge&#45;marker</title>
<path fill="none" stroke="black" d="M1345.82,-596.16C1355.37,-593.64 1364.79,-590.93 1374,-588 1443.37,-565.96 1448.66,-532.13 1518,-510 1561.32,-496.18 1609.26,-487.08 1654.81,-481.1"/>
<polygon fill="black" stroke="black" points="1674.85,-478.65 1656.09,-490.01 1664.93,-479.87 1655,-481.08 1655,-481.08 1655,-481.08 1664.93,-479.87 1653.91,-472.15 1674.85,-478.65 1674.85,-478.65"/>
</g>
<!-- daemonset/kube&#45;cni&#45;linux&#45;bridge&#45;plugin -->
<g id="node26" class="node">
<title>daemonset/kube&#45;cni&#45;linux&#45;bridge&#45;plugin</title>
<path fill="none" stroke="black" d="M2114,-427C2114,-427 1580,-427 1580,-427 1574,-427 1568,-421 1568,-415 1568,-415 1568,-367 1568,-367 1568,-361 1574,-355 1580,-355 1580,-355 2114,-355 2114,-355 2120,-355 2126,-361 2126,-367 2126,-367 2126,-415 2126,-415 2126,-421 2120,-427 2114,-427"/>
<text text-anchor="middle" x="1847" y="-384.8" font-family="Courier,monospace" font-weight="bold" font-size="24.00">daemonset/kube&#45;cni&#45;linux&#45;bridge&#45;plugin</text>
</g>
<!-- deployment/cluster&#45;network&#45;addons&#45;operator&#45;&gt;daemonset/kube&#45;cni&#45;linux&#45;bridge&#45;plugin -->
<g id="edge24" class="edge">
<title>deployment/cluster&#45;network&#45;addons&#45;operator&#45;&gt;daemonset/kube&#45;cni&#45;linux&#45;bridge&#45;plugin</title>
<path fill="none" stroke="black" d="M1345.77,-600.71C1355.44,-596.9 1364.88,-592.68 1374,-588 1458.26,-544.81 1433.8,-474.3 1518,-431 1527.88,-425.92 1538.15,-421.37 1548.69,-417.32"/>
<polygon fill="black" stroke="black" points="1567.91,-410.54 1552.05,-425.68 1558.48,-413.86 1549.05,-417.19 1549.05,-417.19 1549.05,-417.19 1558.48,-413.86 1546.06,-408.7 1567.91,-410.54 1567.91,-410.54"/>
</g>
<!-- deployment/virt&#45;template&#45;validator -->
<g id="node24" class="node">
<title>deployment/virt&#45;template&#45;validator</title>
<path fill="none" stroke="black" d="M2085.5,-309C2085.5,-309 1608.5,-309 1608.5,-309 1602.5,-309 1596.5,-303 1596.5,-297 1596.5,-297 1596.5,-249 1596.5,-249 1596.5,-243 1602.5,-237 1608.5,-237 1608.5,-237 2085.5,-237 2085.5,-237 2091.5,-237 2097.5,-243 2097.5,-249 2097.5,-249 2097.5,-297 2097.5,-297 2097.5,-303 2091.5,-309 2085.5,-309"/>
<text text-anchor="middle" x="1847" y="-266.8" font-family="Courier,monospace" font-weight="bold" font-size="24.00">deployment/virt&#45;template&#45;validator</text>
</g>
<!-- deployment/ssp&#45;operator&#45;&gt;deployment/virt&#45;template&#45;validator -->
<g id="edge22" class="edge">
<title>deployment/ssp&#45;operator&#45;&gt;deployment/virt&#45;template&#45;validator</title>
<path fill="none" stroke="black" d="M1210.14,-241.48C1316.42,-246.75 1455.33,-253.64 1576.2,-259.63"/>
<polygon fill="black" stroke="black" points="1596.2,-260.62 1575.78,-268.62 1586.22,-260.12 1576.23,-259.63 1576.23,-259.63 1576.23,-259.63 1586.22,-260.12 1576.67,-250.64 1596.2,-260.62 1596.2,-260.62"/>
</g>
<!-- deployment/virt&#45;api -->
<g id="node21" class="node">
<title>deployment/virt&#45;api</title>
<path fill="none" stroke="black" d="M1978.5,-230C1978.5,-230 1715.5,-230 1715.5,-230 1709.5,-230 1703.5,-224 1703.5,-218 1703.5,-218 1703.5,-170 1703.5,-170 1703.5,-164 1709.5,-158 1715.5,-158 1715.5,-158 1978.5,-158 1978.5,-158 1984.5,-158 1990.5,-164 1990.5,-170 1990.5,-170 1990.5,-218 1990.5,-218 1990.5,-224 1984.5,-230 1978.5,-230"/>
<text text-anchor="middle" x="1847" y="-187.8" font-family="Courier,monospace" font-weight="bold" font-size="24.00">deployment/virt&#45;api</text>
</g>
<!-- deployment/virt&#45;operator&#45;&gt;deployment/virt&#45;api -->
<g id="edge19" class="edge">
<title>deployment/virt&#45;operator&#45;&gt;deployment/virt&#45;api</title>
<path fill="none" stroke="black" d="M1217.6,-162.85C1356.7,-169.75 1548.2,-179.24 1683.13,-185.93"/>
<polygon fill="black" stroke="black" points="1703.45,-186.93 1683.03,-194.93 1693.46,-186.44 1683.47,-185.94 1683.47,-185.94 1683.47,-185.94 1693.46,-186.44 1683.92,-176.96 1703.45,-186.93 1703.45,-186.93"/>
</g>
<!-- deployment/virt&#45;controller -->
<g id="node23" class="node">
<title>deployment/virt&#45;controller</title>
<path fill="none" stroke="black" d="M2028.5,-151C2028.5,-151 1665.5,-151 1665.5,-151 1659.5,-151 1653.5,-145 1653.5,-139 1653.5,-139 1653.5,-91 1653.5,-91 1653.5,-85 1659.5,-79 1665.5,-79 1665.5,-79 2028.5,-79 2028.5,-79 2034.5,-79 2040.5,-85 2040.5,-91 2040.5,-91 2040.5,-139 2040.5,-139 2040.5,-145 2034.5,-151 2028.5,-151"/>
<text text-anchor="middle" x="1847" y="-108.8" font-family="Courier,monospace" font-weight="bold" font-size="24.00">deployment/virt&#45;controller</text>
</g>
<!-- deployment/virt&#45;operator&#45;&gt;deployment/virt&#45;controller -->
<g id="edge20" class="edge">
<title>deployment/virt&#45;operator&#45;&gt;deployment/virt&#45;controller</title>
<path fill="none" stroke="black" d="M1217.6,-145.37C1340.35,-139.44 1503.89,-131.53 1633.37,-125.28"/>
<polygon fill="black" stroke="black" points="1653.43,-124.31 1633.89,-134.26 1643.45,-124.79 1633.46,-125.27 1633.46,-125.27 1633.46,-125.27 1643.45,-124.79 1633.02,-116.28 1653.43,-124.31 1653.43,-124.31"/>
</g>
<!-- daemonset/virt&#45;handler -->
<g id="node27" class="node">
<title>daemonset/virt&#45;handler</title>
<path fill="none" stroke="black" d="M2000,-72C2000,-72 1694,-72 1694,-72 1688,-72 1682,-66 1682,-60 1682,-60 1682,-12 1682,-12 1682,-6 1688,0 1694,0 1694,0 2000,0 2000,0 2006,0 2012,-6 2012,-12 2012,-12 2012,-60 2012,-60 2012,-66 2006,-72 2000,-72"/>
<text text-anchor="middle" x="1847" y="-29.8" font-family="Courier,monospace" font-weight="bold" font-size="24.00">daemonset/virt&#45;handler</text>
</g>
<!-- deployment/virt&#45;operator&#45;&gt;daemonset/virt&#45;handler -->
<g id="edge25" class="edge">
<title>deployment/virt&#45;operator&#45;&gt;daemonset/virt&#45;handler</title>
<path fill="none" stroke="black" d="M1217.59,-123.17C1307.56,-108.09 1418.42,-90.17 1518,-76 1564.59,-69.37 1615,-62.88 1662,-57.12"/>
<polygon fill="black" stroke="black" points="1681.91,-54.7 1663.14,-66.05 1671.98,-55.91 1662.06,-57.12 1662.06,-57.12 1662.06,-57.12 1671.98,-55.91 1660.97,-48.18 1681.91,-54.7 1681.91,-54.7"/>
</g>
</g>
</svg>
