<?xml version="1.0" encoding="UTF-8" standalone="no"?>
<!DOCTYPE svg PUBLIC "-//W3C//DTD SVG 1.1//EN"
 "http://www.w3.org/Graphics/SVG/1.1/DTD/svg11.dtd">
<!-- Generated by graphviz version 2.40.1 (0)
 -->
<!-- Title: managed&#45;by Pages: 1 -->
<svg width="2573pt" height="1294pt"
 viewBox="14.40 14.40 2558.40 1279.40" xmlns="http://www.w3.org/2000/svg" xmlns:xlink="http://www.w3.org/1999/xlink">
<g id="graph0" class="graph" transform="scale(1 1) rotate(0) translate(18.4 1275.4)">
<title>managed&#45;by</title>
<polygon fill="#ffffff" stroke="transparent" points="-4,4 -4,-1261 2540,-1261 2540,4 -4,4"/>
<!-- HyperConverged/kubevirt&#45;hyperconverged -->
<g id="node1" class="node">
<title>HyperConverged/kubevirt&#45;hyperconverged</title>
<path fill="none" stroke="#000000" d="M546,-388C546,-388 12,-388 12,-388 6,-388 0,-382 0,-376 0,-376 0,-328 0,-328 0,-322 6,-316 12,-316 12,-316 546,-316 546,-316 552,-316 558,-322 558,-328 558,-328 558,-376 558,-376 558,-382 552,-388 546,-388"/>
<text text-anchor="middle" x="279" y="-345.8" font-family="Courier,monospace" font-weight="bold" font-size="24.00" fill="#000000">HyperConverged/kubevirt&#45;hyperconverged</text>
</g>
<!-- KubeVirt/kubevirt&#45;kubevirt&#45;hyperconverged -->
<g id="node2" class="node">
<title>KubeVirt/kubevirt&#45;kubevirt&#45;hyperconverged</title>
<path fill="none" stroke="#000000" d="M2135.5,-1257C2135.5,-1257 1558.5,-1257 1558.5,-1257 1552.5,-1257 1546.5,-1251 1546.5,-1245 1546.5,-1245 1546.5,-1197 1546.5,-1197 1546.5,-1191 1552.5,-1185 1558.5,-1185 1558.5,-1185 2135.5,-1185 2135.5,-1185 2141.5,-1185 2147.5,-1191 2147.5,-1197 2147.5,-1197 2147.5,-1245 2147.5,-1245 2147.5,-1251 2141.5,-1257 2135.5,-1257"/>
<text text-anchor="middle" x="1847" y="-1214.8" font-family="Courier,monospace" font-weight="bold" font-size="24.00" fill="#000000">KubeVirt/kubevirt&#45;kubevirt&#45;hyperconverged</text>
</g>
<!-- deployment/hco&#45;operator -->
<g id="node3" class="node">
<title>deployment/hco&#45;operator</title>
<path fill="none" stroke="#000000" d="M1198,-1059C1198,-1059 878,-1059 878,-1059 872,-1059 866,-1053 866,-1047 866,-1047 866,-999 866,-999 866,-993 872,-987 878,-987 878,-987 1198,-987 1198,-987 1204,-987 1210,-993 1210,-999 1210,-999 1210,-1047 1210,-1047 1210,-1053 1204,-1059 1198,-1059"/>
<text text-anchor="middle" x="1038" y="-1016.8" font-family="Courier,monospace" font-weight="bold" font-size="24.00" fill="#000000">deployment/hco&#45;operator</text>
</g>
<!-- deployment/hco&#45;operator&#45;&gt;KubeVirt/kubevirt&#45;kubevirt&#45;hyperconverged -->
<g id="edge1" class="edge">
<title>deployment/hco&#45;operator&#45;&gt;KubeVirt/kubevirt&#45;kubevirt&#45;hyperconverged</title>
<path fill="none" stroke="#000000" d="M1129.4013,-1059.0832C1224.8727,-1095.3427 1379.7123,-1150.15 1518,-1181 1520.7509,-1181.6137 1523.5169,-1182.2185 1526.2966,-1182.8146"/>
<polygon fill="#000000" stroke="#000000" points="1546.2544,-1186.9048 1524.8547,-1191.7061 1536.4581,-1184.8971 1526.6617,-1182.8894 1526.6617,-1182.8894 1526.6617,-1182.8894 1536.4581,-1184.8971 1528.4686,-1174.0726 1546.2544,-1186.9048 1546.2544,-1186.9048"/>
</g>
<!-- SSP/ssp&#45;kubevirt&#45;hyperconverged -->
<g id="node4" class="node">
<title>SSP/ssp&#45;kubevirt&#45;hyperconverged</title>
<path fill="none" stroke="#000000" d="M2064,-1178C2064,-1178 1630,-1178 1630,-1178 1624,-1178 1618,-1172 1618,-1166 1618,-1166 1618,-1118 1618,-1118 1618,-1112 1624,-1106 1630,-1106 1630,-1106 2064,-1106 2064,-1106 2070,-1106 2076,-1112 2076,-1118 2076,-1118 2076,-1166 2076,-1166 2076,-1172 2070,-1178 2064,-1178"/>
<text text-anchor="middle" x="1847" y="-1135.8" font-family="Courier,monospace" font-weight="bold" font-size="24.00" fill="#000000">SSP/ssp&#45;kubevirt&#45;hyperconverged</text>
</g>
<!-- deployment/hco&#45;operator&#45;&gt;SSP/ssp&#45;kubevirt&#45;hyperconverged -->
<g id="edge2" class="edge">
<title>deployment/hco&#45;operator&#45;&gt;SSP/ssp&#45;kubevirt&#45;hyperconverged</title>
<path fill="none" stroke="#000000" d="M1210.1853,-1053.1423C1301.509,-1068.6726 1415.6899,-1087.3679 1518,-1102 1543.7707,-1105.6856 1570.7085,-1109.3179 1597.5961,-1112.8006"/>
<polygon fill="#000000" stroke="#000000" points="1617.6354,-1115.3706 1596.653,-1121.7533 1607.7166,-1114.0985 1597.7979,-1112.8264 1597.7979,-1112.8264 1597.7979,-1112.8264 1607.7166,-1114.0985 1598.9428,-1103.8995 1617.6354,-1115.3706 1617.6354,-1115.3706"/>
</g>
<!-- CDI/cdi&#45;kubevirt&#45;hyperconverged -->
<g id="node5" class="node">
<title>CDI/cdi&#45;kubevirt&#45;hyperconverged</title>
<path fill="none" stroke="#000000" d="M2064,-1099C2064,-1099 1630,-1099 1630,-1099 1624,-1099 1618,-1093 1618,-1087 1618,-1087 1618,-1039 1618,-1039 1618,-1033 1624,-1027 1630,-1027 1630,-1027 2064,-1027 2064,-1027 2070,-1027 2076,-1033 2076,-1039 2076,-1039 2076,-1087 2076,-1087 2076,-1093 2070,-1099 2064,-1099"/>
<text text-anchor="middle" x="1847" y="-1056.8" font-family="Courier,monospace" font-weight="bold" font-size="24.00" fill="#000000">CDI/cdi&#45;kubevirt&#45;hyperconverged</text>
</g>
<!-- deployment/hco&#45;operator&#45;&gt;CDI/cdi&#45;kubevirt&#45;hyperconverged -->
<g id="edge3" class="edge">
<title>deployment/hco&#45;operator&#45;&gt;CDI/cdi&#45;kubevirt&#45;hyperconverged</title>
<path fill="none" stroke="#000000" d="M1210.0631,-1031.5074C1322.7934,-1037.0813 1471.981,-1044.4577 1597.6316,-1050.6703"/>
<polygon fill="#000000" stroke="#000000" points="1617.9866,-1051.6767 1597.5665,-1059.678 1607.9988,-1051.1828 1598.011,-1050.689 1598.011,-1050.689 1598.011,-1050.689 1607.9988,-1051.1828 1598.4555,-1041.6999 1617.9866,-1051.6767 1617.9866,-1051.6767"/>
</g>
<!-- NetworkAddonsConfig/cluster -->
<g id="node8" class="node">
<title>NetworkAddonsConfig/cluster</title>
<path fill="none" stroke="#000000" d="M2028.5,-1020C2028.5,-1020 1665.5,-1020 1665.5,-1020 1659.5,-1020 1653.5,-1014 1653.5,-1008 1653.5,-1008 1653.5,-960 1653.5,-960 1653.5,-954 1659.5,-948 1665.5,-948 1665.5,-948 2028.5,-948 2028.5,-948 2034.5,-948 2040.5,-954 2040.5,-960 2040.5,-960 2040.5,-1008 2040.5,-1008 2040.5,-1014 2034.5,-1020 2028.5,-1020"/>
<text text-anchor="middle" x="1847" y="-977.8" font-family="Courier,monospace" font-weight="bold" font-size="24.00" fill="#000000">NetworkAddonsConfig/cluster</text>
</g>
<!-- deployment/hco&#45;operator&#45;&gt;NetworkAddonsConfig/cluster -->
<g id="edge5" class="edge">
<title>deployment/hco&#45;operator&#45;&gt;NetworkAddonsConfig/cluster</title>
<path fill="none" stroke="#000000" d="M1210.0631,-1014.7052C1333.6221,-1008.7487 1500.979,-1000.6809 1633.1364,-994.3099"/>
<polygon fill="#000000" stroke="#000000" points="1653.2002,-993.3426 1633.6568,-1003.2953 1643.2118,-993.8242 1633.2234,-994.3058 1633.2234,-994.3058 1633.2234,-994.3058 1643.2118,-993.8242 1632.79,-985.3162 1653.2002,-993.3426 1653.2002,-993.3426"/>
</g>
<!-- deployment/kubevirt&#45;plugin -->
<g id="node19" class="node">
<title>deployment/kubevirt&#45;plugin</title>
<path fill="none" stroke="#000000" d="M2028.5,-941C2028.5,-941 1665.5,-941 1665.5,-941 1659.5,-941 1653.5,-935 1653.5,-929 1653.5,-929 1653.5,-881 1653.5,-881 1653.5,-875 1659.5,-869 1665.5,-869 1665.5,-869 2028.5,-869 2028.5,-869 2034.5,-869 2040.5,-875 2040.5,-881 2040.5,-881 2040.5,-929 2040.5,-929 2040.5,-935 2034.5,-941 2028.5,-941"/>
<text text-anchor="middle" x="1847" y="-898.8" font-family="Courier,monospace" font-weight="bold" font-size="24.00" fill="#000000">deployment/kubevirt&#45;plugin</text>
</g>
<!-- deployment/hco&#45;operator&#45;&gt;deployment/kubevirt&#45;plugin -->
<g id="edge17" class="edge">
<title>deployment/hco&#45;operator&#45;&gt;deployment/kubevirt&#45;plugin</title>
<path fill="none" stroke="#000000" d="M1210.201,-993.3019C1301.529,-977.9855 1415.7091,-959.5235 1518,-945 1555.2324,-939.7137 1594.8977,-934.5194 1633.327,-929.7147"/>
<polygon fill="#000000" stroke="#000000" points="1653.2909,-927.2393 1634.5504,-938.632 1643.3669,-928.4699 1633.4429,-929.7004 1633.4429,-929.7004 1633.4429,-929.7004 1643.3669,-928.4699 1632.3354,-920.7688 1653.2909,-927.2393 1653.2909,-927.2393"/>
</g>
<!-- CDIConfig/config -->
<g id="node6" class="node">
<title>CDIConfig/config</title>
<path fill="none" stroke="#000000" d="M2524,-862C2524,-862 2332,-862 2332,-862 2326,-862 2320,-856 2320,-850 2320,-850 2320,-802 2320,-802 2320,-796 2326,-790 2332,-790 2332,-790 2524,-790 2524,-790 2530,-790 2536,-796 2536,-802 2536,-802 2536,-850 2536,-850 2536,-856 2530,-862 2524,-862"/>
<text text-anchor="middle" x="2428" y="-819.8" font-family="Courier,monospace" font-weight="bold" font-size="24.00" fill="#000000">CDIConfig/config</text>
</g>
<!-- deployment/cdi&#45;deployment -->
<g id="node7" class="node">
<title>deployment/cdi&#45;deployment</title>
<path fill="none" stroke="#000000" d="M2021.5,-862C2021.5,-862 1672.5,-862 1672.5,-862 1666.5,-862 1660.5,-856 1660.5,-850 1660.5,-850 1660.5,-802 1660.5,-802 1660.5,-796 1666.5,-790 1672.5,-790 1672.5,-790 2021.5,-790 2021.5,-790 2027.5,-790 2033.5,-796 2033.5,-802 2033.5,-802 2033.5,-850 2033.5,-850 2033.5,-856 2027.5,-862 2021.5,-862"/>
<text text-anchor="middle" x="1847" y="-819.8" font-family="Courier,monospace" font-weight="bold" font-size="24.00" fill="#000000">deployment/cdi&#45;deployment</text>
</g>
<!-- deployment/cdi&#45;deployment&#45;&gt;CDIConfig/config -->
<g id="edge4" class="edge">
<title>deployment/cdi&#45;deployment&#45;&gt;CDIConfig/config</title>
<path fill="none" stroke="#000000" d="M2033.6297,-826C2120.4412,-826 2221.5049,-826 2299.5891,-826"/>
<polygon fill="#000000" stroke="#000000" points="2319.9453,-826 2299.9453,-835.0001 2309.9453,-826 2299.9453,-826.0001 2299.9453,-826.0001 2299.9453,-826.0001 2309.9453,-826 2299.9452,-817.0001 2319.9453,-826 2319.9453,-826"/>
</g>
<!-- deployment/cdi&#45;apiserver -->
<g id="node9" class="node">
<title>deployment/cdi&#45;apiserver</title>
<path fill="none" stroke="#000000" d="M2014.5,-783C2014.5,-783 1679.5,-783 1679.5,-783 1673.5,-783 1667.5,-777 1667.5,-771 1667.5,-771 1667.5,-723 1667.5,-723 1667.5,-717 1673.5,-711 1679.5,-711 1679.5,-711 2014.5,-711 2014.5,-711 2020.5,-711 2026.5,-717 2026.5,-723 2026.5,-723 2026.5,-771 2026.5,-771 2026.5,-777 2020.5,-783 2014.5,-783"/>
<text text-anchor="middle" x="1847" y="-740.8" font-family="Courier,monospace" font-weight="bold" font-size="24.00" fill="#000000">deployment/cdi&#45;apiserver</text>
</g>
<!-- deployment/cdi&#45;operator -->
<g id="node10" class="node">
<title>deployment/cdi&#45;operator</title>
<path fill="none" stroke="#000000" d="M1198,-744C1198,-744 878,-744 878,-744 872,-744 866,-738 866,-732 866,-732 866,-684 866,-684 866,-678 872,-672 878,-672 878,-672 1198,-672 1198,-672 1204,-672 1210,-678 1210,-684 1210,-684 1210,-732 1210,-732 1210,-738 1204,-744 1198,-744"/>
<text text-anchor="middle" x="1038" y="-701.8" font-family="Courier,monospace" font-weight="bold" font-size="24.00" fill="#000000">deployment/cdi&#45;operator</text>
</g>
<!-- deployment/cdi&#45;operator&#45;&gt;deployment/cdi&#45;deployment -->
<g id="edge7" class="edge">
<title>deployment/cdi&#45;operator&#45;&gt;deployment/cdi&#45;deployment</title>
<path fill="none" stroke="#000000" d="M1210.201,-737.6981C1301.529,-753.0145 1415.7091,-771.4765 1518,-786 1557.4424,-791.6001 1599.6151,-797.0969 1640.1562,-802.1367"/>
<polygon fill="#000000" stroke="#000000" points="1660.2252,-804.6113 1639.2741,-811.096 1650.3004,-803.3874 1640.3755,-802.1636 1640.3755,-802.1636 1640.3755,-802.1636 1650.3004,-803.3874 1641.477,-793.2313 1660.2252,-804.6113 1660.2252,-804.6113"/>
</g>
<!-- deployment/cdi&#45;operator&#45;&gt;deployment/cdi&#45;apiserver -->
<g id="edge6" class="edge">
<title>deployment/cdi&#45;operator&#45;&gt;deployment/cdi&#45;apiserver</title>
<path fill="none" stroke="#000000" d="M1210.0631,-716.2948C1338.035,-722.464 1512.9889,-730.8981 1647.1578,-737.3661"/>
<polygon fill="#000000" stroke="#000000" points="1667.4861,-738.3461 1647.0759,-746.3725 1657.4977,-737.8645 1647.5093,-737.3829 1647.5093,-737.3829 1647.5093,-737.3829 1657.4977,-737.8645 1647.9427,-728.3934 1667.4861,-738.3461 1667.4861,-738.3461"/>
</g>
<!-- deployment/cdi&#45;uploadproxy -->
<g id="node12" class="node">
<title>deployment/cdi&#45;uploadproxy</title>
<path fill="none" stroke="#000000" d="M2028.5,-704C2028.5,-704 1665.5,-704 1665.5,-704 1659.5,-704 1653.5,-698 1653.5,-692 1653.5,-692 1653.5,-644 1653.5,-644 1653.5,-638 1659.5,-632 1665.5,-632 1665.5,-632 2028.5,-632 2028.5,-632 2034.5,-632 2040.5,-638 2040.5,-644 2040.5,-644 2040.5,-692 2040.5,-692 2040.5,-698 2034.5,-704 2028.5,-704"/>
<text text-anchor="middle" x="1847" y="-661.8" font-family="Courier,monospace" font-weight="bold" font-size="24.00" fill="#000000">deployment/cdi&#45;uploadproxy</text>
</g>
<!-- deployment/cdi&#45;operator&#45;&gt;deployment/cdi&#45;uploadproxy -->
<g id="edge9" class="edge">
<title>deployment/cdi&#45;operator&#45;&gt;deployment/cdi&#45;uploadproxy</title>
<path fill="none" stroke="#000000" d="M1210.0631,-699.4926C1333.6221,-693.3833 1500.979,-685.1086 1633.1364,-678.5742"/>
<polygon fill="#000000" stroke="#000000" points="1653.2002,-677.5822 1633.6691,-687.559 1643.2124,-678.0761 1633.2246,-678.57 1633.2246,-678.57 1633.2246,-678.57 1643.2124,-678.0761 1632.7801,-669.5809 1653.2002,-677.5822 1653.2002,-677.5822"/>
</g>
<!-- olm -->
<g id="node11" class="node">
<title>olm</title>
<path fill="none" stroke="#000000" d="M375,-467C375,-467 183,-467 183,-467 177,-467 171,-461 171,-455 171,-455 171,-407 171,-407 171,-401 177,-395 183,-395 183,-395 375,-395 375,-395 381,-395 387,-401 387,-407 387,-407 387,-455 387,-455 387,-461 381,-467 375,-467"/>
<text text-anchor="middle" x="279" y="-424.8" font-family="Courier,monospace" font-weight="bold" font-size="24.00" fill="#000000">olm</text>
</g>
<!-- olm&#45;&gt;deployment/hco&#45;operator -->
<g id="edge11" class="edge">
<title>olm&#45;&gt;deployment/hco&#45;operator</title>
<path fill="none" stroke="#000000" d="M325.3363,-467.1411C455.9641,-569.0274 827.3066,-858.6647 975.6571,-974.3742"/>
<polygon fill="#000000" stroke="#000000" points="991.789,-986.9567 970.4836,-981.7529 983.9039,-980.8065 976.0188,-974.6562 976.0188,-974.6562 976.0188,-974.6562 983.9039,-980.8065 981.554,-967.5596 991.789,-986.9567 991.789,-986.9567"/>
</g>
<!-- olm&#45;&gt;deployment/cdi&#45;operator -->
<g id="edge8" class="edge">
<title>olm&#45;&gt;deployment/cdi&#45;operator</title>
<path fill="none" stroke="#000000" d="M345.379,-467.0579C427.2272,-510.3 571.5451,-582.6156 702,-628 747.9188,-643.9749 798.4549,-657.8554 846.0776,-669.3659"/>
<polygon fill="#000000" stroke="#000000" points="865.576,-673.9879 844.0393,-678.1321 855.8456,-671.6813 846.1152,-669.3747 846.1152,-669.3747 846.1152,-669.3747 855.8456,-671.6813 848.1911,-660.6174 865.576,-673.9879 865.576,-673.9879"/>
</g>
<!-- deployment/cluster&#45;network&#45;addons&#45;operator -->
<g id="node13" class="node">
<title>deployment/cluster&#45;network&#45;addons&#45;operator</title>
<path fill="none" stroke="#000000" d="M1333.5,-625C1333.5,-625 742.5,-625 742.5,-625 736.5,-625 730.5,-619 730.5,-613 730.5,-613 730.5,-565 730.5,-565 730.5,-559 736.5,-553 742.5,-553 742.5,-553 1333.5,-553 1333.5,-553 1339.5,-553 1345.5,-559 1345.5,-565 1345.5,-565 1345.5,-613 1345.5,-613 1345.5,-619 1339.5,-625 1333.5,-625"/>
<text text-anchor="middle" x="1038" y="-582.8" font-family="Courier,monospace" font-weight="bold" font-size="24.00" fill="#000000">deployment/cluster&#45;network&#45;addons&#45;operator</text>
</g>
<!-- olm&#45;&gt;deployment/cluster&#45;network&#45;addons&#45;operator -->
<g id="edge10" class="edge">
<title>olm&#45;&gt;deployment/cluster&#45;network&#45;addons&#45;operator</title>
<path fill="none" stroke="#000000" d="M387.0082,-466.0812C471.8308,-492.4219 593.3639,-527.5132 702,-549 704.7374,-549.5414 707.4888,-550.0765 710.2529,-550.6053"/>
<polygon fill="#000000" stroke="#000000" points="730.0856,-554.2579 708.7863,-559.4865 720.251,-552.4466 710.4164,-550.6354 710.4164,-550.6354 710.4164,-550.6354 720.251,-552.4466 712.0465,-541.7842 730.0856,-554.2579 730.0856,-554.2579"/>
</g>
<!-- deployment/hco&#45;webhook -->
<g id="node14" class="node">
<title>deployment/hco&#45;webhook</title>
<path fill="none" stroke="#000000" d="M1191,-546C1191,-546 885,-546 885,-546 879,-546 873,-540 873,-534 873,-534 873,-486 873,-486 873,-480 879,-474 885,-474 885,-474 1191,-474 1191,-474 1197,-474 1203,-480 1203,-486 1203,-486 1203,-534 1203,-534 1203,-540 1197,-546 1191,-546"/>
<text text-anchor="middle" x="1038" y="-503.8" font-family="Courier,monospace" font-weight="bold" font-size="24.00" fill="#000000">deployment/hco&#45;webhook</text>
</g>
<!-- olm&#45;&gt;deployment/hco&#45;webhook -->
<g id="edge12" class="edge">
<title>olm&#45;&gt;deployment/hco&#45;webhook</title>
<path fill="none" stroke="#000000" d="M387.3429,-442.2768C508.4156,-454.8786 706.5647,-475.5028 852.4362,-490.6857"/>
<polygon fill="#000000" stroke="#000000" points="872.6589,-492.7906 851.8346,-499.6716 862.7127,-491.7553 852.7664,-490.72 852.7664,-490.72 852.7664,-490.72 862.7127,-491.7553 853.6982,-481.7684 872.6589,-492.7906 872.6589,-492.7906"/>
</g>
<!-- deployment/hostpath&#45;provisioner&#45;operator -->
<g id="node15" class="node">
<title>deployment/hostpath&#45;provisioner&#45;operator</title>
<path fill="none" stroke="#000000" d="M1319.5,-467C1319.5,-467 756.5,-467 756.5,-467 750.5,-467 744.5,-461 744.5,-455 744.5,-455 744.5,-407 744.5,-407 744.5,-401 750.5,-395 756.5,-395 756.5,-395 1319.5,-395 1319.5,-395 1325.5,-395 1331.5,-401 1331.5,-407 1331.5,-407 1331.5,-455 1331.5,-455 1331.5,-461 1325.5,-467 1319.5,-467"/>
<text text-anchor="middle" x="1038" y="-424.8" font-family="Courier,monospace" font-weight="bold" font-size="24.00" fill="#000000">deployment/hostpath&#45;provisioner&#45;operator</text>
</g>
<!-- olm&#45;&gt;deployment/hostpath&#45;provisioner&#45;operator -->
<g id="edge13" class="edge">
<title>olm&#45;&gt;deployment/hostpath&#45;provisioner&#45;operator</title>
<path fill="none" stroke="#000000" d="M387.3429,-431C475.4223,-431 604.294,-431 724.1539,-431"/>
<polygon fill="#000000" stroke="#000000" points="744.4673,-431 724.4673,-440.0001 734.4673,-431 724.4673,-431.0001 724.4673,-431.0001 724.4673,-431.0001 734.4673,-431 724.4672,-422.0001 744.4673,-431 744.4673,-431"/>
</g>
<!-- deployment/hyperconverged&#45;cluster&#45;cli&#45;download -->
<g id="node16" class="node">
<title>deployment/hyperconverged&#45;cluster&#45;cli&#45;download</title>
<path fill="none" stroke="#000000" d="M1362,-388C1362,-388 714,-388 714,-388 708,-388 702,-382 702,-376 702,-376 702,-328 702,-328 702,-322 708,-316 714,-316 714,-316 1362,-316 1362,-316 1368,-316 1374,-322 1374,-328 1374,-328 1374,-376 1374,-376 1374,-382 1368,-388 1362,-388"/>
<text text-anchor="middle" x="1038" y="-345.8" font-family="Courier,monospace" font-weight="bold" font-size="24.00" fill="#000000">deployment/hyperconverged&#45;cluster&#45;cli&#45;download</text>
</g>
<!-- olm&#45;&gt;deployment/hyperconverged&#45;cluster&#45;cli&#45;download -->
<g id="edge14" class="edge">
<title>olm&#45;&gt;deployment/hyperconverged&#45;cluster&#45;cli&#45;download</title>
<path fill="none" stroke="#000000" d="M387.3429,-419.7232C465.1353,-411.6262 574.748,-400.2173 681.8683,-389.0677"/>
<polygon fill="#000000" stroke="#000000" points="701.8328,-386.9897 682.8721,-398.012 691.8866,-388.025 681.9403,-389.0603 681.9403,-389.0603 681.9403,-389.0603 691.8866,-388.025 681.0085,-380.1087 701.8328,-386.9897 701.8328,-386.9897"/>
</g>
<!-- deployment/ssp&#45;operator -->
<g id="node20" class="node">
<title>deployment/ssp&#45;operator</title>
<path fill="none" stroke="#000000" d="M1198,-309C1198,-309 878,-309 878,-309 872,-309 866,-303 866,-297 866,-297 866,-249 866,-249 866,-243 872,-237 878,-237 878,-237 1198,-237 1198,-237 1204,-237 1210,-243 1210,-249 1210,-249 1210,-297 1210,-297 1210,-303 1204,-309 1198,-309"/>
<text text-anchor="middle" x="1038" y="-266.8" font-family="Courier,monospace" font-weight="bold" font-size="24.00" fill="#000000">deployment/ssp&#45;operator</text>
</g>
<!-- olm&#45;&gt;deployment/ssp&#45;operator -->
<g id="edge18" class="edge">
<title>olm&#45;&gt;deployment/ssp&#45;operator</title>
<path fill="none" stroke="#000000" d="M387.0241,-424.467C439.6197,-419.046 503.1798,-409.131 558,-391 627.1044,-368.1447 632.6274,-335.0276 702,-313 747.5412,-298.5395 798.0621,-289.23 845.801,-283.258"/>
<polygon fill="#000000" stroke="#000000" points="865.7102,-280.9363 846.8873,-292.1924 855.7775,-282.0946 845.8448,-283.253 845.8448,-283.253 845.8448,-283.253 855.7775,-282.0946 844.8023,-274.3136 865.7102,-280.9363 865.7102,-280.9363"/>
</g>
<!-- deployment/tekton&#45;tasks&#45;operator -->
<g id="node21" class="node">
<title>deployment/tekton&#45;tasks&#45;operator</title>
<path fill="none" stroke="#000000" d="M1262.5,-230C1262.5,-230 813.5,-230 813.5,-230 807.5,-230 801.5,-224 801.5,-218 801.5,-218 801.5,-170 801.5,-170 801.5,-164 807.5,-158 813.5,-158 813.5,-158 1262.5,-158 1262.5,-158 1268.5,-158 1274.5,-164 1274.5,-170 1274.5,-170 1274.5,-218 1274.5,-218 1274.5,-224 1268.5,-230 1262.5,-230"/>
<text text-anchor="middle" x="1038" y="-187.8" font-family="Courier,monospace" font-weight="bold" font-size="24.00" fill="#000000">deployment/tekton&#45;tasks&#45;operator</text>
</g>
<!-- olm&#45;&gt;deployment/tekton&#45;tasks&#45;operator -->
<g id="edge19" class="edge">
<title>olm&#45;&gt;deployment/tekton&#45;tasks&#45;operator</title>
<path fill="none" stroke="#000000" d="M387.2524,-432.3481C441.247,-428.9456 505.9574,-418.4574 558,-391 641.7428,-346.8176 617.735,-277.1781 702,-234 726.7305,-221.3279 753.7935,-211.9731 781.4828,-205.1424"/>
<polygon fill="#000000" stroke="#000000" points="801.2289,-200.7053 783.6886,-213.8712 791.4722,-202.8977 781.7155,-205.0902 781.7155,-205.0902 781.7155,-205.0902 791.4722,-202.8977 779.7423,-196.3091 801.2289,-200.7053 801.2289,-200.7053"/>
</g>
<!-- deployment/virt&#45;operator -->
<g id="node23" class="node">
<title>deployment/virt&#45;operator</title>
<path fill="none" stroke="#000000" d="M1205.5,-151C1205.5,-151 870.5,-151 870.5,-151 864.5,-151 858.5,-145 858.5,-139 858.5,-139 858.5,-91 858.5,-91 858.5,-85 864.5,-79 870.5,-79 870.5,-79 1205.5,-79 1205.5,-79 1211.5,-79 1217.5,-85 1217.5,-91 1217.5,-91 1217.5,-139 1217.5,-139 1217.5,-145 1211.5,-151 1205.5,-151"/>
<text text-anchor="middle" x="1038" y="-108.8" font-family="Courier,monospace" font-weight="bold" font-size="24.00" fill="#000000">deployment/virt&#45;operator</text>
</g>
<!-- olm&#45;&gt;deployment/virt&#45;operator -->
<g id="edge22" class="edge">
<title>olm&#45;&gt;deployment/virt&#45;operator</title>
<path fill="none" stroke="#000000" d="M387.3285,-436.5953C442.4514,-434.4732 508.1523,-423.8489 558,-391 660.5985,-323.3891 598.6006,-221.3796 702,-155 742.2092,-129.1868 790.7863,-115.7386 838.3549,-109.4039"/>
<polygon fill="#000000" stroke="#000000" points="858.2927,-107.143 839.4342,-118.3393 848.3564,-108.2698 838.4201,-109.3966 838.4201,-109.3966 838.4201,-109.3966 848.3564,-108.2698 837.4059,-100.4539 858.2927,-107.143 858.2927,-107.143"/>
</g>
<!-- deployment/kubemacpool&#45;cert&#45;manager -->
<g id="node17" class="node">
<title>deployment/kubemacpool&#45;cert&#45;manager</title>
<path fill="none" stroke="#000000" d="M2092.5,-625C2092.5,-625 1601.5,-625 1601.5,-625 1595.5,-625 1589.5,-619 1589.5,-613 1589.5,-613 1589.5,-565 1589.5,-565 1589.5,-559 1595.5,-553 1601.5,-553 1601.5,-553 2092.5,-553 2092.5,-553 2098.5,-553 2104.5,-559 2104.5,-565 2104.5,-565 2104.5,-613 2104.5,-613 2104.5,-619 2098.5,-625 2092.5,-625"/>
<text text-anchor="middle" x="1847" y="-582.8" font-family="Courier,monospace" font-weight="bold" font-size="24.00" fill="#000000">deployment/kubemacpool&#45;cert&#45;manager</text>
</g>
<!-- deployment/cluster&#45;network&#45;addons&#45;operator&#45;&gt;deployment/kubemacpool&#45;cert&#45;manager -->
<g id="edge15" class="edge">
<title>deployment/cluster&#45;network&#45;addons&#45;operator&#45;&gt;deployment/kubemacpool&#45;cert&#45;manager</title>
<path fill="none" stroke="#000000" d="M1345.5788,-589C1419.085,-589 1497.1285,-589 1569.2024,-589"/>
<polygon fill="#000000" stroke="#000000" points="1589.3639,-589 1569.3639,-598.0001 1579.3639,-589 1569.3639,-589.0001 1569.3639,-589.0001 1569.3639,-589.0001 1579.3639,-589 1569.3639,-580.0001 1589.3639,-589 1589.3639,-589"/>
</g>
<!-- deployment/kubemacpool&#45;mac&#45;controller&#45;manager -->
<g id="node18" class="node">
<title>deployment/kubemacpool&#45;mac&#45;controller&#45;manager</title>
<path fill="none" stroke="#000000" d="M2164,-546C2164,-546 1530,-546 1530,-546 1524,-546 1518,-540 1518,-534 1518,-534 1518,-486 1518,-486 1518,-480 1524,-474 1530,-474 1530,-474 2164,-474 2164,-474 2170,-474 2176,-480 2176,-486 2176,-486 2176,-534 2176,-534 2176,-540 2170,-546 2164,-546"/>
<text text-anchor="middle" x="1847" y="-503.8" font-family="Courier,monospace" font-weight="bold" font-size="24.00" fill="#000000">deployment/kubemacpool&#45;mac&#45;controller&#45;manager</text>
</g>
<!-- deployment/cluster&#45;network&#45;addons&#45;operator&#45;&gt;deployment/kubemacpool&#45;mac&#45;controller&#45;manager -->
<g id="edge16" class="edge">
<title>deployment/cluster&#45;network&#45;addons&#45;operator&#45;&gt;deployment/kubemacpool&#45;mac&#45;controller&#45;manager</title>
<path fill="none" stroke="#000000" d="M1345.5788,-558.9645C1395.274,-554.1117 1447.0431,-549.0564 1497.6393,-544.1156"/>
<polygon fill="#000000" stroke="#000000" points="1517.7186,-542.1548 1498.688,-553.0561 1507.7659,-543.1267 1497.8133,-544.0987 1497.8133,-544.0987 1497.8133,-544.0987 1507.7659,-543.1267 1496.9385,-535.1413 1517.7186,-542.1548 1517.7186,-542.1548"/>
</g>
<!-- daemonset/bridge&#45;marker -->
<g id="node26" class="node">
<title>daemonset/bridge&#45;marker</title>
<path fill="none" stroke="#000000" d="M2007,-467C2007,-467 1687,-467 1687,-467 1681,-467 1675,-461 1675,-455 1675,-455 1675,-407 1675,-407 1675,-401 1681,-395 1687,-395 1687,-395 2007,-395 2007,-395 2013,-395 2019,-401 2019,-407 2019,-407 2019,-455 2019,-455 2019,-461 2013,-467 2007,-467"/>
<text text-anchor="middle" x="1847" y="-424.8" font-family="Courier,monospace" font-weight="bold" font-size="24.00" fill="#000000">daemonset/bridge&#45;marker</text>
</g>
<!-- deployment/cluster&#45;network&#45;addons&#45;operator&#45;&gt;daemonset/bridge&#45;marker -->
<g id="edge24" class="edge">
<title>deployment/cluster&#45;network&#45;addons&#45;operator&#45;&gt;daemonset/bridge&#45;marker</title>
<path fill="none" stroke="#000000" d="M1345.7347,-557.1795C1355.3182,-554.6549 1364.7616,-551.9334 1374,-549 1443.3726,-526.9724 1448.6549,-493.1141 1518,-471 1561.3351,-457.1804 1609.2786,-448.0815 1654.8521,-442.1056"/>
<polygon fill="#000000" stroke="#000000" points="1674.906,-439.6526 1656.1468,-451.0144 1664.98,-440.8668 1655.054,-442.081 1655.054,-442.081 1655.054,-442.081 1664.98,-440.8668 1653.9612,-433.1476 1674.906,-439.6526 1674.906,-439.6526"/>
</g>
<!-- daemonset/kube&#45;cni&#45;linux&#45;bridge&#45;plugin -->
<g id="node27" class="node">
<title>daemonset/kube&#45;cni&#45;linux&#45;bridge&#45;plugin</title>
<path fill="none" stroke="#000000" d="M2114,-388C2114,-388 1580,-388 1580,-388 1574,-388 1568,-382 1568,-376 1568,-376 1568,-328 1568,-328 1568,-322 1574,-316 1580,-316 1580,-316 2114,-316 2114,-316 2120,-316 2126,-322 2126,-328 2126,-328 2126,-376 2126,-376 2126,-382 2120,-388 2114,-388"/>
<text text-anchor="middle" x="1847" y="-345.8" font-family="Courier,monospace" font-weight="bold" font-size="24.00" fill="#000000">daemonset/kube&#45;cni&#45;linux&#45;bridge&#45;plugin</text>
</g>
<!-- deployment/cluster&#45;network&#45;addons&#45;operator&#45;&gt;daemonset/kube&#45;cni&#45;linux&#45;bridge&#45;plugin -->
<g id="edge25" class="edge">
<title>deployment/cluster&#45;network&#45;addons&#45;operator&#45;&gt;daemonset/kube&#45;cni&#45;linux&#45;bridge&#45;plugin</title>
<path fill="none" stroke="#000000" d="M1345.681,-561.7425C1355.3823,-557.9222 1364.8508,-553.6881 1374,-549 1458.265,-505.8219 1433.789,-435.2833 1518,-392 1527.8351,-386.9449 1538.0478,-382.4233 1548.5259,-378.3837"/>
<polygon fill="#000000" stroke="#000000" points="1567.6488,-371.6218 1551.7934,-386.7745 1558.2209,-374.9556 1548.7929,-378.2893 1548.7929,-378.2893 1548.7929,-378.2893 1558.2209,-374.9556 1545.7925,-369.8042 1567.6488,-371.6218 1567.6488,-371.6218"/>
</g>
<!-- deployment/virt&#45;template&#45;validator -->
<g id="node25" class="node">
<title>deployment/virt&#45;template&#45;validator</title>
<path fill="none" stroke="#000000" d="M2085.5,-309C2085.5,-309 1608.5,-309 1608.5,-309 1602.5,-309 1596.5,-303 1596.5,-297 1596.5,-297 1596.5,-249 1596.5,-249 1596.5,-243 1602.5,-237 1608.5,-237 1608.5,-237 2085.5,-237 2085.5,-237 2091.5,-237 2097.5,-243 2097.5,-249 2097.5,-249 2097.5,-297 2097.5,-297 2097.5,-303 2091.5,-309 2085.5,-309"/>
<text text-anchor="middle" x="1847" y="-266.8" font-family="Courier,monospace" font-weight="bold" font-size="24.00" fill="#000000">deployment/virt&#45;template&#45;validator</text>
</g>
<!-- deployment/ssp&#45;operator&#45;&gt;deployment/virt&#45;template&#45;validator -->
<g id="edge23" class="edge">
<title>deployment/ssp&#45;operator&#45;&gt;deployment/virt&#45;template&#45;validator</title>
<path fill="none" stroke="#000000" d="M1210.0631,-273C1316.5247,-273 1455.5018,-273 1576.4621,-273"/>
<polygon fill="#000000" stroke="#000000" points="1596.4875,-273 1576.4876,-282.0001 1586.4875,-273 1576.4875,-273.0001 1576.4875,-273.0001 1576.4875,-273.0001 1586.4875,-273 1576.4875,-264.0001 1596.4875,-273 1596.4875,-273"/>
</g>
<!-- deployment/virt&#45;api -->
<g id="node22" class="node">
<title>deployment/virt&#45;api</title>
<path fill="none" stroke="#000000" d="M1978.5,-230C1978.5,-230 1715.5,-230 1715.5,-230 1709.5,-230 1703.5,-224 1703.5,-218 1703.5,-218 1703.5,-170 1703.5,-170 1703.5,-164 1709.5,-158 1715.5,-158 1715.5,-158 1978.5,-158 1978.5,-158 1984.5,-158 1990.5,-164 1990.5,-170 1990.5,-170 1990.5,-218 1990.5,-218 1990.5,-224 1984.5,-230 1978.5,-230"/>
<text text-anchor="middle" x="1847" y="-187.8" font-family="Courier,monospace" font-weight="bold" font-size="24.00" fill="#000000">deployment/virt&#45;api</text>
</g>
<!-- deployment/virt&#45;operator&#45;&gt;deployment/virt&#45;api -->
<g id="edge20" class="edge">
<title>deployment/virt&#45;operator&#45;&gt;deployment/virt&#45;api</title>
<path fill="none" stroke="#000000" d="M1217.5433,-132.5327C1356.828,-146.134 1548.2907,-164.8306 1683.377,-178.022"/>
<polygon fill="#000000" stroke="#000000" points="1703.3029,-179.9678 1682.5228,-186.9813 1693.3502,-178.9958 1683.3975,-178.0239 1683.3975,-178.0239 1683.3975,-178.0239 1693.3502,-178.9958 1684.2723,-169.0665 1703.3029,-179.9678 1703.3029,-179.9678"/>
</g>
<!-- deployment/virt&#45;controller -->
<g id="node24" class="node">
<title>deployment/virt&#45;controller</title>
<path fill="none" stroke="#000000" d="M2028.5,-151C2028.5,-151 1665.5,-151 1665.5,-151 1659.5,-151 1653.5,-145 1653.5,-139 1653.5,-139 1653.5,-91 1653.5,-91 1653.5,-85 1659.5,-79 1665.5,-79 1665.5,-79 2028.5,-79 2028.5,-79 2034.5,-79 2040.5,-85 2040.5,-91 2040.5,-91 2040.5,-139 2040.5,-139 2040.5,-145 2034.5,-151 2028.5,-151"/>
<text text-anchor="middle" x="1847" y="-108.8" font-family="Courier,monospace" font-weight="bold" font-size="24.00" fill="#000000">deployment/virt&#45;controller</text>
</g>
<!-- deployment/virt&#45;operator&#45;&gt;deployment/virt&#45;controller -->
<g id="edge21" class="edge">
<title>deployment/virt&#45;operator&#45;&gt;deployment/virt&#45;controller</title>
<path fill="none" stroke="#000000" d="M1217.5433,-115C1340.3976,-115 1503.8459,-115 1633.3963,-115"/>
<polygon fill="#000000" stroke="#000000" points="1653.4774,-115 1633.4775,-124.0001 1643.4774,-115 1633.4774,-115.0001 1633.4774,-115.0001 1633.4774,-115.0001 1643.4774,-115 1633.4774,-106.0001 1653.4774,-115 1653.4774,-115"/>
</g>
<!-- daemonset/virt&#45;handler -->
<g id="node28" class="node">
<title>daemonset/virt&#45;handler</title>
<path fill="none" stroke="#000000" d="M2000,-72C2000,-72 1694,-72 1694,-72 1688,-72 1682,-66 1682,-60 1682,-60 1682,-12 1682,-12 1682,-6 1688,0 1694,0 1694,0 2000,0 2000,0 2006,0 2012,-6 2012,-12 2012,-12 2012,-60 2012,-60 2012,-66 2006,-72 2000,-72"/>
<text text-anchor="middle" x="1847" y="-29.8" font-family="Courier,monospace" font-weight="bold" font-size="24.00" fill="#000000">daemonset/virt&#45;handler</text>
</g>
<!-- deployment/virt&#45;operator&#45;&gt;daemonset/virt&#45;handler -->
<g id="edge26" class="edge">
<title>deployment/virt&#45;operator&#45;&gt;daemonset/virt&#45;handler</title>
<path fill="none" stroke="#000000" d="M1217.5433,-97.4673C1349.49,-84.5826 1528.2619,-67.1252 1661.5732,-54.1072"/>
<polygon fill="#000000" stroke="#000000" points="1681.7318,-52.1387 1662.7012,-63.0399 1671.7791,-53.1106 1661.8264,-54.0826 1661.8264,-54.0826 1661.8264,-54.0826 1671.7791,-53.1106 1660.9517,-45.1252 1681.7318,-52.1387 1681.7318,-52.1387"/>
</g>
</g>
</svg>
