<?xml version="1.0" encoding="UTF-8" standalone="no"?>
<!DOCTYPE svg PUBLIC "-//W3C//DTD SVG 1.1//EN"
 "http://www.w3.org/Graphics/SVG/1.1/DTD/svg11.dtd">
<!-- Generated by graphviz version 2.40.1 (0)
 -->
<!-- Title: managed&#45;by Pages: 1 -->
<svg width="2573pt" height="1254pt"
 viewBox="14.40 14.40 2558.40 1239.40" xmlns="http://www.w3.org/2000/svg" xmlns:xlink="http://www.w3.org/1999/xlink">
<g id="graph0" class="graph" transform="scale(1 1) rotate(0) translate(18.4 1235.4)">
<title>managed&#45;by</title>
<polygon fill="#ffffff" stroke="transparent" points="-4,4 -4,-1221 2540,-1221 2540,4 -4,4"/>
<!-- HyperConverged/kubevirt&#45;hyperconverged -->
<g id="node1" class="node">
<title>HyperConverged/kubevirt&#45;hyperconverged</title>
<path fill="none" stroke="#000000" d="M546,-427C546,-427 12,-427 12,-427 6,-427 0,-421 0,-415 0,-415 0,-367 0,-367 0,-361 6,-355 12,-355 12,-355 546,-355 546,-355 552,-355 558,-361 558,-367 558,-367 558,-415 558,-415 558,-421 552,-427 546,-427"/>
<text text-anchor="middle" x="279" y="-384.8" font-family="Courier,monospace" font-weight="bold" font-size="24.00" fill="#000000">HyperConverged/kubevirt&#45;hyperconverged</text>
</g>
<!-- KubeVirt/kubevirt&#45;kubevirt&#45;hyperconverged -->
<g id="node2" class="node">
<title>KubeVirt/kubevirt&#45;kubevirt&#45;hyperconverged</title>
<path fill="none" stroke="#000000" d="M2135.5,-1217C2135.5,-1217 1558.5,-1217 1558.5,-1217 1552.5,-1217 1546.5,-1211 1546.5,-1205 1546.5,-1205 1546.5,-1157 1546.5,-1157 1546.5,-1151 1552.5,-1145 1558.5,-1145 1558.5,-1145 2135.5,-1145 2135.5,-1145 2141.5,-1145 2147.5,-1151 2147.5,-1157 2147.5,-1157 2147.5,-1205 2147.5,-1205 2147.5,-1211 2141.5,-1217 2135.5,-1217"/>
<text text-anchor="middle" x="1847" y="-1174.8" font-family="Courier,monospace" font-weight="bold" font-size="24.00" fill="#000000">KubeVirt/kubevirt&#45;kubevirt&#45;hyperconverged</text>
</g>
<!-- deployment/hco&#45;operator -->
<g id="node3" class="node">
<title>deployment/hco&#45;operator</title>
<path fill="none" stroke="#000000" d="M1198,-1059C1198,-1059 878,-1059 878,-1059 872,-1059 866,-1053 866,-1047 866,-1047 866,-999 866,-999 866,-993 872,-987 878,-987 878,-987 1198,-987 1198,-987 1204,-987 1210,-993 1210,-999 1210,-999 1210,-1047 1210,-1047 1210,-1053 1204,-1059 1198,-1059"/>
<text text-anchor="middle" x="1038" y="-1016.8" font-family="Courier,monospace" font-weight="bold" font-size="24.00" fill="#000000">deployment/hco&#45;operator</text>
</g>
<!-- deployment/hco&#45;operator&#45;&gt;KubeVirt/kubevirt&#45;kubevirt&#45;hyperconverged -->
<g id="edge1" class="edge">
<title>deployment/hco&#45;operator&#45;&gt;KubeVirt/kubevirt&#45;kubevirt&#45;hyperconverged</title>
<path fill="none" stroke="#000000" d="M1166.4593,-1059.0349C1262.6113,-1084.9163 1397.7124,-1118.9845 1518,-1141 1520.7724,-1141.5074 1523.5592,-1142.0101 1526.3588,-1142.5079"/>
<polygon fill="#000000" stroke="#000000" points="1546.4452,-1145.965 1525.2084,-1151.4422 1536.5901,-1144.2688 1526.735,-1142.5726 1526.735,-1142.5726 1526.735,-1142.5726 1536.5901,-1144.2688 1528.2616,-1133.703 1546.4452,-1145.965 1546.4452,-1145.965"/>
</g>
<!-- SSP/ssp&#45;kubevirt&#45;hyperconverged -->
<g id="node4" class="node">
<title>SSP/ssp&#45;kubevirt&#45;hyperconverged</title>
<path fill="none" stroke="#000000" d="M2064,-1138C2064,-1138 1630,-1138 1630,-1138 1624,-1138 1618,-1132 1618,-1126 1618,-1126 1618,-1078 1618,-1078 1618,-1072 1624,-1066 1630,-1066 1630,-1066 2064,-1066 2064,-1066 2070,-1066 2076,-1072 2076,-1078 2076,-1078 2076,-1126 2076,-1126 2076,-1132 2070,-1138 2064,-1138"/>
<text text-anchor="middle" x="1847" y="-1095.8" font-family="Courier,monospace" font-weight="bold" font-size="24.00" fill="#000000">SSP/ssp&#45;kubevirt&#45;hyperconverged</text>
</g>
<!-- deployment/hco&#45;operator&#45;&gt;SSP/ssp&#45;kubevirt&#45;hyperconverged -->
<g id="edge2" class="edge">
<title>deployment/hco&#45;operator&#45;&gt;SSP/ssp&#45;kubevirt&#45;hyperconverged</title>
<path fill="none" stroke="#000000" d="M1210.0631,-1039.8022C1322.9095,-1050.8218 1472.2883,-1065.4089 1598.0197,-1077.6867"/>
<polygon fill="#000000" stroke="#000000" points="1617.9866,-1079.6365 1597.2065,-1086.65 1608.0339,-1078.6646 1598.0813,-1077.6926 1598.0813,-1077.6926 1598.0813,-1077.6926 1608.0339,-1078.6646 1598.956,-1068.7352 1617.9866,-1079.6365 1617.9866,-1079.6365"/>
</g>
<!-- CDI/cdi&#45;kubevirt&#45;hyperconverged -->
<g id="node5" class="node">
<title>CDI/cdi&#45;kubevirt&#45;hyperconverged</title>
<path fill="none" stroke="#000000" d="M2064,-1059C2064,-1059 1630,-1059 1630,-1059 1624,-1059 1618,-1053 1618,-1047 1618,-1047 1618,-999 1618,-999 1618,-993 1624,-987 1630,-987 1630,-987 2064,-987 2064,-987 2070,-987 2076,-993 2076,-999 2076,-999 2076,-1047 2076,-1047 2076,-1053 2070,-1059 2064,-1059"/>
<text text-anchor="middle" x="1847" y="-1016.8" font-family="Courier,monospace" font-weight="bold" font-size="24.00" fill="#000000">CDI/cdi&#45;kubevirt&#45;hyperconverged</text>
</g>
<!-- deployment/hco&#45;operator&#45;&gt;CDI/cdi&#45;kubevirt&#45;hyperconverged -->
<g id="edge3" class="edge">
<title>deployment/hco&#45;operator&#45;&gt;CDI/cdi&#45;kubevirt&#45;hyperconverged</title>
<path fill="none" stroke="#000000" d="M1210.0631,-1023C1322.7934,-1023 1471.981,-1023 1597.6316,-1023"/>
<polygon fill="#000000" stroke="#000000" points="1617.9866,-1023 1597.9866,-1032.0001 1607.9866,-1023 1597.9866,-1023.0001 1597.9866,-1023.0001 1597.9866,-1023.0001 1607.9866,-1023 1597.9865,-1014.0001 1617.9866,-1023 1617.9866,-1023"/>
</g>
<!-- NetworkAddonsConfig/cluster -->
<g id="node8" class="node">
<title>NetworkAddonsConfig/cluster</title>
<path fill="none" stroke="#000000" d="M2028.5,-980C2028.5,-980 1665.5,-980 1665.5,-980 1659.5,-980 1653.5,-974 1653.5,-968 1653.5,-968 1653.5,-920 1653.5,-920 1653.5,-914 1659.5,-908 1665.5,-908 1665.5,-908 2028.5,-908 2028.5,-908 2034.5,-908 2040.5,-914 2040.5,-920 2040.5,-920 2040.5,-968 2040.5,-968 2040.5,-974 2034.5,-980 2028.5,-980"/>
<text text-anchor="middle" x="1847" y="-937.8" font-family="Courier,monospace" font-weight="bold" font-size="24.00" fill="#000000">NetworkAddonsConfig/cluster</text>
</g>
<!-- deployment/hco&#45;operator&#45;&gt;NetworkAddonsConfig/cluster -->
<g id="edge5" class="edge">
<title>deployment/hco&#45;operator&#45;&gt;NetworkAddonsConfig/cluster</title>
<path fill="none" stroke="#000000" d="M1210.0631,-1006.1978C1333.6221,-994.1321 1500.979,-977.7894 1633.1364,-964.8841"/>
<polygon fill="#000000" stroke="#000000" points="1653.2002,-962.9248 1634.1697,-973.8261 1643.2476,-963.8968 1633.2949,-964.8687 1633.2949,-964.8687 1633.2949,-964.8687 1643.2476,-963.8968 1632.4202,-955.9113 1653.2002,-962.9248 1653.2002,-962.9248"/>
</g>
<!-- CDIConfig/config -->
<g id="node6" class="node">
<title>CDIConfig/config</title>
<path fill="none" stroke="#000000" d="M2524,-901C2524,-901 2332,-901 2332,-901 2326,-901 2320,-895 2320,-889 2320,-889 2320,-841 2320,-841 2320,-835 2326,-829 2332,-829 2332,-829 2524,-829 2524,-829 2530,-829 2536,-835 2536,-841 2536,-841 2536,-889 2536,-889 2536,-895 2530,-901 2524,-901"/>
<text text-anchor="middle" x="2428" y="-858.8" font-family="Courier,monospace" font-weight="bold" font-size="24.00" fill="#000000">CDIConfig/config</text>
</g>
<!-- deployment/cdi&#45;deployment -->
<g id="node7" class="node">
<title>deployment/cdi&#45;deployment</title>
<path fill="none" stroke="#000000" d="M2021.5,-901C2021.5,-901 1672.5,-901 1672.5,-901 1666.5,-901 1660.5,-895 1660.5,-889 1660.5,-889 1660.5,-841 1660.5,-841 1660.5,-835 1666.5,-829 1672.5,-829 1672.5,-829 2021.5,-829 2021.5,-829 2027.5,-829 2033.5,-835 2033.5,-841 2033.5,-841 2033.5,-889 2033.5,-889 2033.5,-895 2027.5,-901 2021.5,-901"/>
<text text-anchor="middle" x="1847" y="-858.8" font-family="Courier,monospace" font-weight="bold" font-size="24.00" fill="#000000">deployment/cdi&#45;deployment</text>
</g>
<!-- deployment/cdi&#45;deployment&#45;&gt;CDIConfig/config -->
<g id="edge4" class="edge">
<title>deployment/cdi&#45;deployment&#45;&gt;CDIConfig/config</title>
<path fill="none" stroke="#000000" d="M2033.6297,-865C2120.4412,-865 2221.5049,-865 2299.5891,-865"/>
<polygon fill="#000000" stroke="#000000" points="2319.9453,-865 2299.9453,-874.0001 2309.9453,-865 2299.9453,-865.0001 2299.9453,-865.0001 2299.9453,-865.0001 2309.9453,-865 2299.9452,-856.0001 2319.9453,-865 2319.9453,-865"/>
</g>
<!-- deployment/cdi&#45;apiserver -->
<g id="node9" class="node">
<title>deployment/cdi&#45;apiserver</title>
<path fill="none" stroke="#000000" d="M2014.5,-822C2014.5,-822 1679.5,-822 1679.5,-822 1673.5,-822 1667.5,-816 1667.5,-810 1667.5,-810 1667.5,-762 1667.5,-762 1667.5,-756 1673.5,-750 1679.5,-750 1679.5,-750 2014.5,-750 2014.5,-750 2020.5,-750 2026.5,-756 2026.5,-762 2026.5,-762 2026.5,-810 2026.5,-810 2026.5,-816 2020.5,-822 2014.5,-822"/>
<text text-anchor="middle" x="1847" y="-779.8" font-family="Courier,monospace" font-weight="bold" font-size="24.00" fill="#000000">deployment/cdi&#45;apiserver</text>
</g>
<!-- deployment/cdi&#45;operator -->
<g id="node10" class="node">
<title>deployment/cdi&#45;operator</title>
<path fill="none" stroke="#000000" d="M1198,-783C1198,-783 878,-783 878,-783 872,-783 866,-777 866,-771 866,-771 866,-723 866,-723 866,-717 872,-711 878,-711 878,-711 1198,-711 1198,-711 1204,-711 1210,-717 1210,-723 1210,-723 1210,-771 1210,-771 1210,-777 1204,-783 1198,-783"/>
<text text-anchor="middle" x="1038" y="-740.8" font-family="Courier,monospace" font-weight="bold" font-size="24.00" fill="#000000">deployment/cdi&#45;operator</text>
</g>
<!-- deployment/cdi&#45;operator&#45;&gt;deployment/cdi&#45;deployment -->
<g id="edge7" class="edge">
<title>deployment/cdi&#45;operator&#45;&gt;deployment/cdi&#45;deployment</title>
<path fill="none" stroke="#000000" d="M1210.201,-776.6981C1301.529,-792.0145 1415.7091,-810.4765 1518,-825 1557.4424,-830.6001 1599.6151,-836.0969 1640.1562,-841.1367"/>
<polygon fill="#000000" stroke="#000000" points="1660.2252,-843.6113 1639.2741,-850.096 1650.3004,-842.3874 1640.3755,-841.1636 1640.3755,-841.1636 1640.3755,-841.1636 1650.3004,-842.3874 1641.477,-832.2313 1660.2252,-843.6113 1660.2252,-843.6113"/>
</g>
<!-- deployment/cdi&#45;operator&#45;&gt;deployment/cdi&#45;apiserver -->
<g id="edge6" class="edge">
<title>deployment/cdi&#45;operator&#45;&gt;deployment/cdi&#45;apiserver</title>
<path fill="none" stroke="#000000" d="M1210.0631,-755.2948C1338.035,-761.464 1512.9889,-769.8981 1647.1578,-776.3661"/>
<polygon fill="#000000" stroke="#000000" points="1667.4861,-777.3461 1647.0759,-785.3725 1657.4977,-776.8645 1647.5093,-776.3829 1647.5093,-776.3829 1647.5093,-776.3829 1657.4977,-776.8645 1647.9427,-767.3934 1667.4861,-777.3461 1667.4861,-777.3461"/>
</g>
<!-- deployment/cdi&#45;uploadproxy -->
<g id="node12" class="node">
<title>deployment/cdi&#45;uploadproxy</title>
<path fill="none" stroke="#000000" d="M2028.5,-743C2028.5,-743 1665.5,-743 1665.5,-743 1659.5,-743 1653.5,-737 1653.5,-731 1653.5,-731 1653.5,-683 1653.5,-683 1653.5,-677 1659.5,-671 1665.5,-671 1665.5,-671 2028.5,-671 2028.5,-671 2034.5,-671 2040.5,-677 2040.5,-683 2040.5,-683 2040.5,-731 2040.5,-731 2040.5,-737 2034.5,-743 2028.5,-743"/>
<text text-anchor="middle" x="1847" y="-700.8" font-family="Courier,monospace" font-weight="bold" font-size="24.00" fill="#000000">deployment/cdi&#45;uploadproxy</text>
</g>
<!-- deployment/cdi&#45;operator&#45;&gt;deployment/cdi&#45;uploadproxy -->
<g id="edge9" class="edge">
<title>deployment/cdi&#45;operator&#45;&gt;deployment/cdi&#45;uploadproxy</title>
<path fill="none" stroke="#000000" d="M1210.0631,-738.4926C1333.6221,-732.3833 1500.979,-724.1086 1633.1364,-717.5742"/>
<polygon fill="#000000" stroke="#000000" points="1653.2002,-716.5822 1633.6691,-726.559 1643.2124,-717.0761 1633.2246,-717.57 1633.2246,-717.57 1633.2246,-717.57 1643.2124,-717.0761 1632.7801,-708.5809 1653.2002,-716.5822 1653.2002,-716.5822"/>
</g>
<!-- olm -->
<g id="node11" class="node">
<title>olm</title>
<path fill="none" stroke="#000000" d="M375,-506C375,-506 183,-506 183,-506 177,-506 171,-500 171,-494 171,-494 171,-446 171,-446 171,-440 177,-434 183,-434 183,-434 375,-434 375,-434 381,-434 387,-440 387,-446 387,-446 387,-494 387,-494 387,-500 381,-506 375,-506"/>
<text text-anchor="middle" x="279" y="-463.8" font-family="Courier,monospace" font-weight="bold" font-size="24.00" fill="#000000">olm</text>
</g>
<!-- olm&#45;&gt;deployment/hco&#45;operator -->
<g id="edge11" class="edge">
<title>olm&#45;&gt;deployment/hco&#45;operator</title>
<path fill="none" stroke="#000000" d="M326.5795,-506.2069C404.5432,-565.3853 564.5828,-686.2358 702,-786 793.8621,-852.6914 901.2501,-927.9788 969.4282,-975.4485"/>
<polygon fill="#000000" stroke="#000000" points="985.8835,-986.8956 964.3258,-982.8625 977.6744,-981.185 969.4653,-975.4743 969.4653,-975.4743 969.4653,-975.4743 977.6744,-981.185 974.6049,-968.0862 985.8835,-986.8956 985.8835,-986.8956"/>
</g>
<!-- olm&#45;&gt;deployment/cdi&#45;operator -->
<g id="edge8" class="edge">
<title>olm&#45;&gt;deployment/cdi&#45;operator</title>
<path fill="none" stroke="#000000" d="M345.379,-506.0579C427.2272,-549.3 571.5451,-621.6156 702,-667 747.9188,-682.9749 798.4549,-696.8554 846.0776,-708.3659"/>
<polygon fill="#000000" stroke="#000000" points="865.576,-712.9879 844.0393,-717.1321 855.8456,-710.6813 846.1152,-708.3747 846.1152,-708.3747 846.1152,-708.3747 855.8456,-710.6813 848.1911,-699.6174 865.576,-712.9879 865.576,-712.9879"/>
</g>
<!-- deployment/cluster&#45;network&#45;addons&#45;operator -->
<g id="node13" class="node">
<title>deployment/cluster&#45;network&#45;addons&#45;operator</title>
<path fill="none" stroke="#000000" d="M1333.5,-664C1333.5,-664 742.5,-664 742.5,-664 736.5,-664 730.5,-658 730.5,-652 730.5,-652 730.5,-604 730.5,-604 730.5,-598 736.5,-592 742.5,-592 742.5,-592 1333.5,-592 1333.5,-592 1339.5,-592 1345.5,-598 1345.5,-604 1345.5,-604 1345.5,-652 1345.5,-652 1345.5,-658 1339.5,-664 1333.5,-664"/>
<text text-anchor="middle" x="1038" y="-621.8" font-family="Courier,monospace" font-weight="bold" font-size="24.00" fill="#000000">deployment/cluster&#45;network&#45;addons&#45;operator</text>
</g>
<!-- olm&#45;&gt;deployment/cluster&#45;network&#45;addons&#45;operator -->
<g id="edge10" class="edge">
<title>olm&#45;&gt;deployment/cluster&#45;network&#45;addons&#45;operator</title>
<path fill="none" stroke="#000000" d="M387.0082,-505.0812C471.8308,-531.4219 593.3639,-566.5132 702,-588 704.7374,-588.5414 707.4888,-589.0765 710.2529,-589.6053"/>
<polygon fill="#000000" stroke="#000000" points="730.0856,-593.2579 708.7863,-598.4865 720.251,-591.4466 710.4164,-589.6354 710.4164,-589.6354 710.4164,-589.6354 720.251,-591.4466 712.0465,-580.7842 730.0856,-593.2579 730.0856,-593.2579"/>
</g>
<!-- deployment/hco&#45;webhook -->
<g id="node14" class="node">
<title>deployment/hco&#45;webhook</title>
<path fill="none" stroke="#000000" d="M1191,-585C1191,-585 885,-585 885,-585 879,-585 873,-579 873,-573 873,-573 873,-525 873,-525 873,-519 879,-513 885,-513 885,-513 1191,-513 1191,-513 1197,-513 1203,-519 1203,-525 1203,-525 1203,-573 1203,-573 1203,-579 1197,-585 1191,-585"/>
<text text-anchor="middle" x="1038" y="-542.8" font-family="Courier,monospace" font-weight="bold" font-size="24.00" fill="#000000">deployment/hco&#45;webhook</text>
</g>
<!-- olm&#45;&gt;deployment/hco&#45;webhook -->
<g id="edge12" class="edge">
<title>olm&#45;&gt;deployment/hco&#45;webhook</title>
<path fill="none" stroke="#000000" d="M387.3429,-481.2768C508.4156,-493.8786 706.5647,-514.5028 852.4362,-529.6857"/>
<polygon fill="#000000" stroke="#000000" points="872.6589,-531.7906 851.8346,-538.6716 862.7127,-530.7553 852.7664,-529.72 852.7664,-529.72 852.7664,-529.72 862.7127,-530.7553 853.6982,-520.7684 872.6589,-531.7906 872.6589,-531.7906"/>
</g>
<!-- deployment/hostpath&#45;provisioner&#45;operator -->
<g id="node15" class="node">
<title>deployment/hostpath&#45;provisioner&#45;operator</title>
<path fill="none" stroke="#000000" d="M1319.5,-506C1319.5,-506 756.5,-506 756.5,-506 750.5,-506 744.5,-500 744.5,-494 744.5,-494 744.5,-446 744.5,-446 744.5,-440 750.5,-434 756.5,-434 756.5,-434 1319.5,-434 1319.5,-434 1325.5,-434 1331.5,-440 1331.5,-446 1331.5,-446 1331.5,-494 1331.5,-494 1331.5,-500 1325.5,-506 1319.5,-506"/>
<text text-anchor="middle" x="1038" y="-463.8" font-family="Courier,monospace" font-weight="bold" font-size="24.00" fill="#000000">deployment/hostpath&#45;provisioner&#45;operator</text>
</g>
<!-- olm&#45;&gt;deployment/hostpath&#45;provisioner&#45;operator -->
<g id="edge13" class="edge">
<title>olm&#45;&gt;deployment/hostpath&#45;provisioner&#45;operator</title>
<path fill="none" stroke="#000000" d="M387.3429,-470C475.4223,-470 604.294,-470 724.1539,-470"/>
<polygon fill="#000000" stroke="#000000" points="744.4673,-470 724.4673,-479.0001 734.4673,-470 724.4673,-470.0001 724.4673,-470.0001 724.4673,-470.0001 734.4673,-470 724.4672,-461.0001 744.4673,-470 744.4673,-470"/>
</g>
<!-- deployment/hyperconverged&#45;cluster&#45;cli&#45;download -->
<g id="node16" class="node">
<title>deployment/hyperconverged&#45;cluster&#45;cli&#45;download</title>
<path fill="none" stroke="#000000" d="M1362,-427C1362,-427 714,-427 714,-427 708,-427 702,-421 702,-415 702,-415 702,-367 702,-367 702,-361 708,-355 714,-355 714,-355 1362,-355 1362,-355 1368,-355 1374,-361 1374,-367 1374,-367 1374,-415 1374,-415 1374,-421 1368,-427 1362,-427"/>
<text text-anchor="middle" x="1038" y="-384.8" font-family="Courier,monospace" font-weight="bold" font-size="24.00" fill="#000000">deployment/hyperconverged&#45;cluster&#45;cli&#45;download</text>
</g>
<!-- olm&#45;&gt;deployment/hyperconverged&#45;cluster&#45;cli&#45;download -->
<g id="edge14" class="edge">
<title>olm&#45;&gt;deployment/hyperconverged&#45;cluster&#45;cli&#45;download</title>
<path fill="none" stroke="#000000" d="M387.3429,-458.7232C465.1353,-450.6262 574.748,-439.2173 681.8683,-428.0677"/>
<polygon fill="#000000" stroke="#000000" points="701.8328,-425.9897 682.8721,-437.012 691.8866,-427.025 681.9403,-428.0603 681.9403,-428.0603 681.9403,-428.0603 691.8866,-427.025 681.0085,-419.1087 701.8328,-425.9897 701.8328,-425.9897"/>
</g>
<!-- deployment/node&#45;maintenance&#45;operator -->
<g id="node19" class="node">
<title>deployment/node&#45;maintenance&#45;operator</title>
<path fill="none" stroke="#000000" d="M1291,-348C1291,-348 785,-348 785,-348 779,-348 773,-342 773,-336 773,-336 773,-288 773,-288 773,-282 779,-276 785,-276 785,-276 1291,-276 1291,-276 1297,-276 1303,-282 1303,-288 1303,-288 1303,-336 1303,-336 1303,-342 1297,-348 1291,-348"/>
<text text-anchor="middle" x="1038" y="-305.8" font-family="Courier,monospace" font-weight="bold" font-size="24.00" fill="#000000">deployment/node&#45;maintenance&#45;operator</text>
</g>
<!-- olm&#45;&gt;deployment/node&#45;maintenance&#45;operator -->
<g id="edge17" class="edge">
<title>olm&#45;&gt;deployment/node&#45;maintenance&#45;operator</title>
<path fill="none" stroke="#000000" d="M387.0241,-463.467C439.6197,-458.046 503.1798,-448.131 558,-430 627.1044,-407.1447 632.6274,-374.0276 702,-352 718.4756,-346.7686 735.603,-342.2113 753.0146,-338.2423"/>
<polygon fill="#000000" stroke="#000000" points="772.7741,-334.0066 755.1048,-346.9988 762.9962,-336.1027 753.2183,-338.1987 753.2183,-338.1987 753.2183,-338.1987 762.9962,-336.1027 751.3319,-329.3987 772.7741,-334.0066 772.7741,-334.0066"/>
</g>
<!-- deployment/ssp&#45;operator -->
<g id="node20" class="node">
<title>deployment/ssp&#45;operator</title>
<path fill="none" stroke="#000000" d="M1198,-269C1198,-269 878,-269 878,-269 872,-269 866,-263 866,-257 866,-257 866,-209 866,-209 866,-203 872,-197 878,-197 878,-197 1198,-197 1198,-197 1204,-197 1210,-203 1210,-209 1210,-209 1210,-257 1210,-257 1210,-263 1204,-269 1198,-269"/>
<text text-anchor="middle" x="1038" y="-226.8" font-family="Courier,monospace" font-weight="bold" font-size="24.00" fill="#000000">deployment/ssp&#45;operator</text>
</g>
<!-- olm&#45;&gt;deployment/ssp&#45;operator -->
<g id="edge18" class="edge">
<title>olm&#45;&gt;deployment/ssp&#45;operator</title>
<path fill="none" stroke="#000000" d="M387.2524,-471.3481C441.247,-467.9456 505.9574,-457.4574 558,-430 641.7428,-385.8176 617.735,-316.1781 702,-273 745.7677,-250.573 796.8414,-238.5364 845.7624,-232.4929"/>
<polygon fill="#000000" stroke="#000000" points="865.8357,-230.3247 846.9179,-241.4205 855.8935,-231.3986 845.9514,-232.4726 845.9514,-232.4726 845.9514,-232.4726 855.8935,-231.3986 844.9848,-223.5246 865.8357,-230.3247 865.8357,-230.3247"/>
</g>
<!-- deployment/virt&#45;operator -->
<g id="node22" class="node">
<title>deployment/virt&#45;operator</title>
<path fill="none" stroke="#000000" d="M1205.5,-190C1205.5,-190 870.5,-190 870.5,-190 864.5,-190 858.5,-184 858.5,-178 858.5,-178 858.5,-130 858.5,-130 858.5,-124 864.5,-118 870.5,-118 870.5,-118 1205.5,-118 1205.5,-118 1211.5,-118 1217.5,-124 1217.5,-130 1217.5,-130 1217.5,-178 1217.5,-178 1217.5,-184 1211.5,-190 1205.5,-190"/>
<text text-anchor="middle" x="1038" y="-147.8" font-family="Courier,monospace" font-weight="bold" font-size="24.00" fill="#000000">deployment/virt&#45;operator</text>
</g>
<!-- olm&#45;&gt;deployment/virt&#45;operator -->
<g id="edge21" class="edge">
<title>olm&#45;&gt;deployment/virt&#45;operator</title>
<path fill="none" stroke="#000000" d="M387.3285,-475.5953C442.4514,-473.4732 508.1523,-462.8489 558,-430 660.5985,-362.3891 598.6006,-260.3796 702,-194 742.2092,-168.1868 790.7863,-154.7386 838.3549,-148.4039"/>
<polygon fill="#000000" stroke="#000000" points="858.2927,-146.143 839.4342,-157.3393 848.3564,-147.2698 838.4201,-148.3966 838.4201,-148.3966 838.4201,-148.3966 848.3564,-147.2698 837.4059,-139.4539 858.2927,-146.143 858.2927,-146.143"/>
</g>
<!-- deployment/kubemacpool&#45;cert&#45;manager -->
<g id="node17" class="node">
<title>deployment/kubemacpool&#45;cert&#45;manager</title>
<path fill="none" stroke="#000000" d="M2092.5,-664C2092.5,-664 1601.5,-664 1601.5,-664 1595.5,-664 1589.5,-658 1589.5,-652 1589.5,-652 1589.5,-604 1589.5,-604 1589.5,-598 1595.5,-592 1601.5,-592 1601.5,-592 2092.5,-592 2092.5,-592 2098.5,-592 2104.5,-598 2104.5,-604 2104.5,-604 2104.5,-652 2104.5,-652 2104.5,-658 2098.5,-664 2092.5,-664"/>
<text text-anchor="middle" x="1847" y="-621.8" font-family="Courier,monospace" font-weight="bold" font-size="24.00" fill="#000000">deployment/kubemacpool&#45;cert&#45;manager</text>
</g>
<!-- deployment/cluster&#45;network&#45;addons&#45;operator&#45;&gt;deployment/kubemacpool&#45;cert&#45;manager -->
<g id="edge15" class="edge">
<title>deployment/cluster&#45;network&#45;addons&#45;operator&#45;&gt;deployment/kubemacpool&#45;cert&#45;manager</title>
<path fill="none" stroke="#000000" d="M1345.5788,-628C1419.085,-628 1497.1285,-628 1569.2024,-628"/>
<polygon fill="#000000" stroke="#000000" points="1589.3639,-628 1569.3639,-637.0001 1579.3639,-628 1569.3639,-628.0001 1569.3639,-628.0001 1569.3639,-628.0001 1579.3639,-628 1569.3639,-619.0001 1589.3639,-628 1589.3639,-628"/>
</g>
<!-- deployment/kubemacpool&#45;mac&#45;controller&#45;manager -->
<g id="node18" class="node">
<title>deployment/kubemacpool&#45;mac&#45;controller&#45;manager</title>
<path fill="none" stroke="#000000" d="M2164,-585C2164,-585 1530,-585 1530,-585 1524,-585 1518,-579 1518,-573 1518,-573 1518,-525 1518,-525 1518,-519 1524,-513 1530,-513 1530,-513 2164,-513 2164,-513 2170,-513 2176,-519 2176,-525 2176,-525 2176,-573 2176,-573 2176,-579 2170,-585 2164,-585"/>
<text text-anchor="middle" x="1847" y="-542.8" font-family="Courier,monospace" font-weight="bold" font-size="24.00" fill="#000000">deployment/kubemacpool&#45;mac&#45;controller&#45;manager</text>
</g>
<!-- deployment/cluster&#45;network&#45;addons&#45;operator&#45;&gt;deployment/kubemacpool&#45;mac&#45;controller&#45;manager -->
<g id="edge16" class="edge">
<title>deployment/cluster&#45;network&#45;addons&#45;operator&#45;&gt;deployment/kubemacpool&#45;mac&#45;controller&#45;manager</title>
<path fill="none" stroke="#000000" d="M1345.5788,-597.9645C1395.274,-593.1117 1447.0431,-588.0564 1497.6393,-583.1156"/>
<polygon fill="#000000" stroke="#000000" points="1517.7186,-581.1548 1498.688,-592.0561 1507.7659,-582.1267 1497.8133,-583.0987 1497.8133,-583.0987 1497.8133,-583.0987 1507.7659,-582.1267 1496.9385,-574.1413 1517.7186,-581.1548 1517.7186,-581.1548"/>
</g>
<!-- daemonset/bridge&#45;marker -->
<g id="node25" class="node">
<title>daemonset/bridge&#45;marker</title>
<path fill="none" stroke="#000000" d="M2007,-506C2007,-506 1687,-506 1687,-506 1681,-506 1675,-500 1675,-494 1675,-494 1675,-446 1675,-446 1675,-440 1681,-434 1687,-434 1687,-434 2007,-434 2007,-434 2013,-434 2019,-440 2019,-446 2019,-446 2019,-494 2019,-494 2019,-500 2013,-506 2007,-506"/>
<text text-anchor="middle" x="1847" y="-463.8" font-family="Courier,monospace" font-weight="bold" font-size="24.00" fill="#000000">daemonset/bridge&#45;marker</text>
</g>
<!-- deployment/cluster&#45;network&#45;addons&#45;operator&#45;&gt;daemonset/bridge&#45;marker -->
<g id="edge23" class="edge">
<title>deployment/cluster&#45;network&#45;addons&#45;operator&#45;&gt;daemonset/bridge&#45;marker</title>
<path fill="none" stroke="#000000" d="M1345.7347,-596.1795C1355.3182,-593.6549 1364.7616,-590.9334 1374,-588 1443.3726,-565.9724 1448.6549,-532.1141 1518,-510 1561.3351,-496.1804 1609.2786,-487.0815 1654.8521,-481.1056"/>
<polygon fill="#000000" stroke="#000000" points="1674.906,-478.6526 1656.1468,-490.0144 1664.98,-479.8668 1655.054,-481.081 1655.054,-481.081 1655.054,-481.081 1664.98,-479.8668 1653.9612,-472.1476 1674.906,-478.6526 1674.906,-478.6526"/>
</g>
<!-- daemonset/kube&#45;cni&#45;linux&#45;bridge&#45;plugin -->
<g id="node26" class="node">
<title>daemonset/kube&#45;cni&#45;linux&#45;bridge&#45;plugin</title>
<path fill="none" stroke="#000000" d="M2114,-427C2114,-427 1580,-427 1580,-427 1574,-427 1568,-421 1568,-415 1568,-415 1568,-367 1568,-367 1568,-361 1574,-355 1580,-355 1580,-355 2114,-355 2114,-355 2120,-355 2126,-361 2126,-367 2126,-367 2126,-415 2126,-415 2126,-421 2120,-427 2114,-427"/>
<text text-anchor="middle" x="1847" y="-384.8" font-family="Courier,monospace" font-weight="bold" font-size="24.00" fill="#000000">daemonset/kube&#45;cni&#45;linux&#45;bridge&#45;plugin</text>
</g>
<!-- deployment/cluster&#45;network&#45;addons&#45;operator&#45;&gt;daemonset/kube&#45;cni&#45;linux&#45;bridge&#45;plugin -->
<g id="edge24" class="edge">
<title>deployment/cluster&#45;network&#45;addons&#45;operator&#45;&gt;daemonset/kube&#45;cni&#45;linux&#45;bridge&#45;plugin</title>
<path fill="none" stroke="#000000" d="M1345.681,-600.7425C1355.3823,-596.9222 1364.8508,-592.6881 1374,-588 1458.265,-544.8219 1433.789,-474.2833 1518,-431 1527.8351,-425.9449 1538.0478,-421.4233 1548.5259,-417.3837"/>
<polygon fill="#000000" stroke="#000000" points="1567.6488,-410.6218 1551.7934,-425.7745 1558.2209,-413.9556 1548.7929,-417.2893 1548.7929,-417.2893 1548.7929,-417.2893 1558.2209,-413.9556 1545.7925,-408.8042 1567.6488,-410.6218 1567.6488,-410.6218"/>
</g>
<!-- deployment/virt&#45;template&#45;validator -->
<g id="node24" class="node">
<title>deployment/virt&#45;template&#45;validator</title>
<path fill="none" stroke="#000000" d="M2085.5,-309C2085.5,-309 1608.5,-309 1608.5,-309 1602.5,-309 1596.5,-303 1596.5,-297 1596.5,-297 1596.5,-249 1596.5,-249 1596.5,-243 1602.5,-237 1608.5,-237 1608.5,-237 2085.5,-237 2085.5,-237 2091.5,-237 2097.5,-243 2097.5,-249 2097.5,-249 2097.5,-297 2097.5,-297 2097.5,-303 2091.5,-309 2085.5,-309"/>
<text text-anchor="middle" x="1847" y="-266.8" font-family="Courier,monospace" font-weight="bold" font-size="24.00" fill="#000000">deployment/virt&#45;template&#45;validator</text>
</g>
<!-- deployment/ssp&#45;operator&#45;&gt;deployment/virt&#45;template&#45;validator -->
<g id="edge22" class="edge">
<title>deployment/ssp&#45;operator&#45;&gt;deployment/virt&#45;template&#45;validator</title>
<path fill="none" stroke="#000000" d="M1210.0631,-241.5074C1316.5247,-246.7713 1455.5018,-253.6429 1576.4621,-259.6236"/>
<polygon fill="#000000" stroke="#000000" points="1596.4875,-260.6137 1576.0674,-268.615 1586.4997,-260.1198 1576.5119,-259.626 1576.5119,-259.626 1576.5119,-259.626 1586.4997,-260.1198 1576.9564,-250.6369 1596.4875,-260.6137 1596.4875,-260.6137"/>
</g>
<!-- deployment/virt&#45;api -->
<g id="node21" class="node">
<title>deployment/virt&#45;api</title>
<path fill="none" stroke="#000000" d="M1978.5,-230C1978.5,-230 1715.5,-230 1715.5,-230 1709.5,-230 1703.5,-224 1703.5,-218 1703.5,-218 1703.5,-170 1703.5,-170 1703.5,-164 1709.5,-158 1715.5,-158 1715.5,-158 1978.5,-158 1978.5,-158 1984.5,-158 1990.5,-164 1990.5,-170 1990.5,-170 1990.5,-218 1990.5,-218 1990.5,-224 1984.5,-230 1978.5,-230"/>
<text text-anchor="middle" x="1847" y="-187.8" font-family="Courier,monospace" font-weight="bold" font-size="24.00" fill="#000000">deployment/virt&#45;api</text>
</g>
<!-- deployment/virt&#45;operator&#45;&gt;deployment/virt&#45;api -->
<g id="edge19" class="edge">
<title>deployment/virt&#45;operator&#45;&gt;deployment/virt&#45;api</title>
<path fill="none" stroke="#000000" d="M1217.5433,-162.8773C1356.6851,-169.757 1547.898,-179.2113 1682.9611,-185.8893"/>
<polygon fill="#000000" stroke="#000000" points="1703.3029,-186.8951 1682.8828,-194.8963 1693.3151,-186.4012 1683.3273,-185.9073 1683.3273,-185.9073 1683.3273,-185.9073 1693.3151,-186.4012 1683.7718,-176.9183 1703.3029,-186.8951 1703.3029,-186.8951"/>
</g>
<!-- deployment/virt&#45;controller -->
<g id="node23" class="node">
<title>deployment/virt&#45;controller</title>
<path fill="none" stroke="#000000" d="M2028.5,-151C2028.5,-151 1665.5,-151 1665.5,-151 1659.5,-151 1653.5,-145 1653.5,-139 1653.5,-139 1653.5,-91 1653.5,-91 1653.5,-85 1659.5,-79 1665.5,-79 1665.5,-79 2028.5,-79 2028.5,-79 2034.5,-79 2040.5,-85 2040.5,-91 2040.5,-91 2040.5,-139 2040.5,-139 2040.5,-145 2034.5,-151 2028.5,-151"/>
<text text-anchor="middle" x="1847" y="-108.8" font-family="Courier,monospace" font-weight="bold" font-size="24.00" fill="#000000">deployment/virt&#45;controller</text>
</g>
<!-- deployment/virt&#45;operator&#45;&gt;deployment/virt&#45;controller -->
<g id="edge20" class="edge">
<title>deployment/virt&#45;operator&#45;&gt;deployment/virt&#45;controller</title>
<path fill="none" stroke="#000000" d="M1217.5433,-145.3446C1340.3976,-139.4221 1503.8459,-131.5427 1633.3963,-125.2973"/>
<polygon fill="#000000" stroke="#000000" points="1653.4774,-124.3293 1633.934,-134.282 1643.489,-124.8108 1633.5006,-125.2924 1633.5006,-125.2924 1633.5006,-125.2924 1643.489,-124.8108 1633.0672,-116.3028 1653.4774,-124.3293 1653.4774,-124.3293"/>
</g>
<!-- daemonset/virt&#45;handler -->
<g id="node27" class="node">
<title>daemonset/virt&#45;handler</title>
<path fill="none" stroke="#000000" d="M2000,-72C2000,-72 1694,-72 1694,-72 1688,-72 1682,-66 1682,-60 1682,-60 1682,-12 1682,-12 1682,-6 1688,0 1694,0 1694,0 2000,0 2000,0 2006,0 2012,-6 2012,-12 2012,-12 2012,-60 2012,-60 2012,-66 2006,-72 2000,-72"/>
<text text-anchor="middle" x="1847" y="-29.8" font-family="Courier,monospace" font-weight="bold" font-size="24.00" fill="#000000">daemonset/virt&#45;handler</text>
</g>
<!-- deployment/virt&#45;operator&#45;&gt;daemonset/virt&#45;handler -->
<g id="edge25" class="edge">
<title>deployment/virt&#45;operator&#45;&gt;daemonset/virt&#45;handler</title>
<path fill="none" stroke="#000000" d="M1217.525,-123.075C1307.5853,-108.0077 1418.4257,-90.1378 1518,-76 1564.6064,-69.3827 1615.0251,-62.9097 1662.0594,-57.1645"/>
<polygon fill="#000000" stroke="#000000" points="1681.9888,-54.7486 1663.2173,-66.0902 1672.0615,-55.9521 1662.1341,-57.1556 1662.1341,-57.1556 1662.1341,-57.1556 1672.0615,-55.9521 1661.051,-48.221 1681.9888,-54.7486 1681.9888,-54.7486"/>
</g>
</g>
</svg>
