<?xml version="1.0" encoding="UTF-8" standalone="no"?>
<!DOCTYPE svg PUBLIC "-//W3C//DTD SVG 1.1//EN"
 "http://www.w3.org/Graphics/SVG/1.1/DTD/svg11.dtd">
<!-- Generated by graphviz version 2.40.1 (0)
 -->
<!-- Title: managed&#45;by Pages: 1 -->
<svg width="2815pt" height="1294pt"
 viewBox="14.40 14.40 2800.40 1279.40" xmlns="http://www.w3.org/2000/svg" xmlns:xlink="http://www.w3.org/1999/xlink">
<g id="graph0" class="graph" transform="scale(1 1) rotate(0) translate(18.4 1275.4)">
<title>managed&#45;by</title>
<polygon fill="#ffffff" stroke="transparent" points="-4,4 -4,-1261 2782,-1261 2782,4 -4,4"/>
<!-- HyperConverged/kubevirt&#45;hyperconverged -->
<g id="node1" class="node">
<title>HyperConverged/kubevirt&#45;hyperconverged</title>
<path fill="none" stroke="#000000" d="M667,-388C667,-388 133,-388 133,-388 127,-388 121,-382 121,-376 121,-376 121,-328 121,-328 121,-322 127,-316 133,-316 133,-316 667,-316 667,-316 673,-316 679,-322 679,-328 679,-328 679,-376 679,-376 679,-382 673,-388 667,-388"/>
<text text-anchor="middle" x="400" y="-345.8" font-family="Courier,monospace" font-weight="bold" font-size="24.00" fill="#000000">HyperConverged/kubevirt&#45;hyperconverged</text>
</g>
<!-- KubeVirt/kubevirt&#45;kubevirt&#45;hyperconverged -->
<g id="node2" class="node">
<title>KubeVirt/kubevirt&#45;kubevirt&#45;hyperconverged</title>
<path fill="none" stroke="#000000" d="M2377.5,-1257C2377.5,-1257 1800.5,-1257 1800.5,-1257 1794.5,-1257 1788.5,-1251 1788.5,-1245 1788.5,-1245 1788.5,-1197 1788.5,-1197 1788.5,-1191 1794.5,-1185 1800.5,-1185 1800.5,-1185 2377.5,-1185 2377.5,-1185 2383.5,-1185 2389.5,-1191 2389.5,-1197 2389.5,-1197 2389.5,-1245 2389.5,-1245 2389.5,-1251 2383.5,-1257 2377.5,-1257"/>
<text text-anchor="middle" x="2089" y="-1214.8" font-family="Courier,monospace" font-weight="bold" font-size="24.00" fill="#000000">KubeVirt/kubevirt&#45;kubevirt&#45;hyperconverged</text>
</g>
<!-- deployment/hco&#45;operator -->
<g id="node3" class="node">
<title>deployment/hco&#45;operator</title>
<path fill="none" stroke="#000000" d="M1440,-1059C1440,-1059 1120,-1059 1120,-1059 1114,-1059 1108,-1053 1108,-1047 1108,-1047 1108,-999 1108,-999 1108,-993 1114,-987 1120,-987 1120,-987 1440,-987 1440,-987 1446,-987 1452,-993 1452,-999 1452,-999 1452,-1047 1452,-1047 1452,-1053 1446,-1059 1440,-1059"/>
<text text-anchor="middle" x="1280" y="-1016.8" font-family="Courier,monospace" font-weight="bold" font-size="24.00" fill="#000000">deployment/hco&#45;operator</text>
</g>
<!-- deployment/hco&#45;operator&#45;&gt;KubeVirt/kubevirt&#45;kubevirt&#45;hyperconverged -->
<g id="edge1" class="edge">
<title>deployment/hco&#45;operator&#45;&gt;KubeVirt/kubevirt&#45;kubevirt&#45;hyperconverged</title>
<path fill="none" stroke="#000000" d="M1371.4013,-1059.0832C1466.8727,-1095.3427 1621.7123,-1150.15 1760,-1181 1762.7509,-1181.6137 1765.5169,-1182.2185 1768.2966,-1182.8146"/>
<polygon fill="#000000" stroke="#000000" points="1788.2544,-1186.9048 1766.8547,-1191.7061 1778.4581,-1184.8971 1768.6617,-1182.8894 1768.6617,-1182.8894 1768.6617,-1182.8894 1778.4581,-1184.8971 1770.4686,-1174.0726 1788.2544,-1186.9048 1788.2544,-1186.9048"/>
</g>
<!-- SSP/ssp&#45;kubevirt&#45;hyperconverged -->
<g id="node4" class="node">
<title>SSP/ssp&#45;kubevirt&#45;hyperconverged</title>
<path fill="none" stroke="#000000" d="M2306,-1178C2306,-1178 1872,-1178 1872,-1178 1866,-1178 1860,-1172 1860,-1166 1860,-1166 1860,-1118 1860,-1118 1860,-1112 1866,-1106 1872,-1106 1872,-1106 2306,-1106 2306,-1106 2312,-1106 2318,-1112 2318,-1118 2318,-1118 2318,-1166 2318,-1166 2318,-1172 2312,-1178 2306,-1178"/>
<text text-anchor="middle" x="2089" y="-1135.8" font-family="Courier,monospace" font-weight="bold" font-size="24.00" fill="#000000">SSP/ssp&#45;kubevirt&#45;hyperconverged</text>
</g>
<!-- deployment/hco&#45;operator&#45;&gt;SSP/ssp&#45;kubevirt&#45;hyperconverged -->
<g id="edge2" class="edge">
<title>deployment/hco&#45;operator&#45;&gt;SSP/ssp&#45;kubevirt&#45;hyperconverged</title>
<path fill="none" stroke="#000000" d="M1452.1853,-1053.1423C1543.509,-1068.6726 1657.6899,-1087.3679 1760,-1102 1785.7707,-1105.6856 1812.7085,-1109.3179 1839.5961,-1112.8006"/>
<polygon fill="#000000" stroke="#000000" points="1859.6354,-1115.3706 1838.653,-1121.7533 1849.7166,-1114.0985 1839.7979,-1112.8264 1839.7979,-1112.8264 1839.7979,-1112.8264 1849.7166,-1114.0985 1840.9428,-1103.8995 1859.6354,-1115.3706 1859.6354,-1115.3706"/>
</g>
<!-- CDI/cdi&#45;kubevirt&#45;hyperconverged -->
<g id="node5" class="node">
<title>CDI/cdi&#45;kubevirt&#45;hyperconverged</title>
<path fill="none" stroke="#000000" d="M2306,-1099C2306,-1099 1872,-1099 1872,-1099 1866,-1099 1860,-1093 1860,-1087 1860,-1087 1860,-1039 1860,-1039 1860,-1033 1866,-1027 1872,-1027 1872,-1027 2306,-1027 2306,-1027 2312,-1027 2318,-1033 2318,-1039 2318,-1039 2318,-1087 2318,-1087 2318,-1093 2312,-1099 2306,-1099"/>
<text text-anchor="middle" x="2089" y="-1056.8" font-family="Courier,monospace" font-weight="bold" font-size="24.00" fill="#000000">CDI/cdi&#45;kubevirt&#45;hyperconverged</text>
</g>
<!-- deployment/hco&#45;operator&#45;&gt;CDI/cdi&#45;kubevirt&#45;hyperconverged -->
<g id="edge3" class="edge">
<title>deployment/hco&#45;operator&#45;&gt;CDI/cdi&#45;kubevirt&#45;hyperconverged</title>
<path fill="none" stroke="#000000" d="M1452.0631,-1031.5074C1564.7934,-1037.0813 1713.981,-1044.4577 1839.6316,-1050.6703"/>
<polygon fill="#000000" stroke="#000000" points="1859.9866,-1051.6767 1839.5665,-1059.678 1849.9988,-1051.1828 1840.011,-1050.689 1840.011,-1050.689 1840.011,-1050.689 1849.9988,-1051.1828 1840.4555,-1041.6999 1859.9866,-1051.6767 1859.9866,-1051.6767"/>
</g>
<!-- NetworkAddonsConfig/cluster -->
<g id="node8" class="node">
<title>NetworkAddonsConfig/cluster</title>
<path fill="none" stroke="#000000" d="M2270.5,-1020C2270.5,-1020 1907.5,-1020 1907.5,-1020 1901.5,-1020 1895.5,-1014 1895.5,-1008 1895.5,-1008 1895.5,-960 1895.5,-960 1895.5,-954 1901.5,-948 1907.5,-948 1907.5,-948 2270.5,-948 2270.5,-948 2276.5,-948 2282.5,-954 2282.5,-960 2282.5,-960 2282.5,-1008 2282.5,-1008 2282.5,-1014 2276.5,-1020 2270.5,-1020"/>
<text text-anchor="middle" x="2089" y="-977.8" font-family="Courier,monospace" font-weight="bold" font-size="24.00" fill="#000000">NetworkAddonsConfig/cluster</text>
</g>
<!-- deployment/hco&#45;operator&#45;&gt;NetworkAddonsConfig/cluster -->
<g id="edge5" class="edge">
<title>deployment/hco&#45;operator&#45;&gt;NetworkAddonsConfig/cluster</title>
<path fill="none" stroke="#000000" d="M1452.0631,-1014.7052C1575.6221,-1008.7487 1742.979,-1000.6809 1875.1364,-994.3099"/>
<polygon fill="#000000" stroke="#000000" points="1895.2002,-993.3426 1875.6568,-1003.2953 1885.2118,-993.8242 1875.2234,-994.3058 1875.2234,-994.3058 1875.2234,-994.3058 1885.2118,-993.8242 1874.79,-985.3162 1895.2002,-993.3426 1895.2002,-993.3426"/>
</g>
<!-- deployment/kubevirt&#45;plugin -->
<g id="node19" class="node">
<title>deployment/kubevirt&#45;plugin</title>
<path fill="none" stroke="#000000" d="M2270.5,-941C2270.5,-941 1907.5,-941 1907.5,-941 1901.5,-941 1895.5,-935 1895.5,-929 1895.5,-929 1895.5,-881 1895.5,-881 1895.5,-875 1901.5,-869 1907.5,-869 1907.5,-869 2270.5,-869 2270.5,-869 2276.5,-869 2282.5,-875 2282.5,-881 2282.5,-881 2282.5,-929 2282.5,-929 2282.5,-935 2276.5,-941 2270.5,-941"/>
<text text-anchor="middle" x="2089" y="-898.8" font-family="Courier,monospace" font-weight="bold" font-size="24.00" fill="#000000">deployment/kubevirt&#45;plugin</text>
</g>
<!-- deployment/hco&#45;operator&#45;&gt;deployment/kubevirt&#45;plugin -->
<g id="edge17" class="edge">
<title>deployment/hco&#45;operator&#45;&gt;deployment/kubevirt&#45;plugin</title>
<path fill="none" stroke="#000000" d="M1452.201,-993.3019C1543.529,-977.9855 1657.7091,-959.5235 1760,-945 1797.2324,-939.7137 1836.8977,-934.5194 1875.327,-929.7147"/>
<polygon fill="#000000" stroke="#000000" points="1895.2909,-927.2393 1876.5504,-938.632 1885.3669,-928.4699 1875.4429,-929.7004 1875.4429,-929.7004 1875.4429,-929.7004 1885.3669,-928.4699 1874.3354,-920.7688 1895.2909,-927.2393 1895.2909,-927.2393"/>
</g>
<!-- CDIConfig/config -->
<g id="node6" class="node">
<title>CDIConfig/config</title>
<path fill="none" stroke="#000000" d="M2766,-862C2766,-862 2574,-862 2574,-862 2568,-862 2562,-856 2562,-850 2562,-850 2562,-802 2562,-802 2562,-796 2568,-790 2574,-790 2574,-790 2766,-790 2766,-790 2772,-790 2778,-796 2778,-802 2778,-802 2778,-850 2778,-850 2778,-856 2772,-862 2766,-862"/>
<text text-anchor="middle" x="2670" y="-819.8" font-family="Courier,monospace" font-weight="bold" font-size="24.00" fill="#000000">CDIConfig/config</text>
</g>
<!-- deployment/cdi&#45;deployment -->
<g id="node7" class="node">
<title>deployment/cdi&#45;deployment</title>
<path fill="none" stroke="#000000" d="M2263.5,-862C2263.5,-862 1914.5,-862 1914.5,-862 1908.5,-862 1902.5,-856 1902.5,-850 1902.5,-850 1902.5,-802 1902.5,-802 1902.5,-796 1908.5,-790 1914.5,-790 1914.5,-790 2263.5,-790 2263.5,-790 2269.5,-790 2275.5,-796 2275.5,-802 2275.5,-802 2275.5,-850 2275.5,-850 2275.5,-856 2269.5,-862 2263.5,-862"/>
<text text-anchor="middle" x="2089" y="-819.8" font-family="Courier,monospace" font-weight="bold" font-size="24.00" fill="#000000">deployment/cdi&#45;deployment</text>
</g>
<!-- deployment/cdi&#45;deployment&#45;&gt;CDIConfig/config -->
<g id="edge4" class="edge">
<title>deployment/cdi&#45;deployment&#45;&gt;CDIConfig/config</title>
<path fill="none" stroke="#000000" d="M2275.6297,-826C2362.4412,-826 2463.5049,-826 2541.5891,-826"/>
<polygon fill="#000000" stroke="#000000" points="2561.9453,-826 2541.9453,-835.0001 2551.9453,-826 2541.9453,-826.0001 2541.9453,-826.0001 2541.9453,-826.0001 2551.9453,-826 2541.9452,-817.0001 2561.9453,-826 2561.9453,-826"/>
</g>
<!-- deployment/cdi&#45;apiserver -->
<g id="node9" class="node">
<title>deployment/cdi&#45;apiserver</title>
<path fill="none" stroke="#000000" d="M2256.5,-783C2256.5,-783 1921.5,-783 1921.5,-783 1915.5,-783 1909.5,-777 1909.5,-771 1909.5,-771 1909.5,-723 1909.5,-723 1909.5,-717 1915.5,-711 1921.5,-711 1921.5,-711 2256.5,-711 2256.5,-711 2262.5,-711 2268.5,-717 2268.5,-723 2268.5,-723 2268.5,-771 2268.5,-771 2268.5,-777 2262.5,-783 2256.5,-783"/>
<text text-anchor="middle" x="2089" y="-740.8" font-family="Courier,monospace" font-weight="bold" font-size="24.00" fill="#000000">deployment/cdi&#45;apiserver</text>
</g>
<!-- deployment/cdi&#45;operator -->
<g id="node10" class="node">
<title>deployment/cdi&#45;operator</title>
<path fill="none" stroke="#000000" d="M1440,-744C1440,-744 1120,-744 1120,-744 1114,-744 1108,-738 1108,-732 1108,-732 1108,-684 1108,-684 1108,-678 1114,-672 1120,-672 1120,-672 1440,-672 1440,-672 1446,-672 1452,-678 1452,-684 1452,-684 1452,-732 1452,-732 1452,-738 1446,-744 1440,-744"/>
<text text-anchor="middle" x="1280" y="-701.8" font-family="Courier,monospace" font-weight="bold" font-size="24.00" fill="#000000">deployment/cdi&#45;operator</text>
</g>
<!-- deployment/cdi&#45;operator&#45;&gt;deployment/cdi&#45;deployment -->
<g id="edge7" class="edge">
<title>deployment/cdi&#45;operator&#45;&gt;deployment/cdi&#45;deployment</title>
<path fill="none" stroke="#000000" d="M1452.201,-737.6981C1543.529,-753.0145 1657.7091,-771.4765 1760,-786 1799.4424,-791.6001 1841.6151,-797.0969 1882.1562,-802.1367"/>
<polygon fill="#000000" stroke="#000000" points="1902.2252,-804.6113 1881.2741,-811.096 1892.3004,-803.3874 1882.3755,-802.1636 1882.3755,-802.1636 1882.3755,-802.1636 1892.3004,-803.3874 1883.477,-793.2313 1902.2252,-804.6113 1902.2252,-804.6113"/>
</g>
<!-- deployment/cdi&#45;operator&#45;&gt;deployment/cdi&#45;apiserver -->
<g id="edge6" class="edge">
<title>deployment/cdi&#45;operator&#45;&gt;deployment/cdi&#45;apiserver</title>
<path fill="none" stroke="#000000" d="M1452.0631,-716.2948C1580.035,-722.464 1754.9889,-730.8981 1889.1578,-737.3661"/>
<polygon fill="#000000" stroke="#000000" points="1909.4861,-738.3461 1889.0759,-746.3725 1899.4977,-737.8645 1889.5093,-737.3829 1889.5093,-737.3829 1889.5093,-737.3829 1899.4977,-737.8645 1889.9427,-728.3934 1909.4861,-738.3461 1909.4861,-738.3461"/>
</g>
<!-- deployment/cdi&#45;uploadproxy -->
<g id="node12" class="node">
<title>deployment/cdi&#45;uploadproxy</title>
<path fill="none" stroke="#000000" d="M2270.5,-704C2270.5,-704 1907.5,-704 1907.5,-704 1901.5,-704 1895.5,-698 1895.5,-692 1895.5,-692 1895.5,-644 1895.5,-644 1895.5,-638 1901.5,-632 1907.5,-632 1907.5,-632 2270.5,-632 2270.5,-632 2276.5,-632 2282.5,-638 2282.5,-644 2282.5,-644 2282.5,-692 2282.5,-692 2282.5,-698 2276.5,-704 2270.5,-704"/>
<text text-anchor="middle" x="2089" y="-661.8" font-family="Courier,monospace" font-weight="bold" font-size="24.00" fill="#000000">deployment/cdi&#45;uploadproxy</text>
</g>
<!-- deployment/cdi&#45;operator&#45;&gt;deployment/cdi&#45;uploadproxy -->
<g id="edge9" class="edge">
<title>deployment/cdi&#45;operator&#45;&gt;deployment/cdi&#45;uploadproxy</title>
<path fill="none" stroke="#000000" d="M1452.0631,-699.4926C1575.6221,-693.3833 1742.979,-685.1086 1875.1364,-678.5742"/>
<polygon fill="#000000" stroke="#000000" points="1895.2002,-677.5822 1875.6691,-687.559 1885.2124,-678.0761 1875.2246,-678.57 1875.2246,-678.57 1875.2246,-678.57 1885.2124,-678.0761 1874.7801,-669.5809 1895.2002,-677.5822 1895.2002,-677.5822"/>
</g>
<!-- olm -->
<g id="node11" class="node">
<title>olm</title>
<path fill="none" stroke="#000000" d="M496,-467C496,-467 304,-467 304,-467 298,-467 292,-461 292,-455 292,-455 292,-407 292,-407 292,-401 298,-395 304,-395 304,-395 496,-395 496,-395 502,-395 508,-401 508,-407 508,-407 508,-455 508,-455 508,-461 502,-467 496,-467"/>
<text text-anchor="middle" x="400" y="-424.8" font-family="Courier,monospace" font-weight="bold" font-size="24.00" fill="#000000">olm</text>
</g>
<!-- olm&#45;&gt;deployment/hco&#45;operator -->
<g id="edge11" class="edge">
<title>olm&#45;&gt;deployment/hco&#45;operator</title>
<path fill="none" stroke="#000000" d="M508.2648,-415.4144C594.5305,-408.8118 714.5925,-413.2207 800,-471 914.5979,-548.527 856.7854,-639.5909 944,-747 1020.323,-840.9956 1132.902,-925.5501 1206.3463,-975.5967"/>
<polygon fill="#000000" stroke="#000000" points="1223.2167,-986.9549 1201.6,-983.2508 1214.9216,-981.3701 1206.6264,-975.7852 1206.6264,-975.7852 1206.6264,-975.7852 1214.9216,-981.3701 1211.6528,-968.3196 1223.2167,-986.9549 1223.2167,-986.9549"/>
</g>
<!-- olm&#45;&gt;deployment/cdi&#45;operator -->
<g id="edge8" class="edge">
<title>olm&#45;&gt;deployment/cdi&#45;operator</title>
<path fill="none" stroke="#000000" d="M508.0537,-421.5312C591.9963,-418.8153 709.04,-425.4669 800,-471 884.6676,-513.3832 862.3617,-580.0403 944,-628 987.4931,-653.5507 1038.6834,-670.9477 1087.8159,-682.7908"/>
<polygon fill="#000000" stroke="#000000" points="1107.6151,-687.2979 1086.1163,-691.634 1097.8645,-685.0782 1088.114,-682.8585 1088.114,-682.8585 1088.114,-682.8585 1097.8645,-685.0782 1090.1117,-674.083 1107.6151,-687.2979 1107.6151,-687.2979"/>
</g>
<!-- deployment/cluster&#45;network&#45;addons&#45;operator -->
<g id="node13" class="node">
<title>deployment/cluster&#45;network&#45;addons&#45;operator</title>
<path fill="none" stroke="#000000" d="M1575.5,-625C1575.5,-625 984.5,-625 984.5,-625 978.5,-625 972.5,-619 972.5,-613 972.5,-613 972.5,-565 972.5,-565 972.5,-559 978.5,-553 984.5,-553 984.5,-553 1575.5,-553 1575.5,-553 1581.5,-553 1587.5,-559 1587.5,-565 1587.5,-565 1587.5,-613 1587.5,-613 1587.5,-619 1581.5,-625 1575.5,-625"/>
<text text-anchor="middle" x="1280" y="-582.8" font-family="Courier,monospace" font-weight="bold" font-size="24.00" fill="#000000">deployment/cluster&#45;network&#45;addons&#45;operator</text>
</g>
<!-- olm&#45;&gt;deployment/cluster&#45;network&#45;addons&#45;operator -->
<g id="edge10" class="edge">
<title>olm&#45;&gt;deployment/cluster&#45;network&#45;addons&#45;operator</title>
<path fill="none" stroke="#000000" d="M508.385,-430.3465C590.1733,-432.5835 704.2656,-441.5907 800,-471 869.5769,-492.3738 874.6274,-526.9724 944,-549 946.887,-549.9167 949.794,-550.8127 952.7191,-551.6885"/>
<polygon fill="#000000" stroke="#000000" points="972.2653,-557.1795 950.5765,-560.4349 962.6379,-554.4749 953.0106,-551.7703 953.0106,-551.7703 953.0106,-551.7703 962.6379,-554.4749 955.4448,-543.1057 972.2653,-557.1795 972.2653,-557.1795"/>
</g>
<!-- deployment/hco&#45;webhook -->
<g id="node14" class="node">
<title>deployment/hco&#45;webhook</title>
<path fill="none" stroke="#000000" d="M1433,-546C1433,-546 1127,-546 1127,-546 1121,-546 1115,-540 1115,-534 1115,-534 1115,-486 1115,-486 1115,-480 1121,-474 1127,-474 1127,-474 1433,-474 1433,-474 1439,-474 1445,-480 1445,-486 1445,-486 1445,-534 1445,-534 1445,-540 1439,-546 1433,-546"/>
<text text-anchor="middle" x="1280" y="-503.8" font-family="Courier,monospace" font-weight="bold" font-size="24.00" fill="#000000">deployment/hco&#45;webhook</text>
</g>
<!-- olm&#45;&gt;deployment/hco&#45;webhook -->
<g id="edge12" class="edge">
<title>olm&#45;&gt;deployment/hco&#45;webhook</title>
<path fill="none" stroke="#000000" d="M508.3462,-440.7265C654.4347,-453.8413 916.7181,-477.3872 1094.5102,-493.3481"/>
<polygon fill="#000000" stroke="#000000" points="1114.6783,-495.1586 1093.9536,-502.3342 1104.7183,-494.2644 1094.7584,-493.3703 1094.7584,-493.3703 1094.7584,-493.3703 1104.7183,-494.2644 1095.5631,-484.4063 1114.6783,-495.1586 1114.6783,-495.1586"/>
</g>
<!-- deployment/hostpath&#45;provisioner&#45;operator -->
<g id="node15" class="node">
<title>deployment/hostpath&#45;provisioner&#45;operator</title>
<path fill="none" stroke="#000000" d="M1561.5,-467C1561.5,-467 998.5,-467 998.5,-467 992.5,-467 986.5,-461 986.5,-455 986.5,-455 986.5,-407 986.5,-407 986.5,-401 992.5,-395 998.5,-395 998.5,-395 1561.5,-395 1561.5,-395 1567.5,-395 1573.5,-401 1573.5,-407 1573.5,-407 1573.5,-455 1573.5,-455 1573.5,-461 1567.5,-467 1561.5,-467"/>
<text text-anchor="middle" x="1280" y="-424.8" font-family="Courier,monospace" font-weight="bold" font-size="24.00" fill="#000000">deployment/hostpath&#45;provisioner&#45;operator</text>
</g>
<!-- olm&#45;&gt;deployment/hostpath&#45;provisioner&#45;operator -->
<g id="edge13" class="edge">
<title>olm&#45;&gt;deployment/hostpath&#45;provisioner&#45;operator</title>
<path fill="none" stroke="#000000" d="M508.3462,-431C622.0114,-431 806.0178,-431 965.8393,-431"/>
<polygon fill="#000000" stroke="#000000" points="986.2058,-431 966.2059,-440.0001 976.2058,-431 966.2058,-431.0001 966.2058,-431.0001 966.2058,-431.0001 976.2058,-431 966.2058,-422.0001 986.2058,-431 986.2058,-431"/>
</g>
<!-- deployment/hyperconverged&#45;cluster&#45;cli&#45;download -->
<g id="node16" class="node">
<title>deployment/hyperconverged&#45;cluster&#45;cli&#45;download</title>
<path fill="none" stroke="#000000" d="M1604,-388C1604,-388 956,-388 956,-388 950,-388 944,-382 944,-376 944,-376 944,-328 944,-328 944,-322 950,-316 956,-316 956,-316 1604,-316 1604,-316 1610,-316 1616,-322 1616,-328 1616,-328 1616,-376 1616,-376 1616,-382 1610,-388 1604,-388"/>
<text text-anchor="middle" x="1280" y="-345.8" font-family="Courier,monospace" font-weight="bold" font-size="24.00" fill="#000000">deployment/hyperconverged&#45;cluster&#45;cli&#45;download</text>
</g>
<!-- olm&#45;&gt;deployment/hyperconverged&#45;cluster&#45;cli&#45;download -->
<g id="edge14" class="edge">
<title>olm&#45;&gt;deployment/hyperconverged&#45;cluster&#45;cli&#45;download</title>
<path fill="none" stroke="#000000" d="M508.3462,-421.2735C612.1072,-411.9586 774.4853,-397.3814 923.5732,-383.9974"/>
<polygon fill="#000000" stroke="#000000" points="943.5675,-382.2025 924.4524,-392.9548 933.6076,-383.0966 923.6476,-383.9908 923.6476,-383.9908 923.6476,-383.9908 933.6076,-383.0966 922.8429,-375.0269 943.5675,-382.2025 943.5675,-382.2025"/>
</g>
<!-- deployment/ssp&#45;operator -->
<g id="node21" class="node">
<title>deployment/ssp&#45;operator</title>
<path fill="none" stroke="#000000" d="M1440,-309C1440,-309 1120,-309 1120,-309 1114,-309 1108,-303 1108,-297 1108,-297 1108,-249 1108,-249 1108,-243 1114,-237 1120,-237 1120,-237 1440,-237 1440,-237 1446,-237 1452,-243 1452,-249 1452,-249 1452,-297 1452,-297 1452,-303 1446,-309 1440,-309"/>
<text text-anchor="middle" x="1280" y="-266.8" font-family="Courier,monospace" font-weight="bold" font-size="24.00" fill="#000000">deployment/ssp&#45;operator</text>
</g>
<!-- olm&#45;&gt;deployment/ssp&#45;operator -->
<g id="edge18" class="edge">
<title>olm&#45;&gt;deployment/ssp&#45;operator</title>
<path fill="none" stroke="#000000" d="M508.385,-431.6535C590.1733,-429.4165 704.2656,-420.4093 800,-391 869.5769,-369.6262 874.6274,-335.0276 944,-313 989.5412,-298.5395 1040.0621,-289.23 1087.801,-283.258"/>
<polygon fill="#000000" stroke="#000000" points="1107.7102,-280.9363 1088.8873,-292.1924 1097.7775,-282.0946 1087.8448,-283.253 1087.8448,-283.253 1087.8448,-283.253 1097.7775,-282.0946 1086.8023,-274.3136 1107.7102,-280.9363 1107.7102,-280.9363"/>
</g>
<!-- deployment/tekton&#45;tasks&#45;operator -->
<g id="node22" class="node">
<title>deployment/tekton&#45;tasks&#45;operator</title>
<path fill="none" stroke="#000000" d="M1504.5,-230C1504.5,-230 1055.5,-230 1055.5,-230 1049.5,-230 1043.5,-224 1043.5,-218 1043.5,-218 1043.5,-170 1043.5,-170 1043.5,-164 1049.5,-158 1055.5,-158 1055.5,-158 1504.5,-158 1504.5,-158 1510.5,-158 1516.5,-164 1516.5,-170 1516.5,-170 1516.5,-218 1516.5,-218 1516.5,-224 1510.5,-230 1504.5,-230"/>
<text text-anchor="middle" x="1280" y="-187.8" font-family="Courier,monospace" font-weight="bold" font-size="24.00" fill="#000000">deployment/tekton&#45;tasks&#45;operator</text>
</g>
<!-- olm&#45;&gt;deployment/tekton&#45;tasks&#45;operator -->
<g id="edge19" class="edge">
<title>olm&#45;&gt;deployment/tekton&#45;tasks&#45;operator</title>
<path fill="none" stroke="#000000" d="M508.0537,-440.4688C591.9963,-443.1847 709.04,-436.5331 800,-391 884.6676,-348.6168 859.735,-277.1781 944,-234 968.7305,-221.3279 995.7935,-211.9731 1023.4828,-205.1424"/>
<polygon fill="#000000" stroke="#000000" points="1043.2289,-200.7053 1025.6886,-213.8712 1033.4722,-202.8977 1023.7155,-205.0902 1023.7155,-205.0902 1023.7155,-205.0902 1033.4722,-202.8977 1021.7423,-196.3091 1043.2289,-200.7053 1043.2289,-200.7053"/>
</g>
<!-- deployment/virt&#45;operator -->
<g id="node24" class="node">
<title>deployment/virt&#45;operator</title>
<path fill="none" stroke="#000000" d="M1447.5,-151C1447.5,-151 1112.5,-151 1112.5,-151 1106.5,-151 1100.5,-145 1100.5,-139 1100.5,-139 1100.5,-91 1100.5,-91 1100.5,-85 1106.5,-79 1112.5,-79 1112.5,-79 1447.5,-79 1447.5,-79 1453.5,-79 1459.5,-85 1459.5,-91 1459.5,-91 1459.5,-139 1459.5,-139 1459.5,-145 1453.5,-151 1447.5,-151"/>
<text text-anchor="middle" x="1280" y="-108.8" font-family="Courier,monospace" font-weight="bold" font-size="24.00" fill="#000000">deployment/virt&#45;operator</text>
</g>
<!-- olm&#45;&gt;deployment/virt&#45;operator -->
<g id="edge22" class="edge">
<title>olm&#45;&gt;deployment/virt&#45;operator</title>
<path fill="none" stroke="#000000" d="M508.1238,-445.0919C593.7452,-450.709 713.0012,-445.7016 800,-391 904.0195,-325.5964 840.6006,-221.3796 944,-155 984.2092,-129.1868 1032.7863,-115.7386 1080.3549,-109.4039"/>
<polygon fill="#000000" stroke="#000000" points="1100.2927,-107.143 1081.4342,-118.3393 1090.3564,-108.2698 1080.4201,-109.3966 1080.4201,-109.3966 1080.4201,-109.3966 1090.3564,-108.2698 1079.4059,-100.4539 1100.2927,-107.143 1100.2927,-107.143"/>
</g>
<!-- deployment/kubemacpool&#45;cert&#45;manager -->
<g id="node17" class="node">
<title>deployment/kubemacpool&#45;cert&#45;manager</title>
<path fill="none" stroke="#000000" d="M2334.5,-625C2334.5,-625 1843.5,-625 1843.5,-625 1837.5,-625 1831.5,-619 1831.5,-613 1831.5,-613 1831.5,-565 1831.5,-565 1831.5,-559 1837.5,-553 1843.5,-553 1843.5,-553 2334.5,-553 2334.5,-553 2340.5,-553 2346.5,-559 2346.5,-565 2346.5,-565 2346.5,-613 2346.5,-613 2346.5,-619 2340.5,-625 2334.5,-625"/>
<text text-anchor="middle" x="2089" y="-582.8" font-family="Courier,monospace" font-weight="bold" font-size="24.00" fill="#000000">deployment/kubemacpool&#45;cert&#45;manager</text>
</g>
<!-- deployment/cluster&#45;network&#45;addons&#45;operator&#45;&gt;deployment/kubemacpool&#45;cert&#45;manager -->
<g id="edge15" class="edge">
<title>deployment/cluster&#45;network&#45;addons&#45;operator&#45;&gt;deployment/kubemacpool&#45;cert&#45;manager</title>
<path fill="none" stroke="#000000" d="M1587.5788,-589C1661.085,-589 1739.1285,-589 1811.2024,-589"/>
<polygon fill="#000000" stroke="#000000" points="1831.3639,-589 1811.3639,-598.0001 1821.3639,-589 1811.3639,-589.0001 1811.3639,-589.0001 1811.3639,-589.0001 1821.3639,-589 1811.3639,-580.0001 1831.3639,-589 1831.3639,-589"/>
</g>
<!-- deployment/kubemacpool&#45;mac&#45;controller&#45;manager -->
<g id="node18" class="node">
<title>deployment/kubemacpool&#45;mac&#45;controller&#45;manager</title>
<path fill="none" stroke="#000000" d="M2406,-546C2406,-546 1772,-546 1772,-546 1766,-546 1760,-540 1760,-534 1760,-534 1760,-486 1760,-486 1760,-480 1766,-474 1772,-474 1772,-474 2406,-474 2406,-474 2412,-474 2418,-480 2418,-486 2418,-486 2418,-534 2418,-534 2418,-540 2412,-546 2406,-546"/>
<text text-anchor="middle" x="2089" y="-503.8" font-family="Courier,monospace" font-weight="bold" font-size="24.00" fill="#000000">deployment/kubemacpool&#45;mac&#45;controller&#45;manager</text>
</g>
<!-- deployment/cluster&#45;network&#45;addons&#45;operator&#45;&gt;deployment/kubemacpool&#45;mac&#45;controller&#45;manager -->
<g id="edge16" class="edge">
<title>deployment/cluster&#45;network&#45;addons&#45;operator&#45;&gt;deployment/kubemacpool&#45;mac&#45;controller&#45;manager</title>
<path fill="none" stroke="#000000" d="M1587.5788,-558.9645C1637.274,-554.1117 1689.0431,-549.0564 1739.6393,-544.1156"/>
<polygon fill="#000000" stroke="#000000" points="1759.7186,-542.1548 1740.688,-553.0561 1749.7659,-543.1267 1739.8133,-544.0987 1739.8133,-544.0987 1739.8133,-544.0987 1749.7659,-543.1267 1738.9385,-535.1413 1759.7186,-542.1548 1759.7186,-542.1548"/>
</g>
<!-- daemonset/bridge&#45;marker -->
<g id="node27" class="node">
<title>daemonset/bridge&#45;marker</title>
<path fill="none" stroke="#000000" d="M2249,-467C2249,-467 1929,-467 1929,-467 1923,-467 1917,-461 1917,-455 1917,-455 1917,-407 1917,-407 1917,-401 1923,-395 1929,-395 1929,-395 2249,-395 2249,-395 2255,-395 2261,-401 2261,-407 2261,-407 2261,-455 2261,-455 2261,-461 2255,-467 2249,-467"/>
<text text-anchor="middle" x="2089" y="-424.8" font-family="Courier,monospace" font-weight="bold" font-size="24.00" fill="#000000">daemonset/bridge&#45;marker</text>
</g>
<!-- deployment/cluster&#45;network&#45;addons&#45;operator&#45;&gt;daemonset/bridge&#45;marker -->
<g id="edge24" class="edge">
<title>deployment/cluster&#45;network&#45;addons&#45;operator&#45;&gt;daemonset/bridge&#45;marker</title>
<path fill="none" stroke="#000000" d="M1587.7347,-557.1795C1597.3182,-554.6549 1606.7616,-551.9334 1616,-549 1685.3726,-526.9724 1690.6549,-493.1141 1760,-471 1803.3351,-457.1804 1851.2786,-448.0815 1896.8521,-442.1056"/>
<polygon fill="#000000" stroke="#000000" points="1916.906,-439.6526 1898.1468,-451.0144 1906.98,-440.8668 1897.054,-442.081 1897.054,-442.081 1897.054,-442.081 1906.98,-440.8668 1895.9612,-433.1476 1916.906,-439.6526 1916.906,-439.6526"/>
</g>
<!-- daemonset/kube&#45;cni&#45;linux&#45;bridge&#45;plugin -->
<g id="node28" class="node">
<title>daemonset/kube&#45;cni&#45;linux&#45;bridge&#45;plugin</title>
<path fill="none" stroke="#000000" d="M2356,-388C2356,-388 1822,-388 1822,-388 1816,-388 1810,-382 1810,-376 1810,-376 1810,-328 1810,-328 1810,-322 1816,-316 1822,-316 1822,-316 2356,-316 2356,-316 2362,-316 2368,-322 2368,-328 2368,-328 2368,-376 2368,-376 2368,-382 2362,-388 2356,-388"/>
<text text-anchor="middle" x="2089" y="-345.8" font-family="Courier,monospace" font-weight="bold" font-size="24.00" fill="#000000">daemonset/kube&#45;cni&#45;linux&#45;bridge&#45;plugin</text>
</g>
<!-- deployment/cluster&#45;network&#45;addons&#45;operator&#45;&gt;daemonset/kube&#45;cni&#45;linux&#45;bridge&#45;plugin -->
<g id="edge25" class="edge">
<title>deployment/cluster&#45;network&#45;addons&#45;operator&#45;&gt;daemonset/kube&#45;cni&#45;linux&#45;bridge&#45;plugin</title>
<path fill="none" stroke="#000000" d="M1587.681,-561.7425C1597.3823,-557.9222 1606.8508,-553.6881 1616,-549 1700.265,-505.8219 1675.789,-435.2833 1760,-392 1769.8351,-386.9449 1780.0478,-382.4233 1790.5259,-378.3837"/>
<polygon fill="#000000" stroke="#000000" points="1809.6488,-371.6218 1793.7934,-386.7745 1800.2209,-374.9556 1790.7929,-378.2893 1790.7929,-378.2893 1790.7929,-378.2893 1800.2209,-374.9556 1787.7925,-369.8042 1809.6488,-371.6218 1809.6488,-371.6218"/>
</g>
<!-- deployment/node&#45;maintenance&#45;operator&#45;controller&#45;manager -->
<g id="node20" class="node">
<title>deployment/node&#45;maintenance&#45;operator&#45;controller&#45;manager</title>
<path fill="none" stroke="#000000" d="M788,-546C788,-546 12,-546 12,-546 6,-546 0,-540 0,-534 0,-534 0,-486 0,-486 0,-480 6,-474 12,-474 12,-474 788,-474 788,-474 794,-474 800,-480 800,-486 800,-486 800,-534 800,-534 800,-540 794,-546 788,-546"/>
<text text-anchor="middle" x="400" y="-503.8" font-family="Courier,monospace" font-weight="bold" font-size="24.00" fill="#000000">deployment/node&#45;maintenance&#45;operator&#45;controller&#45;manager</text>
</g>
<!-- deployment/virt&#45;template&#45;validator -->
<g id="node26" class="node">
<title>deployment/virt&#45;template&#45;validator</title>
<path fill="none" stroke="#000000" d="M2327.5,-309C2327.5,-309 1850.5,-309 1850.5,-309 1844.5,-309 1838.5,-303 1838.5,-297 1838.5,-297 1838.5,-249 1838.5,-249 1838.5,-243 1844.5,-237 1850.5,-237 1850.5,-237 2327.5,-237 2327.5,-237 2333.5,-237 2339.5,-243 2339.5,-249 2339.5,-249 2339.5,-297 2339.5,-297 2339.5,-303 2333.5,-309 2327.5,-309"/>
<text text-anchor="middle" x="2089" y="-266.8" font-family="Courier,monospace" font-weight="bold" font-size="24.00" fill="#000000">deployment/virt&#45;template&#45;validator</text>
</g>
<!-- deployment/ssp&#45;operator&#45;&gt;deployment/virt&#45;template&#45;validator -->
<g id="edge23" class="edge">
<title>deployment/ssp&#45;operator&#45;&gt;deployment/virt&#45;template&#45;validator</title>
<path fill="none" stroke="#000000" d="M1452.0631,-273C1558.5247,-273 1697.5018,-273 1818.4621,-273"/>
<polygon fill="#000000" stroke="#000000" points="1838.4875,-273 1818.4876,-282.0001 1828.4875,-273 1818.4875,-273.0001 1818.4875,-273.0001 1818.4875,-273.0001 1828.4875,-273 1818.4875,-264.0001 1838.4875,-273 1838.4875,-273"/>
</g>
<!-- deployment/virt&#45;api -->
<g id="node23" class="node">
<title>deployment/virt&#45;api</title>
<path fill="none" stroke="#000000" d="M2220.5,-230C2220.5,-230 1957.5,-230 1957.5,-230 1951.5,-230 1945.5,-224 1945.5,-218 1945.5,-218 1945.5,-170 1945.5,-170 1945.5,-164 1951.5,-158 1957.5,-158 1957.5,-158 2220.5,-158 2220.5,-158 2226.5,-158 2232.5,-164 2232.5,-170 2232.5,-170 2232.5,-218 2232.5,-218 2232.5,-224 2226.5,-230 2220.5,-230"/>
<text text-anchor="middle" x="2089" y="-187.8" font-family="Courier,monospace" font-weight="bold" font-size="24.00" fill="#000000">deployment/virt&#45;api</text>
</g>
<!-- deployment/virt&#45;operator&#45;&gt;deployment/virt&#45;api -->
<g id="edge20" class="edge">
<title>deployment/virt&#45;operator&#45;&gt;deployment/virt&#45;api</title>
<path fill="none" stroke="#000000" d="M1459.5433,-132.5327C1598.828,-146.134 1790.2907,-164.8306 1925.377,-178.022"/>
<polygon fill="#000000" stroke="#000000" points="1945.3029,-179.9678 1924.5228,-186.9813 1935.3502,-178.9958 1925.3975,-178.0239 1925.3975,-178.0239 1925.3975,-178.0239 1935.3502,-178.9958 1926.2723,-169.0665 1945.3029,-179.9678 1945.3029,-179.9678"/>
</g>
<!-- deployment/virt&#45;controller -->
<g id="node25" class="node">
<title>deployment/virt&#45;controller</title>
<path fill="none" stroke="#000000" d="M2270.5,-151C2270.5,-151 1907.5,-151 1907.5,-151 1901.5,-151 1895.5,-145 1895.5,-139 1895.5,-139 1895.5,-91 1895.5,-91 1895.5,-85 1901.5,-79 1907.5,-79 1907.5,-79 2270.5,-79 2270.5,-79 2276.5,-79 2282.5,-85 2282.5,-91 2282.5,-91 2282.5,-139 2282.5,-139 2282.5,-145 2276.5,-151 2270.5,-151"/>
<text text-anchor="middle" x="2089" y="-108.8" font-family="Courier,monospace" font-weight="bold" font-size="24.00" fill="#000000">deployment/virt&#45;controller</text>
</g>
<!-- deployment/virt&#45;operator&#45;&gt;deployment/virt&#45;controller -->
<g id="edge21" class="edge">
<title>deployment/virt&#45;operator&#45;&gt;deployment/virt&#45;controller</title>
<path fill="none" stroke="#000000" d="M1459.5433,-115C1582.3976,-115 1745.8459,-115 1875.3963,-115"/>
<polygon fill="#000000" stroke="#000000" points="1895.4774,-115 1875.4775,-124.0001 1885.4774,-115 1875.4774,-115.0001 1875.4774,-115.0001 1875.4774,-115.0001 1885.4774,-115 1875.4774,-106.0001 1895.4774,-115 1895.4774,-115"/>
</g>
<!-- daemonset/virt&#45;handler -->
<g id="node29" class="node">
<title>daemonset/virt&#45;handler</title>
<path fill="none" stroke="#000000" d="M2242,-72C2242,-72 1936,-72 1936,-72 1930,-72 1924,-66 1924,-60 1924,-60 1924,-12 1924,-12 1924,-6 1930,0 1936,0 1936,0 2242,0 2242,0 2248,0 2254,-6 2254,-12 2254,-12 2254,-60 2254,-60 2254,-66 2248,-72 2242,-72"/>
<text text-anchor="middle" x="2089" y="-29.8" font-family="Courier,monospace" font-weight="bold" font-size="24.00" fill="#000000">daemonset/virt&#45;handler</text>
</g>
<!-- deployment/virt&#45;operator&#45;&gt;daemonset/virt&#45;handler -->
<g id="edge26" class="edge">
<title>deployment/virt&#45;operator&#45;&gt;daemonset/virt&#45;handler</title>
<path fill="none" stroke="#000000" d="M1459.5433,-97.4673C1591.49,-84.5826 1770.2619,-67.1252 1903.5732,-54.1072"/>
<polygon fill="#000000" stroke="#000000" points="1923.7318,-52.1387 1904.7012,-63.0399 1913.7791,-53.1106 1903.8264,-54.0826 1903.8264,-54.0826 1903.8264,-54.0826 1913.7791,-53.1106 1902.9517,-45.1252 1923.7318,-52.1387 1923.7318,-52.1387"/>
</g>
</g>
</svg>
