<?xml version="1.0" encoding="UTF-8" standalone="no"?>
<!DOCTYPE svg PUBLIC "-//W3C//DTD SVG 1.1//EN"
 "http://www.w3.org/Graphics/SVG/1.1/DTD/svg11.dtd">
<!-- Generated by graphviz version 2.44.0 (0)
 -->
<!-- Title: managed&#45;by Pages: 1 -->
<svg width="2465pt" height="1452pt"
 viewBox="14.40 14.40 2450.40 1437.40" xmlns="http://www.w3.org/2000/svg" xmlns:xlink="http://www.w3.org/1999/xlink">
<g id="graph0" class="graph" transform="scale(1 1) rotate(0) translate(18.4 1433.4)">
<title>managed&#45;by</title>
<polygon fill="white" stroke="transparent" points="-4,4 -4,-1419 2432,-1419 2432,4 -4,4"/>
<!-- HyperConverged/kubevirt&#45;hyperconverged -->
<g id="node1" class="node">
<title>HyperConverged/kubevirt&#45;hyperconverged</title>
<path fill="none" stroke="black" d="M519,-546C519,-546 12,-546 12,-546 6,-546 0,-540 0,-534 0,-534 0,-486 0,-486 0,-480 6,-474 12,-474 12,-474 519,-474 519,-474 525,-474 531,-480 531,-486 531,-486 531,-534 531,-534 531,-540 525,-546 519,-546"/>
<text text-anchor="middle" x="265.5" y="-503.8" font-family="Courier-Bold" font-size="24.00">HyperConverged/kubevirt&#45;hyperconverged</text>
</g>
<!-- KubeVirt/kubevirt&#45;kubevirt&#45;hyperconverged -->
<g id="node2" class="node">
<title>KubeVirt/kubevirt&#45;kubevirt&#45;hyperconverged</title>
<path fill="none" stroke="black" d="M2008,-1415C2008,-1415 1494,-1415 1494,-1415 1488,-1415 1482,-1409 1482,-1403 1482,-1403 1482,-1355 1482,-1355 1482,-1349 1488,-1343 1494,-1343 1494,-1343 2008,-1343 2008,-1343 2014,-1343 2020,-1349 2020,-1355 2020,-1355 2020,-1403 2020,-1403 2020,-1409 2014,-1415 2008,-1415"/>
<text text-anchor="middle" x="1751" y="-1372.8" font-family="Courier-Bold" font-size="24.00">KubeVirt/kubevirt&#45;kubevirt&#45;hyperconverged</text>
</g>
<!-- deployment/hco&#45;operator -->
<g id="node3" class="node">
<title>deployment/hco&#45;operator</title>
<path fill="none" stroke="black" d="M1134,-1178C1134,-1178 832,-1178 832,-1178 826,-1178 820,-1172 820,-1166 820,-1166 820,-1118 820,-1118 820,-1112 826,-1106 832,-1106 832,-1106 1134,-1106 1134,-1106 1140,-1106 1146,-1112 1146,-1118 1146,-1118 1146,-1166 1146,-1166 1146,-1172 1140,-1178 1134,-1178"/>
<text text-anchor="middle" x="983" y="-1135.8" font-family="Courier-Bold" font-size="24.00">deployment/hco&#45;operator</text>
</g>
<!-- deployment/hco&#45;operator&#45;&gt;KubeVirt/kubevirt&#45;kubevirt&#45;hyperconverged -->
<g id="edge1" class="edge">
<title>deployment/hco&#45;operator&#45;&gt;KubeVirt/kubevirt&#45;kubevirt&#45;hyperconverged</title>
<path fill="none" stroke="black" d="M1050.17,-1178.11C1136.19,-1223.33 1292.3,-1299.65 1435,-1339 1443.87,-1341.45 1452.93,-1343.75 1462.11,-1345.9"/>
<polygon fill="black" stroke="black" points="1481.73,-1350.27 1460.25,-1354.71 1471.97,-1348.1 1462.2,-1345.92 1462.2,-1345.92 1462.2,-1345.92 1471.97,-1348.1 1464.16,-1337.14 1481.73,-1350.27 1481.73,-1350.27"/>
</g>
<!-- SSP/ssp&#45;kubevirt&#45;hyperconverged -->
<g id="node4" class="node">
<title>SSP/ssp&#45;kubevirt&#45;hyperconverged</title>
<path fill="none" stroke="black" d="M1950,-1336C1950,-1336 1552,-1336 1552,-1336 1546,-1336 1540,-1330 1540,-1324 1540,-1324 1540,-1276 1540,-1276 1540,-1270 1546,-1264 1552,-1264 1552,-1264 1950,-1264 1950,-1264 1956,-1264 1962,-1270 1962,-1276 1962,-1276 1962,-1324 1962,-1324 1962,-1330 1956,-1336 1950,-1336"/>
<text text-anchor="middle" x="1751" y="-1293.8" font-family="Courier-Bold" font-size="24.00">SSP/ssp&#45;kubevirt&#45;hyperconverged</text>
</g>
<!-- deployment/hco&#45;operator&#45;&gt;SSP/ssp&#45;kubevirt&#45;hyperconverged -->
<g id="edge2" class="edge">
<title>deployment/hco&#45;operator&#45;&gt;SSP/ssp&#45;kubevirt&#45;hyperconverged</title>
<path fill="none" stroke="black" d="M1104.57,-1178.1C1194.85,-1204.01 1321.77,-1238.09 1435,-1260 1462.37,-1265.3 1491.23,-1270.06 1519.91,-1274.3"/>
<polygon fill="black" stroke="black" points="1539.71,-1277.15 1518.64,-1283.21 1529.82,-1275.72 1519.92,-1274.3 1519.92,-1274.3 1519.92,-1274.3 1529.82,-1275.72 1521.2,-1265.39 1539.71,-1277.15 1539.71,-1277.15"/>
</g>
<!-- CDI/cdi&#45;kubevirt&#45;hyperconverged -->
<g id="node5" class="node">
<title>CDI/cdi&#45;kubevirt&#45;hyperconverged</title>
<path fill="none" stroke="black" d="M1946.5,-1257C1946.5,-1257 1555.5,-1257 1555.5,-1257 1549.5,-1257 1543.5,-1251 1543.5,-1245 1543.5,-1245 1543.5,-1197 1543.5,-1197 1543.5,-1191 1549.5,-1185 1555.5,-1185 1555.5,-1185 1946.5,-1185 1946.5,-1185 1952.5,-1185 1958.5,-1191 1958.5,-1197 1958.5,-1197 1958.5,-1245 1958.5,-1245 1958.5,-1251 1952.5,-1257 1946.5,-1257"/>
<text text-anchor="middle" x="1751" y="-1214.8" font-family="Courier-Bold" font-size="24.00">CDI/cdi&#45;kubevirt&#45;hyperconverged</text>
</g>
<!-- deployment/hco&#45;operator&#45;&gt;CDI/cdi&#45;kubevirt&#45;hyperconverged -->
<g id="edge3" class="edge">
<title>deployment/hco&#45;operator&#45;&gt;CDI/cdi&#45;kubevirt&#45;hyperconverged</title>
<path fill="none" stroke="black" d="M1146.45,-1158.75C1256.07,-1170.06 1402.25,-1185.14 1523.29,-1197.62"/>
<polygon fill="black" stroke="black" points="1543.26,-1199.68 1522.44,-1206.58 1533.31,-1198.65 1523.37,-1197.63 1523.37,-1197.63 1523.37,-1197.63 1533.31,-1198.65 1524.29,-1188.67 1543.26,-1199.68 1543.26,-1199.68"/>
</g>
<!-- NetworkAddonsConfig/cluster -->
<g id="node8" class="node">
<title>NetworkAddonsConfig/cluster</title>
<path fill="none" stroke="black" d="M1926,-1178C1926,-1178 1576,-1178 1576,-1178 1570,-1178 1564,-1172 1564,-1166 1564,-1166 1564,-1118 1564,-1118 1564,-1112 1570,-1106 1576,-1106 1576,-1106 1926,-1106 1926,-1106 1932,-1106 1938,-1112 1938,-1118 1938,-1118 1938,-1166 1938,-1166 1938,-1172 1932,-1178 1926,-1178"/>
<text text-anchor="middle" x="1751" y="-1135.8" font-family="Courier-Bold" font-size="24.00">NetworkAddonsConfig/cluster</text>
</g>
<!-- deployment/hco&#45;operator&#45;&gt;NetworkAddonsConfig/cluster -->
<g id="edge5" class="edge">
<title>deployment/hco&#45;operator&#45;&gt;NetworkAddonsConfig/cluster</title>
<path fill="none" stroke="black" d="M1146.45,-1142C1262.32,-1142 1419.05,-1142 1543.76,-1142"/>
<polygon fill="black" stroke="black" points="1563.88,-1142 1543.88,-1151 1553.88,-1142 1543.88,-1142 1543.88,-1142 1543.88,-1142 1553.88,-1142 1543.88,-1133 1563.88,-1142 1563.88,-1142"/>
</g>
<!-- deployment/kubevirt&#45;apiserver&#45;proxy -->
<g id="node20" class="node">
<title>deployment/kubevirt&#45;apiserver&#45;proxy</title>
<path fill="none" stroke="black" d="M1971,-1099C1971,-1099 1531,-1099 1531,-1099 1525,-1099 1519,-1093 1519,-1087 1519,-1087 1519,-1039 1519,-1039 1519,-1033 1525,-1027 1531,-1027 1531,-1027 1971,-1027 1971,-1027 1977,-1027 1983,-1033 1983,-1039 1983,-1039 1983,-1087 1983,-1087 1983,-1093 1977,-1099 1971,-1099"/>
<text text-anchor="middle" x="1751" y="-1056.8" font-family="Courier-Bold" font-size="24.00">deployment/kubevirt&#45;apiserver&#45;proxy</text>
</g>
<!-- deployment/hco&#45;operator&#45;&gt;deployment/kubevirt&#45;apiserver&#45;proxy -->
<g id="edge18" class="edge">
<title>deployment/hco&#45;operator&#45;&gt;deployment/kubevirt&#45;apiserver&#45;proxy</title>
<path fill="none" stroke="black" d="M1146.45,-1125.25C1248.78,-1114.69 1382.98,-1100.85 1498.85,-1088.9"/>
<polygon fill="black" stroke="black" points="1518.76,-1086.85 1499.79,-1097.85 1508.82,-1087.87 1498.87,-1088.9 1498.87,-1088.9 1498.87,-1088.9 1508.82,-1087.87 1497.94,-1079.95 1518.76,-1086.85 1518.76,-1086.85"/>
</g>
<!-- deployment/kubevirt&#45;console&#45;plugin -->
<g id="node21" class="node">
<title>deployment/kubevirt&#45;console&#45;plugin</title>
<path fill="none" stroke="black" d="M1965,-1020C1965,-1020 1537,-1020 1537,-1020 1531,-1020 1525,-1014 1525,-1008 1525,-1008 1525,-960 1525,-960 1525,-954 1531,-948 1537,-948 1537,-948 1965,-948 1965,-948 1971,-948 1977,-954 1977,-960 1977,-960 1977,-1008 1977,-1008 1977,-1014 1971,-1020 1965,-1020"/>
<text text-anchor="middle" x="1751" y="-977.8" font-family="Courier-Bold" font-size="24.00">deployment/kubevirt&#45;console&#45;plugin</text>
</g>
<!-- deployment/hco&#45;operator&#45;&gt;deployment/kubevirt&#45;console&#45;plugin -->
<g id="edge19" class="edge">
<title>deployment/hco&#45;operator&#45;&gt;deployment/kubevirt&#45;console&#45;plugin</title>
<path fill="none" stroke="black" d="M1104.57,-1105.9C1194.85,-1079.99 1321.77,-1045.91 1435,-1024 1457.62,-1019.62 1481.25,-1015.61 1504.96,-1011.96"/>
<polygon fill="black" stroke="black" points="1524.88,-1008.97 1506.43,-1020.84 1514.99,-1010.46 1505.1,-1011.94 1505.1,-1011.94 1505.1,-1011.94 1514.99,-1010.46 1503.76,-1003.04 1524.88,-1008.97 1524.88,-1008.97"/>
</g>
<!-- CDIConfig/config -->
<g id="node6" class="node">
<title>CDIConfig/config</title>
<path fill="none" stroke="black" d="M2416,-941C2416,-941 2223,-941 2223,-941 2217,-941 2211,-935 2211,-929 2211,-929 2211,-881 2211,-881 2211,-875 2217,-869 2223,-869 2223,-869 2416,-869 2416,-869 2422,-869 2428,-875 2428,-881 2428,-881 2428,-929 2428,-929 2428,-935 2422,-941 2416,-941"/>
<text text-anchor="middle" x="2319.5" y="-898.8" font-family="Courier-Bold" font-size="24.00">CDIConfig/config</text>
</g>
<!-- deployment/cdi&#45;deployment -->
<g id="node7" class="node">
<title>deployment/cdi&#45;deployment</title>
<path fill="none" stroke="black" d="M1917.5,-941C1917.5,-941 1584.5,-941 1584.5,-941 1578.5,-941 1572.5,-935 1572.5,-929 1572.5,-929 1572.5,-881 1572.5,-881 1572.5,-875 1578.5,-869 1584.5,-869 1584.5,-869 1917.5,-869 1917.5,-869 1923.5,-869 1929.5,-875 1929.5,-881 1929.5,-881 1929.5,-929 1929.5,-929 1929.5,-935 1923.5,-941 1917.5,-941"/>
<text text-anchor="middle" x="1751" y="-898.8" font-family="Courier-Bold" font-size="24.00">deployment/cdi&#45;deployment</text>
</g>
<!-- deployment/cdi&#45;deployment&#45;&gt;CDIConfig/config -->
<g id="edge4" class="edge">
<title>deployment/cdi&#45;deployment&#45;&gt;CDIConfig/config</title>
<path fill="none" stroke="black" d="M1929.69,-905C2014.28,-905 2113.54,-905 2190.59,-905"/>
<polygon fill="black" stroke="black" points="2210.69,-905 2190.69,-914 2200.69,-905 2190.69,-905 2190.69,-905 2190.69,-905 2200.69,-905 2190.69,-896 2210.69,-905 2210.69,-905"/>
</g>
<!-- deployment/aaq&#45;operator -->
<g id="node9" class="node">
<title>deployment/aaq&#45;operator</title>
<path fill="none" stroke="black" d="M1134.5,-862C1134.5,-862 831.5,-862 831.5,-862 825.5,-862 819.5,-856 819.5,-850 819.5,-850 819.5,-802 819.5,-802 819.5,-796 825.5,-790 831.5,-790 831.5,-790 1134.5,-790 1134.5,-790 1140.5,-790 1146.5,-796 1146.5,-802 1146.5,-802 1146.5,-850 1146.5,-850 1146.5,-856 1140.5,-862 1134.5,-862"/>
<text text-anchor="middle" x="983" y="-819.8" font-family="Courier-Bold" font-size="24.00">deployment/aaq&#45;operator</text>
</g>
<!-- olm -->
<g id="node10" class="node">
<title>olm</title>
<path fill="none" stroke="black" d="M361.5,-625C361.5,-625 169.5,-625 169.5,-625 163.5,-625 157.5,-619 157.5,-613 157.5,-613 157.5,-565 157.5,-565 157.5,-559 163.5,-553 169.5,-553 169.5,-553 361.5,-553 361.5,-553 367.5,-553 373.5,-559 373.5,-565 373.5,-565 373.5,-613 373.5,-613 373.5,-619 367.5,-625 361.5,-625"/>
<text text-anchor="middle" x="265.5" y="-582.8" font-family="Courier-Bold" font-size="24.00">olm</text>
</g>
<!-- olm&#45;&gt;deployment/hco&#45;operator -->
<g id="edge12" class="edge">
<title>olm&#45;&gt;deployment/hco&#45;operator</title>
<path fill="none" stroke="black" d="M313.17,-625.07C437.65,-721.28 777.71,-984.11 919.07,-1093.36"/>
<polygon fill="black" stroke="black" points="935.3,-1105.9 913.97,-1100.79 927.38,-1099.79 919.47,-1093.67 919.47,-1093.67 919.47,-1093.67 927.38,-1099.79 924.98,-1086.55 935.3,-1105.9 935.3,-1105.9"/>
</g>
<!-- olm&#45;&gt;deployment/aaq&#45;operator -->
<g id="edge6" class="edge">
<title>olm&#45;&gt;deployment/aaq&#45;operator</title>
<path fill="none" stroke="black" d="M325.64,-625.04C402.98,-670.38 544.08,-747.01 675,-786 714.6,-797.79 758.1,-806.11 799.59,-811.98"/>
<polygon fill="black" stroke="black" points="819.44,-814.62 798.43,-820.9 809.53,-813.3 799.62,-811.98 799.62,-811.98 799.62,-811.98 809.53,-813.3 800.81,-803.06 819.44,-814.62 819.44,-814.62"/>
</g>
<!-- deployment/cdi&#45;operator -->
<g id="node12" class="node">
<title>deployment/cdi&#45;operator</title>
<path fill="none" stroke="black" d="M1129.5,-783C1129.5,-783 836.5,-783 836.5,-783 830.5,-783 824.5,-777 824.5,-771 824.5,-771 824.5,-723 824.5,-723 824.5,-717 830.5,-711 836.5,-711 836.5,-711 1129.5,-711 1129.5,-711 1135.5,-711 1141.5,-717 1141.5,-723 1141.5,-723 1141.5,-771 1141.5,-771 1141.5,-777 1135.5,-783 1129.5,-783"/>
<text text-anchor="middle" x="983" y="-740.8" font-family="Courier-Bold" font-size="24.00">deployment/cdi&#45;operator</text>
</g>
<!-- olm&#45;&gt;deployment/cdi&#45;operator -->
<g id="edge9" class="edge">
<title>olm&#45;&gt;deployment/cdi&#45;operator</title>
<path fill="none" stroke="black" d="M373.75,-624.82C455.5,-650.93 571.3,-685.4 675,-707 716.56,-715.66 761.71,-722.78 804.26,-728.49"/>
<polygon fill="black" stroke="black" points="824.26,-731.1 803.27,-737.44 814.35,-729.81 804.43,-728.52 804.43,-728.52 804.43,-728.52 814.35,-729.81 805.59,-719.59 824.26,-731.1 824.26,-731.1"/>
</g>
<!-- deployment/cluster&#45;network&#45;addons&#45;operator -->
<g id="node14" class="node">
<title>deployment/cluster&#45;network&#45;addons&#45;operator</title>
<path fill="none" stroke="black" d="M1254.5,-704C1254.5,-704 711.5,-704 711.5,-704 705.5,-704 699.5,-698 699.5,-692 699.5,-692 699.5,-644 699.5,-644 699.5,-638 705.5,-632 711.5,-632 711.5,-632 1254.5,-632 1254.5,-632 1260.5,-632 1266.5,-638 1266.5,-644 1266.5,-644 1266.5,-692 1266.5,-692 1266.5,-698 1260.5,-704 1254.5,-704"/>
<text text-anchor="middle" x="983" y="-661.8" font-family="Courier-Bold" font-size="24.00">deployment/cluster&#45;network&#45;addons&#45;operator</text>
</g>
<!-- olm&#45;&gt;deployment/cluster&#45;network&#45;addons&#45;operator -->
<g id="edge11" class="edge">
<title>olm&#45;&gt;deployment/cluster&#45;network&#45;addons&#45;operator</title>
<path fill="none" stroke="black" d="M373.62,-600.83C454.73,-609.78 570.37,-622.55 679.1,-634.56"/>
<polygon fill="black" stroke="black" points="699.31,-636.79 678.44,-643.54 689.37,-635.69 679.43,-634.59 679.43,-634.59 679.43,-634.59 689.37,-635.69 680.42,-625.65 699.31,-636.79 699.31,-636.79"/>
</g>
<!-- deployment/hco&#45;webhook -->
<g id="node15" class="node">
<title>deployment/hco&#45;webhook</title>
<path fill="none" stroke="black" d="M1136,-625C1136,-625 830,-625 830,-625 824,-625 818,-619 818,-613 818,-613 818,-565 818,-565 818,-559 824,-553 830,-553 830,-553 1136,-553 1136,-553 1142,-553 1148,-559 1148,-565 1148,-565 1148,-613 1148,-613 1148,-619 1142,-625 1136,-625"/>
<text text-anchor="middle" x="983" y="-582.8" font-family="Courier-Bold" font-size="24.00">deployment/hco&#45;webhook</text>
</g>
<!-- olm&#45;&gt;deployment/hco&#45;webhook -->
<g id="edge13" class="edge">
<title>olm&#45;&gt;deployment/hco&#45;webhook</title>
<path fill="none" stroke="black" d="M373.62,-589C485.51,-589 663.14,-589 797.64,-589"/>
<polygon fill="black" stroke="black" points="817.99,-589 797.99,-598 807.99,-589 797.99,-589 797.99,-589 797.99,-589 807.99,-589 797.99,-580 817.99,-589 817.99,-589"/>
</g>
<!-- deployment/hostpath&#45;provisioner&#45;operator -->
<g id="node16" class="node">
<title>deployment/hostpath&#45;provisioner&#45;operator</title>
<path fill="none" stroke="black" d="M1236.5,-546C1236.5,-546 729.5,-546 729.5,-546 723.5,-546 717.5,-540 717.5,-534 717.5,-534 717.5,-486 717.5,-486 717.5,-480 723.5,-474 729.5,-474 729.5,-474 1236.5,-474 1236.5,-474 1242.5,-474 1248.5,-480 1248.5,-486 1248.5,-486 1248.5,-534 1248.5,-534 1248.5,-540 1242.5,-546 1236.5,-546"/>
<text text-anchor="middle" x="983" y="-503.8" font-family="Courier-Bold" font-size="24.00">deployment/hostpath&#45;provisioner&#45;operator</text>
</g>
<!-- olm&#45;&gt;deployment/hostpath&#45;provisioner&#45;operator -->
<g id="edge14" class="edge">
<title>olm&#45;&gt;deployment/hostpath&#45;provisioner&#45;operator</title>
<path fill="none" stroke="black" d="M373.62,-577.17C459.3,-567.71 583.54,-554 697.43,-541.42"/>
<polygon fill="black" stroke="black" points="717.46,-539.21 698.57,-550.35 707.52,-540.31 697.58,-541.4 697.58,-541.4 697.58,-541.4 707.52,-540.31 696.59,-532.46 717.46,-539.21 717.46,-539.21"/>
</g>
<!-- deployment/hyperconverged&#45;cluster&#45;cli&#45;download -->
<g id="node17" class="node">
<title>deployment/hyperconverged&#45;cluster&#45;cli&#45;download</title>
<path fill="none" stroke="black" d="M1279,-467C1279,-467 687,-467 687,-467 681,-467 675,-461 675,-455 675,-455 675,-407 675,-407 675,-401 681,-395 687,-395 687,-395 1279,-395 1279,-395 1285,-395 1291,-401 1291,-407 1291,-407 1291,-455 1291,-455 1291,-461 1285,-467 1279,-467"/>
<text text-anchor="middle" x="983" y="-424.8" font-family="Courier-Bold" font-size="24.00">deployment/hyperconverged&#45;cluster&#45;cli&#45;download</text>
</g>
<!-- olm&#45;&gt;deployment/hyperconverged&#45;cluster&#45;cli&#45;download -->
<g id="edge15" class="edge">
<title>olm&#45;&gt;deployment/hyperconverged&#45;cluster&#45;cli&#45;download</title>
<path fill="none" stroke="black" d="M373.7,-581.29C422.6,-575.63 480.69,-565.85 531,-549 594.22,-527.82 604.34,-498.8 668.65,-473.81"/>
<polygon fill="black" stroke="black" points="687.79,-467.04 671.93,-482.19 678.36,-470.37 668.93,-473.71 668.93,-473.71 668.93,-473.71 678.36,-470.37 665.93,-465.22 687.79,-467.04 687.79,-467.04"/>
</g>
<!-- deployment/ssp&#45;operator -->
<g id="node22" class="node">
<title>deployment/ssp&#45;operator</title>
<path fill="none" stroke="black" d="M1132.5,-388C1132.5,-388 833.5,-388 833.5,-388 827.5,-388 821.5,-382 821.5,-376 821.5,-376 821.5,-328 821.5,-328 821.5,-322 827.5,-316 833.5,-316 833.5,-316 1132.5,-316 1132.5,-316 1138.5,-316 1144.5,-322 1144.5,-328 1144.5,-328 1144.5,-376 1144.5,-376 1144.5,-382 1138.5,-388 1132.5,-388"/>
<text text-anchor="middle" x="983" y="-345.8" font-family="Courier-Bold" font-size="24.00">deployment/ssp&#45;operator</text>
</g>
<!-- olm&#45;&gt;deployment/ssp&#45;operator -->
<g id="edge20" class="edge">
<title>olm&#45;&gt;deployment/ssp&#45;operator</title>
<path fill="none" stroke="black" d="M373.66,-588.99C423.92,-585.05 483.14,-574.49 531,-549 614.57,-504.5 590.98,-435.64 675,-392 713.48,-372.01 758.21,-360.65 801.41,-354.46"/>
<polygon fill="black" stroke="black" points="821.46,-351.93 802.74,-363.36 811.54,-353.18 801.61,-354.43 801.61,-354.43 801.61,-354.43 811.54,-353.18 800.49,-345.5 821.46,-351.93 821.46,-351.93"/>
</g>
<!-- deployment/virt&#45;operator -->
<g id="node24" class="node">
<title>deployment/virt&#45;operator</title>
<path fill="none" stroke="black" d="M1132.5,-230C1132.5,-230 833.5,-230 833.5,-230 827.5,-230 821.5,-224 821.5,-218 821.5,-218 821.5,-170 821.5,-170 821.5,-164 827.5,-158 833.5,-158 833.5,-158 1132.5,-158 1132.5,-158 1138.5,-158 1144.5,-164 1144.5,-170 1144.5,-170 1144.5,-218 1144.5,-218 1144.5,-224 1138.5,-230 1132.5,-230"/>
<text text-anchor="middle" x="983" y="-187.8" font-family="Courier-Bold" font-size="24.00">deployment/virt&#45;operator</text>
</g>
<!-- olm&#45;&gt;deployment/virt&#45;operator -->
<g id="edge24" class="edge">
<title>olm&#45;&gt;deployment/virt&#45;operator</title>
<path fill="none" stroke="black" d="M373.8,-593.18C425.12,-590.34 485.19,-579.5 531,-549 633.59,-480.69 580.41,-391.01 675,-312 714.56,-278.96 764.39,-254.55 812.33,-236.79"/>
<polygon fill="black" stroke="black" points="831.29,-230.06 815.45,-245.23 821.87,-233.4 812.44,-236.75 812.44,-236.75 812.44,-236.75 821.87,-233.4 809.44,-228.26 831.29,-230.06 831.29,-230.06"/>
</g>
<!-- deployment/cdi&#45;apiserver -->
<g id="node11" class="node">
<title>deployment/cdi&#45;apiserver</title>
<path fill="none" stroke="black" d="M1902,-862C1902,-862 1600,-862 1600,-862 1594,-862 1588,-856 1588,-850 1588,-850 1588,-802 1588,-802 1588,-796 1594,-790 1600,-790 1600,-790 1902,-790 1902,-790 1908,-790 1914,-796 1914,-802 1914,-802 1914,-850 1914,-850 1914,-856 1908,-862 1902,-862"/>
<text text-anchor="middle" x="1751" y="-819.8" font-family="Courier-Bold" font-size="24.00">deployment/cdi&#45;apiserver</text>
</g>
<!-- deployment/cdi&#45;operator&#45;&gt;deployment/cdi&#45;deployment -->
<g id="edge8" class="edge">
<title>deployment/cdi&#45;operator&#45;&gt;deployment/cdi&#45;deployment</title>
<path fill="none" stroke="black" d="M1141.84,-756.37C1190.5,-762.22 1243.7,-771.69 1291,-787 1360.25,-809.41 1365.71,-842.7 1435,-865 1472.15,-876.96 1512.84,-885.36 1552.27,-891.26"/>
<polygon fill="black" stroke="black" points="1572.13,-894.04 1551.07,-900.18 1562.22,-892.65 1552.32,-891.26 1552.32,-891.26 1552.32,-891.26 1562.22,-892.65 1553.57,-882.35 1572.13,-894.04 1572.13,-894.04"/>
</g>
<!-- deployment/cdi&#45;operator&#45;&gt;deployment/cdi&#45;apiserver -->
<g id="edge7" class="edge">
<title>deployment/cdi&#45;operator&#45;&gt;deployment/cdi&#45;apiserver</title>
<path fill="none" stroke="black" d="M1141.79,-763.27C1265.59,-776.04 1438.09,-793.83 1567.77,-807.21"/>
<polygon fill="black" stroke="black" points="1587.8,-809.27 1566.98,-816.17 1577.85,-808.25 1567.9,-807.22 1567.9,-807.22 1567.9,-807.22 1577.85,-808.25 1568.83,-798.27 1587.8,-809.27 1587.8,-809.27"/>
</g>
<!-- deployment/cdi&#45;uploadproxy -->
<g id="node13" class="node">
<title>deployment/cdi&#45;uploadproxy</title>
<path fill="none" stroke="black" d="M1920,-783C1920,-783 1582,-783 1582,-783 1576,-783 1570,-777 1570,-771 1570,-771 1570,-723 1570,-723 1570,-717 1576,-711 1582,-711 1582,-711 1920,-711 1920,-711 1926,-711 1932,-717 1932,-723 1932,-723 1932,-771 1932,-771 1932,-777 1926,-783 1920,-783"/>
<text text-anchor="middle" x="1751" y="-740.8" font-family="Courier-Bold" font-size="24.00">deployment/cdi&#45;uploadproxy</text>
</g>
<!-- deployment/cdi&#45;operator&#45;&gt;deployment/cdi&#45;uploadproxy -->
<g id="edge10" class="edge">
<title>deployment/cdi&#45;operator&#45;&gt;deployment/cdi&#45;uploadproxy</title>
<path fill="none" stroke="black" d="M1141.79,-747C1259.96,-747 1422.49,-747 1549.81,-747"/>
<polygon fill="black" stroke="black" points="1569.93,-747 1549.93,-756 1559.93,-747 1549.93,-747 1549.93,-747 1549.93,-747 1559.93,-747 1549.93,-738 1569.93,-747 1569.93,-747"/>
</g>
<!-- deployment/kubemacpool&#45;cert&#45;manager -->
<g id="node18" class="node">
<title>deployment/kubemacpool&#45;cert&#45;manager</title>
<path fill="none" stroke="black" d="M1991.5,-704C1991.5,-704 1510.5,-704 1510.5,-704 1504.5,-704 1498.5,-698 1498.5,-692 1498.5,-692 1498.5,-644 1498.5,-644 1498.5,-638 1504.5,-632 1510.5,-632 1510.5,-632 1991.5,-632 1991.5,-632 1997.5,-632 2003.5,-638 2003.5,-644 2003.5,-644 2003.5,-692 2003.5,-692 2003.5,-698 1997.5,-704 1991.5,-704"/>
<text text-anchor="middle" x="1751" y="-661.8" font-family="Courier-Bold" font-size="24.00">deployment/kubemacpool&#45;cert&#45;manager</text>
</g>
<!-- deployment/cluster&#45;network&#45;addons&#45;operator&#45;&gt;deployment/kubemacpool&#45;cert&#45;manager -->
<g id="edge16" class="edge">
<title>deployment/cluster&#45;network&#45;addons&#45;operator&#45;&gt;deployment/kubemacpool&#45;cert&#45;manager</title>
<path fill="none" stroke="black" d="M1266.51,-668C1335.68,-668 1409.57,-668 1478.22,-668"/>
<polygon fill="black" stroke="black" points="1498.39,-668 1478.39,-677 1488.39,-668 1478.39,-668 1478.39,-668 1478.39,-668 1488.39,-668 1478.39,-659 1498.39,-668 1498.39,-668"/>
</g>
<!-- deployment/kubemacpool&#45;mac&#45;controller&#45;manager -->
<g id="node19" class="node">
<title>deployment/kubemacpool&#45;mac&#45;controller&#45;manager</title>
<path fill="none" stroke="black" d="M2055,-625C2055,-625 1447,-625 1447,-625 1441,-625 1435,-619 1435,-613 1435,-613 1435,-565 1435,-565 1435,-559 1441,-553 1447,-553 1447,-553 2055,-553 2055,-553 2061,-553 2067,-559 2067,-565 2067,-565 2067,-613 2067,-613 2067,-619 2061,-625 2055,-625"/>
<text text-anchor="middle" x="1751" y="-582.8" font-family="Courier-Bold" font-size="24.00">deployment/kubemacpool&#45;mac&#45;controller&#45;manager</text>
</g>
<!-- deployment/cluster&#45;network&#45;addons&#45;operator&#45;&gt;deployment/kubemacpool&#45;mac&#45;controller&#45;manager -->
<g id="edge17" class="edge">
<title>deployment/cluster&#45;network&#45;addons&#45;operator&#45;&gt;deployment/kubemacpool&#45;mac&#45;controller&#45;manager</title>
<path fill="none" stroke="black" d="M1266.51,-638.86C1314.77,-633.89 1365.33,-628.67 1414.8,-623.57"/>
<polygon fill="black" stroke="black" points="1434.81,-621.51 1415.83,-632.51 1424.86,-622.53 1414.91,-623.56 1414.91,-623.56 1414.91,-623.56 1424.86,-622.53 1413.99,-614.61 1434.81,-621.51 1434.81,-621.51"/>
</g>
<!-- daemonset/bridge&#45;marker -->
<g id="node28" class="node">
<title>daemonset/bridge&#45;marker</title>
<path fill="none" stroke="black" d="M1905,-546C1905,-546 1597,-546 1597,-546 1591,-546 1585,-540 1585,-534 1585,-534 1585,-486 1585,-486 1585,-480 1591,-474 1597,-474 1597,-474 1905,-474 1905,-474 1911,-474 1917,-480 1917,-486 1917,-486 1917,-534 1917,-534 1917,-540 1911,-546 1905,-546"/>
<text text-anchor="middle" x="1751" y="-503.8" font-family="Courier-Bold" font-size="24.00">daemonset/bridge&#45;marker</text>
</g>
<!-- deployment/cluster&#45;network&#45;addons&#45;operator&#45;&gt;daemonset/bridge&#45;marker -->
<g id="edge26" class="edge">
<title>deployment/cluster&#45;network&#45;addons&#45;operator&#45;&gt;daemonset/bridge&#45;marker</title>
<path fill="none" stroke="black" d="M1266.77,-635.21C1274.98,-632.97 1283.07,-630.57 1291,-628 1360.25,-605.59 1365.71,-572.3 1435,-550 1476.09,-536.78 1521.52,-527.9 1564.78,-521.95"/>
<polygon fill="black" stroke="black" points="1584.81,-519.37 1566.12,-530.85 1574.89,-520.65 1564.97,-521.92 1564.97,-521.92 1564.97,-521.92 1574.89,-520.65 1563.83,-513 1584.81,-519.37 1584.81,-519.37"/>
</g>
<!-- daemonset/kube&#45;cni&#45;linux&#45;bridge&#45;plugin -->
<g id="node29" class="node">
<title>daemonset/kube&#45;cni&#45;linux&#45;bridge&#45;plugin</title>
<path fill="none" stroke="black" d="M1988,-467C1988,-467 1514,-467 1514,-467 1508,-467 1502,-461 1502,-455 1502,-455 1502,-407 1502,-407 1502,-401 1508,-395 1514,-395 1514,-395 1988,-395 1988,-395 1994,-395 2000,-401 2000,-407 2000,-407 2000,-455 2000,-455 2000,-461 1994,-467 1988,-467"/>
<text text-anchor="middle" x="1751" y="-424.8" font-family="Courier-Bold" font-size="24.00">daemonset/kube&#45;cni&#45;linux&#45;bridge&#45;plugin</text>
</g>
<!-- deployment/cluster&#45;network&#45;addons&#45;operator&#45;&gt;daemonset/kube&#45;cni&#45;linux&#45;bridge&#45;plugin -->
<g id="edge27" class="edge">
<title>deployment/cluster&#45;network&#45;addons&#45;operator&#45;&gt;daemonset/kube&#45;cni&#45;linux&#45;bridge&#45;plugin</title>
<path fill="none" stroke="black" d="M1266.67,-639.21C1275,-635.82 1283.13,-632.09 1291,-628 1375.02,-584.36 1350.9,-514.51 1435,-471 1450.13,-463.17 1466.19,-456.66 1482.74,-451.24"/>
<polygon fill="black" stroke="black" points="1501.99,-445.48 1485.41,-459.84 1492.41,-448.35 1482.83,-451.21 1482.83,-451.21 1482.83,-451.21 1492.41,-448.35 1480.25,-442.59 1501.99,-445.48 1501.99,-445.48"/>
</g>
<!-- deployment/virt&#45;template&#45;validator -->
<g id="node27" class="node">
<title>deployment/virt&#45;template&#45;validator</title>
<path fill="none" stroke="black" d="M1960.5,-388C1960.5,-388 1541.5,-388 1541.5,-388 1535.5,-388 1529.5,-382 1529.5,-376 1529.5,-376 1529.5,-328 1529.5,-328 1529.5,-322 1535.5,-316 1541.5,-316 1541.5,-316 1960.5,-316 1960.5,-316 1966.5,-316 1972.5,-322 1972.5,-328 1972.5,-328 1972.5,-376 1972.5,-376 1972.5,-382 1966.5,-388 1960.5,-388"/>
<text text-anchor="middle" x="1751" y="-345.8" font-family="Courier-Bold" font-size="24.00">deployment/virt&#45;template&#45;validator</text>
</g>
<!-- deployment/ssp&#45;operator&#45;&gt;deployment/virt&#45;template&#45;validator -->
<g id="edge25" class="edge">
<title>deployment/ssp&#45;operator&#45;&gt;deployment/virt&#45;template&#45;validator</title>
<path fill="none" stroke="black" d="M1144.58,-352C1250.23,-352 1390.44,-352 1509.32,-352"/>
<polygon fill="black" stroke="black" points="1529.35,-352 1509.35,-361 1519.35,-352 1509.35,-352 1509.35,-352 1509.35,-352 1519.35,-352 1509.35,-343 1529.35,-352 1529.35,-352"/>
</g>
<!-- deployment/virt&#45;api -->
<g id="node23" class="node">
<title>deployment/virt&#45;api</title>
<path fill="none" stroke="black" d="M1866.5,-309C1866.5,-309 1635.5,-309 1635.5,-309 1629.5,-309 1623.5,-303 1623.5,-297 1623.5,-297 1623.5,-249 1623.5,-249 1623.5,-243 1629.5,-237 1635.5,-237 1635.5,-237 1866.5,-237 1866.5,-237 1872.5,-237 1878.5,-243 1878.5,-249 1878.5,-249 1878.5,-297 1878.5,-297 1878.5,-303 1872.5,-309 1866.5,-309"/>
<text text-anchor="middle" x="1751" y="-266.8" font-family="Courier-Bold" font-size="24.00">deployment/virt&#45;api</text>
</g>
<!-- deployment/virt&#45;operator&#45;&gt;deployment/virt&#45;api -->
<g id="edge21" class="edge">
<title>deployment/virt&#45;operator&#45;&gt;deployment/virt&#45;api</title>
<path fill="none" stroke="black" d="M1144.58,-210.56C1279.95,-224.52 1472.06,-244.33 1603.34,-257.87"/>
<polygon fill="black" stroke="black" points="1623.47,-259.95 1602.65,-266.85 1613.52,-258.92 1603.57,-257.9 1603.57,-257.9 1603.57,-257.9 1613.52,-258.92 1604.5,-248.95 1623.47,-259.95 1623.47,-259.95"/>
</g>
<!-- deployment/virt&#45;controller -->
<g id="node25" class="node">
<title>deployment/virt&#45;controller</title>
<path fill="none" stroke="black" d="M1906,-230C1906,-230 1596,-230 1596,-230 1590,-230 1584,-224 1584,-218 1584,-218 1584,-170 1584,-170 1584,-164 1590,-158 1596,-158 1596,-158 1906,-158 1906,-158 1912,-158 1918,-164 1918,-170 1918,-170 1918,-218 1918,-218 1918,-224 1912,-230 1906,-230"/>
<text text-anchor="middle" x="1751" y="-187.8" font-family="Courier-Bold" font-size="24.00">deployment/virt&#45;controller</text>
</g>
<!-- deployment/virt&#45;operator&#45;&gt;deployment/virt&#45;controller -->
<g id="edge22" class="edge">
<title>deployment/virt&#45;operator&#45;&gt;deployment/virt&#45;controller</title>
<path fill="none" stroke="black" d="M1144.58,-194C1266.8,-194 1435.26,-194 1563.46,-194"/>
<polygon fill="black" stroke="black" points="1583.68,-194 1563.68,-203 1573.68,-194 1563.68,-194 1563.68,-194 1563.68,-194 1573.68,-194 1563.68,-185 1583.68,-194 1583.68,-194"/>
</g>
<!-- deployment/virt&#45;exportproxy -->
<g id="node26" class="node">
<title>deployment/virt&#45;exportproxy</title>
<path fill="none" stroke="black" d="M1920.5,-151C1920.5,-151 1581.5,-151 1581.5,-151 1575.5,-151 1569.5,-145 1569.5,-139 1569.5,-139 1569.5,-91 1569.5,-91 1569.5,-85 1575.5,-79 1581.5,-79 1581.5,-79 1920.5,-79 1920.5,-79 1926.5,-79 1932.5,-85 1932.5,-91 1932.5,-91 1932.5,-139 1932.5,-139 1932.5,-145 1926.5,-151 1920.5,-151"/>
<text text-anchor="middle" x="1751" y="-108.8" font-family="Courier-Bold" font-size="24.00">deployment/virt&#45;exportproxy</text>
</g>
<!-- deployment/virt&#45;operator&#45;&gt;deployment/virt&#45;exportproxy -->
<g id="edge23" class="edge">
<title>deployment/virt&#45;operator&#45;&gt;deployment/virt&#45;exportproxy</title>
<path fill="none" stroke="black" d="M1144.58,-177.44C1262.32,-165.3 1422.99,-148.73 1549.22,-135.71"/>
<polygon fill="black" stroke="black" points="1569.17,-133.65 1550.2,-144.65 1559.22,-134.68 1549.27,-135.7 1549.27,-135.7 1549.27,-135.7 1559.22,-134.68 1548.35,-126.75 1569.17,-133.65 1569.17,-133.65"/>
</g>
<!-- daemonset/virt&#45;handler -->
<g id="node30" class="node">
<title>daemonset/virt&#45;handler</title>
<path fill="none" stroke="black" d="M1890,-72C1890,-72 1612,-72 1612,-72 1606,-72 1600,-66 1600,-60 1600,-60 1600,-12 1600,-12 1600,-6 1606,0 1612,0 1612,0 1890,0 1890,0 1896,0 1902,-6 1902,-12 1902,-12 1902,-60 1902,-60 1902,-66 1896,-72 1890,-72"/>
<text text-anchor="middle" x="1751" y="-29.8" font-family="Courier-Bold" font-size="24.00">daemonset/virt&#45;handler</text>
</g>
<!-- deployment/virt&#45;operator&#45;&gt;daemonset/virt&#45;handler -->
<g id="edge28" class="edge">
<title>deployment/virt&#45;operator&#45;&gt;daemonset/virt&#45;handler</title>
<path fill="none" stroke="black" d="M1104.57,-157.9C1194.85,-131.99 1321.77,-97.91 1435,-76 1481.77,-66.95 1532.85,-59.46 1580.01,-53.49"/>
<polygon fill="black" stroke="black" points="1599.95,-51.03 1581.2,-62.41 1590.03,-52.26 1580.1,-53.48 1580.1,-53.48 1580.1,-53.48 1590.03,-52.26 1579,-44.55 1599.95,-51.03 1599.95,-51.03"/>
</g>
</g>
</svg>
