<?xml version="1.0" encoding="UTF-8" standalone="no"?>
<!DOCTYPE svg PUBLIC "-//W3C//DTD SVG 1.1//EN"
 "http://www.w3.org/Graphics/SVG/1.1/DTD/svg11.dtd">
<!-- Generated by graphviz version 2.44.0 (0)
 -->
<!-- Title: managed&#45;by Pages: 1 -->
<svg width="2465pt" height="1610pt"
 viewBox="14.40 14.40 2450.40 1595.40" xmlns="http://www.w3.org/2000/svg" xmlns:xlink="http://www.w3.org/1999/xlink">
<g id="graph0" class="graph" transform="scale(1 1) rotate(0) translate(18.4 1591.4)">
<title>managed&#45;by</title>
<polygon fill="white" stroke="transparent" points="-4,4 -4,-1577 2432,-1577 2432,4 -4,4"/>
<!-- HyperConverged/kubevirt&#45;hyperconverged -->
<g id="node1" class="node">
<title>HyperConverged/kubevirt&#45;hyperconverged</title>
<path fill="none" stroke="black" d="M519,-546C519,-546 12,-546 12,-546 6,-546 0,-540 0,-534 0,-534 0,-486 0,-486 0,-480 6,-474 12,-474 12,-474 519,-474 519,-474 525,-474 531,-480 531,-486 531,-486 531,-534 531,-534 531,-540 525,-546 519,-546"/>
<text text-anchor="middle" x="265.5" y="-503.8" font-family="Courier-Bold" font-size="24.00">HyperConverged/kubevirt&#45;hyperconverged</text>
</g>
<!-- KubeVirt/kubevirt&#45;kubevirt&#45;hyperconverged -->
<g id="node2" class="node">
<title>KubeVirt/kubevirt&#45;kubevirt&#45;hyperconverged</title>
<path fill="none" stroke="black" d="M2008,-1573C2008,-1573 1494,-1573 1494,-1573 1488,-1573 1482,-1567 1482,-1561 1482,-1561 1482,-1513 1482,-1513 1482,-1507 1488,-1501 1494,-1501 1494,-1501 2008,-1501 2008,-1501 2014,-1501 2020,-1507 2020,-1513 2020,-1513 2020,-1561 2020,-1561 2020,-1567 2014,-1573 2008,-1573"/>
<text text-anchor="middle" x="1751" y="-1530.8" font-family="Courier-Bold" font-size="24.00">KubeVirt/kubevirt&#45;kubevirt&#45;hyperconverged</text>
</g>
<!-- deployment/hco&#45;operator -->
<g id="node3" class="node">
<title>deployment/hco&#45;operator</title>
<path fill="none" stroke="black" d="M1134,-1336C1134,-1336 832,-1336 832,-1336 826,-1336 820,-1330 820,-1324 820,-1324 820,-1276 820,-1276 820,-1270 826,-1264 832,-1264 832,-1264 1134,-1264 1134,-1264 1140,-1264 1146,-1270 1146,-1276 1146,-1276 1146,-1324 1146,-1324 1146,-1330 1140,-1336 1134,-1336"/>
<text text-anchor="middle" x="983" y="-1293.8" font-family="Courier-Bold" font-size="24.00">deployment/hco&#45;operator</text>
</g>
<!-- deployment/hco&#45;operator&#45;&gt;KubeVirt/kubevirt&#45;kubevirt&#45;hyperconverged -->
<g id="edge1" class="edge">
<title>deployment/hco&#45;operator&#45;&gt;KubeVirt/kubevirt&#45;kubevirt&#45;hyperconverged</title>
<path fill="none" stroke="black" d="M1050.17,-1336.11C1136.19,-1381.33 1292.3,-1457.65 1435,-1497 1443.87,-1499.45 1452.93,-1501.75 1462.11,-1503.9"/>
<polygon fill="black" stroke="black" points="1481.73,-1508.27 1460.25,-1512.71 1471.97,-1506.1 1462.2,-1503.92 1462.2,-1503.92 1462.2,-1503.92 1471.97,-1506.1 1464.16,-1495.14 1481.73,-1508.27 1481.73,-1508.27"/>
</g>
<!-- SSP/ssp&#45;kubevirt&#45;hyperconverged -->
<g id="node4" class="node">
<title>SSP/ssp&#45;kubevirt&#45;hyperconverged</title>
<path fill="none" stroke="black" d="M1950,-1494C1950,-1494 1552,-1494 1552,-1494 1546,-1494 1540,-1488 1540,-1482 1540,-1482 1540,-1434 1540,-1434 1540,-1428 1546,-1422 1552,-1422 1552,-1422 1950,-1422 1950,-1422 1956,-1422 1962,-1428 1962,-1434 1962,-1434 1962,-1482 1962,-1482 1962,-1488 1956,-1494 1950,-1494"/>
<text text-anchor="middle" x="1751" y="-1451.8" font-family="Courier-Bold" font-size="24.00">SSP/ssp&#45;kubevirt&#45;hyperconverged</text>
</g>
<!-- deployment/hco&#45;operator&#45;&gt;SSP/ssp&#45;kubevirt&#45;hyperconverged -->
<g id="edge2" class="edge">
<title>deployment/hco&#45;operator&#45;&gt;SSP/ssp&#45;kubevirt&#45;hyperconverged</title>
<path fill="none" stroke="black" d="M1104.57,-1336.1C1194.85,-1362.01 1321.77,-1396.09 1435,-1418 1462.37,-1423.3 1491.23,-1428.06 1519.91,-1432.3"/>
<polygon fill="black" stroke="black" points="1539.71,-1435.15 1518.64,-1441.21 1529.82,-1433.72 1519.92,-1432.3 1519.92,-1432.3 1519.92,-1432.3 1529.82,-1433.72 1521.2,-1423.39 1539.71,-1435.15 1539.71,-1435.15"/>
</g>
<!-- CDI/cdi&#45;kubevirt&#45;hyperconverged -->
<g id="node5" class="node">
<title>CDI/cdi&#45;kubevirt&#45;hyperconverged</title>
<path fill="none" stroke="black" d="M1946.5,-1415C1946.5,-1415 1555.5,-1415 1555.5,-1415 1549.5,-1415 1543.5,-1409 1543.5,-1403 1543.5,-1403 1543.5,-1355 1543.5,-1355 1543.5,-1349 1549.5,-1343 1555.5,-1343 1555.5,-1343 1946.5,-1343 1946.5,-1343 1952.5,-1343 1958.5,-1349 1958.5,-1355 1958.5,-1355 1958.5,-1403 1958.5,-1403 1958.5,-1409 1952.5,-1415 1946.5,-1415"/>
<text text-anchor="middle" x="1751" y="-1372.8" font-family="Courier-Bold" font-size="24.00">CDI/cdi&#45;kubevirt&#45;hyperconverged</text>
</g>
<!-- deployment/hco&#45;operator&#45;&gt;CDI/cdi&#45;kubevirt&#45;hyperconverged -->
<g id="edge3" class="edge">
<title>deployment/hco&#45;operator&#45;&gt;CDI/cdi&#45;kubevirt&#45;hyperconverged</title>
<path fill="none" stroke="black" d="M1146.45,-1316.75C1256.07,-1328.06 1402.25,-1343.14 1523.29,-1355.62"/>
<polygon fill="black" stroke="black" points="1543.26,-1357.68 1522.44,-1364.58 1533.31,-1356.65 1523.37,-1355.63 1523.37,-1355.63 1523.37,-1355.63 1533.31,-1356.65 1524.29,-1346.67 1543.26,-1357.68 1543.26,-1357.68"/>
</g>
<!-- NetworkAddonsConfig/cluster -->
<g id="node8" class="node">
<title>NetworkAddonsConfig/cluster</title>
<path fill="none" stroke="black" d="M1926,-1336C1926,-1336 1576,-1336 1576,-1336 1570,-1336 1564,-1330 1564,-1324 1564,-1324 1564,-1276 1564,-1276 1564,-1270 1570,-1264 1576,-1264 1576,-1264 1926,-1264 1926,-1264 1932,-1264 1938,-1270 1938,-1276 1938,-1276 1938,-1324 1938,-1324 1938,-1330 1932,-1336 1926,-1336"/>
<text text-anchor="middle" x="1751" y="-1293.8" font-family="Courier-Bold" font-size="24.00">NetworkAddonsConfig/cluster</text>
</g>
<!-- deployment/hco&#45;operator&#45;&gt;NetworkAddonsConfig/cluster -->
<g id="edge5" class="edge">
<title>deployment/hco&#45;operator&#45;&gt;NetworkAddonsConfig/cluster</title>
<path fill="none" stroke="black" d="M1146.45,-1300C1262.32,-1300 1419.05,-1300 1543.76,-1300"/>
<polygon fill="black" stroke="black" points="1563.88,-1300 1543.88,-1309 1553.88,-1300 1543.88,-1300 1543.88,-1300 1543.88,-1300 1553.88,-1300 1543.88,-1291 1563.88,-1300 1563.88,-1300"/>
</g>
<!-- deployment/kubevirt&#45;apiserver&#45;proxy -->
<g id="node20" class="node">
<title>deployment/kubevirt&#45;apiserver&#45;proxy</title>
<path fill="none" stroke="black" d="M1971,-1257C1971,-1257 1531,-1257 1531,-1257 1525,-1257 1519,-1251 1519,-1245 1519,-1245 1519,-1197 1519,-1197 1519,-1191 1525,-1185 1531,-1185 1531,-1185 1971,-1185 1971,-1185 1977,-1185 1983,-1191 1983,-1197 1983,-1197 1983,-1245 1983,-1245 1983,-1251 1977,-1257 1971,-1257"/>
<text text-anchor="middle" x="1751" y="-1214.8" font-family="Courier-Bold" font-size="24.00">deployment/kubevirt&#45;apiserver&#45;proxy</text>
</g>
<!-- deployment/hco&#45;operator&#45;&gt;deployment/kubevirt&#45;apiserver&#45;proxy -->
<g id="edge18" class="edge">
<title>deployment/hco&#45;operator&#45;&gt;deployment/kubevirt&#45;apiserver&#45;proxy</title>
<path fill="none" stroke="black" d="M1146.45,-1283.25C1248.78,-1272.69 1382.98,-1258.85 1498.85,-1246.9"/>
<polygon fill="black" stroke="black" points="1518.76,-1244.85 1499.79,-1255.85 1508.82,-1245.87 1498.87,-1246.9 1498.87,-1246.9 1498.87,-1246.9 1508.82,-1245.87 1497.94,-1237.95 1518.76,-1244.85 1518.76,-1244.85"/>
</g>
<!-- deployment/kubevirt&#45;console&#45;plugin -->
<g id="node21" class="node">
<title>deployment/kubevirt&#45;console&#45;plugin</title>
<path fill="none" stroke="black" d="M1965,-1178C1965,-1178 1537,-1178 1537,-1178 1531,-1178 1525,-1172 1525,-1166 1525,-1166 1525,-1118 1525,-1118 1525,-1112 1531,-1106 1537,-1106 1537,-1106 1965,-1106 1965,-1106 1971,-1106 1977,-1112 1977,-1118 1977,-1118 1977,-1166 1977,-1166 1977,-1172 1971,-1178 1965,-1178"/>
<text text-anchor="middle" x="1751" y="-1135.8" font-family="Courier-Bold" font-size="24.00">deployment/kubevirt&#45;console&#45;plugin</text>
</g>
<!-- deployment/hco&#45;operator&#45;&gt;deployment/kubevirt&#45;console&#45;plugin -->
<g id="edge19" class="edge">
<title>deployment/hco&#45;operator&#45;&gt;deployment/kubevirt&#45;console&#45;plugin</title>
<path fill="none" stroke="black" d="M1104.57,-1263.9C1194.85,-1237.99 1321.77,-1203.91 1435,-1182 1457.62,-1177.62 1481.25,-1173.61 1504.96,-1169.96"/>
<polygon fill="black" stroke="black" points="1524.88,-1166.97 1506.43,-1178.84 1514.99,-1168.46 1505.1,-1169.94 1505.1,-1169.94 1505.1,-1169.94 1514.99,-1168.46 1503.76,-1161.04 1524.88,-1166.97 1524.88,-1166.97"/>
</g>
<!-- CDIConfig/config -->
<g id="node6" class="node">
<title>CDIConfig/config</title>
<path fill="none" stroke="black" d="M2416,-1099C2416,-1099 2223,-1099 2223,-1099 2217,-1099 2211,-1093 2211,-1087 2211,-1087 2211,-1039 2211,-1039 2211,-1033 2217,-1027 2223,-1027 2223,-1027 2416,-1027 2416,-1027 2422,-1027 2428,-1033 2428,-1039 2428,-1039 2428,-1087 2428,-1087 2428,-1093 2422,-1099 2416,-1099"/>
<text text-anchor="middle" x="2319.5" y="-1056.8" font-family="Courier-Bold" font-size="24.00">CDIConfig/config</text>
</g>
<!-- deployment/cdi&#45;deployment -->
<g id="node7" class="node">
<title>deployment/cdi&#45;deployment</title>
<path fill="none" stroke="black" d="M1917.5,-1099C1917.5,-1099 1584.5,-1099 1584.5,-1099 1578.5,-1099 1572.5,-1093 1572.5,-1087 1572.5,-1087 1572.5,-1039 1572.5,-1039 1572.5,-1033 1578.5,-1027 1584.5,-1027 1584.5,-1027 1917.5,-1027 1917.5,-1027 1923.5,-1027 1929.5,-1033 1929.5,-1039 1929.5,-1039 1929.5,-1087 1929.5,-1087 1929.5,-1093 1923.5,-1099 1917.5,-1099"/>
<text text-anchor="middle" x="1751" y="-1056.8" font-family="Courier-Bold" font-size="24.00">deployment/cdi&#45;deployment</text>
</g>
<!-- deployment/cdi&#45;deployment&#45;&gt;CDIConfig/config -->
<g id="edge4" class="edge">
<title>deployment/cdi&#45;deployment&#45;&gt;CDIConfig/config</title>
<path fill="none" stroke="black" d="M1929.69,-1063C2014.28,-1063 2113.54,-1063 2190.59,-1063"/>
<polygon fill="black" stroke="black" points="2210.69,-1063 2190.69,-1072 2200.69,-1063 2190.69,-1063 2190.69,-1063 2190.69,-1063 2200.69,-1063 2190.69,-1054 2210.69,-1063 2210.69,-1063"/>
</g>
<!-- deployment/aaq&#45;operator -->
<g id="node9" class="node">
<title>deployment/aaq&#45;operator</title>
<path fill="none" stroke="black" d="M1134.5,-1020C1134.5,-1020 831.5,-1020 831.5,-1020 825.5,-1020 819.5,-1014 819.5,-1008 819.5,-1008 819.5,-960 819.5,-960 819.5,-954 825.5,-948 831.5,-948 831.5,-948 1134.5,-948 1134.5,-948 1140.5,-948 1146.5,-954 1146.5,-960 1146.5,-960 1146.5,-1008 1146.5,-1008 1146.5,-1014 1140.5,-1020 1134.5,-1020"/>
<text text-anchor="middle" x="983" y="-977.8" font-family="Courier-Bold" font-size="24.00">deployment/aaq&#45;operator</text>
</g>
<!-- olm -->
<g id="node10" class="node">
<title>olm</title>
<path fill="none" stroke="black" d="M361.5,-625C361.5,-625 169.5,-625 169.5,-625 163.5,-625 157.5,-619 157.5,-613 157.5,-613 157.5,-565 157.5,-565 157.5,-559 163.5,-553 169.5,-553 169.5,-553 361.5,-553 361.5,-553 367.5,-553 373.5,-559 373.5,-565 373.5,-565 373.5,-613 373.5,-613 373.5,-619 367.5,-625 361.5,-625"/>
<text text-anchor="middle" x="265.5" y="-582.8" font-family="Courier-Bold" font-size="24.00">olm</text>
</g>
<!-- olm&#45;&gt;deployment/hco&#45;operator -->
<g id="edge12" class="edge">
<title>olm&#45;&gt;deployment/hco&#45;operator</title>
<path fill="none" stroke="black" d="M298.64,-625.09C366.37,-700.72 529.54,-880.57 675,-1023 759.23,-1105.47 861.71,-1196.11 924.38,-1250.51"/>
<polygon fill="black" stroke="black" points="939.8,-1263.86 918.79,-1257.57 932.24,-1257.31 924.68,-1250.77 924.68,-1250.77 924.68,-1250.77 932.24,-1257.31 930.57,-1243.96 939.8,-1263.86 939.8,-1263.86"/>
</g>
<!-- olm&#45;&gt;deployment/aaq&#45;operator -->
<g id="edge6" class="edge">
<title>olm&#45;&gt;deployment/aaq&#45;operator</title>
<path fill="none" stroke="black" d="M294.92,-625.06C355.66,-699.22 506.39,-868.2 675,-944 713.51,-961.31 757.3,-971.77 799.49,-977.94"/>
<polygon fill="black" stroke="black" points="819.39,-980.56 798.39,-986.88 809.48,-979.26 799.57,-977.95 799.57,-977.95 799.57,-977.95 809.48,-979.26 800.74,-969.03 819.39,-980.56 819.39,-980.56"/>
</g>
<!-- deployment/cdi&#45;operator -->
<g id="node12" class="node">
<title>deployment/cdi&#45;operator</title>
<path fill="none" stroke="black" d="M1129.5,-941C1129.5,-941 836.5,-941 836.5,-941 830.5,-941 824.5,-935 824.5,-929 824.5,-929 824.5,-881 824.5,-881 824.5,-875 830.5,-869 836.5,-869 836.5,-869 1129.5,-869 1129.5,-869 1135.5,-869 1141.5,-875 1141.5,-881 1141.5,-881 1141.5,-929 1141.5,-929 1141.5,-935 1135.5,-941 1129.5,-941"/>
<text text-anchor="middle" x="983" y="-898.8" font-family="Courier-Bold" font-size="24.00">deployment/cdi&#45;operator</text>
</g>
<!-- olm&#45;&gt;deployment/cdi&#45;operator -->
<g id="edge9" class="edge">
<title>olm&#45;&gt;deployment/cdi&#45;operator</title>
<path fill="none" stroke="black" d="M348.23,-625.1C480,-683.29 739.02,-797.69 881.74,-860.72"/>
<polygon fill="black" stroke="black" points="900.24,-868.89 878.31,-869.04 891.09,-864.85 881.94,-860.81 881.94,-860.81 881.94,-860.81 891.09,-864.85 885.58,-852.58 900.24,-868.89 900.24,-868.89"/>
</g>
<!-- deployment/cluster&#45;network&#45;addons&#45;operator -->
<g id="node14" class="node">
<title>deployment/cluster&#45;network&#45;addons&#45;operator</title>
<path fill="none" stroke="black" d="M1254.5,-704C1254.5,-704 711.5,-704 711.5,-704 705.5,-704 699.5,-698 699.5,-692 699.5,-692 699.5,-644 699.5,-644 699.5,-638 705.5,-632 711.5,-632 711.5,-632 1254.5,-632 1254.5,-632 1260.5,-632 1266.5,-638 1266.5,-644 1266.5,-644 1266.5,-692 1266.5,-692 1266.5,-698 1260.5,-704 1254.5,-704"/>
<text text-anchor="middle" x="983" y="-661.8" font-family="Courier-Bold" font-size="24.00">deployment/cluster&#45;network&#45;addons&#45;operator</text>
</g>
<!-- olm&#45;&gt;deployment/cluster&#45;network&#45;addons&#45;operator -->
<g id="edge11" class="edge">
<title>olm&#45;&gt;deployment/cluster&#45;network&#45;addons&#45;operator</title>
<path fill="none" stroke="black" d="M373.62,-600.83C454.73,-609.78 570.37,-622.55 679.1,-634.56"/>
<polygon fill="black" stroke="black" points="699.31,-636.79 678.44,-643.54 689.37,-635.69 679.43,-634.59 679.43,-634.59 679.43,-634.59 689.37,-635.69 680.42,-625.65 699.31,-636.79 699.31,-636.79"/>
</g>
<!-- deployment/hco&#45;webhook -->
<g id="node15" class="node">
<title>deployment/hco&#45;webhook</title>
<path fill="none" stroke="black" d="M1136,-625C1136,-625 830,-625 830,-625 824,-625 818,-619 818,-613 818,-613 818,-565 818,-565 818,-559 824,-553 830,-553 830,-553 1136,-553 1136,-553 1142,-553 1148,-559 1148,-565 1148,-565 1148,-613 1148,-613 1148,-619 1142,-625 1136,-625"/>
<text text-anchor="middle" x="983" y="-582.8" font-family="Courier-Bold" font-size="24.00">deployment/hco&#45;webhook</text>
</g>
<!-- olm&#45;&gt;deployment/hco&#45;webhook -->
<g id="edge13" class="edge">
<title>olm&#45;&gt;deployment/hco&#45;webhook</title>
<path fill="none" stroke="black" d="M373.62,-589C485.51,-589 663.14,-589 797.64,-589"/>
<polygon fill="black" stroke="black" points="817.99,-589 797.99,-598 807.99,-589 797.99,-589 797.99,-589 797.99,-589 807.99,-589 797.99,-580 817.99,-589 817.99,-589"/>
</g>
<!-- deployment/hostpath&#45;provisioner&#45;operator -->
<g id="node16" class="node">
<title>deployment/hostpath&#45;provisioner&#45;operator</title>
<path fill="none" stroke="black" d="M1236.5,-546C1236.5,-546 729.5,-546 729.5,-546 723.5,-546 717.5,-540 717.5,-534 717.5,-534 717.5,-486 717.5,-486 717.5,-480 723.5,-474 729.5,-474 729.5,-474 1236.5,-474 1236.5,-474 1242.5,-474 1248.5,-480 1248.5,-486 1248.5,-486 1248.5,-534 1248.5,-534 1248.5,-540 1242.5,-546 1236.5,-546"/>
<text text-anchor="middle" x="983" y="-503.8" font-family="Courier-Bold" font-size="24.00">deployment/hostpath&#45;provisioner&#45;operator</text>
</g>
<!-- olm&#45;&gt;deployment/hostpath&#45;provisioner&#45;operator -->
<g id="edge14" class="edge">
<title>olm&#45;&gt;deployment/hostpath&#45;provisioner&#45;operator</title>
<path fill="none" stroke="black" d="M373.62,-577.17C459.3,-567.71 583.54,-554 697.43,-541.42"/>
<polygon fill="black" stroke="black" points="717.46,-539.21 698.57,-550.35 707.52,-540.31 697.58,-541.4 697.58,-541.4 697.58,-541.4 707.52,-540.31 696.59,-532.46 717.46,-539.21 717.46,-539.21"/>
</g>
<!-- deployment/hyperconverged&#45;cluster&#45;cli&#45;download -->
<g id="node17" class="node">
<title>deployment/hyperconverged&#45;cluster&#45;cli&#45;download</title>
<path fill="none" stroke="black" d="M1279,-467C1279,-467 687,-467 687,-467 681,-467 675,-461 675,-455 675,-455 675,-407 675,-407 675,-401 681,-395 687,-395 687,-395 1279,-395 1279,-395 1285,-395 1291,-401 1291,-407 1291,-407 1291,-455 1291,-455 1291,-461 1285,-467 1279,-467"/>
<text text-anchor="middle" x="983" y="-424.8" font-family="Courier-Bold" font-size="24.00">deployment/hyperconverged&#45;cluster&#45;cli&#45;download</text>
</g>
<!-- olm&#45;&gt;deployment/hyperconverged&#45;cluster&#45;cli&#45;download -->
<g id="edge15" class="edge">
<title>olm&#45;&gt;deployment/hyperconverged&#45;cluster&#45;cli&#45;download</title>
<path fill="none" stroke="black" d="M373.7,-581.29C422.6,-575.63 480.69,-565.85 531,-549 594.22,-527.82 604.34,-498.8 668.65,-473.81"/>
<polygon fill="black" stroke="black" points="687.79,-467.04 671.93,-482.19 678.36,-470.37 668.93,-473.71 668.93,-473.71 668.93,-473.71 678.36,-470.37 665.93,-465.22 687.79,-467.04 687.79,-467.04"/>
</g>
<!-- deployment/ssp&#45;operator -->
<g id="node23" class="node">
<title>deployment/ssp&#45;operator</title>
<path fill="none" stroke="black" d="M1132.5,-388C1132.5,-388 833.5,-388 833.5,-388 827.5,-388 821.5,-382 821.5,-376 821.5,-376 821.5,-328 821.5,-328 821.5,-322 827.5,-316 833.5,-316 833.5,-316 1132.5,-316 1132.5,-316 1138.5,-316 1144.5,-322 1144.5,-328 1144.5,-328 1144.5,-376 1144.5,-376 1144.5,-382 1138.5,-388 1132.5,-388"/>
<text text-anchor="middle" x="983" y="-345.8" font-family="Courier-Bold" font-size="24.00">deployment/ssp&#45;operator</text>
</g>
<!-- olm&#45;&gt;deployment/ssp&#45;operator -->
<g id="edge21" class="edge">
<title>olm&#45;&gt;deployment/ssp&#45;operator</title>
<path fill="none" stroke="black" d="M373.66,-588.99C423.92,-585.05 483.14,-574.49 531,-549 614.57,-504.5 590.98,-435.64 675,-392 713.48,-372.01 758.21,-360.65 801.41,-354.46"/>
<polygon fill="black" stroke="black" points="821.46,-351.93 802.74,-363.36 811.54,-353.18 801.61,-354.43 801.61,-354.43 801.61,-354.43 811.54,-353.18 800.49,-345.5 821.46,-351.93 821.46,-351.93"/>
</g>
<!-- deployment/virt&#45;operator -->
<g id="node25" class="node">
<title>deployment/virt&#45;operator</title>
<path fill="none" stroke="black" d="M1132.5,-230C1132.5,-230 833.5,-230 833.5,-230 827.5,-230 821.5,-224 821.5,-218 821.5,-218 821.5,-170 821.5,-170 821.5,-164 827.5,-158 833.5,-158 833.5,-158 1132.5,-158 1132.5,-158 1138.5,-158 1144.5,-164 1144.5,-170 1144.5,-170 1144.5,-218 1144.5,-218 1144.5,-224 1138.5,-230 1132.5,-230"/>
<text text-anchor="middle" x="983" y="-187.8" font-family="Courier-Bold" font-size="24.00">deployment/virt&#45;operator</text>
</g>
<!-- olm&#45;&gt;deployment/virt&#45;operator -->
<g id="edge25" class="edge">
<title>olm&#45;&gt;deployment/virt&#45;operator</title>
<path fill="none" stroke="black" d="M373.8,-593.18C425.12,-590.34 485.19,-579.5 531,-549 633.59,-480.69 580.41,-391.01 675,-312 714.56,-278.96 764.39,-254.55 812.33,-236.79"/>
<polygon fill="black" stroke="black" points="831.29,-230.06 815.45,-245.23 821.87,-233.4 812.44,-236.75 812.44,-236.75 812.44,-236.75 821.87,-233.4 809.44,-228.26 831.29,-230.06 831.29,-230.06"/>
</g>
<!-- deployment/cdi&#45;apiserver -->
<g id="node11" class="node">
<title>deployment/cdi&#45;apiserver</title>
<path fill="none" stroke="black" d="M1902,-1020C1902,-1020 1600,-1020 1600,-1020 1594,-1020 1588,-1014 1588,-1008 1588,-1008 1588,-960 1588,-960 1588,-954 1594,-948 1600,-948 1600,-948 1902,-948 1902,-948 1908,-948 1914,-954 1914,-960 1914,-960 1914,-1008 1914,-1008 1914,-1014 1908,-1020 1902,-1020"/>
<text text-anchor="middle" x="1751" y="-977.8" font-family="Courier-Bold" font-size="24.00">deployment/cdi&#45;apiserver</text>
</g>
<!-- deployment/cdi&#45;operator&#45;&gt;deployment/cdi&#45;deployment -->
<g id="edge8" class="edge">
<title>deployment/cdi&#45;operator&#45;&gt;deployment/cdi&#45;deployment</title>
<path fill="none" stroke="black" d="M1141.84,-914.37C1190.5,-920.22 1243.7,-929.69 1291,-945 1360.25,-967.41 1365.71,-1000.7 1435,-1023 1472.15,-1034.96 1512.84,-1043.36 1552.27,-1049.26"/>
<polygon fill="black" stroke="black" points="1572.13,-1052.04 1551.07,-1058.18 1562.22,-1050.65 1552.32,-1049.26 1552.32,-1049.26 1552.32,-1049.26 1562.22,-1050.65 1553.57,-1040.35 1572.13,-1052.04 1572.13,-1052.04"/>
</g>
<!-- deployment/cdi&#45;operator&#45;&gt;deployment/cdi&#45;apiserver -->
<g id="edge7" class="edge">
<title>deployment/cdi&#45;operator&#45;&gt;deployment/cdi&#45;apiserver</title>
<path fill="none" stroke="black" d="M1141.79,-921.27C1265.59,-934.04 1438.09,-951.83 1567.77,-965.21"/>
<polygon fill="black" stroke="black" points="1587.8,-967.27 1566.98,-974.17 1577.85,-966.25 1567.9,-965.22 1567.9,-965.22 1567.9,-965.22 1577.85,-966.25 1568.83,-956.27 1587.8,-967.27 1587.8,-967.27"/>
</g>
<!-- deployment/cdi&#45;uploadproxy -->
<g id="node13" class="node">
<title>deployment/cdi&#45;uploadproxy</title>
<path fill="none" stroke="black" d="M1920,-941C1920,-941 1582,-941 1582,-941 1576,-941 1570,-935 1570,-929 1570,-929 1570,-881 1570,-881 1570,-875 1576,-869 1582,-869 1582,-869 1920,-869 1920,-869 1926,-869 1932,-875 1932,-881 1932,-881 1932,-929 1932,-929 1932,-935 1926,-941 1920,-941"/>
<text text-anchor="middle" x="1751" y="-898.8" font-family="Courier-Bold" font-size="24.00">deployment/cdi&#45;uploadproxy</text>
</g>
<!-- deployment/cdi&#45;operator&#45;&gt;deployment/cdi&#45;uploadproxy -->
<g id="edge10" class="edge">
<title>deployment/cdi&#45;operator&#45;&gt;deployment/cdi&#45;uploadproxy</title>
<path fill="none" stroke="black" d="M1141.79,-905C1259.96,-905 1422.49,-905 1549.81,-905"/>
<polygon fill="black" stroke="black" points="1569.93,-905 1549.93,-914 1559.93,-905 1549.93,-905 1549.93,-905 1549.93,-905 1559.93,-905 1549.93,-896 1569.93,-905 1569.93,-905"/>
</g>
<!-- deployment/kubemacpool&#45;cert&#45;manager -->
<g id="node18" class="node">
<title>deployment/kubemacpool&#45;cert&#45;manager</title>
<path fill="none" stroke="black" d="M1991.5,-862C1991.5,-862 1510.5,-862 1510.5,-862 1504.5,-862 1498.5,-856 1498.5,-850 1498.5,-850 1498.5,-802 1498.5,-802 1498.5,-796 1504.5,-790 1510.5,-790 1510.5,-790 1991.5,-790 1991.5,-790 1997.5,-790 2003.5,-796 2003.5,-802 2003.5,-802 2003.5,-850 2003.5,-850 2003.5,-856 1997.5,-862 1991.5,-862"/>
<text text-anchor="middle" x="1751" y="-819.8" font-family="Courier-Bold" font-size="24.00">deployment/kubemacpool&#45;cert&#45;manager</text>
</g>
<!-- deployment/cluster&#45;network&#45;addons&#45;operator&#45;&gt;deployment/kubemacpool&#45;cert&#45;manager -->
<g id="edge16" class="edge">
<title>deployment/cluster&#45;network&#45;addons&#45;operator&#45;&gt;deployment/kubemacpool&#45;cert&#45;manager</title>
<path fill="none" stroke="black" d="M1104.57,-704.1C1194.85,-730.01 1321.77,-764.09 1435,-786 1449.05,-788.72 1463.48,-791.3 1478.08,-793.73"/>
<polygon fill="black" stroke="black" points="1498.08,-796.97 1476.9,-802.66 1488.21,-795.37 1478.34,-793.77 1478.34,-793.77 1478.34,-793.77 1488.21,-795.37 1479.78,-784.89 1498.08,-796.97 1498.08,-796.97"/>
</g>
<!-- deployment/kubemacpool&#45;mac&#45;controller&#45;manager -->
<g id="node19" class="node">
<title>deployment/kubemacpool&#45;mac&#45;controller&#45;manager</title>
<path fill="none" stroke="black" d="M2055,-783C2055,-783 1447,-783 1447,-783 1441,-783 1435,-777 1435,-771 1435,-771 1435,-723 1435,-723 1435,-717 1441,-711 1447,-711 1447,-711 2055,-711 2055,-711 2061,-711 2067,-717 2067,-723 2067,-723 2067,-771 2067,-771 2067,-777 2061,-783 2055,-783"/>
<text text-anchor="middle" x="1751" y="-740.8" font-family="Courier-Bold" font-size="24.00">deployment/kubemacpool&#45;mac&#45;controller&#45;manager</text>
</g>
<!-- deployment/cluster&#45;network&#45;addons&#45;operator&#45;&gt;deployment/kubemacpool&#45;mac&#45;controller&#45;manager -->
<g id="edge17" class="edge">
<title>deployment/cluster&#45;network&#45;addons&#45;operator&#45;&gt;deployment/kubemacpool&#45;mac&#45;controller&#45;manager</title>
<path fill="none" stroke="black" d="M1266.51,-697.14C1314.77,-702.11 1365.33,-707.33 1414.8,-712.43"/>
<polygon fill="black" stroke="black" points="1434.81,-714.49 1413.99,-721.39 1424.86,-713.47 1414.91,-712.44 1414.91,-712.44 1414.91,-712.44 1424.86,-713.47 1415.83,-703.49 1434.81,-714.49 1434.81,-714.49"/>
</g>
<!-- deployment/kubevirt&#45;ipam&#45;controller&#45;manager -->
<g id="node22" class="node">
<title>deployment/kubevirt&#45;ipam&#45;controller&#45;manager</title>
<path fill="none" stroke="black" d="M2027.5,-704C2027.5,-704 1474.5,-704 1474.5,-704 1468.5,-704 1462.5,-698 1462.5,-692 1462.5,-692 1462.5,-644 1462.5,-644 1462.5,-638 1468.5,-632 1474.5,-632 1474.5,-632 2027.5,-632 2027.5,-632 2033.5,-632 2039.5,-638 2039.5,-644 2039.5,-644 2039.5,-692 2039.5,-692 2039.5,-698 2033.5,-704 2027.5,-704"/>
<text text-anchor="middle" x="1751" y="-661.8" font-family="Courier-Bold" font-size="24.00">deployment/kubevirt&#45;ipam&#45;controller&#45;manager</text>
</g>
<!-- deployment/cluster&#45;network&#45;addons&#45;operator&#45;&gt;deployment/kubevirt&#45;ipam&#45;controller&#45;manager -->
<g id="edge20" class="edge">
<title>deployment/cluster&#45;network&#45;addons&#45;operator&#45;&gt;deployment/kubevirt&#45;ipam&#45;controller&#45;manager</title>
<path fill="none" stroke="black" d="M1266.51,-668C1323.75,-668 1384.22,-668 1442.28,-668"/>
<polygon fill="black" stroke="black" points="1462.28,-668 1442.28,-677 1452.28,-668 1442.28,-668 1442.28,-668 1442.28,-668 1452.28,-668 1442.28,-659 1462.28,-668 1462.28,-668"/>
</g>
<!-- daemonset/bridge&#45;marker -->
<g id="node29" class="node">
<title>daemonset/bridge&#45;marker</title>
<path fill="none" stroke="black" d="M1905,-625C1905,-625 1597,-625 1597,-625 1591,-625 1585,-619 1585,-613 1585,-613 1585,-565 1585,-565 1585,-559 1591,-553 1597,-553 1597,-553 1905,-553 1905,-553 1911,-553 1917,-559 1917,-565 1917,-565 1917,-613 1917,-613 1917,-619 1911,-625 1905,-625"/>
<text text-anchor="middle" x="1751" y="-582.8" font-family="Courier-Bold" font-size="24.00">daemonset/bridge&#45;marker</text>
</g>
<!-- deployment/cluster&#45;network&#45;addons&#45;operator&#45;&gt;daemonset/bridge&#45;marker -->
<g id="edge27" class="edge">
<title>deployment/cluster&#45;network&#45;addons&#45;operator&#45;&gt;daemonset/bridge&#45;marker</title>
<path fill="none" stroke="black" d="M1266.51,-638.86C1366.11,-628.59 1475.46,-617.31 1564.94,-608.09"/>
<polygon fill="black" stroke="black" points="1584.88,-606.03 1565.91,-617.03 1574.94,-607.05 1564.99,-608.08 1564.99,-608.08 1564.99,-608.08 1574.94,-607.05 1564.07,-599.13 1584.88,-606.03 1584.88,-606.03"/>
</g>
<!-- daemonset/kube&#45;cni&#45;linux&#45;bridge&#45;plugin -->
<g id="node30" class="node">
<title>daemonset/kube&#45;cni&#45;linux&#45;bridge&#45;plugin</title>
<path fill="none" stroke="black" d="M1988,-546C1988,-546 1514,-546 1514,-546 1508,-546 1502,-540 1502,-534 1502,-534 1502,-486 1502,-486 1502,-480 1508,-474 1514,-474 1514,-474 1988,-474 1988,-474 1994,-474 2000,-480 2000,-486 2000,-486 2000,-534 2000,-534 2000,-540 1994,-546 1988,-546"/>
<text text-anchor="middle" x="1751" y="-503.8" font-family="Courier-Bold" font-size="24.00">daemonset/kube&#45;cni&#45;linux&#45;bridge&#45;plugin</text>
</g>
<!-- deployment/cluster&#45;network&#45;addons&#45;operator&#45;&gt;daemonset/kube&#45;cni&#45;linux&#45;bridge&#45;plugin -->
<g id="edge28" class="edge">
<title>deployment/cluster&#45;network&#45;addons&#45;operator&#45;&gt;daemonset/kube&#45;cni&#45;linux&#45;bridge&#45;plugin</title>
<path fill="none" stroke="black" d="M1266.77,-635.21C1274.98,-632.97 1283.07,-630.57 1291,-628 1360.25,-605.59 1365.71,-572.3 1435,-550 1450.2,-545.11 1466,-540.81 1482.06,-537.04"/>
<polygon fill="black" stroke="black" points="1501.76,-532.69 1484.17,-545.79 1491.99,-534.84 1482.23,-537 1482.23,-537 1482.23,-537 1491.99,-534.84 1480.29,-528.21 1501.76,-532.69 1501.76,-532.69"/>
</g>
<!-- daemonset/passt&#45;binding&#45;cni -->
<g id="node31" class="node">
<title>daemonset/passt&#45;binding&#45;cni</title>
<path fill="none" stroke="black" d="M1923,-467C1923,-467 1579,-467 1579,-467 1573,-467 1567,-461 1567,-455 1567,-455 1567,-407 1567,-407 1567,-401 1573,-395 1579,-395 1579,-395 1923,-395 1923,-395 1929,-395 1935,-401 1935,-407 1935,-407 1935,-455 1935,-455 1935,-461 1929,-467 1923,-467"/>
<text text-anchor="middle" x="1751" y="-424.8" font-family="Courier-Bold" font-size="24.00">daemonset/passt&#45;binding&#45;cni</text>
</g>
<!-- deployment/cluster&#45;network&#45;addons&#45;operator&#45;&gt;daemonset/passt&#45;binding&#45;cni -->
<g id="edge29" class="edge">
<title>deployment/cluster&#45;network&#45;addons&#45;operator&#45;&gt;daemonset/passt&#45;binding&#45;cni</title>
<path fill="none" stroke="black" d="M1266.67,-639.21C1275,-635.82 1283.13,-632.09 1291,-628 1375.02,-584.36 1350.9,-514.51 1435,-471 1469.27,-453.27 1508.34,-442.25 1547.03,-435.59"/>
<polygon fill="black" stroke="black" points="1566.9,-432.53 1548.5,-444.47 1557.01,-434.05 1547.13,-435.57 1547.13,-435.57 1547.13,-435.57 1557.01,-434.05 1545.76,-426.68 1566.9,-432.53 1566.9,-432.53"/>
</g>
<!-- deployment/virt&#45;template&#45;validator -->
<g id="node28" class="node">
<title>deployment/virt&#45;template&#45;validator</title>
<path fill="none" stroke="black" d="M1960.5,-388C1960.5,-388 1541.5,-388 1541.5,-388 1535.5,-388 1529.5,-382 1529.5,-376 1529.5,-376 1529.5,-328 1529.5,-328 1529.5,-322 1535.5,-316 1541.5,-316 1541.5,-316 1960.5,-316 1960.5,-316 1966.5,-316 1972.5,-322 1972.5,-328 1972.5,-328 1972.5,-376 1972.5,-376 1972.5,-382 1966.5,-388 1960.5,-388"/>
<text text-anchor="middle" x="1751" y="-345.8" font-family="Courier-Bold" font-size="24.00">deployment/virt&#45;template&#45;validator</text>
</g>
<!-- deployment/ssp&#45;operator&#45;&gt;deployment/virt&#45;template&#45;validator -->
<g id="edge26" class="edge">
<title>deployment/ssp&#45;operator&#45;&gt;deployment/virt&#45;template&#45;validator</title>
<path fill="none" stroke="black" d="M1144.58,-352C1250.23,-352 1390.44,-352 1509.32,-352"/>
<polygon fill="black" stroke="black" points="1529.35,-352 1509.35,-361 1519.35,-352 1509.35,-352 1509.35,-352 1509.35,-352 1519.35,-352 1509.35,-343 1529.35,-352 1529.35,-352"/>
</g>
<!-- deployment/virt&#45;api -->
<g id="node24" class="node">
<title>deployment/virt&#45;api</title>
<path fill="none" stroke="black" d="M1866.5,-309C1866.5,-309 1635.5,-309 1635.5,-309 1629.5,-309 1623.5,-303 1623.5,-297 1623.5,-297 1623.5,-249 1623.5,-249 1623.5,-243 1629.5,-237 1635.5,-237 1635.5,-237 1866.5,-237 1866.5,-237 1872.5,-237 1878.5,-243 1878.5,-249 1878.5,-249 1878.5,-297 1878.5,-297 1878.5,-303 1872.5,-309 1866.5,-309"/>
<text text-anchor="middle" x="1751" y="-266.8" font-family="Courier-Bold" font-size="24.00">deployment/virt&#45;api</text>
</g>
<!-- deployment/virt&#45;operator&#45;&gt;deployment/virt&#45;api -->
<g id="edge22" class="edge">
<title>deployment/virt&#45;operator&#45;&gt;deployment/virt&#45;api</title>
<path fill="none" stroke="black" d="M1144.58,-210.56C1279.95,-224.52 1472.06,-244.33 1603.34,-257.87"/>
<polygon fill="black" stroke="black" points="1623.47,-259.95 1602.65,-266.85 1613.52,-258.92 1603.57,-257.9 1603.57,-257.9 1603.57,-257.9 1613.52,-258.92 1604.5,-248.95 1623.47,-259.95 1623.47,-259.95"/>
</g>
<!-- deployment/virt&#45;controller -->
<g id="node26" class="node">
<title>deployment/virt&#45;controller</title>
<path fill="none" stroke="black" d="M1906,-230C1906,-230 1596,-230 1596,-230 1590,-230 1584,-224 1584,-218 1584,-218 1584,-170 1584,-170 1584,-164 1590,-158 1596,-158 1596,-158 1906,-158 1906,-158 1912,-158 1918,-164 1918,-170 1918,-170 1918,-218 1918,-218 1918,-224 1912,-230 1906,-230"/>
<text text-anchor="middle" x="1751" y="-187.8" font-family="Courier-Bold" font-size="24.00">deployment/virt&#45;controller</text>
</g>
<!-- deployment/virt&#45;operator&#45;&gt;deployment/virt&#45;controller -->
<g id="edge23" class="edge">
<title>deployment/virt&#45;operator&#45;&gt;deployment/virt&#45;controller</title>
<path fill="none" stroke="black" d="M1144.58,-194C1266.8,-194 1435.26,-194 1563.46,-194"/>
<polygon fill="black" stroke="black" points="1583.68,-194 1563.68,-203 1573.68,-194 1563.68,-194 1563.68,-194 1563.68,-194 1573.68,-194 1563.68,-185 1583.68,-194 1583.68,-194"/>
</g>
<!-- deployment/virt&#45;exportproxy -->
<g id="node27" class="node">
<title>deployment/virt&#45;exportproxy</title>
<path fill="none" stroke="black" d="M1920.5,-151C1920.5,-151 1581.5,-151 1581.5,-151 1575.5,-151 1569.5,-145 1569.5,-139 1569.5,-139 1569.5,-91 1569.5,-91 1569.5,-85 1575.5,-79 1581.5,-79 1581.5,-79 1920.5,-79 1920.5,-79 1926.5,-79 1932.5,-85 1932.5,-91 1932.5,-91 1932.5,-139 1932.5,-139 1932.5,-145 1926.5,-151 1920.5,-151"/>
<text text-anchor="middle" x="1751" y="-108.8" font-family="Courier-Bold" font-size="24.00">deployment/virt&#45;exportproxy</text>
</g>
<!-- deployment/virt&#45;operator&#45;&gt;deployment/virt&#45;exportproxy -->
<g id="edge24" class="edge">
<title>deployment/virt&#45;operator&#45;&gt;deployment/virt&#45;exportproxy</title>
<path fill="none" stroke="black" d="M1144.58,-177.44C1262.32,-165.3 1422.99,-148.73 1549.22,-135.71"/>
<polygon fill="black" stroke="black" points="1569.17,-133.65 1550.2,-144.65 1559.22,-134.68 1549.27,-135.7 1549.27,-135.7 1549.27,-135.7 1559.22,-134.68 1548.35,-126.75 1569.17,-133.65 1569.17,-133.65"/>
</g>
<!-- daemonset/virt&#45;handler -->
<g id="node32" class="node">
<title>daemonset/virt&#45;handler</title>
<path fill="none" stroke="black" d="M1890,-72C1890,-72 1612,-72 1612,-72 1606,-72 1600,-66 1600,-60 1600,-60 1600,-12 1600,-12 1600,-6 1606,0 1612,0 1612,0 1890,0 1890,0 1896,0 1902,-6 1902,-12 1902,-12 1902,-60 1902,-60 1902,-66 1896,-72 1890,-72"/>
<text text-anchor="middle" x="1751" y="-29.8" font-family="Courier-Bold" font-size="24.00">daemonset/virt&#45;handler</text>
</g>
<!-- deployment/virt&#45;operator&#45;&gt;daemonset/virt&#45;handler -->
<g id="edge30" class="edge">
<title>deployment/virt&#45;operator&#45;&gt;daemonset/virt&#45;handler</title>
<path fill="none" stroke="black" d="M1104.57,-157.9C1194.85,-131.99 1321.77,-97.91 1435,-76 1481.77,-66.95 1532.85,-59.46 1580.01,-53.49"/>
<polygon fill="black" stroke="black" points="1599.95,-51.03 1581.2,-62.41 1590.03,-52.26 1580.1,-53.48 1580.1,-53.48 1580.1,-53.48 1590.03,-52.26 1579,-44.55 1599.95,-51.03 1599.95,-51.03"/>
</g>
</g>
</svg>
