<?xml version="1.0" encoding="UTF-8" standalone="no"?>
<!DOCTYPE svg PUBLIC "-//W3C//DTD SVG 1.1//EN"
 "http://www.w3.org/Graphics/SVG/1.1/DTD/svg11.dtd">
<!-- Generated by graphviz version 2.40.1 (0)
 -->
<!-- Title: managed&#45;by Pages: 1 -->
<svg width="2573pt" height="1412pt"
 viewBox="14.40 14.40 2558.40 1397.40" xmlns="http://www.w3.org/2000/svg" xmlns:xlink="http://www.w3.org/1999/xlink">
<g id="graph0" class="graph" transform="scale(1 1) rotate(0) translate(18.4 1393.4)">
<title>managed&#45;by</title>
<polygon fill="#ffffff" stroke="transparent" points="-4,4 -4,-1379 2540,-1379 2540,4 -4,4"/>
<!-- HyperConverged/kubevirt&#45;hyperconverged -->
<g id="node1" class="node">
<title>HyperConverged/kubevirt&#45;hyperconverged</title>
<path fill="none" stroke="#000000" d="M546,-427C546,-427 12,-427 12,-427 6,-427 0,-421 0,-415 0,-415 0,-367 0,-367 0,-361 6,-355 12,-355 12,-355 546,-355 546,-355 552,-355 558,-361 558,-367 558,-367 558,-415 558,-415 558,-421 552,-427 546,-427"/>
<text text-anchor="middle" x="279" y="-384.8" font-family="Courier,monospace" font-weight="bold" font-size="24.00" fill="#000000">HyperConverged/kubevirt&#45;hyperconverged</text>
</g>
<!-- KubeVirt/kubevirt&#45;kubevirt&#45;hyperconverged -->
<g id="node2" class="node">
<title>KubeVirt/kubevirt&#45;kubevirt&#45;hyperconverged</title>
<path fill="none" stroke="#000000" d="M2135.5,-1375C2135.5,-1375 1558.5,-1375 1558.5,-1375 1552.5,-1375 1546.5,-1369 1546.5,-1363 1546.5,-1363 1546.5,-1315 1546.5,-1315 1546.5,-1309 1552.5,-1303 1558.5,-1303 1558.5,-1303 2135.5,-1303 2135.5,-1303 2141.5,-1303 2147.5,-1309 2147.5,-1315 2147.5,-1315 2147.5,-1363 2147.5,-1363 2147.5,-1369 2141.5,-1375 2135.5,-1375"/>
<text text-anchor="middle" x="1847" y="-1332.8" font-family="Courier,monospace" font-weight="bold" font-size="24.00" fill="#000000">KubeVirt/kubevirt&#45;kubevirt&#45;hyperconverged</text>
</g>
<!-- deployment/hco&#45;operator -->
<g id="node3" class="node">
<title>deployment/hco&#45;operator</title>
<path fill="none" stroke="#000000" d="M1198,-1177C1198,-1177 878,-1177 878,-1177 872,-1177 866,-1171 866,-1165 866,-1165 866,-1117 866,-1117 866,-1111 872,-1105 878,-1105 878,-1105 1198,-1105 1198,-1105 1204,-1105 1210,-1111 1210,-1117 1210,-1117 1210,-1165 1210,-1165 1210,-1171 1204,-1177 1198,-1177"/>
<text text-anchor="middle" x="1038" y="-1134.8" font-family="Courier,monospace" font-weight="bold" font-size="24.00" fill="#000000">deployment/hco&#45;operator</text>
</g>
<!-- deployment/hco&#45;operator&#45;&gt;KubeVirt/kubevirt&#45;kubevirt&#45;hyperconverged -->
<g id="edge1" class="edge">
<title>deployment/hco&#45;operator&#45;&gt;KubeVirt/kubevirt&#45;kubevirt&#45;hyperconverged</title>
<path fill="none" stroke="#000000" d="M1129.4013,-1177.0832C1224.8727,-1213.3427 1379.7123,-1268.15 1518,-1299 1520.7509,-1299.6137 1523.5169,-1300.2185 1526.2966,-1300.8146"/>
<polygon fill="#000000" stroke="#000000" points="1546.2544,-1304.9048 1524.8547,-1309.7061 1536.4581,-1302.8971 1526.6617,-1300.8894 1526.6617,-1300.8894 1526.6617,-1300.8894 1536.4581,-1302.8971 1528.4686,-1292.0726 1546.2544,-1304.9048 1546.2544,-1304.9048"/>
</g>
<!-- SSP/ssp&#45;kubevirt&#45;hyperconverged -->
<g id="node4" class="node">
<title>SSP/ssp&#45;kubevirt&#45;hyperconverged</title>
<path fill="none" stroke="#000000" d="M2064,-1296C2064,-1296 1630,-1296 1630,-1296 1624,-1296 1618,-1290 1618,-1284 1618,-1284 1618,-1236 1618,-1236 1618,-1230 1624,-1224 1630,-1224 1630,-1224 2064,-1224 2064,-1224 2070,-1224 2076,-1230 2076,-1236 2076,-1236 2076,-1284 2076,-1284 2076,-1290 2070,-1296 2064,-1296"/>
<text text-anchor="middle" x="1847" y="-1253.8" font-family="Courier,monospace" font-weight="bold" font-size="24.00" fill="#000000">SSP/ssp&#45;kubevirt&#45;hyperconverged</text>
</g>
<!-- deployment/hco&#45;operator&#45;&gt;SSP/ssp&#45;kubevirt&#45;hyperconverged -->
<g id="edge2" class="edge">
<title>deployment/hco&#45;operator&#45;&gt;SSP/ssp&#45;kubevirt&#45;hyperconverged</title>
<path fill="none" stroke="#000000" d="M1210.1853,-1171.1423C1301.509,-1186.6726 1415.6899,-1205.3679 1518,-1220 1543.7707,-1223.6856 1570.7085,-1227.3179 1597.5961,-1230.8006"/>
<polygon fill="#000000" stroke="#000000" points="1617.6354,-1233.3706 1596.653,-1239.7533 1607.7166,-1232.0985 1597.7979,-1230.8264 1597.7979,-1230.8264 1597.7979,-1230.8264 1607.7166,-1232.0985 1598.9428,-1221.8995 1617.6354,-1233.3706 1617.6354,-1233.3706"/>
</g>
<!-- CDI/cdi&#45;kubevirt&#45;hyperconverged -->
<g id="node5" class="node">
<title>CDI/cdi&#45;kubevirt&#45;hyperconverged</title>
<path fill="none" stroke="#000000" d="M2064,-1217C2064,-1217 1630,-1217 1630,-1217 1624,-1217 1618,-1211 1618,-1205 1618,-1205 1618,-1157 1618,-1157 1618,-1151 1624,-1145 1630,-1145 1630,-1145 2064,-1145 2064,-1145 2070,-1145 2076,-1151 2076,-1157 2076,-1157 2076,-1205 2076,-1205 2076,-1211 2070,-1217 2064,-1217"/>
<text text-anchor="middle" x="1847" y="-1174.8" font-family="Courier,monospace" font-weight="bold" font-size="24.00" fill="#000000">CDI/cdi&#45;kubevirt&#45;hyperconverged</text>
</g>
<!-- deployment/hco&#45;operator&#45;&gt;CDI/cdi&#45;kubevirt&#45;hyperconverged -->
<g id="edge3" class="edge">
<title>deployment/hco&#45;operator&#45;&gt;CDI/cdi&#45;kubevirt&#45;hyperconverged</title>
<path fill="none" stroke="#000000" d="M1210.0631,-1149.5074C1322.7934,-1155.0813 1471.981,-1162.4577 1597.6316,-1168.6703"/>
<polygon fill="#000000" stroke="#000000" points="1617.9866,-1169.6767 1597.5665,-1177.678 1607.9988,-1169.1828 1598.011,-1168.689 1598.011,-1168.689 1598.011,-1168.689 1607.9988,-1169.1828 1598.4555,-1159.6999 1617.9866,-1169.6767 1617.9866,-1169.6767"/>
</g>
<!-- NetworkAddonsConfig/cluster -->
<g id="node8" class="node">
<title>NetworkAddonsConfig/cluster</title>
<path fill="none" stroke="#000000" d="M2028.5,-1138C2028.5,-1138 1665.5,-1138 1665.5,-1138 1659.5,-1138 1653.5,-1132 1653.5,-1126 1653.5,-1126 1653.5,-1078 1653.5,-1078 1653.5,-1072 1659.5,-1066 1665.5,-1066 1665.5,-1066 2028.5,-1066 2028.5,-1066 2034.5,-1066 2040.5,-1072 2040.5,-1078 2040.5,-1078 2040.5,-1126 2040.5,-1126 2040.5,-1132 2034.5,-1138 2028.5,-1138"/>
<text text-anchor="middle" x="1847" y="-1095.8" font-family="Courier,monospace" font-weight="bold" font-size="24.00" fill="#000000">NetworkAddonsConfig/cluster</text>
</g>
<!-- deployment/hco&#45;operator&#45;&gt;NetworkAddonsConfig/cluster -->
<g id="edge5" class="edge">
<title>deployment/hco&#45;operator&#45;&gt;NetworkAddonsConfig/cluster</title>
<path fill="none" stroke="#000000" d="M1210.0631,-1132.7052C1333.6221,-1126.7487 1500.979,-1118.6809 1633.1364,-1112.3099"/>
<polygon fill="#000000" stroke="#000000" points="1653.2002,-1111.3426 1633.6568,-1121.2953 1643.2118,-1111.8242 1633.2234,-1112.3058 1633.2234,-1112.3058 1633.2234,-1112.3058 1643.2118,-1111.8242 1632.79,-1103.3162 1653.2002,-1111.3426 1653.2002,-1111.3426"/>
</g>
<!-- deployment/kubevirt&#45;plugin -->
<g id="node19" class="node">
<title>deployment/kubevirt&#45;plugin</title>
<path fill="none" stroke="#000000" d="M2028.5,-1059C2028.5,-1059 1665.5,-1059 1665.5,-1059 1659.5,-1059 1653.5,-1053 1653.5,-1047 1653.5,-1047 1653.5,-999 1653.5,-999 1653.5,-993 1659.5,-987 1665.5,-987 1665.5,-987 2028.5,-987 2028.5,-987 2034.5,-987 2040.5,-993 2040.5,-999 2040.5,-999 2040.5,-1047 2040.5,-1047 2040.5,-1053 2034.5,-1059 2028.5,-1059"/>
<text text-anchor="middle" x="1847" y="-1016.8" font-family="Courier,monospace" font-weight="bold" font-size="24.00" fill="#000000">deployment/kubevirt&#45;plugin</text>
</g>
<!-- deployment/hco&#45;operator&#45;&gt;deployment/kubevirt&#45;plugin -->
<g id="edge17" class="edge">
<title>deployment/hco&#45;operator&#45;&gt;deployment/kubevirt&#45;plugin</title>
<path fill="none" stroke="#000000" d="M1210.201,-1111.3019C1301.529,-1095.9855 1415.7091,-1077.5235 1518,-1063 1555.2324,-1057.7137 1594.8977,-1052.5194 1633.327,-1047.7147"/>
<polygon fill="#000000" stroke="#000000" points="1653.2909,-1045.2393 1634.5504,-1056.632 1643.3669,-1046.4699 1633.4429,-1047.7004 1633.4429,-1047.7004 1633.4429,-1047.7004 1643.3669,-1046.4699 1632.3354,-1038.7688 1653.2909,-1045.2393 1653.2909,-1045.2393"/>
</g>
<!-- CDIConfig/config -->
<g id="node6" class="node">
<title>CDIConfig/config</title>
<path fill="none" stroke="#000000" d="M2524,-980C2524,-980 2332,-980 2332,-980 2326,-980 2320,-974 2320,-968 2320,-968 2320,-920 2320,-920 2320,-914 2326,-908 2332,-908 2332,-908 2524,-908 2524,-908 2530,-908 2536,-914 2536,-920 2536,-920 2536,-968 2536,-968 2536,-974 2530,-980 2524,-980"/>
<text text-anchor="middle" x="2428" y="-937.8" font-family="Courier,monospace" font-weight="bold" font-size="24.00" fill="#000000">CDIConfig/config</text>
</g>
<!-- deployment/cdi&#45;deployment -->
<g id="node7" class="node">
<title>deployment/cdi&#45;deployment</title>
<path fill="none" stroke="#000000" d="M2021.5,-980C2021.5,-980 1672.5,-980 1672.5,-980 1666.5,-980 1660.5,-974 1660.5,-968 1660.5,-968 1660.5,-920 1660.5,-920 1660.5,-914 1666.5,-908 1672.5,-908 1672.5,-908 2021.5,-908 2021.5,-908 2027.5,-908 2033.5,-914 2033.5,-920 2033.5,-920 2033.5,-968 2033.5,-968 2033.5,-974 2027.5,-980 2021.5,-980"/>
<text text-anchor="middle" x="1847" y="-937.8" font-family="Courier,monospace" font-weight="bold" font-size="24.00" fill="#000000">deployment/cdi&#45;deployment</text>
</g>
<!-- deployment/cdi&#45;deployment&#45;&gt;CDIConfig/config -->
<g id="edge4" class="edge">
<title>deployment/cdi&#45;deployment&#45;&gt;CDIConfig/config</title>
<path fill="none" stroke="#000000" d="M2033.6297,-944C2120.4412,-944 2221.5049,-944 2299.5891,-944"/>
<polygon fill="#000000" stroke="#000000" points="2319.9453,-944 2299.9453,-953.0001 2309.9453,-944 2299.9453,-944.0001 2299.9453,-944.0001 2299.9453,-944.0001 2309.9453,-944 2299.9452,-935.0001 2319.9453,-944 2319.9453,-944"/>
</g>
<!-- deployment/cdi&#45;apiserver -->
<g id="node9" class="node">
<title>deployment/cdi&#45;apiserver</title>
<path fill="none" stroke="#000000" d="M2014.5,-901C2014.5,-901 1679.5,-901 1679.5,-901 1673.5,-901 1667.5,-895 1667.5,-889 1667.5,-889 1667.5,-841 1667.5,-841 1667.5,-835 1673.5,-829 1679.5,-829 1679.5,-829 2014.5,-829 2014.5,-829 2020.5,-829 2026.5,-835 2026.5,-841 2026.5,-841 2026.5,-889 2026.5,-889 2026.5,-895 2020.5,-901 2014.5,-901"/>
<text text-anchor="middle" x="1847" y="-858.8" font-family="Courier,monospace" font-weight="bold" font-size="24.00" fill="#000000">deployment/cdi&#45;apiserver</text>
</g>
<!-- deployment/cdi&#45;operator -->
<g id="node10" class="node">
<title>deployment/cdi&#45;operator</title>
<path fill="none" stroke="#000000" d="M1198,-862C1198,-862 878,-862 878,-862 872,-862 866,-856 866,-850 866,-850 866,-802 866,-802 866,-796 872,-790 878,-790 878,-790 1198,-790 1198,-790 1204,-790 1210,-796 1210,-802 1210,-802 1210,-850 1210,-850 1210,-856 1204,-862 1198,-862"/>
<text text-anchor="middle" x="1038" y="-819.8" font-family="Courier,monospace" font-weight="bold" font-size="24.00" fill="#000000">deployment/cdi&#45;operator</text>
</g>
<!-- deployment/cdi&#45;operator&#45;&gt;deployment/cdi&#45;deployment -->
<g id="edge7" class="edge">
<title>deployment/cdi&#45;operator&#45;&gt;deployment/cdi&#45;deployment</title>
<path fill="none" stroke="#000000" d="M1210.201,-855.6981C1301.529,-871.0145 1415.7091,-889.4765 1518,-904 1557.4424,-909.6001 1599.6151,-915.0969 1640.1562,-920.1367"/>
<polygon fill="#000000" stroke="#000000" points="1660.2252,-922.6113 1639.2741,-929.096 1650.3004,-921.3874 1640.3755,-920.1636 1640.3755,-920.1636 1640.3755,-920.1636 1650.3004,-921.3874 1641.477,-911.2313 1660.2252,-922.6113 1660.2252,-922.6113"/>
</g>
<!-- deployment/cdi&#45;operator&#45;&gt;deployment/cdi&#45;apiserver -->
<g id="edge6" class="edge">
<title>deployment/cdi&#45;operator&#45;&gt;deployment/cdi&#45;apiserver</title>
<path fill="none" stroke="#000000" d="M1210.0631,-834.2948C1338.035,-840.464 1512.9889,-848.8981 1647.1578,-855.3661"/>
<polygon fill="#000000" stroke="#000000" points="1667.4861,-856.3461 1647.0759,-864.3725 1657.4977,-855.8645 1647.5093,-855.3829 1647.5093,-855.3829 1647.5093,-855.3829 1657.4977,-855.8645 1647.9427,-846.3934 1667.4861,-856.3461 1667.4861,-856.3461"/>
</g>
<!-- deployment/cdi&#45;uploadproxy -->
<g id="node12" class="node">
<title>deployment/cdi&#45;uploadproxy</title>
<path fill="none" stroke="#000000" d="M2028.5,-822C2028.5,-822 1665.5,-822 1665.5,-822 1659.5,-822 1653.5,-816 1653.5,-810 1653.5,-810 1653.5,-762 1653.5,-762 1653.5,-756 1659.5,-750 1665.5,-750 1665.5,-750 2028.5,-750 2028.5,-750 2034.5,-750 2040.5,-756 2040.5,-762 2040.5,-762 2040.5,-810 2040.5,-810 2040.5,-816 2034.5,-822 2028.5,-822"/>
<text text-anchor="middle" x="1847" y="-779.8" font-family="Courier,monospace" font-weight="bold" font-size="24.00" fill="#000000">deployment/cdi&#45;uploadproxy</text>
</g>
<!-- deployment/cdi&#45;operator&#45;&gt;deployment/cdi&#45;uploadproxy -->
<g id="edge9" class="edge">
<title>deployment/cdi&#45;operator&#45;&gt;deployment/cdi&#45;uploadproxy</title>
<path fill="none" stroke="#000000" d="M1210.0631,-817.4926C1333.6221,-811.3833 1500.979,-803.1086 1633.1364,-796.5742"/>
<polygon fill="#000000" stroke="#000000" points="1653.2002,-795.5822 1633.6691,-805.559 1643.2124,-796.0761 1633.2246,-796.57 1633.2246,-796.57 1633.2246,-796.57 1643.2124,-796.0761 1632.7801,-787.5809 1653.2002,-795.5822 1653.2002,-795.5822"/>
</g>
<!-- olm -->
<g id="node11" class="node">
<title>olm</title>
<path fill="none" stroke="#000000" d="M375,-506C375,-506 183,-506 183,-506 177,-506 171,-500 171,-494 171,-494 171,-446 171,-446 171,-440 177,-434 183,-434 183,-434 375,-434 375,-434 381,-434 387,-440 387,-446 387,-446 387,-494 387,-494 387,-500 381,-506 375,-506"/>
<text text-anchor="middle" x="279" y="-463.8" font-family="Courier,monospace" font-weight="bold" font-size="24.00" fill="#000000">olm</text>
</g>
<!-- olm&#45;&gt;deployment/hco&#45;operator -->
<g id="edge11" class="edge">
<title>olm&#45;&gt;deployment/hco&#45;operator</title>
<path fill="none" stroke="#000000" d="M315.859,-506.082C388.3911,-576.7286 555.362,-737.6044 702,-866 795.3901,-947.7719 907.6611,-1038.1315 975.8804,-1092.1956"/>
<polygon fill="#000000" stroke="#000000" points="991.8212,-1104.8034 970.5515,-1099.4556 983.9779,-1098.6 976.1345,-1092.3966 976.1345,-1092.3966 976.1345,-1092.3966 983.9779,-1098.6 981.7176,-1085.3376 991.8212,-1104.8034 991.8212,-1104.8034"/>
</g>
<!-- olm&#45;&gt;deployment/cdi&#45;operator -->
<g id="edge8" class="edge">
<title>olm&#45;&gt;deployment/cdi&#45;operator</title>
<path fill="none" stroke="#000000" d="M336.2148,-506.2067C416.0307,-555.742 566.2921,-645.4921 702,-707 766.0953,-736.0504 839.5458,-762.7728 901.3934,-783.5033"/>
<polygon fill="#000000" stroke="#000000" points="920.615,-789.8794 898.7985,-792.1247 911.1236,-786.7309 901.6321,-783.5824 901.6321,-783.5824 901.6321,-783.5824 911.1236,-786.7309 904.4658,-775.0401 920.615,-789.8794 920.615,-789.8794"/>
</g>
<!-- deployment/cluster&#45;network&#45;addons&#45;operator -->
<g id="node13" class="node">
<title>deployment/cluster&#45;network&#45;addons&#45;operator</title>
<path fill="none" stroke="#000000" d="M1333.5,-704C1333.5,-704 742.5,-704 742.5,-704 736.5,-704 730.5,-698 730.5,-692 730.5,-692 730.5,-644 730.5,-644 730.5,-638 736.5,-632 742.5,-632 742.5,-632 1333.5,-632 1333.5,-632 1339.5,-632 1345.5,-638 1345.5,-644 1345.5,-644 1345.5,-692 1345.5,-692 1345.5,-698 1339.5,-704 1333.5,-704"/>
<text text-anchor="middle" x="1038" y="-661.8" font-family="Courier,monospace" font-weight="bold" font-size="24.00" fill="#000000">deployment/cluster&#45;network&#45;addons&#45;operator</text>
</g>
<!-- olm&#45;&gt;deployment/cluster&#45;network&#45;addons&#45;operator -->
<g id="edge10" class="edge">
<title>olm&#45;&gt;deployment/cluster&#45;network&#45;addons&#45;operator</title>
<path fill="none" stroke="#000000" d="M358.2924,-506.1542C441.9741,-542.7425 578.5823,-598.0614 702,-628 704.8991,-628.7033 707.8154,-629.3944 710.747,-630.0735"/>
<polygon fill="#000000" stroke="#000000" points="730.2997,-634.3844 708.8309,-638.8671 720.5342,-632.2313 710.7687,-630.0782 710.7687,-630.0782 710.7687,-630.0782 720.5342,-632.2313 712.7065,-621.2893 730.2997,-634.3844 730.2997,-634.3844"/>
</g>
<!-- deployment/hco&#45;webhook -->
<g id="node14" class="node">
<title>deployment/hco&#45;webhook</title>
<path fill="none" stroke="#000000" d="M1191,-625C1191,-625 885,-625 885,-625 879,-625 873,-619 873,-613 873,-613 873,-565 873,-565 873,-559 879,-553 885,-553 885,-553 1191,-553 1191,-553 1197,-553 1203,-559 1203,-565 1203,-565 1203,-613 1203,-613 1203,-619 1197,-625 1191,-625"/>
<text text-anchor="middle" x="1038" y="-582.8" font-family="Courier,monospace" font-weight="bold" font-size="24.00" fill="#000000">deployment/hco&#45;webhook</text>
</g>
<!-- olm&#45;&gt;deployment/hco&#45;webhook -->
<g id="edge12" class="edge">
<title>olm&#45;&gt;deployment/hco&#45;webhook</title>
<path fill="none" stroke="#000000" d="M387.3364,-492.2767C472.5952,-509.3126 594.547,-532.5883 702,-549 750.7429,-556.4447 803.6431,-563.3076 852.7346,-569.1699"/>
<polygon fill="#000000" stroke="#000000" points="872.788,-571.5349 851.8715,-578.1304 862.8568,-570.3636 852.9256,-569.1923 852.9256,-569.1923 852.9256,-569.1923 862.8568,-570.3636 853.9798,-560.2542 872.788,-571.5349 872.788,-571.5349"/>
</g>
<!-- deployment/hostpath&#45;provisioner&#45;operator -->
<g id="node15" class="node">
<title>deployment/hostpath&#45;provisioner&#45;operator</title>
<path fill="none" stroke="#000000" d="M1319.5,-546C1319.5,-546 756.5,-546 756.5,-546 750.5,-546 744.5,-540 744.5,-534 744.5,-534 744.5,-486 744.5,-486 744.5,-480 750.5,-474 756.5,-474 756.5,-474 1319.5,-474 1319.5,-474 1325.5,-474 1331.5,-480 1331.5,-486 1331.5,-486 1331.5,-534 1331.5,-534 1331.5,-540 1325.5,-546 1319.5,-546"/>
<text text-anchor="middle" x="1038" y="-503.8" font-family="Courier,monospace" font-weight="bold" font-size="24.00" fill="#000000">deployment/hostpath&#45;provisioner&#45;operator</text>
</g>
<!-- olm&#45;&gt;deployment/hostpath&#45;provisioner&#45;operator -->
<g id="edge13" class="edge">
<title>olm&#45;&gt;deployment/hostpath&#45;provisioner&#45;operator</title>
<path fill="none" stroke="#000000" d="M387.3429,-475.7098C475.4223,-480.3516 604.294,-487.1433 724.1539,-493.46"/>
<polygon fill="#000000" stroke="#000000" points="744.4673,-494.5306 724.0213,-502.4654 734.4811,-494.0042 724.495,-493.4779 724.495,-493.4779 724.495,-493.4779 734.4811,-494.0042 724.9687,-484.4904 744.4673,-494.5306 744.4673,-494.5306"/>
</g>
<!-- deployment/hyperconverged&#45;cluster&#45;cli&#45;download -->
<g id="node16" class="node">
<title>deployment/hyperconverged&#45;cluster&#45;cli&#45;download</title>
<path fill="none" stroke="#000000" d="M1362,-467C1362,-467 714,-467 714,-467 708,-467 702,-461 702,-455 702,-455 702,-407 702,-407 702,-401 708,-395 714,-395 714,-395 1362,-395 1362,-395 1368,-395 1374,-401 1374,-407 1374,-407 1374,-455 1374,-455 1374,-461 1368,-467 1362,-467"/>
<text text-anchor="middle" x="1038" y="-424.8" font-family="Courier,monospace" font-weight="bold" font-size="24.00" fill="#000000">deployment/hyperconverged&#45;cluster&#45;cli&#45;download</text>
</g>
<!-- olm&#45;&gt;deployment/hyperconverged&#45;cluster&#45;cli&#45;download -->
<g id="edge14" class="edge">
<title>olm&#45;&gt;deployment/hyperconverged&#45;cluster&#45;cli&#45;download</title>
<path fill="none" stroke="#000000" d="M387.3429,-464.433C465.0546,-460.4399 574.5206,-454.8151 681.535,-449.3164"/>
<polygon fill="#000000" stroke="#000000" points="701.8328,-448.2734 682.3211,-458.288 691.846,-448.7866 681.8592,-449.2998 681.8592,-449.2998 681.8592,-449.2998 691.846,-448.7866 681.3973,-440.3117 701.8328,-448.2734 701.8328,-448.2734"/>
</g>
<!-- deployment/node&#45;maintenance&#45;operator -->
<g id="node20" class="node">
<title>deployment/node&#45;maintenance&#45;operator</title>
<path fill="none" stroke="#000000" d="M1291,-388C1291,-388 785,-388 785,-388 779,-388 773,-382 773,-376 773,-376 773,-328 773,-328 773,-322 779,-316 785,-316 785,-316 1291,-316 1291,-316 1297,-316 1303,-322 1303,-328 1303,-328 1303,-376 1303,-376 1303,-382 1297,-388 1291,-388"/>
<text text-anchor="middle" x="1038" y="-345.8" font-family="Courier,monospace" font-weight="bold" font-size="24.00" fill="#000000">deployment/node&#45;maintenance&#45;operator</text>
</g>
<!-- olm&#45;&gt;deployment/node&#45;maintenance&#45;operator -->
<g id="edge18" class="edge">
<title>olm&#45;&gt;deployment/node&#45;maintenance&#45;operator</title>
<path fill="none" stroke="#000000" d="M387.1472,-457.4546C439.0632,-450.6791 502.0121,-441.3612 558,-430 622.8688,-416.8367 636.9785,-404.3869 702,-392 718.5768,-388.8421 735.664,-385.8892 752.9384,-383.1351"/>
<polygon fill="#000000" stroke="#000000" points="772.8916,-380.0517 754.5007,-392.0006 763.0089,-381.5789 753.1262,-383.1061 753.1262,-383.1061 753.1262,-383.1061 763.0089,-381.5789 751.7517,-374.2117 772.8916,-380.0517 772.8916,-380.0517"/>
</g>
<!-- deployment/ssp&#45;operator -->
<g id="node21" class="node">
<title>deployment/ssp&#45;operator</title>
<path fill="none" stroke="#000000" d="M1198,-309C1198,-309 878,-309 878,-309 872,-309 866,-303 866,-297 866,-297 866,-249 866,-249 866,-243 872,-237 878,-237 878,-237 1198,-237 1198,-237 1204,-237 1210,-243 1210,-249 1210,-249 1210,-297 1210,-297 1210,-303 1204,-309 1198,-309"/>
<text text-anchor="middle" x="1038" y="-266.8" font-family="Courier,monospace" font-weight="bold" font-size="24.00" fill="#000000">deployment/ssp&#45;operator</text>
</g>
<!-- olm&#45;&gt;deployment/ssp&#45;operator -->
<g id="edge19" class="edge">
<title>olm&#45;&gt;deployment/ssp&#45;operator</title>
<path fill="none" stroke="#000000" d="M387.0168,-467.9718C440.3445,-463.6641 504.5388,-453.3859 558,-430 633.55,-396.9516 626.0603,-345.1429 702,-313 746.5955,-294.1241 797.3101,-283.257 845.5791,-277.1981"/>
<polygon fill="#000000" stroke="#000000" points="865.7291,-274.9229 846.8652,-286.1102 855.7922,-276.045 845.8553,-277.167 845.8553,-277.167 845.8553,-277.167 855.7922,-276.045 844.8455,-268.2239 865.7291,-274.9229 865.7291,-274.9229"/>
</g>
<!-- deployment/tekton&#45;tasks&#45;operator -->
<g id="node22" class="node">
<title>deployment/tekton&#45;tasks&#45;operator</title>
<path fill="none" stroke="#000000" d="M1262.5,-230C1262.5,-230 813.5,-230 813.5,-230 807.5,-230 801.5,-224 801.5,-218 801.5,-218 801.5,-170 801.5,-170 801.5,-164 807.5,-158 813.5,-158 813.5,-158 1262.5,-158 1262.5,-158 1268.5,-158 1274.5,-164 1274.5,-170 1274.5,-170 1274.5,-218 1274.5,-218 1274.5,-224 1268.5,-230 1262.5,-230"/>
<text text-anchor="middle" x="1038" y="-187.8" font-family="Courier,monospace" font-weight="bold" font-size="24.00" fill="#000000">deployment/tekton&#45;tasks&#45;operator</text>
</g>
<!-- olm&#45;&gt;deployment/tekton&#45;tasks&#45;operator -->
<g id="edge20" class="edge">
<title>olm&#45;&gt;deployment/tekton&#45;tasks&#45;operator</title>
<path fill="none" stroke="#000000" d="M387.2208,-473.7649C441.8332,-471.0742 507.1046,-460.4931 558,-430 650.7255,-374.4452 608.6171,-288.4424 702,-234 726.5346,-219.6963 753.7851,-209.3685 781.8508,-202.0249"/>
<polygon fill="#000000" stroke="#000000" points="801.3878,-197.4055 783.9954,-210.7661 791.6562,-199.7066 781.9245,-202.0076 781.9245,-202.0076 781.9245,-202.0076 791.6562,-199.7066 779.8536,-193.2491 801.3878,-197.4055 801.3878,-197.4055"/>
</g>
<!-- deployment/virt&#45;operator -->
<g id="node24" class="node">
<title>deployment/virt&#45;operator</title>
<path fill="none" stroke="#000000" d="M1205.5,-151C1205.5,-151 870.5,-151 870.5,-151 864.5,-151 858.5,-145 858.5,-139 858.5,-139 858.5,-91 858.5,-91 858.5,-85 864.5,-79 870.5,-79 870.5,-79 1205.5,-79 1205.5,-79 1211.5,-79 1217.5,-85 1217.5,-91 1217.5,-91 1217.5,-139 1217.5,-139 1217.5,-145 1211.5,-151 1205.5,-151"/>
<text text-anchor="middle" x="1038" y="-108.8" font-family="Courier,monospace" font-weight="bold" font-size="24.00" fill="#000000">deployment/virt&#45;operator</text>
</g>
<!-- olm&#45;&gt;deployment/virt&#45;operator -->
<g id="edge23" class="edge">
<title>olm&#45;&gt;deployment/virt&#45;operator</title>
<path fill="none" stroke="#000000" d="M387.2144,-476.9536C442.7974,-475.2938 508.9547,-464.6751 558,-430 670.6534,-350.354 588.4026,-233.2936 702,-155 741.6608,-127.665 790.3849,-113.7369 838.2978,-107.4317"/>
<polygon fill="#000000" stroke="#000000" points="858.3908,-105.2119 839.5001,-116.3537 848.4513,-106.31 838.5118,-107.4082 838.5118,-107.4082 838.5118,-107.4082 848.4513,-106.31 837.5235,-98.4626 858.3908,-105.2119 858.3908,-105.2119"/>
</g>
<!-- deployment/kubemacpool&#45;cert&#45;manager -->
<g id="node17" class="node">
<title>deployment/kubemacpool&#45;cert&#45;manager</title>
<path fill="none" stroke="#000000" d="M2092.5,-743C2092.5,-743 1601.5,-743 1601.5,-743 1595.5,-743 1589.5,-737 1589.5,-731 1589.5,-731 1589.5,-683 1589.5,-683 1589.5,-677 1595.5,-671 1601.5,-671 1601.5,-671 2092.5,-671 2092.5,-671 2098.5,-671 2104.5,-677 2104.5,-683 2104.5,-683 2104.5,-731 2104.5,-731 2104.5,-737 2098.5,-743 2092.5,-743"/>
<text text-anchor="middle" x="1847" y="-700.8" font-family="Courier,monospace" font-weight="bold" font-size="24.00" fill="#000000">deployment/kubemacpool&#45;cert&#45;manager</text>
</g>
<!-- deployment/cluster&#45;network&#45;addons&#45;operator&#45;&gt;deployment/kubemacpool&#45;cert&#45;manager -->
<g id="edge15" class="edge">
<title>deployment/cluster&#45;network&#45;addons&#45;operator&#45;&gt;deployment/kubemacpool&#45;cert&#45;manager</title>
<path fill="none" stroke="#000000" d="M1345.5788,-682.8277C1419.085,-686.3712 1497.1285,-690.1335 1569.2024,-693.608"/>
<polygon fill="#000000" stroke="#000000" points="1589.3639,-694.58 1568.9537,-702.6064 1579.3755,-694.0984 1569.3871,-693.6168 1569.3871,-693.6168 1569.3871,-693.6168 1579.3755,-694.0984 1569.8205,-684.6273 1589.3639,-694.58 1589.3639,-694.58"/>
</g>
<!-- deployment/kubemacpool&#45;mac&#45;controller&#45;manager -->
<g id="node18" class="node">
<title>deployment/kubemacpool&#45;mac&#45;controller&#45;manager</title>
<path fill="none" stroke="#000000" d="M2164,-664C2164,-664 1530,-664 1530,-664 1524,-664 1518,-658 1518,-652 1518,-652 1518,-604 1518,-604 1518,-598 1524,-592 1530,-592 1530,-592 2164,-592 2164,-592 2170,-592 2176,-598 2176,-604 2176,-604 2176,-652 2176,-652 2176,-658 2170,-664 2164,-664"/>
<text text-anchor="middle" x="1847" y="-621.8" font-family="Courier,monospace" font-weight="bold" font-size="24.00" fill="#000000">deployment/kubemacpool&#45;mac&#45;controller&#45;manager</text>
</g>
<!-- deployment/cluster&#45;network&#45;addons&#45;operator&#45;&gt;deployment/kubemacpool&#45;mac&#45;controller&#45;manager -->
<g id="edge16" class="edge">
<title>deployment/cluster&#45;network&#45;addons&#45;operator&#45;&gt;deployment/kubemacpool&#45;mac&#45;controller&#45;manager</title>
<path fill="none" stroke="#000000" d="M1345.5788,-652.7921C1395.274,-650.335 1447.0431,-647.7754 1497.6393,-645.2737"/>
<polygon fill="#000000" stroke="#000000" points="1517.7186,-644.2809 1498.1875,-654.2577 1507.7308,-644.7748 1497.743,-645.2687 1497.743,-645.2687 1497.743,-645.2687 1507.7308,-644.7748 1497.2985,-636.2797 1517.7186,-644.2809 1517.7186,-644.2809"/>
</g>
<!-- daemonset/bridge&#45;marker -->
<g id="node27" class="node">
<title>daemonset/bridge&#45;marker</title>
<path fill="none" stroke="#000000" d="M2007,-585C2007,-585 1687,-585 1687,-585 1681,-585 1675,-579 1675,-573 1675,-573 1675,-525 1675,-525 1675,-519 1681,-513 1687,-513 1687,-513 2007,-513 2007,-513 2013,-513 2019,-519 2019,-525 2019,-525 2019,-573 2019,-573 2019,-579 2013,-585 2007,-585"/>
<text text-anchor="middle" x="1847" y="-542.8" font-family="Courier,monospace" font-weight="bold" font-size="24.00" fill="#000000">daemonset/bridge&#45;marker</text>
</g>
<!-- deployment/cluster&#45;network&#45;addons&#45;operator&#45;&gt;daemonset/bridge&#45;marker -->
<g id="edge25" class="edge">
<title>deployment/cluster&#45;network&#45;addons&#45;operator&#45;&gt;daemonset/bridge&#45;marker</title>
<path fill="none" stroke="#000000" d="M1345.8964,-633.166C1355.3861,-631.5104 1364.7726,-629.7889 1374,-628 1439.0937,-615.3806 1452.9221,-601.7006 1518,-589 1561.9295,-580.4267 1609.5389,-573.3704 1654.536,-567.7006"/>
<polygon fill="#000000" stroke="#000000" points="1674.6614,-565.2336 1655.9051,-576.6003 1664.7357,-566.4503 1654.81,-567.6671 1654.81,-567.6671 1654.81,-567.6671 1664.7357,-566.4503 1653.7148,-558.734 1674.6614,-565.2336 1674.6614,-565.2336"/>
</g>
<!-- daemonset/kube&#45;cni&#45;linux&#45;bridge&#45;plugin -->
<g id="node28" class="node">
<title>daemonset/kube&#45;cni&#45;linux&#45;bridge&#45;plugin</title>
<path fill="none" stroke="#000000" d="M2114,-506C2114,-506 1580,-506 1580,-506 1574,-506 1568,-500 1568,-494 1568,-494 1568,-446 1568,-446 1568,-440 1574,-434 1580,-434 1580,-434 2114,-434 2114,-434 2120,-434 2126,-440 2126,-446 2126,-446 2126,-494 2126,-494 2126,-500 2120,-506 2114,-506"/>
<text text-anchor="middle" x="1847" y="-463.8" font-family="Courier,monospace" font-weight="bold" font-size="24.00" fill="#000000">daemonset/kube&#45;cni&#45;linux&#45;bridge&#45;plugin</text>
</g>
<!-- deployment/cluster&#45;network&#45;addons&#45;operator&#45;&gt;daemonset/kube&#45;cni&#45;linux&#45;bridge&#45;plugin -->
<g id="edge26" class="edge">
<title>deployment/cluster&#45;network&#45;addons&#45;operator&#45;&gt;daemonset/kube&#45;cni&#45;linux&#45;bridge&#45;plugin</title>
<path fill="none" stroke="#000000" d="M1345.7253,-638.7345C1355.3614,-635.4806 1364.8114,-631.9119 1374,-628 1450.131,-595.5888 1441.9095,-542.5062 1518,-510 1527.7971,-505.8146 1537.898,-502.0255 1548.2077,-498.5971"/>
<polygon fill="#000000" stroke="#000000" points="1567.6095,-492.6255 1551.1419,-507.1107 1558.0519,-495.5672 1548.4944,-498.5089 1548.4944,-498.5089 1548.4944,-498.5089 1558.0519,-495.5672 1545.8469,-489.9071 1567.6095,-492.6255 1567.6095,-492.6255"/>
</g>
<!-- deployment/virt&#45;template&#45;validator -->
<g id="node26" class="node">
<title>deployment/virt&#45;template&#45;validator</title>
<path fill="none" stroke="#000000" d="M2085.5,-309C2085.5,-309 1608.5,-309 1608.5,-309 1602.5,-309 1596.5,-303 1596.5,-297 1596.5,-297 1596.5,-249 1596.5,-249 1596.5,-243 1602.5,-237 1608.5,-237 1608.5,-237 2085.5,-237 2085.5,-237 2091.5,-237 2097.5,-243 2097.5,-249 2097.5,-249 2097.5,-297 2097.5,-297 2097.5,-303 2091.5,-309 2085.5,-309"/>
<text text-anchor="middle" x="1847" y="-266.8" font-family="Courier,monospace" font-weight="bold" font-size="24.00" fill="#000000">deployment/virt&#45;template&#45;validator</text>
</g>
<!-- deployment/ssp&#45;operator&#45;&gt;deployment/virt&#45;template&#45;validator -->
<g id="edge24" class="edge">
<title>deployment/ssp&#45;operator&#45;&gt;deployment/virt&#45;template&#45;validator</title>
<path fill="none" stroke="#000000" d="M1210.0631,-273C1316.5247,-273 1455.5018,-273 1576.4621,-273"/>
<polygon fill="#000000" stroke="#000000" points="1596.4875,-273 1576.4876,-282.0001 1586.4875,-273 1576.4875,-273.0001 1576.4875,-273.0001 1576.4875,-273.0001 1586.4875,-273 1576.4875,-264.0001 1596.4875,-273 1596.4875,-273"/>
</g>
<!-- deployment/virt&#45;api -->
<g id="node23" class="node">
<title>deployment/virt&#45;api</title>
<path fill="none" stroke="#000000" d="M1978.5,-230C1978.5,-230 1715.5,-230 1715.5,-230 1709.5,-230 1703.5,-224 1703.5,-218 1703.5,-218 1703.5,-170 1703.5,-170 1703.5,-164 1709.5,-158 1715.5,-158 1715.5,-158 1978.5,-158 1978.5,-158 1984.5,-158 1990.5,-164 1990.5,-170 1990.5,-170 1990.5,-218 1990.5,-218 1990.5,-224 1984.5,-230 1978.5,-230"/>
<text text-anchor="middle" x="1847" y="-187.8" font-family="Courier,monospace" font-weight="bold" font-size="24.00" fill="#000000">deployment/virt&#45;api</text>
</g>
<!-- deployment/virt&#45;operator&#45;&gt;deployment/virt&#45;api -->
<g id="edge21" class="edge">
<title>deployment/virt&#45;operator&#45;&gt;deployment/virt&#45;api</title>
<path fill="none" stroke="#000000" d="M1217.5433,-132.5327C1356.828,-146.134 1548.2907,-164.8306 1683.377,-178.022"/>
<polygon fill="#000000" stroke="#000000" points="1703.3029,-179.9678 1682.5228,-186.9813 1693.3502,-178.9958 1683.3975,-178.0239 1683.3975,-178.0239 1683.3975,-178.0239 1693.3502,-178.9958 1684.2723,-169.0665 1703.3029,-179.9678 1703.3029,-179.9678"/>
</g>
<!-- deployment/virt&#45;controller -->
<g id="node25" class="node">
<title>deployment/virt&#45;controller</title>
<path fill="none" stroke="#000000" d="M2028.5,-151C2028.5,-151 1665.5,-151 1665.5,-151 1659.5,-151 1653.5,-145 1653.5,-139 1653.5,-139 1653.5,-91 1653.5,-91 1653.5,-85 1659.5,-79 1665.5,-79 1665.5,-79 2028.5,-79 2028.5,-79 2034.5,-79 2040.5,-85 2040.5,-91 2040.5,-91 2040.5,-139 2040.5,-139 2040.5,-145 2034.5,-151 2028.5,-151"/>
<text text-anchor="middle" x="1847" y="-108.8" font-family="Courier,monospace" font-weight="bold" font-size="24.00" fill="#000000">deployment/virt&#45;controller</text>
</g>
<!-- deployment/virt&#45;operator&#45;&gt;deployment/virt&#45;controller -->
<g id="edge22" class="edge">
<title>deployment/virt&#45;operator&#45;&gt;deployment/virt&#45;controller</title>
<path fill="none" stroke="#000000" d="M1217.5433,-115C1340.3976,-115 1503.8459,-115 1633.3963,-115"/>
<polygon fill="#000000" stroke="#000000" points="1653.4774,-115 1633.4775,-124.0001 1643.4774,-115 1633.4774,-115.0001 1633.4774,-115.0001 1633.4774,-115.0001 1643.4774,-115 1633.4774,-106.0001 1653.4774,-115 1653.4774,-115"/>
</g>
<!-- daemonset/virt&#45;handler -->
<g id="node29" class="node">
<title>daemonset/virt&#45;handler</title>
<path fill="none" stroke="#000000" d="M2000,-72C2000,-72 1694,-72 1694,-72 1688,-72 1682,-66 1682,-60 1682,-60 1682,-12 1682,-12 1682,-6 1688,0 1694,0 1694,0 2000,0 2000,0 2006,0 2012,-6 2012,-12 2012,-12 2012,-60 2012,-60 2012,-66 2006,-72 2000,-72"/>
<text text-anchor="middle" x="1847" y="-29.8" font-family="Courier,monospace" font-weight="bold" font-size="24.00" fill="#000000">daemonset/virt&#45;handler</text>
</g>
<!-- deployment/virt&#45;operator&#45;&gt;daemonset/virt&#45;handler -->
<g id="edge27" class="edge">
<title>deployment/virt&#45;operator&#45;&gt;daemonset/virt&#45;handler</title>
<path fill="none" stroke="#000000" d="M1217.5433,-97.4673C1349.49,-84.5826 1528.2619,-67.1252 1661.5732,-54.1072"/>
<polygon fill="#000000" stroke="#000000" points="1681.7318,-52.1387 1662.7012,-63.0399 1671.7791,-53.1106 1661.8264,-54.0826 1661.8264,-54.0826 1661.8264,-54.0826 1671.7791,-53.1106 1660.9517,-45.1252 1681.7318,-52.1387 1681.7318,-52.1387"/>
</g>
</g>
</svg>
